<?xml version="1.0" encoding="UTF-8" standalone="no"?>
<!DOCTYPE svg PUBLIC "-//W3C//DTD SVG 1.1//EN"
 "http://www.w3.org/Graphics/SVG/1.1/DTD/svg11.dtd">
<!-- Generated by graphviz version 2.43.0 (0)
 -->
<!-- Title: Factory.H Pages: 1 -->
<svg width="3287pt" height="308pt"
 viewBox="0.00 0.00 3286.50 308.00" xmlns="http://www.w3.org/2000/svg" xmlns:xlink="http://www.w3.org/1999/xlink">
<g id="graph0" class="graph" transform="scale(1 1) rotate(0) translate(4 304)">
<title>Factory.H</title>
<polygon fill="white" stroke="transparent" points="-4,4 -4,-304 3282.5,-304 3282.5,4 -4,4"/>
<!-- Node1 -->
<g id="node1" class="node">
<title>Node1</title>
<g id="a_node1"><a xlink:title=" ">
<polygon fill="#bfbfbf" stroke="black" points="2133,-280.5 2133,-299.5 2194,-299.5 2194,-280.5 2133,-280.5"/>
<text text-anchor="middle" x="2163.5" y="-287.5" font-family="Helvetica,sans-Serif" font-size="10.00">Factory.H</text>
</a>
</g>
</g>
<!-- Node2 -->
<g id="node2" class="node">
<title>Node2</title>
<g id="a_node2"><a xlink:href="_p_d_e_base_8_h.html" target="_top" xlink:title=" ">
<polygon fill="white" stroke="black" points="2083,-224.5 2083,-243.5 2154,-243.5 2154,-224.5 2083,-224.5"/>
<text text-anchor="middle" x="2118.5" y="-231.5" font-family="Helvetica,sans-Serif" font-size="10.00">PDEBase.H</text>
</a>
</g>
</g>
<!-- Node1&#45;&gt;Node2 -->
<g id="edge1" class="edge">
<title>Node1&#45;&gt;Node2</title>
<path fill="none" stroke="midnightblue" d="M2149.45,-272.14C2141.61,-262.74 2132.17,-251.4 2125.79,-243.75"/>
<polygon fill="midnightblue" stroke="midnightblue" points="2146.98,-274.64 2156.07,-280.08 2152.36,-270.16 2146.98,-274.64"/>
</g>
<!-- Node62 -->
<g id="node5" class="node">
<title>Node62</title>
<g id="a_node5"><a xlink:href="_a_b_l_stats_base_8_h.html" target="_top" xlink:title=" ">
<polygon fill="white" stroke="red" points="238,-112.5 238,-131.5 333,-131.5 333,-112.5 238,-112.5"/>
<text text-anchor="middle" x="285.5" y="-119.5" font-family="Helvetica,sans-Serif" font-size="10.00">ABLStatsBase.H</text>
</a>
</g>
</g>
<!-- Node1&#45;&gt;Node62 -->
<g id="edge60" class="edge">
<title>Node1&#45;&gt;Node62</title>
<path fill="none" stroke="midnightblue" d="M2122.41,-288.51C1844.96,-285.01 254.55,-261.77 186.5,-188 162.94,-162.46 213.63,-142.31 250.81,-131.57"/>
<polygon fill="midnightblue" stroke="midnightblue" points="2122.77,-292.02 2132.82,-288.64 2122.86,-285.02 2122.77,-292.02"/>
</g>
<!-- Node124 -->
<g id="node16" class="node">
<title>Node124</title>
<g id="a_node16"><a xlink:href="_derived_quantity_8_h.html" target="_top" xlink:title=" ">
<polygon fill="white" stroke="red" points="1628.5,-112.5 1628.5,-131.5 1734.5,-131.5 1734.5,-112.5 1628.5,-112.5"/>
<text text-anchor="middle" x="1681.5" y="-119.5" font-family="Helvetica,sans-Serif" font-size="10.00">DerivedQuantity.H</text>
</a>
</g>
</g>
<!-- Node1&#45;&gt;Node124 -->
<g id="edge71" class="edge">
<title>Node1&#45;&gt;Node124</title>
<path fill="none" stroke="midnightblue" d="M2122.66,-286.74C2043.06,-281.84 1870.27,-268.65 1816.5,-244 1801.26,-237.02 1717.92,-157.89 1690.36,-131.5"/>
<polygon fill="midnightblue" stroke="midnightblue" points="2122.6,-290.24 2132.79,-287.35 2123.02,-283.25 2122.6,-290.24"/>
</g>
<!-- Node162 -->
<g id="node22" class="node">
<title>Node162</title>
<g id="a_node22"><a xlink:href="_physics_8_h.html" target="_top" xlink:title=" ">
<polygon fill="white" stroke="red" points="888.5,-224.5 888.5,-243.5 952.5,-243.5 952.5,-224.5 888.5,-224.5"/>
<text text-anchor="middle" x="920.5" y="-231.5" font-family="Helvetica,sans-Serif" font-size="10.00">Physics.H</text>
</a>
</g>
</g>
<!-- Node1&#45;&gt;Node162 -->
<g id="edge27" class="edge">
<title>Node1&#45;&gt;Node162</title>
<path fill="none" stroke="midnightblue" d="M2122.57,-287.22C1930.92,-278.9 1124.28,-243.85 952.68,-236.4"/>
<polygon fill="midnightblue" stroke="midnightblue" points="2122.63,-290.73 2132.77,-287.67 2122.94,-283.73 2122.63,-290.73"/>
</g>
<!-- Node178 -->
<g id="node35" class="node">
<title>Node178</title>
<g id="a_node35"><a xlink:href="_turbulence_model_8_h.html" target="_top" xlink:title=" ">
<polygon fill="white" stroke="red" points="1954.5,-224.5 1954.5,-243.5 2064.5,-243.5 2064.5,-224.5 1954.5,-224.5"/>
<text text-anchor="middle" x="2009.5" y="-231.5" font-family="Helvetica,sans-Serif" font-size="10.00">TurbulenceModel.H</text>
</a>
</g>
</g>
<!-- Node1&#45;&gt;Node178 -->
<g id="edge49" class="edge">
<title>Node1&#45;&gt;Node178</title>
<path fill="none" stroke="midnightblue" d="M2129.39,-277.04C2100.41,-266.88 2059.54,-252.55 2033.79,-243.52"/>
<polygon fill="midnightblue" stroke="midnightblue" points="2128.5,-280.44 2139.1,-280.44 2130.82,-273.83 2128.5,-280.44"/>
</g>
<!-- Node179 -->
<g id="node36" class="node">
<title>Node179</title>
<g id="a_node36"><a xlink:href="_post_processing_8_h.html" target="_top" xlink:title=" ">
<polygon fill="white" stroke="red" points="1835,-224.5 1835,-243.5 1936,-243.5 1936,-224.5 1835,-224.5"/>
<text text-anchor="middle" x="1885.5" y="-231.5" font-family="Helvetica,sans-Serif" font-size="10.00">PostProcessing.H</text>
</a>
</g>
</g>
<!-- Node1&#45;&gt;Node179 -->
<g id="edge51" class="edge">
<title>Node1&#45;&gt;Node179</title>
<path fill="none" stroke="midnightblue" d="M2122.83,-281.1C2071.19,-271.07 1982.42,-253.83 1929.32,-243.51"/>
<polygon fill="midnightblue" stroke="midnightblue" points="2122.47,-284.6 2132.95,-283.07 2123.8,-277.72 2122.47,-284.6"/>
</g>
<!-- Node180 -->
<g id="node37" class="node">
<title>Node180</title>
<g id="a_node37"><a xlink:href="_time_averaging_8_h.html" target="_top" xlink:title=" ">
<polygon fill="white" stroke="red" points="1797,-168.5 1797,-187.5 1898,-187.5 1898,-168.5 1797,-168.5"/>
<text text-anchor="middle" x="1847.5" y="-175.5" font-family="Helvetica,sans-Serif" font-size="10.00">TimeAveraging.H</text>
</a>
</g>
</g>
<!-- Node1&#45;&gt;Node180 -->
<g id="edge70" class="edge">
<title>Node1&#45;&gt;Node180</title>
<path fill="none" stroke="midnightblue" d="M2122.59,-286.53C2036.89,-280.94 1844.83,-266.07 1825.5,-244 1811.06,-227.51 1828.74,-201.14 1839.83,-187.62"/>
<polygon fill="midnightblue" stroke="midnightblue" points="2122.53,-290.04 2132.73,-287.18 2122.98,-283.05 2122.53,-290.04"/>
</g>
<!-- Node183 -->
<g id="node38" class="node">
<title>Node183</title>
<g id="a_node38"><a xlink:href="_overset_manager_8_h.html" target="_top" xlink:title=" ">
<polygon fill="white" stroke="red" points="0,-56.5 0,-75.5 107,-75.5 107,-56.5 0,-56.5"/>
<text text-anchor="middle" x="53.5" y="-63.5" font-family="Helvetica,sans-Serif" font-size="10.00">OversetManager.H</text>
</a>
</g>
</g>
<!-- Node1&#45;&gt;Node183 -->
<g id="edge55" class="edge">
<title>Node1&#45;&gt;Node183</title>
<path fill="none" stroke="midnightblue" d="M2122.52,-288.99C1849.16,-288.81 298.22,-285.94 208.5,-244 128.57,-206.64 73.18,-106.32 57.82,-75.88"/>
<polygon fill="midnightblue" stroke="midnightblue" points="2122.78,-292.49 2132.78,-289 2122.78,-285.49 2122.78,-292.49"/>
</g>
<!-- Node185 -->
<g id="node39" class="node">
<title>Node185</title>
<g id="a_node39"><a xlink:href="_ext_solver_8_h.html" target="_top" xlink:title=" ">
<polygon fill="white" stroke="red" points="2172,-224.5 2172,-243.5 2245,-243.5 2245,-224.5 2172,-224.5"/>
<text text-anchor="middle" x="2208.5" y="-231.5" font-family="Helvetica,sans-Serif" font-size="10.00">ExtSolver.H</text>
</a>
</g>
</g>
<!-- Node1&#45;&gt;Node185 -->
<g id="edge57" class="edge">
<title>Node1&#45;&gt;Node185</title>
<path fill="none" stroke="midnightblue" d="M2177.55,-272.14C2185.39,-262.74 2194.83,-251.4 2201.21,-243.75"/>
<polygon fill="midnightblue" stroke="midnightblue" points="2174.64,-270.16 2170.93,-280.08 2180.02,-274.64 2174.64,-270.16"/>
</g>
<!-- Node188 -->
<g id="node40" class="node">
<title>Node188</title>
<g id="a_node40"><a xlink:href="_density_source_8_h.html" target="_top" xlink:title=" ">
<polygon fill="white" stroke="red" points="2263.5,-224.5 2263.5,-243.5 2361.5,-243.5 2361.5,-224.5 2263.5,-224.5"/>
<text text-anchor="middle" x="2312.5" y="-231.5" font-family="Helvetica,sans-Serif" font-size="10.00">DensitySource.H</text>
</a>
</g>
</g>
<!-- Node1&#45;&gt;Node188 -->
<g id="edge58" class="edge">
<title>Node1&#45;&gt;Node188</title>
<path fill="none" stroke="midnightblue" d="M2196.87,-276.91C2224.88,-266.75 2264.2,-252.51 2289,-243.52"/>
<polygon fill="midnightblue" stroke="midnightblue" points="2195.32,-273.75 2187.11,-280.44 2197.7,-280.33 2195.32,-273.75"/>
</g>
<!-- Node189 -->
<g id="node41" class="node">
<title>Node189</title>
<g id="a_node41"><a xlink:href="_momentum_source_8_h.html" target="_top" xlink:title=" ">
<polygon fill="white" stroke="red" points="2379.5,-224.5 2379.5,-243.5 2495.5,-243.5 2495.5,-224.5 2379.5,-224.5"/>
<text text-anchor="middle" x="2437.5" y="-231.5" font-family="Helvetica,sans-Serif" font-size="10.00">MomentumSource.H</text>
</a>
</g>
</g>
<!-- Node1&#45;&gt;Node189 -->
<g id="edge59" class="edge">
<title>Node1&#45;&gt;Node189</title>
<path fill="none" stroke="midnightblue" d="M2204.12,-281C2255,-270.97 2341.84,-253.85 2394.03,-243.57"/>
<polygon fill="midnightblue" stroke="midnightblue" points="2203.27,-277.6 2194.13,-282.96 2204.62,-284.46 2203.27,-277.6"/>
</g>
<!-- Node200 -->
<g id="node42" class="node">
<title>Node200</title>
<g id="a_node42"><a xlink:href="_source_term_8_h.html" target="_top" xlink:title=" ">
<polygon fill="white" stroke="red" points="2513.5,-224.5 2513.5,-243.5 2597.5,-243.5 2597.5,-224.5 2513.5,-224.5"/>
<text text-anchor="middle" x="2555.5" y="-231.5" font-family="Helvetica,sans-Serif" font-size="10.00">SourceTerm.H</text>
</a>
</g>
</g>
<!-- Node1&#45;&gt;Node200 -->
<g id="edge61" class="edge">
<title>Node1&#45;&gt;Node200</title>
<path fill="none" stroke="midnightblue" d="M2204.21,-284.21C2268.24,-276.54 2396.32,-260.67 2504.5,-244 2507.43,-243.55 2510.46,-243.06 2513.5,-242.56"/>
<polygon fill="midnightblue" stroke="midnightblue" points="2203.65,-280.75 2194.13,-285.41 2204.47,-287.7 2203.65,-280.75"/>
</g>
<!-- Node201 -->
<g id="node43" class="node">
<title>Node201</title>
<g id="a_node43"><a xlink:href="_s_d_r_source_8_h.html" target="_top" xlink:title=" ">
<polygon fill="white" stroke="red" points="2615.5,-224.5 2615.5,-243.5 2695.5,-243.5 2695.5,-224.5 2615.5,-224.5"/>
<text text-anchor="middle" x="2655.5" y="-231.5" font-family="Helvetica,sans-Serif" font-size="10.00">SDRSource.H</text>
</a>
</g>
</g>
<!-- Node1&#45;&gt;Node201 -->
<g id="edge62" class="edge">
<title>Node1&#45;&gt;Node201</title>
<path fill="none" stroke="midnightblue" d="M2204.62,-285.93C2283.02,-279.84 2459.21,-264.97 2606.5,-244 2609.41,-243.59 2612.41,-243.12 2615.43,-242.63"/>
<polygon fill="midnightblue" stroke="midnightblue" points="2203.92,-282.48 2194.22,-286.74 2204.46,-289.46 2203.92,-282.48"/>
</g>
<!-- Node203 -->
<g id="node44" class="node">
<title>Node203</title>
<g id="a_node44"><a xlink:href="_temperature_source_8_h.html" target="_top" xlink:title=" ">
<polygon fill="white" stroke="red" points="2713.5,-224.5 2713.5,-243.5 2835.5,-243.5 2835.5,-224.5 2713.5,-224.5"/>
<text text-anchor="middle" x="2774.5" y="-231.5" font-family="Helvetica,sans-Serif" font-size="10.00">TemperatureSource.H</text>
</a>
</g>
</g>
<!-- Node1&#45;&gt;Node203 -->
<g id="edge63" class="edge">
<title>Node1&#45;&gt;Node203</title>
<path fill="none" stroke="midnightblue" d="M2204.12,-286.25C2294.28,-280 2517.88,-263.75 2704.5,-244 2707.42,-243.69 2710.42,-243.36 2713.44,-243.02"/>
<polygon fill="midnightblue" stroke="midnightblue" points="2203.79,-282.76 2194.05,-286.94 2204.27,-289.75 2203.79,-282.76"/>
</g>
<!-- Node204 -->
<g id="node45" class="node">
<title>Node204</title>
<g id="a_node45"><a xlink:href="_t_k_e_source_8_h.html" target="_top" xlink:title=" ">
<polygon fill="white" stroke="red" points="2854,-224.5 2854,-243.5 2933,-243.5 2933,-224.5 2854,-224.5"/>
<text text-anchor="middle" x="2893.5" y="-231.5" font-family="Helvetica,sans-Serif" font-size="10.00">TKESource.H</text>
</a>
</g>
</g>
<!-- Node1&#45;&gt;Node204 -->
<g id="edge64" class="edge">
<title>Node1&#45;&gt;Node204</title>
<path fill="none" stroke="midnightblue" d="M2204.42,-287.95C2310.5,-284.86 2602.94,-274.06 2844.5,-244 2847.59,-243.62 2850.78,-243.16 2853.98,-242.66"/>
<polygon fill="midnightblue" stroke="midnightblue" points="2204.06,-284.45 2194.16,-288.24 2204.26,-291.45 2204.06,-284.45"/>
</g>
<!-- Node208 -->
<g id="node46" class="node">
<title>Node208</title>
<g id="a_node46"><a xlink:href="_refinement_criteria_8_h.html" target="_top" xlink:title=" ">
<polygon fill="white" stroke="red" points="125,-56.5 125,-75.5 244,-75.5 244,-56.5 125,-56.5"/>
<text text-anchor="middle" x="184.5" y="-63.5" font-family="Helvetica,sans-Serif" font-size="10.00">RefinementCriteria.H</text>
</a>
</g>
</g>
<!-- Node1&#45;&gt;Node208 -->
<g id="edge65" class="edge">
<title>Node1&#45;&gt;Node208</title>
<path fill="none" stroke="midnightblue" d="M2122.67,-288.62C1871.64,-286.19 542.36,-272.1 363.5,-244 276.53,-230.34 226.22,-258.5 173.5,-188 147.73,-153.54 170.02,-97.16 180.13,-75.68"/>
<polygon fill="midnightblue" stroke="midnightblue" points="2122.78,-292.12 2132.81,-288.72 2122.85,-285.12 2122.78,-292.12"/>
</g>
<!-- Node223 -->
<g id="node47" class="node">
<title>Node223</title>
<g id="a_node47"><a xlink:href="_u_d_f_8_h.html" target="_top" xlink:title=" ">
<polygon fill="white" stroke="red" points="1623,-224.5 1623,-243.5 1670,-243.5 1670,-224.5 1623,-224.5"/>
<text text-anchor="middle" x="1646.5" y="-231.5" font-family="Helvetica,sans-Serif" font-size="10.00">UDF.H</text>
</a>
</g>
</g>
<!-- Node1&#45;&gt;Node223 -->
<g id="edge67" class="edge">
<title>Node1&#45;&gt;Node223</title>
<path fill="none" stroke="midnightblue" d="M2122.69,-284.74C2019.6,-273.97 1751.17,-245.93 1670.06,-237.46"/>
<polygon fill="midnightblue" stroke="midnightblue" points="2122.4,-288.23 2132.71,-285.78 2123.13,-281.26 2122.4,-288.23"/>
</g>
<!-- Node225 -->
<g id="node48" class="node">
<title>Node225</title>
<g id="a_node48"><a xlink:href="_transport_model_8_h.html" target="_top" xlink:title=" ">
<polygon fill="white" stroke="red" points="2950.5,-224.5 2950.5,-243.5 3052.5,-243.5 3052.5,-224.5 2950.5,-224.5"/>
<text text-anchor="middle" x="3001.5" y="-231.5" font-family="Helvetica,sans-Serif" font-size="10.00">TransportModel.H</text>
</a>
</g>
</g>
<!-- Node1&#45;&gt;Node225 -->
<g id="edge69" class="edge">
<title>Node1&#45;&gt;Node225</title>
<path fill="none" stroke="midnightblue" d="M2204.2,-287.99C2319.97,-284.84 2660.95,-273.54 2942.5,-244 2945.08,-243.73 2947.71,-243.43 2950.37,-243.1"/>
<polygon fill="midnightblue" stroke="midnightblue" points="2203.92,-284.5 2194.02,-288.26 2204.11,-291.5 2203.92,-284.5"/>
</g>
<!-- Node227 -->
<g id="node49" class="node">
<title>Node227</title>
<g id="a_node49"><a xlink:href="_sampler_base_8_h.html" target="_top" xlink:title=" ">
<polygon fill="white" stroke="red" points="3070.5,-224.5 3070.5,-243.5 3162.5,-243.5 3162.5,-224.5 3070.5,-224.5"/>
<text text-anchor="middle" x="3116.5" y="-231.5" font-family="Helvetica,sans-Serif" font-size="10.00">SamplerBase.H</text>
</a>
</g>
</g>
<!-- Node1&#45;&gt;Node227 -->
<g id="edge72" class="edge">
<title>Node1&#45;&gt;Node227</title>
<path fill="none" stroke="midnightblue" d="M2204.29,-288.58C2331.48,-286.93 2732,-279.1 3061.5,-244 3064.39,-243.69 3067.35,-243.33 3070.34,-242.94"/>
<polygon fill="midnightblue" stroke="midnightblue" points="2204.18,-285.08 2194.22,-288.71 2204.26,-292.08 2204.18,-285.08"/>
</g>
<!-- Node150 -->
<g id="node50" class="node">
<title>Node150</title>
<g id="a_node50"><a xlink:href="_actuator_model_8_h.html" target="_top" xlink:title=" ">
<polygon fill="white" stroke="red" points="3180.5,-224.5 3180.5,-243.5 3278.5,-243.5 3278.5,-224.5 3180.5,-224.5"/>
<text text-anchor="middle" x="3229.5" y="-231.5" font-family="Helvetica,sans-Serif" font-size="10.00">ActuatorModel.H</text>
</a>
</g>
</g>
<!-- Node1&#45;&gt;Node150 -->
<g id="edge73" class="edge">
<title>Node1&#45;&gt;Node150</title>
<path fill="none" stroke="midnightblue" d="M2204.13,-288.78C2340.89,-287.69 2796.9,-281.31 3171.5,-244 3174.34,-243.72 3177.25,-243.39 3180.19,-243.03"/>
<polygon fill="midnightblue" stroke="midnightblue" points="2204.08,-285.28 2194.1,-288.85 2204.13,-292.28 2204.08,-285.28"/>
</g>
<!-- Node3 -->
<g id="node3" class="node">
<title>Node3</title>
<g id="a_node3"><a xlink:href="_c_f_d_sim_8_h.html" target="_top" xlink:title=" ">
<polygon fill="white" stroke="red" points="1636.5,-168.5 1636.5,-187.5 1702.5,-187.5 1702.5,-168.5 1636.5,-168.5"/>
<text text-anchor="middle" x="1669.5" y="-175.5" font-family="Helvetica,sans-Serif" font-size="10.00">CFDSim.H</text>
</a>
</g>
</g>
<!-- Node2&#45;&gt;Node3 -->
<g id="edge2" class="edge">
<title>Node2&#45;&gt;Node3</title>
<path fill="none" stroke="midnightblue" d="M2072.38,-223.95C1928.8,-202 1770.15,-187.45 1702.62,-181.71"/>
<polygon fill="midnightblue" stroke="midnightblue" points="2072.27,-227.48 2082.69,-225.55 2073.34,-220.56 2072.27,-227.48"/>
</g>
<!-- Node35 -->
<g id="node4" class="node">
<title>Node35</title>
<g id="a_node4"><a xlink:href="_p_d_e_8_h.html" target="_top" xlink:title=" ">
<polygon fill="white" stroke="red" points="1753,-112.5 1753,-131.5 1800,-131.5 1800,-112.5 1753,-112.5"/>
<text text-anchor="middle" x="1776.5" y="-119.5" font-family="Helvetica,sans-Serif" font-size="10.00">PDE.H</text>
</a>
</g>
</g>
<!-- Node2&#45;&gt;Node35 -->
<g id="edge16" class="edge">
<title>Node2&#45;&gt;Node35</title>
<path fill="none" stroke="midnightblue" d="M2110.93,-214.67C2103.67,-199.54 2091.18,-178.85 2073.5,-168 1972.57,-106.06 1925.54,-155.63 1809.5,-132 1806.47,-131.38 1803.32,-130.65 1800.2,-129.86"/>
<polygon fill="midnightblue" stroke="midnightblue" points="2107.86,-216.37 2115.13,-224.07 2114.25,-213.51 2107.86,-216.37"/>
</g>
<!-- Node7 -->
<g id="node7" class="node">
<title>Node7</title>
<g id="a_node7"><a xlink:href="incflo_8cpp.html" target="_top" xlink:title=" ">
<polygon fill="white" stroke="black" points="254,-0.5 254,-19.5 317,-19.5 317,-0.5 254,-0.5"/>
<text text-anchor="middle" x="285.5" y="-7.5" font-family="Helvetica,sans-Serif" font-size="10.00">incflo.cpp</text>
</a>
</g>
</g>
<!-- Node2&#45;&gt;Node7 -->
<g id="edge18" class="edge">
<title>Node2&#45;&gt;Node7</title>
<path fill="none" stroke="midnightblue" d="M2164.47,-224.05C2248.81,-214.98 2435.87,-239.07 2481.5,-188 2487.42,-181.37 2485.2,-176.08 2481.5,-168 2343.68,132.66 2640.35,-109.63 1592.5,-56 1084.02,-29.98 463.47,-15.01 317.36,-11.7"/>
<polygon fill="midnightblue" stroke="midnightblue" points="2163.93,-220.59 2154.47,-225.37 2164.84,-227.53 2163.93,-220.59"/>
</g>
<!-- Node85 -->
<g id="node8" class="node">
<title>Node85</title>
<g id="a_node8"><a xlink:href="_p_d_e_base_8cpp.html" target="_top" xlink:title=" ">
<polygon fill="white" stroke="black" points="1818.5,-112.5 1818.5,-131.5 1898.5,-131.5 1898.5,-112.5 1818.5,-112.5"/>
<text text-anchor="middle" x="1858.5" y="-119.5" font-family="Helvetica,sans-Serif" font-size="10.00">PDEBase.cpp</text>
</a>
</g>
</g>
<!-- Node2&#45;&gt;Node85 -->
<g id="edge17" class="edge">
<title>Node2&#45;&gt;Node85</title>
<path fill="none" stroke="midnightblue" d="M2120.32,-214.09C2120.62,-199.51 2118.43,-179.89 2106.5,-168 2077.83,-139.42 1961.09,-128.65 1898.53,-124.87"/>
<polygon fill="midnightblue" stroke="midnightblue" points="2116.81,-214.26 2119.69,-224.46 2123.79,-214.69 2116.81,-214.26"/>
</g>
<!-- Node89 -->
<g id="node9" class="node">
<title>Node89</title>
<g id="a_node9"><a xlink:href="_tioga_interface_8cpp.html" target="_top" xlink:title=" ">
<polygon fill="white" stroke="black" points="1994,-112.5 1994,-131.5 2101,-131.5 2101,-112.5 1994,-112.5"/>
<text text-anchor="middle" x="2047.5" y="-119.5" font-family="Helvetica,sans-Serif" font-size="10.00">TiogaInterface.cpp</text>
</a>
</g>
</g>
<!-- Node2&#45;&gt;Node89 -->
<g id="edge20" class="edge">
<title>Node2&#45;&gt;Node89</title>
<path fill="none" stroke="midnightblue" d="M2133.72,-216.06C2144.02,-202.43 2154.16,-183.13 2144.5,-168 2132.41,-149.07 2110.08,-137.98 2089.89,-131.55"/>
<polygon fill="midnightblue" stroke="midnightblue" points="2130.76,-214.14 2127.13,-224.09 2136.18,-218.58 2130.76,-214.14"/>
</g>
<!-- Node8 -->
<g id="node17" class="node">
<title>Node8</title>
<g id="a_node17"><a xlink:href="incflo__advance_8cpp.html" target="_top" xlink:title=" ">
<polygon fill="white" stroke="black" points="1954.5,-168.5 1954.5,-187.5 2064.5,-187.5 2064.5,-168.5 1954.5,-168.5"/>
<text text-anchor="middle" x="2009.5" y="-175.5" font-family="Helvetica,sans-Serif" font-size="10.00">incflo_advance.cpp</text>
</a>
</g>
</g>
<!-- Node2&#45;&gt;Node8 -->
<g id="edge19" class="edge">
<title>Node2&#45;&gt;Node8</title>
<path fill="none" stroke="midnightblue" d="M2091.98,-219.86C2071.77,-209.85 2044.51,-196.35 2026.97,-187.65"/>
<polygon fill="midnightblue" stroke="midnightblue" points="2090.47,-223.02 2100.99,-224.32 2093.58,-216.75 2090.47,-223.02"/>
</g>
<!-- Node51 -->
<g id="node18" class="node">
<title>Node51</title>
<g id="a_node18"><a xlink:href="_one_eq_ksgs_8cpp.html" target="_top" xlink:title=" ">
<polygon fill="white" stroke="black" points="2380.5,-168.5 2380.5,-187.5 2472.5,-187.5 2472.5,-168.5 2380.5,-168.5"/>
<text text-anchor="middle" x="2426.5" y="-175.5" font-family="Helvetica,sans-Serif" font-size="10.00">OneEqKsgs.cpp</text>
</a>
</g>
</g>
<!-- Node2&#45;&gt;Node51 -->
<g id="edge21" class="edge">
<title>Node2&#45;&gt;Node51</title>
<path fill="none" stroke="midnightblue" d="M2163.95,-223.77C2245.47,-208.59 2329.44,-194.66 2380.16,-186.42"/>
<polygon fill="midnightblue" stroke="midnightblue" points="2163.21,-220.35 2154.02,-225.63 2164.49,-227.23 2163.21,-220.35"/>
</g>
<!-- Node45 -->
<g id="node19" class="node">
<title>Node45</title>
<g id="a_node19"><a xlink:href="_k_omega_s_s_t_i_8_h.html" target="_top" xlink:title=" ">
<polygon fill="white" stroke="black" points="2235,-168.5 2235,-187.5 2324,-187.5 2324,-168.5 2235,-168.5"/>
<text text-anchor="middle" x="2279.5" y="-175.5" font-family="Helvetica,sans-Serif" font-size="10.00">KOmegaSSTI.H</text>
</a>
</g>
</g>
<!-- Node2&#45;&gt;Node45 -->
<g id="edge22" class="edge">
<title>Node2&#45;&gt;Node45</title>
<path fill="none" stroke="midnightblue" d="M2153.76,-221.17C2184.08,-211 2227.07,-196.59 2254.11,-187.52"/>
<polygon fill="midnightblue" stroke="midnightblue" points="2152.38,-217.95 2144.01,-224.44 2154.6,-224.58 2152.38,-217.95"/>
</g>
<!-- Node46 -->
<g id="node20" class="node">
<title>Node46</title>
<g id="a_node20"><a xlink:href="_k_omega_s_s_t_8cpp.html" target="_top" xlink:title=" ">
<polygon fill="white" stroke="black" points="2163,-112.5 2163,-131.5 2258,-131.5 2258,-112.5 2163,-112.5"/>
<text text-anchor="middle" x="2210.5" y="-119.5" font-family="Helvetica,sans-Serif" font-size="10.00">KOmegaSST.cpp</text>
</a>
</g>
</g>
<!-- Node2&#45;&gt;Node46 -->
<g id="edge25" class="edge">
<title>Node2&#45;&gt;Node46</title>
<path fill="none" stroke="midnightblue" d="M2134.19,-216.94C2142.26,-208.5 2152.12,-197.88 2160.5,-188 2177.07,-168.45 2195.06,-144.26 2204.28,-131.62"/>
<polygon fill="midnightblue" stroke="midnightblue" points="2131.55,-214.64 2127.12,-224.26 2136.59,-219.5 2131.55,-214.64"/>
</g>
<!-- Node47 -->
<g id="node21" class="node">
<title>Node47</title>
<g id="a_node21"><a xlink:href="_k_omega_s_s_t_i_d_d_e_s_8cpp.html" target="_top" xlink:title=" ">
<polygon fill="white" stroke="black" points="2281.5,-112.5 2281.5,-131.5 2407.5,-131.5 2407.5,-112.5 2281.5,-112.5"/>
<text text-anchor="middle" x="2344.5" y="-119.5" font-family="Helvetica,sans-Serif" font-size="10.00">KOmegaSSTIDDES.cpp</text>
</a>
</g>
</g>
<!-- Node2&#45;&gt;Node47 -->
<g id="edge26" class="edge">
<title>Node2&#45;&gt;Node47</title>
<path fill="none" stroke="midnightblue" d="M2164.42,-223.55C2227.35,-210.59 2332.76,-188.77 2333.5,-188 2348.1,-172.82 2347.4,-145.88 2345.84,-131.93"/>
<polygon fill="midnightblue" stroke="midnightblue" points="2163.42,-220.19 2154.33,-225.63 2164.83,-227.04 2163.42,-220.19"/>
</g>
<!-- Node3&#45;&gt;Node35 -->
<g id="edge3" class="edge">
<title>Node3&#45;&gt;Node35</title>
<path fill="none" stroke="midnightblue" d="M1695.8,-163.73C1715.61,-153.73 1742.21,-140.31 1759.35,-131.65"/>
<polygon fill="midnightblue" stroke="midnightblue" points="1694.04,-160.69 1686.69,-168.32 1697.2,-166.94 1694.04,-160.69"/>
</g>
<!-- Node3&#45;&gt;Node62 -->
<g id="edge4" class="edge">
<title>Node3&#45;&gt;Node62</title>
<path fill="none" stroke="midnightblue" d="M1626.3,-168.26C1065.31,-102.88 917.98,-173.81 359.5,-132 350.98,-131.36 341.94,-130.46 333.2,-129.46"/>
<polygon fill="midnightblue" stroke="midnightblue" points="1625.92,-171.74 1636.26,-169.43 1626.74,-164.79 1625.92,-171.74"/>
</g>
<!-- Node3&#45;&gt;Node85 -->
<g id="edge7" class="edge">
<title>Node3&#45;&gt;Node85</title>
<path fill="none" stroke="midnightblue" d="M1709.51,-165.57C1745.17,-155.38 1796.54,-140.7 1828.69,-131.52"/>
<polygon fill="midnightblue" stroke="midnightblue" points="1708.1,-162.33 1699.45,-168.44 1710.02,-169.06 1708.1,-162.33"/>
</g>
<!-- Node3&#45;&gt;Node89 -->
<g id="edge8" class="edge">
<title>Node3&#45;&gt;Node89</title>
<path fill="none" stroke="midnightblue" d="M1712.87,-170.8C1782.33,-160.88 1918.36,-141.45 1993.84,-130.67"/>
<polygon fill="midnightblue" stroke="midnightblue" points="1712.12,-167.38 1702.71,-172.26 1713.11,-174.31 1712.12,-167.38"/>
</g>
<!-- Node90 -->
<g id="node10" class="node">
<title>Node90</title>
<g id="a_node10"><a xlink:href="_channel_flow_8_h.html" target="_top" xlink:title=" ">
<polygon fill="white" stroke="red" points="1343,-112.5 1343,-131.5 1432,-131.5 1432,-112.5 1343,-112.5"/>
<text text-anchor="middle" x="1387.5" y="-119.5" font-family="Helvetica,sans-Serif" font-size="10.00">ChannelFlow.H</text>
</a>
</g>
</g>
<!-- Node3&#45;&gt;Node90 -->
<g id="edge9" class="edge">
<title>Node3&#45;&gt;Node90</title>
<path fill="none" stroke="midnightblue" d="M1626.2,-167.97C1552.08,-153.3 1478.02,-139.54 1432.04,-131.11"/>
<polygon fill="midnightblue" stroke="midnightblue" points="1625.69,-171.44 1636.18,-169.96 1627.05,-164.58 1625.69,-171.44"/>
</g>
<!-- Node92 -->
<g id="node11" class="node">
<title>Node92</title>
<g id="a_node11"><a xlink:href="_convecting_taylor_vortex_8_h.html" target="_top" xlink:title=" ">
<polygon fill="white" stroke="red" points="1467,-112.5 1467,-131.5 1610,-131.5 1610,-112.5 1467,-112.5"/>
<text text-anchor="middle" x="1538.5" y="-119.5" font-family="Helvetica,sans-Serif" font-size="10.00">ConvectingTaylorVortex.H</text>
</a>
</g>
</g>
<!-- Node3&#45;&gt;Node92 -->
<g id="edge10" class="edge">
<title>Node3&#45;&gt;Node92</title>
<path fill="none" stroke="midnightblue" d="M1639.18,-164.5C1614.62,-154.38 1580.68,-140.39 1559.16,-131.52"/>
<polygon fill="midnightblue" stroke="midnightblue" points="1638.16,-167.87 1648.74,-168.44 1640.83,-161.4 1638.16,-167.87"/>
</g>
<!-- Node94 -->
<g id="node12" class="node">
<title>Node94</title>
<g id="a_node12"><a xlink:href="_ekman_spiral_8_h.html" target="_top" xlink:title=" ">
<polygon fill="white" stroke="red" points="369,-112.5 369,-131.5 458,-131.5 458,-112.5 369,-112.5"/>
<text text-anchor="middle" x="413.5" y="-119.5" font-family="Helvetica,sans-Serif" font-size="10.00">EkmanSpiral.H</text>
</a>
</g>
</g>
<!-- Node3&#45;&gt;Node94 -->
<g id="edge11" class="edge">
<title>Node3&#45;&gt;Node94</title>
<path fill="none" stroke="midnightblue" d="M1626.14,-168.34C1469.66,-152.52 658.07,-129.68 458.06,-124.21"/>
<polygon fill="midnightblue" stroke="midnightblue" points="1625.93,-171.83 1636.26,-169.46 1626.71,-164.88 1625.93,-171.83"/>
</g>
<!-- Node97 -->
<g id="node13" class="node">
<title>Node97</title>
<g id="a_node13"><a xlink:href="_hybrid_r_a_n_s_l_e_s_a_b_l_8_h.html" target="_top" xlink:title=" ">
<polygon fill="white" stroke="red" points="750,-112.5 750,-131.5 873,-131.5 873,-112.5 750,-112.5"/>
<text text-anchor="middle" x="811.5" y="-119.5" font-family="Helvetica,sans-Serif" font-size="10.00">HybridRANSLESABL.H</text>
</a>
</g>
</g>
<!-- Node3&#45;&gt;Node97 -->
<g id="edge12" class="edge">
<title>Node3&#45;&gt;Node97</title>
<path fill="none" stroke="midnightblue" d="M1626.24,-168.33C1518.69,-156.66 1044.32,-133.89 873.21,-125.87"/>
<polygon fill="midnightblue" stroke="midnightblue" points="1625.91,-171.81 1636.25,-169.52 1626.74,-164.86 1625.91,-171.81"/>
</g>
<!-- Node99 -->
<g id="node14" class="node">
<title>Node99</title>
<g id="a_node14"><a xlink:href="_m_m_s_8_h.html" target="_top" xlink:title=" ">
<polygon fill="white" stroke="red" points="1028,-112.5 1028,-131.5 1079,-131.5 1079,-112.5 1028,-112.5"/>
<text text-anchor="middle" x="1053.5" y="-119.5" font-family="Helvetica,sans-Serif" font-size="10.00">MMS.H</text>
</a>
</g>
</g>
<!-- Node3&#45;&gt;Node99 -->
<g id="edge13" class="edge">
<title>Node3&#45;&gt;Node99</title>
<path fill="none" stroke="midnightblue" d="M1626.18,-168.17C1417.37,-138.8 1362.04,-148.85 1156.5,-132 1130.2,-129.84 1100.14,-127.2 1079.31,-125.33"/>
<polygon fill="midnightblue" stroke="midnightblue" points="1625.85,-171.65 1636.24,-169.59 1626.83,-164.72 1625.85,-171.65"/>
</g>
<!-- Node109 -->
<g id="node15" class="node">
<title>Node109</title>
<g id="a_node15"><a xlink:href="_synthetic_turbulence_8_h.html" target="_top" xlink:title=" ">
<polygon fill="white" stroke="red" points="1166,-112.5 1166,-131.5 1291,-131.5 1291,-112.5 1166,-112.5"/>
<text text-anchor="middle" x="1228.5" y="-119.5" font-family="Helvetica,sans-Serif" font-size="10.00">SyntheticTurbulence.H</text>
</a>
</g>
</g>
<!-- Node3&#45;&gt;Node109 -->
<g id="edge14" class="edge">
<title>Node3&#45;&gt;Node109</title>
<path fill="none" stroke="midnightblue" d="M1626.1,-168.09C1501.3,-148.32 1367.67,-135.08 1291.13,-128.25"/>
<polygon fill="midnightblue" stroke="midnightblue" points="1625.79,-171.59 1636.22,-169.71 1626.9,-164.68 1625.79,-171.59"/>
</g>
<!-- Node3&#45;&gt;Node124 -->
<g id="edge15" class="edge">
<title>Node3&#45;&gt;Node124</title>
<path fill="none" stroke="midnightblue" d="M1673.7,-158.1C1675.69,-149.14 1677.98,-138.86 1679.56,-131.75"/>
<polygon fill="midnightblue" stroke="midnightblue" points="1670.23,-157.56 1671.48,-168.08 1677.07,-159.08 1670.23,-157.56"/>
</g>
<!-- Node59 -->
<g id="node6" class="node">
<title>Node59</title>
<g id="a_node6"><a xlink:href="_a_b_l_8_h.html" target="_top" xlink:title=" ">
<polygon fill="white" stroke="red" points="262.5,-56.5 262.5,-75.5 308.5,-75.5 308.5,-56.5 262.5,-56.5"/>
<text text-anchor="middle" x="285.5" y="-63.5" font-family="Helvetica,sans-Serif" font-size="10.00">ABL.H</text>
</a>
</g>
</g>
<!-- Node62&#45;&gt;Node59 -->
<g id="edge5" class="edge">
<title>Node62&#45;&gt;Node59</title>
<path fill="none" stroke="midnightblue" d="M285.5,-101.8C285.5,-92.91 285.5,-82.78 285.5,-75.75"/>
<polygon fill="midnightblue" stroke="midnightblue" points="282,-102.08 285.5,-112.08 289,-102.08 282,-102.08"/>
</g>
<!-- Node59&#45;&gt;Node7 -->
<g id="edge6" class="edge">
<title>Node59&#45;&gt;Node7</title>
<path fill="none" stroke="midnightblue" d="M285.5,-45.8C285.5,-36.91 285.5,-26.78 285.5,-19.75"/>
<polygon fill="midnightblue" stroke="midnightblue" points="282,-46.08 285.5,-56.08 289,-46.08 282,-46.08"/>
</g>
<!-- Node45&#45;&gt;Node46 -->
<g id="edge23" class="edge">
<title>Node45&#45;&gt;Node46</title>
<path fill="none" stroke="midnightblue" d="M2260.46,-162.1C2248.04,-152.38 2232.26,-140.03 2221.79,-131.83"/>
<polygon fill="midnightblue" stroke="midnightblue" points="2258.38,-164.92 2268.41,-168.32 2262.7,-159.4 2258.38,-164.92"/>
</g>
<!-- Node45&#45;&gt;Node47 -->
<g id="edge24" class="edge">
<title>Node45&#45;&gt;Node47</title>
<path fill="none" stroke="midnightblue" d="M2297.77,-161.82C2309.42,-152.15 2324.1,-139.95 2333.87,-131.83"/>
<polygon fill="midnightblue" stroke="midnightblue" points="2295.4,-159.24 2289.94,-168.32 2299.87,-164.63 2295.4,-159.24"/>
</g>
<!-- Node162&#45;&gt;Node3 -->
<g id="edge28" class="edge">
<title>Node162&#45;&gt;Node3</title>
<path fill="none" stroke="midnightblue" d="M962.7,-232.41C1072.55,-230.41 1376.26,-221.99 1626.5,-188 1629.67,-187.57 1632.96,-187.04 1636.25,-186.45"/>
<polygon fill="midnightblue" stroke="midnightblue" points="962.62,-228.91 952.68,-232.58 962.74,-235.91 962.62,-228.91"/>
</g>
<!-- Node162&#45;&gt;Node59 -->
<g id="edge29" class="edge">
<title>Node162&#45;&gt;Node59</title>
<path fill="none" stroke="midnightblue" d="M877.88,-231.98C724.77,-228.12 210.31,-213.32 186.5,-188 148.94,-148.06 232.29,-95.81 269.13,-75.55"/>
<polygon fill="midnightblue" stroke="midnightblue" points="878.19,-235.49 888.27,-232.24 878.36,-228.49 878.19,-235.49"/>
</g>
<!-- Node162&#45;&gt;Node90 -->
<g id="edge34" class="edge">
<title>Node162&#45;&gt;Node90</title>
<path fill="none" stroke="midnightblue" d="M909.99,-215.19C902.97,-200.71 896.94,-180.67 908.5,-168 937.9,-135.77 1256.08,-136.22 1299.5,-132 1313.56,-130.63 1328.88,-129.09 1342.74,-127.67"/>
<polygon fill="midnightblue" stroke="midnightblue" points="907,-217.01 914.81,-224.17 913.17,-213.7 907,-217.01"/>
</g>
<!-- Node162&#45;&gt;Node92 -->
<g id="edge35" class="edge">
<title>Node162&#45;&gt;Node92</title>
<path fill="none" stroke="midnightblue" d="M963.2,-232.18C1124.06,-228.87 1685.62,-215.4 1711.5,-188 1717.6,-181.54 1716.94,-175.03 1711.5,-168 1698.07,-150.63 1646.63,-138.71 1603.31,-131.53"/>
<polygon fill="midnightblue" stroke="midnightblue" points="962.69,-228.69 952.76,-232.39 962.83,-235.68 962.69,-228.69"/>
</g>
<!-- Node162&#45;&gt;Node94 -->
<g id="edge36" class="edge">
<title>Node162&#45;&gt;Node94</title>
<path fill="none" stroke="midnightblue" d="M878.16,-232.82C753.82,-231.85 396.34,-225.76 361.5,-188 343.76,-168.78 377.1,-144.24 398.16,-131.52"/>
<polygon fill="midnightblue" stroke="midnightblue" points="878.39,-236.32 888.42,-232.89 878.44,-229.32 878.39,-236.32"/>
</g>
<!-- Node162&#45;&gt;Node97 -->
<g id="edge38" class="edge">
<title>Node162&#45;&gt;Node97</title>
<path fill="none" stroke="midnightblue" d="M878.06,-232.75C755.18,-231.59 405.62,-225.03 371.5,-188 319.21,-131.25 616.79,-123.49 749.79,-122.82"/>
<polygon fill="midnightblue" stroke="midnightblue" points="878.19,-236.25 888.22,-232.84 878.25,-229.25 878.19,-236.25"/>
</g>
<!-- Node162&#45;&gt;Node99 -->
<g id="edge39" class="edge">
<title>Node162&#45;&gt;Node99</title>
<path fill="none" stroke="midnightblue" d="M878.23,-232.51C760.66,-230.73 436.28,-222.67 404.5,-188 398.49,-181.45 398.44,-174.5 404.5,-168 415.34,-156.39 908.46,-130.43 1027.73,-124.31"/>
<polygon fill="midnightblue" stroke="midnightblue" points="878.25,-236.01 888.3,-232.66 878.35,-229.02 878.25,-236.01"/>
</g>
<!-- Node162&#45;&gt;Node109 -->
<g id="edge47" class="edge">
<title>Node162&#45;&gt;Node109</title>
<path fill="none" stroke="midnightblue" d="M898.63,-218.23C881.04,-204.57 861.39,-184.02 875.5,-168 894.33,-146.61 1069.37,-132.68 1165.68,-126.57"/>
<polygon fill="midnightblue" stroke="midnightblue" points="896.82,-221.24 906.95,-224.33 900.96,-215.59 896.82,-221.24"/>
</g>
<!-- Node162&#45;&gt;Node8 -->
<g id="edge32" class="edge">
<title>Node162&#45;&gt;Node8</title>
<path fill="none" stroke="midnightblue" d="M962.94,-231.69C1099.75,-227.35 1541.56,-212.26 1906.5,-188 1922.08,-186.96 1938.97,-185.59 1954.47,-184.23"/>
<polygon fill="midnightblue" stroke="midnightblue" points="962.76,-228.2 952.87,-232.01 962.98,-235.19 962.76,-228.2"/>
</g>
<!-- Node163 -->
<g id="node23" class="node">
<title>Node163</title>
<g id="a_node23"><a xlink:href="_actuator_8_h.html" target="_top" xlink:title=" ">
<polygon fill="white" stroke="red" points="917.5,-168.5 917.5,-187.5 985.5,-187.5 985.5,-168.5 917.5,-168.5"/>
<text text-anchor="middle" x="951.5" y="-175.5" font-family="Helvetica,sans-Serif" font-size="10.00">Actuator.H</text>
</a>
</g>
</g>
<!-- Node162&#45;&gt;Node163 -->
<g id="edge30" class="edge">
<title>Node162&#45;&gt;Node163</title>
<path fill="none" stroke="midnightblue" d="M930.68,-215.27C935.97,-206.05 942.22,-195.17 946.48,-187.75"/>
<polygon fill="midnightblue" stroke="midnightblue" points="927.56,-213.67 925.62,-224.08 933.63,-217.15 927.56,-213.67"/>
</g>
<!-- Node165 -->
<g id="node24" class="node">
<title>Node165</title>
<g id="a_node24"><a xlink:href="_multi_phase_8_h.html" target="_top" xlink:title=" ">
<polygon fill="white" stroke="red" points="1004,-168.5 1004,-187.5 1085,-187.5 1085,-168.5 1004,-168.5"/>
<text text-anchor="middle" x="1044.5" y="-175.5" font-family="Helvetica,sans-Serif" font-size="10.00">MultiPhase.H</text>
</a>
</g>
</g>
<!-- Node162&#45;&gt;Node165 -->
<g id="edge31" class="edge">
<title>Node162&#45;&gt;Node165</title>
<path fill="none" stroke="midnightblue" d="M949.51,-220.37C972.73,-210.26 1004.66,-196.35 1024.94,-187.52"/>
<polygon fill="midnightblue" stroke="midnightblue" points="947.92,-217.24 940.15,-224.44 950.71,-223.66 947.92,-217.24"/>
</g>
<!-- Node168 -->
<g id="node25" class="node">
<title>Node168</title>
<g id="a_node25"><a xlink:href="_boussinesq_bubble_8_h.html" target="_top" xlink:title=" ">
<polygon fill="white" stroke="red" points="1103.5,-168.5 1103.5,-187.5 1219.5,-187.5 1219.5,-168.5 1103.5,-168.5"/>
<text text-anchor="middle" x="1161.5" y="-175.5" font-family="Helvetica,sans-Serif" font-size="10.00">BoussinesqBubble.H</text>
</a>
</g>
</g>
<!-- Node162&#45;&gt;Node168 -->
<g id="edge33" class="edge">
<title>Node162&#45;&gt;Node168</title>
<path fill="none" stroke="midnightblue" d="M962.32,-223.63C1007.7,-213.46 1079.53,-197.37 1123.4,-187.54"/>
<polygon fill="midnightblue" stroke="midnightblue" points="961.5,-220.23 952.5,-225.83 963.03,-227.06 961.5,-220.23"/>
</g>
<!-- Node169 -->
<g id="node26" class="node">
<title>Node169</title>
<g id="a_node26"><a xlink:href="_free_stream_8_h.html" target="_top" xlink:title=" ">
<polygon fill="white" stroke="red" points="1535,-168.5 1535,-187.5 1618,-187.5 1618,-168.5 1535,-168.5"/>
<text text-anchor="middle" x="1576.5" y="-175.5" font-family="Helvetica,sans-Serif" font-size="10.00">FreeStream.H</text>
</a>
</g>
</g>
<!-- Node162&#45;&gt;Node169 -->
<g id="edge37" class="edge">
<title>Node162&#45;&gt;Node169</title>
<path fill="none" stroke="midnightblue" d="M962.94,-231.31C1061.84,-227.05 1315.26,-214.3 1525.5,-188 1528.53,-187.62 1531.66,-187.18 1534.8,-186.71"/>
<polygon fill="midnightblue" stroke="midnightblue" points="962.59,-227.82 952.75,-231.74 962.89,-234.82 962.59,-227.82"/>
</g>
<!-- Node170 -->
<g id="node27" class="node">
<title>Node170</title>
<g id="a_node27"><a xlink:href="_dam_break_8_h.html" target="_top" xlink:title=" ">
<polygon fill="white" stroke="red" points="1238,-168.5 1238,-187.5 1317,-187.5 1317,-168.5 1238,-168.5"/>
<text text-anchor="middle" x="1277.5" y="-175.5" font-family="Helvetica,sans-Serif" font-size="10.00">DamBreak.H</text>
</a>
</g>
</g>
<!-- Node162&#45;&gt;Node170 -->
<g id="edge40" class="edge">
<title>Node162&#45;&gt;Node170</title>
<path fill="none" stroke="midnightblue" d="M963.07,-227.28C1022.57,-219.17 1133.94,-203.59 1228.5,-188 1231.57,-187.49 1234.75,-186.95 1237.94,-186.39"/>
<polygon fill="midnightblue" stroke="midnightblue" points="962.37,-223.84 952.93,-228.66 963.31,-230.78 962.37,-223.84"/>
</g>
<!-- Node171 -->
<g id="node28" class="node">
<title>Node171</title>
<g id="a_node28"><a xlink:href="_rain_drop_8_h.html" target="_top" xlink:title=" ">
<polygon fill="white" stroke="red" points="1335.5,-168.5 1335.5,-187.5 1407.5,-187.5 1407.5,-168.5 1335.5,-168.5"/>
<text text-anchor="middle" x="1371.5" y="-175.5" font-family="Helvetica,sans-Serif" font-size="10.00">RainDrop.H</text>
</a>
</g>
</g>
<!-- Node162&#45;&gt;Node171 -->
<g id="edge41" class="edge">
<title>Node162&#45;&gt;Node171</title>
<path fill="none" stroke="midnightblue" d="M962.93,-229.45C1036.83,-223 1193.86,-208.16 1325.5,-188 1328.72,-187.51 1332.05,-186.95 1335.39,-186.36"/>
<polygon fill="midnightblue" stroke="midnightblue" points="962.31,-225.99 952.64,-230.34 962.91,-232.96 962.31,-225.99"/>
</g>
<!-- Node172 -->
<g id="node29" class="node">
<title>Node172</title>
<g id="a_node29"><a xlink:href="_sloshing_tank_8_h.html" target="_top" xlink:title=" ">
<polygon fill="white" stroke="red" points="1426,-168.5 1426,-187.5 1517,-187.5 1517,-168.5 1426,-168.5"/>
<text text-anchor="middle" x="1471.5" y="-175.5" font-family="Helvetica,sans-Serif" font-size="10.00">SloshingTank.H</text>
</a>
</g>
</g>
<!-- Node162&#45;&gt;Node172 -->
<g id="edge42" class="edge">
<title>Node162&#45;&gt;Node172</title>
<path fill="none" stroke="midnightblue" d="M962.61,-230.2C1048.28,-224.29 1248.94,-209.28 1416.5,-188 1419.57,-187.61 1422.73,-187.18 1425.92,-186.72"/>
<polygon fill="midnightblue" stroke="midnightblue" points="962.24,-226.72 952.5,-230.9 962.72,-233.7 962.24,-226.72"/>
</g>
<!-- Node173 -->
<g id="node30" class="node">
<title>Node173</title>
<g id="a_node30"><a xlink:href="_vortex_patch_8_h.html" target="_top" xlink:title=" ">
<polygon fill="white" stroke="red" points="196,-168.5 196,-187.5 281,-187.5 281,-168.5 196,-168.5"/>
<text text-anchor="middle" x="238.5" y="-175.5" font-family="Helvetica,sans-Serif" font-size="10.00">VortexPatch.H</text>
</a>
</g>
</g>
<!-- Node162&#45;&gt;Node173 -->
<g id="edge43" class="edge">
<title>Node162&#45;&gt;Node173</title>
<path fill="none" stroke="midnightblue" d="M878.09,-231.19C777,-226.6 513.92,-213.06 295.5,-188 290.82,-187.46 285.94,-186.82 281.09,-186.13"/>
<polygon fill="midnightblue" stroke="midnightblue" points="878.06,-234.69 888.21,-231.64 878.38,-227.7 878.06,-234.69"/>
</g>
<!-- Node174 -->
<g id="node31" class="node">
<title>Node174</title>
<g id="a_node31"><a xlink:href="_n_w_b_8_h.html" target="_top" xlink:title=" ">
<polygon fill="white" stroke="red" points="414,-168.5 414,-187.5 465,-187.5 465,-168.5 414,-168.5"/>
<text text-anchor="middle" x="439.5" y="-175.5" font-family="Helvetica,sans-Serif" font-size="10.00">NWB.H</text>
</a>
</g>
</g>
<!-- Node162&#45;&gt;Node174 -->
<g id="edge44" class="edge">
<title>Node162&#45;&gt;Node174</title>
<path fill="none" stroke="midnightblue" d="M878.25,-230.87C798.72,-226.39 621.52,-214.17 474.5,-188 471.41,-187.45 468.19,-186.77 465.02,-186.04"/>
<polygon fill="midnightblue" stroke="midnightblue" points="878.19,-234.37 888.36,-231.43 878.57,-227.38 878.19,-234.37"/>
</g>
<!-- Node175 -->
<g id="node32" class="node">
<title>Node175</title>
<g id="a_node32"><a xlink:href="_zalesak_disk_8_h.html" target="_top" xlink:title=" ">
<polygon fill="white" stroke="red" points="483.5,-168.5 483.5,-187.5 571.5,-187.5 571.5,-168.5 483.5,-168.5"/>
<text text-anchor="middle" x="527.5" y="-175.5" font-family="Helvetica,sans-Serif" font-size="10.00">ZalesakDisk.H</text>
</a>
</g>
</g>
<!-- Node162&#45;&gt;Node175 -->
<g id="edge45" class="edge">
<title>Node162&#45;&gt;Node175</title>
<path fill="none" stroke="midnightblue" d="M877.92,-227.87C813.46,-220 687.3,-204.13 580.5,-188 577.64,-187.57 574.69,-187.11 571.73,-186.63"/>
<polygon fill="midnightblue" stroke="midnightblue" points="877.75,-231.38 888.1,-229.11 878.59,-224.43 877.75,-231.38"/>
</g>
<!-- Node176 -->
<g id="node33" class="node">
<title>Node176</title>
<g id="a_node33"><a xlink:href="_rayleigh_taylor_8_h.html" target="_top" xlink:title=" ">
<polygon fill="white" stroke="red" points="589.5,-168.5 589.5,-187.5 687.5,-187.5 687.5,-168.5 589.5,-168.5"/>
<text text-anchor="middle" x="638.5" y="-175.5" font-family="Helvetica,sans-Serif" font-size="10.00">RayleighTaylor.H</text>
</a>
</g>
</g>
<!-- Node162&#45;&gt;Node176 -->
<g id="edge46" class="edge">
<title>Node162&#45;&gt;Node176</title>
<path fill="none" stroke="midnightblue" d="M878.44,-224.95C825.98,-214.9 736.65,-197.79 683.04,-187.53"/>
<polygon fill="midnightblue" stroke="midnightblue" points="877.95,-228.41 888.43,-226.86 879.26,-221.54 877.95,-228.41"/>
</g>
<!-- Node177 -->
<g id="node34" class="node">
<title>Node177</title>
<g id="a_node34"><a xlink:href="_taylor_green_vortex_8_h.html" target="_top" xlink:title=" ">
<polygon fill="white" stroke="red" points="706,-168.5 706,-187.5 823,-187.5 823,-168.5 706,-168.5"/>
<text text-anchor="middle" x="764.5" y="-175.5" font-family="Helvetica,sans-Serif" font-size="10.00">TaylorGreenVortex.H</text>
</a>
</g>
</g>
<!-- Node162&#45;&gt;Node177 -->
<g id="edge48" class="edge">
<title>Node162&#45;&gt;Node177</title>
<path fill="none" stroke="midnightblue" d="M886.33,-221.17C856.96,-211 815.3,-196.59 789.1,-187.52"/>
<polygon fill="midnightblue" stroke="midnightblue" points="885.19,-224.48 895.78,-224.44 887.48,-217.86 885.19,-224.48"/>
</g>
<!-- Node178&#45;&gt;Node8 -->
<g id="edge50" class="edge">
<title>Node178&#45;&gt;Node8</title>
<path fill="none" stroke="midnightblue" d="M2009.5,-213.8C2009.5,-204.91 2009.5,-194.78 2009.5,-187.75"/>
<polygon fill="midnightblue" stroke="midnightblue" points="2006,-214.08 2009.5,-224.08 2013,-214.08 2006,-214.08"/>
</g>
<!-- Node179&#45;&gt;Node7 -->
<g id="edge52" class="edge">
<title>Node179&#45;&gt;Node7</title>
<path fill="none" stroke="midnightblue" d="M1896.68,-215.52C1911.82,-189.41 1934.08,-140.28 1907.5,-112 1850.9,-51.76 538.39,-17.17 317.05,-11.75"/>
<polygon fill="midnightblue" stroke="midnightblue" points="1893.54,-213.94 1891.34,-224.3 1899.52,-217.57 1893.54,-213.94"/>
</g>
<!-- Node179&#45;&gt;Node8 -->
<g id="edge53" class="edge">
<title>Node179&#45;&gt;Node8</title>
<path fill="none" stroke="midnightblue" d="M1914.51,-220.37C1937.73,-210.26 1969.66,-196.35 1989.94,-187.52"/>
<polygon fill="midnightblue" stroke="midnightblue" points="1912.92,-217.24 1905.15,-224.44 1915.71,-223.66 1912.92,-217.24"/>
</g>
<!-- Node179&#45;&gt;Node180 -->
<g id="edge54" class="edge">
<title>Node179&#45;&gt;Node180</title>
<path fill="none" stroke="midnightblue" d="M1873.44,-215.86C1866.86,-206.5 1858.99,-195.33 1853.66,-187.75"/>
<polygon fill="midnightblue" stroke="midnightblue" points="1870.61,-217.92 1879.23,-224.08 1876.33,-213.89 1870.61,-217.92"/>
</g>
<!-- Node183&#45;&gt;Node7 -->
<g id="edge56" class="edge">
<title>Node183&#45;&gt;Node7</title>
<path fill="none" stroke="midnightblue" d="M100.21,-54.13C145.85,-43.51 214.08,-27.62 253.76,-18.39"/>
<polygon fill="midnightblue" stroke="midnightblue" points="99.21,-50.77 90.26,-56.44 100.79,-57.59 99.21,-50.77"/>
</g>
<!-- Node208&#45;&gt;Node7 -->
<g id="edge66" class="edge">
<title>Node208&#45;&gt;Node7</title>
<path fill="none" stroke="midnightblue" d="M209.58,-51.59C228.26,-41.61 253.2,-28.27 269.31,-19.65"/>
<polygon fill="midnightblue" stroke="midnightblue" points="207.9,-48.52 200.73,-56.32 211.2,-54.7 207.9,-48.52"/>
</g>
<!-- Node223&#45;&gt;Node169 -->
<g id="edge68" class="edge">
<title>Node223&#45;&gt;Node169</title>
<path fill="none" stroke="midnightblue" d="M1627.19,-218.1C1614.59,-208.38 1598.57,-196.03 1587.95,-187.83"/>
<polygon fill="midnightblue" stroke="midnightblue" points="1625.2,-220.99 1635.25,-224.32 1629.47,-215.44 1625.2,-220.99"/>
</g>
</g>
</svg>
