<?xml version="1.0" encoding="UTF-8" standalone="no"?>
<!DOCTYPE svg PUBLIC "-//W3C//DTD SVG 1.1//EN"
 "http://www.w3.org/Graphics/SVG/1.1/DTD/svg11.dtd">
<!-- Generated by graphviz version 2.43.0 (0)
 -->
<!-- Title: FieldRepo.H Pages: 1 -->
<svg width="4227pt" height="196pt"
 viewBox="0.00 0.00 4226.50 196.00" xmlns="http://www.w3.org/2000/svg" xmlns:xlink="http://www.w3.org/1999/xlink">
<g id="graph0" class="graph" transform="scale(1 1) rotate(0) translate(4 192)">
<title>FieldRepo.H</title>
<polygon fill="white" stroke="transparent" points="-4,4 -4,-192 4222.5,-192 4222.5,4 -4,4"/>
<!-- Node1 -->
<g id="node1" class="node">
<title>Node1</title>
<g id="a_node1"><a xlink:title=" ">
<polygon fill="#bfbfbf" stroke="black" points="1997.5,-168.5 1997.5,-187.5 2072.5,-187.5 2072.5,-168.5 1997.5,-168.5"/>
<text text-anchor="middle" x="2035" y="-175.5" font-family="Helvetica,sans-Serif" font-size="10.00">FieldRepo.H</text>
</a>
</g>
</g>
<!-- Node2 -->
<g id="node2" class="node">
<title>Node2</title>
<g id="a_node2"><a xlink:href="_b_c_interface_8cpp.html" target="_top" xlink:title=" ">
<polygon fill="white" stroke="black" points="0,-56.5 0,-75.5 94,-75.5 94,-56.5 0,-56.5"/>
<text text-anchor="middle" x="47" y="-63.5" font-family="Helvetica,sans-Serif" font-size="10.00">BCInterface.cpp</text>
</a>
</g>
</g>
<!-- Node1&#45;&gt;Node2 -->
<g id="edge1" class="edge">
<title>Node1&#45;&gt;Node2</title>
<path fill="none" stroke="midnightblue" d="M1986.99,-176.93C1697.71,-176.35 196.32,-171.47 108,-132 81.44,-120.13 60.99,-90.64 52,-75.81"/>
<polygon fill="midnightblue" stroke="midnightblue" points="1987.15,-180.43 1997.15,-176.95 1987.16,-173.43 1987.15,-180.43"/>
</g>
<!-- Node3 -->
<g id="node3" class="node">
<title>Node3</title>
<g id="a_node3"><a xlink:href="_fixed_gradient_b_c_8_h.html" target="_top" xlink:title=" ">
<polygon fill="white" stroke="black" points="117,-112.5 117,-131.5 225,-131.5 225,-112.5 117,-112.5"/>
<text text-anchor="middle" x="171" y="-119.5" font-family="Helvetica,sans-Serif" font-size="10.00">FixedGradientBC.H</text>
</a>
</g>
</g>
<!-- Node1&#45;&gt;Node3 -->
<g id="edge2" class="edge">
<title>Node1&#45;&gt;Node3</title>
<path fill="none" stroke="midnightblue" d="M1987.01,-177.07C1780.34,-177.1 945.81,-174.44 262,-132 250.12,-131.26 237.38,-130.18 225.32,-129.03"/>
<polygon fill="midnightblue" stroke="midnightblue" points="1987.22,-180.57 1997.21,-177.07 1987.21,-173.57 1987.22,-180.57"/>
</g>
<!-- Node5 -->
<g id="node5" class="node">
<title>Node5</title>
<g id="a_node5"><a xlink:href="velocity__bcs_8_h.html" target="_top" xlink:title=" ">
<polygon fill="white" stroke="black" points="271,-112.5 271,-131.5 359,-131.5 359,-112.5 271,-112.5"/>
<text text-anchor="middle" x="315" y="-119.5" font-family="Helvetica,sans-Serif" font-size="10.00">velocity_bcs.H</text>
</a>
</g>
</g>
<!-- Node1&#45;&gt;Node5 -->
<g id="edge5" class="edge">
<title>Node1&#45;&gt;Node5</title>
<path fill="none" stroke="midnightblue" d="M1987.03,-176.46C1749.95,-173.66 701.94,-159.9 377,-132 371.26,-131.51 365.23,-130.83 359.29,-130.07"/>
<polygon fill="midnightblue" stroke="midnightblue" points="1987.34,-179.96 1997.38,-176.58 1987.42,-172.96 1987.34,-179.96"/>
</g>
<!-- Node8 -->
<g id="node7" class="node">
<title>Node8</title>
<g id="a_node7"><a xlink:href="_c_f_d_sim_8_h.html" target="_top" xlink:title=" ">
<polygon fill="white" stroke="red" points="814,-112.5 814,-131.5 880,-131.5 880,-112.5 814,-112.5"/>
<text text-anchor="middle" x="847" y="-119.5" font-family="Helvetica,sans-Serif" font-size="10.00">CFDSim.H</text>
</a>
</g>
</g>
<!-- Node1&#45;&gt;Node8 -->
<g id="edge7" class="edge">
<title>Node1&#45;&gt;Node8</title>
<path fill="none" stroke="midnightblue" d="M1987.49,-174.84C1791.3,-165.92 1046.81,-132.08 880.21,-124.51"/>
<polygon fill="midnightblue" stroke="midnightblue" points="1987.33,-178.34 1997.48,-175.29 1987.65,-171.34 1987.33,-178.34"/>
</g>
<!-- Node10 -->
<g id="node9" class="node">
<title>Node10</title>
<g id="a_node9"><a xlink:href="incflo_8_h.html" target="_top" xlink:title=" ">
<polygon fill="white" stroke="red" points="341.5,-56.5 341.5,-75.5 394.5,-75.5 394.5,-56.5 341.5,-56.5"/>
<text text-anchor="middle" x="368" y="-63.5" font-family="Helvetica,sans-Serif" font-size="10.00">incflo.H</text>
</a>
</g>
</g>
<!-- Node1&#45;&gt;Node10 -->
<g id="edge32" class="edge">
<title>Node1&#45;&gt;Node10</title>
<path fill="none" stroke="midnightblue" d="M1987.34,-177.15C1740.89,-177.73 616.92,-177.8 469,-132 431.35,-120.34 394.24,-90.47 377.4,-75.63"/>
<polygon fill="midnightblue" stroke="midnightblue" points="1987.41,-180.65 1997.41,-177.13 1987.4,-173.65 1987.41,-180.65"/>
</g>
<!-- Node70 -->
<g id="node15" class="node">
<title>Node70</title>
<g id="a_node15"><a xlink:href="_a_b_l_mean_boussinesq_8_h.html" target="_top" xlink:title=" ">
<polygon fill="white" stroke="red" points="1433,-0.5 1433,-19.5 1561,-19.5 1561,-0.5 1433,-0.5"/>
<text text-anchor="middle" x="1497" y="-7.5" font-family="Helvetica,sans-Serif" font-size="10.00">ABLMeanBoussinesq.H</text>
</a>
</g>
</g>
<!-- Node1&#45;&gt;Node70 -->
<g id="edge44" class="edge">
<title>Node1&#45;&gt;Node70</title>
<path fill="none" stroke="midnightblue" d="M1987.14,-176.58C1883.66,-174.99 1642.56,-167.47 1570,-132 1539.21,-116.95 1534.27,-105.6 1517,-76 1506.17,-57.44 1500.63,-32.42 1498.33,-19.5"/>
<polygon fill="midnightblue" stroke="midnightblue" points="1987.25,-180.08 1997.3,-176.72 1987.35,-173.08 1987.25,-180.08"/>
</g>
<!-- Node88 -->
<g id="node16" class="node">
<title>Node88</title>
<g id="a_node16"><a xlink:href="_p_d_e_base_8cpp.html" target="_top" xlink:title=" ">
<polygon fill="white" stroke="black" points="413,-56.5 413,-75.5 493,-75.5 493,-56.5 413,-56.5"/>
<text text-anchor="middle" x="453" y="-63.5" font-family="Helvetica,sans-Serif" font-size="10.00">PDEBase.cpp</text>
</a>
</g>
</g>
<!-- Node1&#45;&gt;Node88 -->
<g id="edge50" class="edge">
<title>Node1&#45;&gt;Node88</title>
<path fill="none" stroke="midnightblue" d="M1986.81,-176.88C1732.87,-176.06 559.15,-170.24 493,-132 471.43,-119.53 459.97,-90.32 455.4,-75.68"/>
<polygon fill="midnightblue" stroke="midnightblue" points="1987.17,-180.38 1997.18,-176.91 1987.19,-173.38 1987.17,-180.38"/>
</g>
<!-- Node92 -->
<g id="node17" class="node">
<title>Node92</title>
<g id="a_node17"><a xlink:href="_tioga_interface_8cpp.html" target="_top" xlink:title=" ">
<polygon fill="white" stroke="black" points="1019.5,-56.5 1019.5,-75.5 1126.5,-75.5 1126.5,-56.5 1019.5,-56.5"/>
<text text-anchor="middle" x="1073" y="-63.5" font-family="Helvetica,sans-Serif" font-size="10.00">TiogaInterface.cpp</text>
</a>
</g>
</g>
<!-- Node1&#45;&gt;Node92 -->
<g id="edge56" class="edge">
<title>Node1&#45;&gt;Node92</title>
<path fill="none" stroke="midnightblue" d="M1987.11,-177.23C1871.35,-177.09 1567.51,-172.52 1318,-132 1236.34,-118.74 1142.49,-89.9 1098.39,-75.51"/>
<polygon fill="midnightblue" stroke="midnightblue" points="1987.39,-180.73 1997.39,-177.23 1987.39,-173.73 1987.39,-180.73"/>
</g>
<!-- Node124 -->
<g id="node18" class="node">
<title>Node124</title>
<g id="a_node18"><a xlink:href="_re_averaging_8cpp.html" target="_top" xlink:title=" ">
<polygon fill="white" stroke="black" points="1145,-56.5 1145,-75.5 1243,-75.5 1243,-56.5 1145,-56.5"/>
<text text-anchor="middle" x="1194" y="-63.5" font-family="Helvetica,sans-Serif" font-size="10.00">ReAveraging.cpp</text>
</a>
</g>
</g>
<!-- Node1&#45;&gt;Node124 -->
<g id="edge63" class="edge">
<title>Node1&#45;&gt;Node124</title>
<path fill="none" stroke="midnightblue" d="M1987.28,-177.57C1880.24,-178 1613.27,-174.31 1395,-132 1327.31,-118.88 1250.64,-89.97 1214.68,-75.54"/>
<polygon fill="midnightblue" stroke="midnightblue" points="1987.45,-181.07 1997.44,-177.52 1987.42,-174.07 1987.45,-181.07"/>
</g>
<!-- Node125 -->
<g id="node19" class="node">
<title>Node125</title>
<g id="a_node19"><a xlink:href="_reynolds_stress_8cpp.html" target="_top" xlink:title=" ">
<polygon fill="white" stroke="black" points="1261,-56.5 1261,-75.5 1373,-75.5 1373,-56.5 1261,-56.5"/>
<text text-anchor="middle" x="1317" y="-63.5" font-family="Helvetica,sans-Serif" font-size="10.00">ReynoldsStress.cpp</text>
</a>
</g>
</g>
<!-- Node1&#45;&gt;Node125 -->
<g id="edge64" class="edge">
<title>Node1&#45;&gt;Node125</title>
<path fill="none" stroke="midnightblue" d="M1987.41,-175.55C1867.31,-171.52 1554.34,-158.71 1454,-132 1406.17,-119.27 1354.71,-90.18 1330.74,-75.63"/>
<polygon fill="midnightblue" stroke="midnightblue" points="1987.3,-179.04 1997.41,-175.88 1987.53,-172.05 1987.3,-179.04"/>
</g>
<!-- Node154 -->
<g id="node20" class="node">
<title>Node154</title>
<g id="a_node20"><a xlink:href="_actuator_8cpp.html" target="_top" xlink:title=" ">
<polygon fill="white" stroke="black" points="1391.5,-56.5 1391.5,-75.5 1468.5,-75.5 1468.5,-56.5 1391.5,-56.5"/>
<text text-anchor="middle" x="1430" y="-63.5" font-family="Helvetica,sans-Serif" font-size="10.00">Actuator.cpp</text>
</a>
</g>
</g>
<!-- Node1&#45;&gt;Node154 -->
<g id="edge67" class="edge">
<title>Node1&#45;&gt;Node154</title>
<path fill="none" stroke="midnightblue" d="M1987.23,-175.24C1861.34,-170.31 1527.08,-155.18 1483,-132 1458.77,-119.26 1441.54,-90.18 1434.1,-75.63"/>
<polygon fill="midnightblue" stroke="midnightblue" points="1987.22,-178.74 1997.35,-175.63 1987.49,-171.75 1987.22,-178.74"/>
</g>
<!-- Node165 -->
<g id="node21" class="node">
<title>Node165</title>
<g id="a_node21"><a xlink:href="_godunov_8_h.html" target="_top" xlink:title=" ">
<polygon fill="white" stroke="red" points="1849,-112.5 1849,-131.5 1919,-131.5 1919,-112.5 1849,-112.5"/>
<text text-anchor="middle" x="1884" y="-119.5" font-family="Helvetica,sans-Serif" font-size="10.00">Godunov.H</text>
</a>
</g>
</g>
<!-- Node1&#45;&gt;Node165 -->
<g id="edge23" class="edge">
<title>Node1&#45;&gt;Node165</title>
<path fill="none" stroke="midnightblue" d="M2001.55,-165.04C1973.14,-154.88 1933.06,-140.55 1907.81,-131.52"/>
<polygon fill="midnightblue" stroke="midnightblue" points="2000.48,-168.37 2011.07,-168.44 2002.84,-161.78 2000.48,-168.37"/>
</g>
<!-- Node171 -->
<g id="node22" class="node">
<title>Node171</title>
<g id="a_node22"><a xlink:href="_m_o_l_8_h.html" target="_top" xlink:title=" ">
<polygon fill="white" stroke="red" points="1937.5,-112.5 1937.5,-131.5 1986.5,-131.5 1986.5,-112.5 1937.5,-112.5"/>
<text text-anchor="middle" x="1962" y="-119.5" font-family="Helvetica,sans-Serif" font-size="10.00">MOL.H</text>
</a>
</g>
</g>
<!-- Node1&#45;&gt;Node171 -->
<g id="edge24" class="edge">
<title>Node1&#45;&gt;Node171</title>
<path fill="none" stroke="midnightblue" d="M2014.86,-162.1C2001.72,-152.38 1985.02,-140.03 1973.94,-131.83"/>
<polygon fill="midnightblue" stroke="midnightblue" points="2013.15,-165.19 2023.27,-168.32 2017.31,-159.56 2013.15,-165.19"/>
</g>
<!-- Node174 -->
<g id="node23" class="node">
<title>Node174</title>
<g id="a_node23"><a xlink:href="_field_8cpp.html" target="_top" xlink:title=" ">
<polygon fill="white" stroke="black" points="2005,-112.5 2005,-131.5 2065,-131.5 2065,-112.5 2005,-112.5"/>
<text text-anchor="middle" x="2035" y="-119.5" font-family="Helvetica,sans-Serif" font-size="10.00">Field.cpp</text>
</a>
</g>
</g>
<!-- Node1&#45;&gt;Node174 -->
<g id="edge25" class="edge">
<title>Node1&#45;&gt;Node174</title>
<path fill="none" stroke="midnightblue" d="M2035,-157.8C2035,-148.91 2035,-138.78 2035,-131.75"/>
<polygon fill="midnightblue" stroke="midnightblue" points="2031.5,-158.08 2035,-168.08 2038.5,-158.08 2031.5,-158.08"/>
</g>
<!-- Node175 -->
<g id="node24" class="node">
<title>Node175</title>
<g id="a_node24"><a xlink:href="_field_repo_8cpp.html" target="_top" xlink:title=" ">
<polygon fill="white" stroke="black" points="2083.5,-112.5 2083.5,-131.5 2168.5,-131.5 2168.5,-112.5 2083.5,-112.5"/>
<text text-anchor="middle" x="2126" y="-119.5" font-family="Helvetica,sans-Serif" font-size="10.00">FieldRepo.cpp</text>
</a>
</g>
</g>
<!-- Node1&#45;&gt;Node175 -->
<g id="edge26" class="edge">
<title>Node1&#45;&gt;Node175</title>
<path fill="none" stroke="midnightblue" d="M2058.29,-163.18C2075.04,-153.24 2097.1,-140.15 2111.42,-131.65"/>
<polygon fill="midnightblue" stroke="midnightblue" points="2056.43,-160.21 2049.62,-168.32 2060.01,-166.23 2056.43,-160.21"/>
</g>
<!-- Node176 -->
<g id="node25" class="node">
<title>Node176</title>
<g id="a_node25"><a xlink:href="_int_field_8cpp.html" target="_top" xlink:title=" ">
<polygon fill="white" stroke="black" points="2186.5,-112.5 2186.5,-131.5 2259.5,-131.5 2259.5,-112.5 2186.5,-112.5"/>
<text text-anchor="middle" x="2223" y="-119.5" font-family="Helvetica,sans-Serif" font-size="10.00">IntField.cpp</text>
</a>
</g>
</g>
<!-- Node1&#45;&gt;Node176 -->
<g id="edge27" class="edge">
<title>Node1&#45;&gt;Node176</title>
<path fill="none" stroke="midnightblue" d="M2074.8,-165.57C2110.27,-155.38 2161.37,-140.7 2193.35,-131.52"/>
<polygon fill="midnightblue" stroke="midnightblue" points="2073.43,-162.32 2064.79,-168.44 2075.37,-169.05 2073.43,-162.32"/>
</g>
<!-- Node177 -->
<g id="node26" class="node">
<title>Node177</title>
<g id="a_node26"><a xlink:href="_scratch_field_8cpp.html" target="_top" xlink:title=" ">
<polygon fill="white" stroke="black" points="2278,-112.5 2278,-131.5 2374,-131.5 2374,-112.5 2278,-112.5"/>
<text text-anchor="middle" x="2326" y="-119.5" font-family="Helvetica,sans-Serif" font-size="10.00">ScratchField.cpp</text>
</a>
</g>
</g>
<!-- Node1&#45;&gt;Node177 -->
<g id="edge28" class="edge">
<title>Node1&#45;&gt;Node177</title>
<path fill="none" stroke="midnightblue" d="M2082.87,-168.12C2137.55,-157.97 2226.37,-141.49 2280.18,-131.5"/>
<polygon fill="midnightblue" stroke="midnightblue" points="2081.94,-164.73 2072.74,-170 2083.22,-171.61 2081.94,-164.73"/>
</g>
<!-- Node178 -->
<g id="node27" class="node">
<title>Node178</title>
<g id="a_node27"><a xlink:href="_view_field_8cpp.html" target="_top" xlink:title=" ">
<polygon fill="white" stroke="black" points="2392,-112.5 2392,-131.5 2476,-131.5 2476,-112.5 2392,-112.5"/>
<text text-anchor="middle" x="2434" y="-119.5" font-family="Helvetica,sans-Serif" font-size="10.00">ViewField.cpp</text>
</a>
</g>
</g>
<!-- Node1&#45;&gt;Node178 -->
<g id="edge29" class="edge">
<title>Node1&#45;&gt;Node178</title>
<path fill="none" stroke="midnightblue" d="M2082.94,-171.51C2150.14,-163.65 2276.11,-148.33 2383,-132 2385.84,-131.57 2388.77,-131.1 2391.72,-130.62"/>
<polygon fill="midnightblue" stroke="midnightblue" points="2082.2,-168.07 2072.67,-172.71 2083.01,-175.02 2082.2,-168.07"/>
</g>
<!-- Node179 -->
<g id="node28" class="node">
<title>Node179</title>
<g id="a_node28"><a xlink:href="field__algebra_8cpp.html" target="_top" xlink:title=" ">
<polygon fill="white" stroke="black" points="2494,-112.5 2494,-131.5 2594,-131.5 2594,-112.5 2494,-112.5"/>
<text text-anchor="middle" x="2544" y="-119.5" font-family="Helvetica,sans-Serif" font-size="10.00">field_algebra.cpp</text>
</a>
</g>
</g>
<!-- Node1&#45;&gt;Node179 -->
<g id="edge30" class="edge">
<title>Node1&#45;&gt;Node179</title>
<path fill="none" stroke="midnightblue" d="M2082.75,-173.04C2165.03,-166.04 2338.77,-150.45 2485,-132 2487.88,-131.64 2490.83,-131.25 2493.81,-130.84"/>
<polygon fill="midnightblue" stroke="midnightblue" points="2082.37,-169.56 2072.71,-173.89 2082.97,-176.54 2082.37,-169.56"/>
</g>
<!-- Node180 -->
<g id="node29" class="node">
<title>Node180</title>
<g id="a_node29"><a xlink:href="diffusion_8_h.html" target="_top" xlink:title=" ">
<polygon fill="white" stroke="red" points="2612.5,-112.5 2612.5,-131.5 2681.5,-131.5 2681.5,-112.5 2612.5,-112.5"/>
<text text-anchor="middle" x="2647" y="-119.5" font-family="Helvetica,sans-Serif" font-size="10.00">diffusion.H</text>
</a>
</g>
</g>
<!-- Node1&#45;&gt;Node180 -->
<g id="edge31" class="edge">
<title>Node1&#45;&gt;Node180</title>
<path fill="none" stroke="midnightblue" d="M2082.91,-175.19C2180.95,-171.05 2411.39,-159.08 2603,-132 2606.09,-131.56 2609.29,-131.04 2612.48,-130.48"/>
<polygon fill="midnightblue" stroke="midnightblue" points="2082.57,-171.7 2072.73,-175.61 2082.86,-178.7 2082.57,-171.7"/>
</g>
<!-- Node181 -->
<g id="node30" class="node">
<title>Node181</title>
<g id="a_node30"><a xlink:href="_p_d_e_helpers_8_h.html" target="_top" xlink:title=" ">
<polygon fill="white" stroke="red" points="502,-112.5 502,-131.5 586,-131.5 586,-112.5 502,-112.5"/>
<text text-anchor="middle" x="544" y="-119.5" font-family="Helvetica,sans-Serif" font-size="10.00">PDEHelpers.H</text>
</a>
</g>
</g>
<!-- Node1&#45;&gt;Node181 -->
<g id="edge33" class="edge">
<title>Node1&#45;&gt;Node181</title>
<path fill="none" stroke="midnightblue" d="M1987.18,-175.27C1760.85,-167.07 799.32,-132.25 586.02,-124.52"/>
<polygon fill="midnightblue" stroke="midnightblue" points="1987.28,-178.77 1997.4,-175.64 1987.53,-171.78 1987.28,-178.77"/>
</g>
<!-- Node182 -->
<g id="node31" class="node">
<title>Node182</title>
<g id="a_node31"><a xlink:href="_density_source_8_h.html" target="_top" xlink:title=" ">
<polygon fill="white" stroke="red" points="2700,-112.5 2700,-131.5 2798,-131.5 2798,-112.5 2700,-112.5"/>
<text text-anchor="middle" x="2749" y="-119.5" font-family="Helvetica,sans-Serif" font-size="10.00">DensitySource.H</text>
</a>
</g>
</g>
<!-- Node1&#45;&gt;Node182 -->
<g id="edge36" class="edge">
<title>Node1&#45;&gt;Node182</title>
<path fill="none" stroke="midnightblue" d="M2083.12,-175.11C2191.76,-170.53 2464.27,-157.32 2691,-132 2693.94,-131.67 2696.95,-131.3 2699.99,-130.91"/>
<polygon fill="midnightblue" stroke="midnightblue" points="2082.66,-171.62 2072.82,-175.54 2082.95,-178.62 2082.66,-171.62"/>
</g>
<!-- Node183 -->
<g id="node32" class="node">
<title>Node183</title>
<g id="a_node32"><a xlink:href="_momentum_source_8_h.html" target="_top" xlink:title=" ">
<polygon fill="white" stroke="red" points="1601,-112.5 1601,-131.5 1717,-131.5 1717,-112.5 1601,-112.5"/>
<text text-anchor="middle" x="1659" y="-119.5" font-family="Helvetica,sans-Serif" font-size="10.00">MomentumSource.H</text>
</a>
</g>
</g>
<!-- Node1&#45;&gt;Node183 -->
<g id="edge37" class="edge">
<title>Node1&#45;&gt;Node183</title>
<path fill="none" stroke="midnightblue" d="M1987.09,-170.12C1918.24,-160.23 1791.43,-142.02 1717.25,-131.37"/>
<polygon fill="midnightblue" stroke="midnightblue" points="1986.83,-173.62 1997.23,-171.58 1987.83,-166.69 1986.83,-173.62"/>
</g>
<!-- Node187 -->
<g id="node33" class="node">
<title>Node187</title>
<g id="a_node33"><a xlink:href="_boussinesq_buoyancy_8_h.html" target="_top" xlink:title=" ">
<polygon fill="white" stroke="red" points="1525.5,-56.5 1525.5,-75.5 1654.5,-75.5 1654.5,-56.5 1525.5,-56.5"/>
<text text-anchor="middle" x="1590" y="-63.5" font-family="Helvetica,sans-Serif" font-size="10.00">BoussinesqBuoyancy.H</text>
</a>
</g>
</g>
<!-- Node1&#45;&gt;Node187 -->
<g id="edge45" class="edge">
<title>Node1&#45;&gt;Node187</title>
<path fill="none" stroke="midnightblue" d="M1986.88,-175.81C1875.6,-172.55 1607.88,-161.68 1581,-132 1566.93,-116.46 1577.73,-89.68 1584.93,-75.85"/>
<polygon fill="midnightblue" stroke="midnightblue" points="1987.05,-179.31 1997.15,-176.1 1987.25,-172.32 1987.05,-179.31"/>
</g>
<!-- Node188 -->
<g id="node34" class="node">
<title>Node188</title>
<g id="a_node34"><a xlink:href="_coriolis_forcing_8_h.html" target="_top" xlink:title=" ">
<polygon fill="white" stroke="red" points="1672.5,-56.5 1672.5,-75.5 1771.5,-75.5 1771.5,-56.5 1672.5,-56.5"/>
<text text-anchor="middle" x="1722" y="-63.5" font-family="Helvetica,sans-Serif" font-size="10.00">CoriolisForcing.H</text>
</a>
</g>
</g>
<!-- Node1&#45;&gt;Node188 -->
<g id="edge46" class="edge">
<title>Node1&#45;&gt;Node188</title>
<path fill="none" stroke="midnightblue" d="M1987.26,-175.69C1878.2,-172.21 1618.14,-160.93 1592,-132 1564.43,-101.48 1624.67,-83.48 1672.08,-74.42"/>
<polygon fill="midnightblue" stroke="midnightblue" points="1987.22,-179.19 1997.33,-176 1987.44,-172.2 1987.22,-179.19"/>
</g>
<!-- Node189 -->
<g id="node35" class="node">
<title>Node189</title>
<g id="a_node35"><a xlink:href="_density_buoyancy_8_h.html" target="_top" xlink:title=" ">
<polygon fill="white" stroke="red" points="1828.5,-56.5 1828.5,-75.5 1939.5,-75.5 1939.5,-56.5 1828.5,-56.5"/>
<text text-anchor="middle" x="1884" y="-63.5" font-family="Helvetica,sans-Serif" font-size="10.00">DensityBuoyancy.H</text>
</a>
</g>
</g>
<!-- Node1&#45;&gt;Node189 -->
<g id="edge47" class="edge">
<title>Node1&#45;&gt;Node189</title>
<path fill="none" stroke="midnightblue" d="M1986.74,-174.87C1924.51,-170.99 1821.48,-160.36 1798,-132 1777.59,-107.35 1822.82,-86.63 1855.1,-75.59"/>
<polygon fill="midnightblue" stroke="midnightblue" points="1986.91,-178.38 1997.1,-175.48 1987.32,-171.4 1986.91,-178.38"/>
</g>
<!-- Node191 -->
<g id="node36" class="node">
<title>Node191</title>
<g id="a_node36"><a xlink:href="_gravity_forcing_8_h.html" target="_top" xlink:title=" ">
<polygon fill="white" stroke="red" points="1958,-56.5 1958,-75.5 2056,-75.5 2056,-56.5 1958,-56.5"/>
<text text-anchor="middle" x="2007" y="-63.5" font-family="Helvetica,sans-Serif" font-size="10.00">GravityForcing.H</text>
</a>
</g>
</g>
<!-- Node1&#45;&gt;Node191 -->
<g id="edge48" class="edge">
<title>Node1&#45;&gt;Node191</title>
<path fill="none" stroke="midnightblue" d="M1987.09,-174.48C1927.07,-170.21 1829.34,-159.18 1807,-132 1801.36,-125.13 1801.45,-118.94 1807,-112 1816.45,-100.19 1901.54,-84.22 1957.65,-74.82"/>
<polygon fill="midnightblue" stroke="midnightblue" points="1986.9,-177.98 1997.11,-175.16 1987.37,-170.99 1986.9,-177.98"/>
</g>
<!-- Node193 -->
<g id="node37" class="node">
<title>Node193</title>
<g id="a_node37"><a xlink:href="_m_m_s_forcing_8_h.html" target="_top" xlink:title=" ">
<polygon fill="white" stroke="red" points="2074,-56.5 2074,-75.5 2160,-75.5 2160,-56.5 2074,-56.5"/>
<text text-anchor="middle" x="2117" y="-63.5" font-family="Helvetica,sans-Serif" font-size="10.00">MMSForcing.H</text>
</a>
</g>
</g>
<!-- Node1&#45;&gt;Node193 -->
<g id="edge57" class="edge">
<title>Node1&#45;&gt;Node193</title>
<path fill="none" stroke="midnightblue" d="M1987.24,-176.32C1916.71,-173.68 1797.41,-161.95 1840,-112 1872.86,-73.47 2015.05,-84.32 2065,-76 2067.89,-75.52 2070.87,-75.02 2073.88,-74.51"/>
<polygon fill="midnightblue" stroke="midnightblue" points="1987.16,-179.82 1997.26,-176.65 1987.38,-172.82 1987.16,-179.82"/>
</g>
<!-- Node194 -->
<g id="node38" class="node">
<title>Node194</title>
<g id="a_node38"><a xlink:href="_source_term_8_h.html" target="_top" xlink:title=" ">
<polygon fill="white" stroke="red" points="2816,-112.5 2816,-131.5 2900,-131.5 2900,-112.5 2816,-112.5"/>
<text text-anchor="middle" x="2858" y="-119.5" font-family="Helvetica,sans-Serif" font-size="10.00">SourceTerm.H</text>
</a>
</g>
</g>
<!-- Node1&#45;&gt;Node194 -->
<g id="edge49" class="edge">
<title>Node1&#45;&gt;Node194</title>
<path fill="none" stroke="midnightblue" d="M2082.98,-176.14C2204.53,-173.55 2534.26,-163.9 2807,-132 2809.86,-131.67 2812.8,-131.27 2815.76,-130.85"/>
<polygon fill="midnightblue" stroke="midnightblue" points="2082.82,-172.65 2072.89,-176.35 2082.96,-179.64 2082.82,-172.65"/>
</g>
<!-- Node195 -->
<g id="node39" class="node">
<title>Node195</title>
<g id="a_node39"><a xlink:href="_s_d_r_source_8_h.html" target="_top" xlink:title=" ">
<polygon fill="white" stroke="red" points="2918,-112.5 2918,-131.5 2998,-131.5 2998,-112.5 2918,-112.5"/>
<text text-anchor="middle" x="2958" y="-119.5" font-family="Helvetica,sans-Serif" font-size="10.00">SDRSource.H</text>
</a>
</g>
</g>
<!-- Node1&#45;&gt;Node195 -->
<g id="edge51" class="edge">
<title>Node1&#45;&gt;Node195</title>
<path fill="none" stroke="midnightblue" d="M2082.8,-176.72C2214.79,-175.48 2595.31,-168.73 2909,-132 2911.92,-131.66 2914.93,-131.25 2917.95,-130.79"/>
<polygon fill="midnightblue" stroke="midnightblue" points="2082.6,-173.22 2072.63,-176.81 2082.66,-180.22 2082.6,-173.22"/>
</g>
<!-- Node197 -->
<g id="node40" class="node">
<title>Node197</title>
<g id="a_node40"><a xlink:href="_temperature_source_8_h.html" target="_top" xlink:title=" ">
<polygon fill="white" stroke="red" points="3016,-112.5 3016,-131.5 3138,-131.5 3138,-112.5 3016,-112.5"/>
<text text-anchor="middle" x="3077" y="-119.5" font-family="Helvetica,sans-Serif" font-size="10.00">TemperatureSource.H</text>
</a>
</g>
</g>
<!-- Node1&#45;&gt;Node197 -->
<g id="edge52" class="edge">
<title>Node1&#45;&gt;Node197</title>
<path fill="none" stroke="midnightblue" d="M2082.66,-176.17C2223.96,-173.42 2652.78,-162.92 3007,-132 3009.93,-131.74 3012.93,-131.46 3015.95,-131.15"/>
<polygon fill="midnightblue" stroke="midnightblue" points="2082.53,-172.67 2072.6,-176.36 2082.67,-179.67 2082.53,-172.67"/>
</g>
<!-- Node198 -->
<g id="node41" class="node">
<title>Node198</title>
<g id="a_node41"><a xlink:href="_t_k_e_source_8_h.html" target="_top" xlink:title=" ">
<polygon fill="white" stroke="red" points="3156.5,-112.5 3156.5,-131.5 3235.5,-131.5 3235.5,-112.5 3156.5,-112.5"/>
<text text-anchor="middle" x="3196" y="-119.5" font-family="Helvetica,sans-Serif" font-size="10.00">TKESource.H</text>
</a>
</g>
</g>
<!-- Node1&#45;&gt;Node198 -->
<g id="edge53" class="edge">
<title>Node1&#45;&gt;Node198</title>
<path fill="none" stroke="midnightblue" d="M2082.67,-177.47C2237.02,-178.48 2736.85,-177.73 3147,-132 3150.09,-131.65 3153.29,-131.23 3156.49,-130.75"/>
<polygon fill="midnightblue" stroke="midnightblue" points="2082.61,-173.97 2072.58,-177.4 2082.56,-180.97 2082.61,-173.97"/>
</g>
<!-- Node202 -->
<g id="node42" class="node">
<title>Node202</title>
<g id="a_node42"><a xlink:href="_split_advection_8_h.html" target="_top" xlink:title=" ">
<polygon fill="white" stroke="red" points="3253,-112.5 3253,-131.5 3351,-131.5 3351,-112.5 3253,-112.5"/>
<text text-anchor="middle" x="3302" y="-119.5" font-family="Helvetica,sans-Serif" font-size="10.00">SplitAdvection.H</text>
</a>
</g>
</g>
<!-- Node1&#45;&gt;Node202 -->
<g id="edge54" class="edge">
<title>Node1&#45;&gt;Node202</title>
<path fill="none" stroke="midnightblue" d="M2082.93,-177.27C2246.06,-177.75 2794.59,-175.78 3245,-132 3247.59,-131.75 3250.25,-131.45 3252.92,-131.13"/>
<polygon fill="midnightblue" stroke="midnightblue" points="2082.76,-173.77 2072.75,-177.23 2082.73,-180.77 2082.76,-173.77"/>
</g>
<!-- Node204 -->
<g id="node43" class="node">
<title>Node204</title>
<g id="a_node43"><a xlink:href="fvm__utils_8_h.html" target="_top" xlink:title=" ">
<polygon fill="white" stroke="red" points="3369.5,-112.5 3369.5,-131.5 3442.5,-131.5 3442.5,-112.5 3369.5,-112.5"/>
<text text-anchor="middle" x="3406" y="-119.5" font-family="Helvetica,sans-Serif" font-size="10.00">fvm_utils.H</text>
</a>
</g>
</g>
<!-- Node1&#45;&gt;Node204 -->
<g id="edge55" class="edge">
<title>Node1&#45;&gt;Node204</title>
<path fill="none" stroke="midnightblue" d="M2083.01,-176.39C2289.76,-173.63 3105.16,-161.07 3360,-132 3363.07,-131.65 3366.25,-131.2 3369.42,-130.7"/>
<polygon fill="midnightblue" stroke="midnightblue" points="2082.74,-172.9 2072.79,-176.53 2082.83,-179.9 2082.74,-172.9"/>
</g>
<!-- Node214 -->
<g id="node44" class="node">
<title>Node214</title>
<g id="a_node44"><a xlink:href="_linear_profile_8cpp.html" target="_top" xlink:title=" ">
<polygon fill="white" stroke="black" points="3461,-112.5 3461,-131.5 3559,-131.5 3559,-112.5 3461,-112.5"/>
<text text-anchor="middle" x="3510" y="-119.5" font-family="Helvetica,sans-Serif" font-size="10.00">LinearProfile.cpp</text>
</a>
</g>
</g>
<!-- Node1&#45;&gt;Node214 -->
<g id="edge58" class="edge">
<title>Node1&#45;&gt;Node214</title>
<path fill="none" stroke="midnightblue" d="M2082.79,-176.27C2297.86,-172.85 3177.42,-157.57 3452,-132 3454.84,-131.74 3457.75,-131.42 3460.69,-131.07"/>
<polygon fill="midnightblue" stroke="midnightblue" points="2082.71,-172.77 2072.76,-176.43 2082.82,-179.77 2082.71,-172.77"/>
</g>
<!-- Node43 -->
<g id="node45" class="node">
<title>Node43</title>
<g id="a_node45"><a xlink:href="_power_law_profile_8cpp.html" target="_top" xlink:title=" ">
<polygon fill="white" stroke="black" points="3577.5,-112.5 3577.5,-131.5 3694.5,-131.5 3694.5,-112.5 3577.5,-112.5"/>
<text text-anchor="middle" x="3636" y="-119.5" font-family="Helvetica,sans-Serif" font-size="10.00">PowerLawProfile.cpp</text>
</a>
</g>
</g>
<!-- Node1&#45;&gt;Node43 -->
<g id="edge59" class="edge">
<title>Node1&#45;&gt;Node43</title>
<path fill="none" stroke="midnightblue" d="M2082.87,-177.37C2271.84,-178.48 2984.21,-179.08 3568,-132 3571.09,-131.75 3574.25,-131.46 3577.44,-131.14"/>
<polygon fill="midnightblue" stroke="midnightblue" points="2082.74,-173.87 2072.72,-177.31 2082.69,-180.87 2082.74,-173.87"/>
</g>
<!-- Node215 -->
<g id="node46" class="node">
<title>Node215</title>
<g id="a_node46"><a xlink:href="_u_d_f_8cpp.html" target="_top" xlink:title=" ">
<polygon fill="white" stroke="black" points="3713,-112.5 3713,-131.5 3769,-131.5 3769,-112.5 3713,-112.5"/>
<text text-anchor="middle" x="3741" y="-119.5" font-family="Helvetica,sans-Serif" font-size="10.00">UDF.cpp</text>
</a>
</g>
</g>
<!-- Node1&#45;&gt;Node215 -->
<g id="edge60" class="edge">
<title>Node1&#45;&gt;Node215</title>
<path fill="none" stroke="midnightblue" d="M2082.62,-177.08C2320.13,-177.25 3378.26,-175.51 3704,-132 3706.88,-131.61 3709.87,-131.1 3712.84,-130.5"/>
<polygon fill="midnightblue" stroke="midnightblue" points="2082.58,-173.58 2072.57,-177.07 2082.57,-180.58 2082.58,-173.58"/>
</g>
<!-- Node216 -->
<g id="node47" class="node">
<title>Node216</title>
<g id="a_node47"><a xlink:href="_transport_model_8_h.html" target="_top" xlink:title=" ">
<polygon fill="white" stroke="red" points="3787,-112.5 3787,-131.5 3889,-131.5 3889,-112.5 3787,-112.5"/>
<text text-anchor="middle" x="3838" y="-119.5" font-family="Helvetica,sans-Serif" font-size="10.00">TransportModel.H</text>
</a>
</g>
</g>
<!-- Node1&#45;&gt;Node216 -->
<g id="edge61" class="edge">
<title>Node1&#45;&gt;Node216</title>
<path fill="none" stroke="midnightblue" d="M2083.06,-176.56C2327.58,-174.2 3435.37,-162.01 3778,-132 3780.94,-131.74 3783.95,-131.43 3786.99,-131.09"/>
<polygon fill="midnightblue" stroke="midnightblue" points="2082.7,-173.06 2072.73,-176.66 2082.76,-180.06 2082.7,-173.06"/>
</g>
<!-- Node120 -->
<g id="node48" class="node">
<title>Node120</title>
<g id="a_node48"><a xlink:href="_smagorinsky_8_h.html" target="_top" xlink:title=" ">
<polygon fill="white" stroke="red" points="3907.5,-112.5 3907.5,-131.5 3996.5,-131.5 3996.5,-112.5 3907.5,-112.5"/>
<text text-anchor="middle" x="3952" y="-119.5" font-family="Helvetica,sans-Serif" font-size="10.00">Smagorinsky.H</text>
</a>
</g>
</g>
<!-- Node1&#45;&gt;Node120 -->
<g id="edge62" class="edge">
<title>Node1&#45;&gt;Node120</title>
<path fill="none" stroke="midnightblue" d="M2082.69,-176.76C2336.42,-175.34 3530.29,-166.91 3898,-132 3901.03,-131.71 3904.14,-131.36 3907.27,-130.95"/>
<polygon fill="midnightblue" stroke="midnightblue" points="2082.66,-173.26 2072.68,-176.81 2082.7,-180.26 2082.66,-173.26"/>
</g>
<!-- Node152 -->
<g id="node49" class="node">
<title>Node152</title>
<g id="a_node49"><a xlink:href="_act_src_line_op_8_h.html" target="_top" xlink:title=" ">
<polygon fill="white" stroke="red" points="4015,-112.5 4015,-131.5 4107,-131.5 4107,-112.5 4015,-112.5"/>
<text text-anchor="middle" x="4061" y="-119.5" font-family="Helvetica,sans-Serif" font-size="10.00">ActSrcLineOp.H</text>
</a>
</g>
</g>
<!-- Node1&#45;&gt;Node152 -->
<g id="edge65" class="edge">
<title>Node1&#45;&gt;Node152</title>
<path fill="none" stroke="midnightblue" d="M2082.87,-176.81C2345.69,-175.65 3615.64,-168.22 4006,-132 4008.89,-131.73 4011.86,-131.4 4014.85,-131.03"/>
<polygon fill="midnightblue" stroke="midnightblue" points="2082.51,-173.31 2072.53,-176.86 2082.54,-180.31 2082.51,-173.31"/>
</g>
<!-- Node158 -->
<g id="node50" class="node">
<title>Node158</title>
<g id="a_node50"><a xlink:href="_act_src_disk_op_8_h.html" target="_top" xlink:title=" ">
<polygon fill="white" stroke="red" points="4125.5,-112.5 4125.5,-131.5 4218.5,-131.5 4218.5,-112.5 4125.5,-112.5"/>
<text text-anchor="middle" x="4172" y="-119.5" font-family="Helvetica,sans-Serif" font-size="10.00">ActSrcDiskOp.H</text>
</a>
</g>
</g>
<!-- Node1&#45;&gt;Node158 -->
<g id="edge66" class="edge">
<title>Node1&#45;&gt;Node158</title>
<path fill="none" stroke="midnightblue" d="M2082.92,-176.86C2354.46,-175.94 3702.48,-169.52 4116,-132 4119.04,-131.72 4122.17,-131.38 4125.31,-131"/>
<polygon fill="midnightblue" stroke="midnightblue" points="2082.6,-173.36 2072.62,-176.9 2082.63,-180.36 2082.6,-173.36"/>
</g>
<!-- Node3&#45;&gt;Node2 -->
<g id="edge3" class="edge">
<title>Node3&#45;&gt;Node2</title>
<path fill="none" stroke="midnightblue" d="M141.99,-108.37C118.77,-98.26 86.84,-84.35 66.56,-75.52"/>
<polygon fill="midnightblue" stroke="midnightblue" points="140.79,-111.66 151.35,-112.44 143.58,-105.24 140.79,-111.66"/>
</g>
<!-- Node4 -->
<g id="node4" class="node">
<title>Node4</title>
<g id="a_node4"><a xlink:href="_fixed_gradient_b_c_8cpp.html" target="_top" xlink:title=" ">
<polygon fill="white" stroke="black" points="112,-56.5 112,-75.5 230,-75.5 230,-56.5 112,-56.5"/>
<text text-anchor="middle" x="171" y="-63.5" font-family="Helvetica,sans-Serif" font-size="10.00">FixedGradientBC.cpp</text>
</a>
</g>
</g>
<!-- Node3&#45;&gt;Node4 -->
<g id="edge4" class="edge">
<title>Node3&#45;&gt;Node4</title>
<path fill="none" stroke="midnightblue" d="M171,-101.8C171,-92.91 171,-82.78 171,-75.75"/>
<polygon fill="midnightblue" stroke="midnightblue" points="167.5,-102.08 171,-112.08 174.5,-102.08 167.5,-102.08"/>
</g>
<!-- Node6 -->
<g id="node6" class="node">
<title>Node6</title>
<g id="a_node6"><a xlink:href="icns__bcop_8_h.html" target="_top" xlink:title=" ">
<polygon fill="white" stroke="red" points="248.5,-56.5 248.5,-75.5 323.5,-75.5 323.5,-56.5 248.5,-56.5"/>
<text text-anchor="middle" x="286" y="-63.5" font-family="Helvetica,sans-Serif" font-size="10.00">icns_bcop.H</text>
</a>
</g>
</g>
<!-- Node5&#45;&gt;Node6 -->
<g id="edge6" class="edge">
<title>Node5&#45;&gt;Node6</title>
<path fill="none" stroke="midnightblue" d="M305.32,-102.98C300.4,-93.82 294.64,-83.09 290.7,-75.75"/>
<polygon fill="midnightblue" stroke="midnightblue" points="302.4,-104.93 310.21,-112.08 308.56,-101.62 302.4,-104.93"/>
</g>
<!-- Node9 -->
<g id="node8" class="node">
<title>Node9</title>
<g id="a_node8"><a xlink:href="_c_f_d_sim_8cpp.html" target="_top" xlink:title=" ">
<polygon fill="white" stroke="black" points="595,-56.5 595,-75.5 671,-75.5 671,-56.5 595,-56.5"/>
<text text-anchor="middle" x="633" y="-63.5" font-family="Helvetica,sans-Serif" font-size="10.00">CFDSim.cpp</text>
</a>
</g>
</g>
<!-- Node8&#45;&gt;Node9 -->
<g id="edge8" class="edge">
<title>Node8&#45;&gt;Node9</title>
<path fill="none" stroke="midnightblue" d="M803.73,-110.08C763.36,-99.9 703.95,-84.9 666.91,-75.56"/>
<polygon fill="midnightblue" stroke="midnightblue" points="803.01,-113.51 813.56,-112.56 804.72,-106.72 803.01,-113.51"/>
</g>
<!-- Node8&#45;&gt;Node10 -->
<g id="edge9" class="edge">
<title>Node8&#45;&gt;Node10</title>
<path fill="none" stroke="midnightblue" d="M803.86,-118.68C724.33,-113.95 549.39,-101.42 404,-76 400.95,-75.47 397.78,-74.82 394.65,-74.11"/>
<polygon fill="midnightblue" stroke="midnightblue" points="803.8,-122.19 813.99,-119.27 804.21,-115.2 803.8,-122.19"/>
</g>
<!-- Node23 -->
<g id="node10" class="node">
<title>Node23</title>
<g id="a_node10"><a xlink:href="_p_d_e_ops_8_h.html" target="_top" xlink:title=" ">
<polygon fill="white" stroke="red" points="511.5,-56.5 511.5,-75.5 576.5,-75.5 576.5,-56.5 511.5,-56.5"/>
<text text-anchor="middle" x="544" y="-63.5" font-family="Helvetica,sans-Serif" font-size="10.00">PDEOps.H</text>
</a>
</g>
</g>
<!-- Node8&#45;&gt;Node23 -->
<g id="edge10" class="edge">
<title>Node8&#45;&gt;Node23</title>
<path fill="none" stroke="midnightblue" d="M803.8,-114.1C751.96,-105.69 662.45,-90.77 586,-76 582.92,-75.41 579.73,-74.76 576.53,-74.11"/>
<polygon fill="midnightblue" stroke="midnightblue" points="803.53,-117.6 813.96,-115.74 804.65,-110.69 803.53,-117.6"/>
</g>
<!-- Node38 -->
<g id="node11" class="node">
<title>Node38</title>
<g id="a_node11"><a xlink:href="_p_d_e_8_h.html" target="_top" xlink:title=" ">
<polygon fill="white" stroke="red" points="598.5,-0.5 598.5,-19.5 645.5,-19.5 645.5,-0.5 598.5,-0.5"/>
<text text-anchor="middle" x="622" y="-7.5" font-family="Helvetica,sans-Serif" font-size="10.00">PDE.H</text>
</a>
</g>
</g>
<!-- Node8&#45;&gt;Node38 -->
<g id="edge12" class="edge">
<title>Node8&#45;&gt;Node38</title>
<path fill="none" stroke="midnightblue" d="M805.46,-109.52C779.62,-101.65 746.07,-90.1 718,-76 684.9,-59.38 649.79,-33.07 632.66,-19.59"/>
<polygon fill="midnightblue" stroke="midnightblue" points="804.74,-112.95 815.32,-112.46 806.73,-106.25 804.74,-112.95"/>
</g>
<!-- Node60 -->
<g id="node12" class="node">
<title>Node60</title>
<g id="a_node12"><a xlink:href="_a_b_l_forcing_8cpp.html" target="_top" xlink:title=" ">
<polygon fill="white" stroke="black" points="727.5,-56.5 727.5,-75.5 818.5,-75.5 818.5,-56.5 727.5,-56.5"/>
<text text-anchor="middle" x="773" y="-63.5" font-family="Helvetica,sans-Serif" font-size="10.00">ABLForcing.cpp</text>
</a>
</g>
</g>
<!-- Node8&#45;&gt;Node60 -->
<g id="edge13" class="edge">
<title>Node8&#45;&gt;Node60</title>
<path fill="none" stroke="midnightblue" d="M826.97,-106.38C813.59,-96.62 796.44,-84.11 785.11,-75.83"/>
<polygon fill="midnightblue" stroke="midnightblue" points="824.97,-109.26 835.11,-112.32 829.1,-103.6 824.97,-109.26"/>
</g>
<!-- Node61 -->
<g id="node13" class="node">
<title>Node61</title>
<g id="a_node13"><a xlink:href="_a_b_l_wall_function_8_h.html" target="_top" xlink:title=" ">
<polygon fill="white" stroke="red" points="838.5,-0.5 838.5,-19.5 945.5,-19.5 945.5,-0.5 838.5,-0.5"/>
<text text-anchor="middle" x="892" y="-7.5" font-family="Helvetica,sans-Serif" font-size="10.00">ABLWallFunction.H</text>
</a>
</g>
</g>
<!-- Node8&#45;&gt;Node61 -->
<g id="edge14" class="edge">
<title>Node8&#45;&gt;Node61</title>
<path fill="none" stroke="midnightblue" d="M851.14,-102.56C854.41,-89.32 859.5,-71.2 866,-56 871.68,-42.73 880.41,-28.47 886.17,-19.64"/>
<polygon fill="midnightblue" stroke="midnightblue" points="847.71,-101.82 848.83,-112.36 854.53,-103.43 847.71,-101.82"/>
</g>
<!-- Node69 -->
<g id="node14" class="node">
<title>Node69</title>
<g id="a_node14"><a xlink:href="_field_plane_averaging_8_h.html" target="_top" xlink:title=" ">
<polygon fill="white" stroke="red" points="875,-56.5 875,-75.5 1001,-75.5 1001,-56.5 875,-56.5"/>
<text text-anchor="middle" x="938" y="-63.5" font-family="Helvetica,sans-Serif" font-size="10.00">FieldPlaneAveraging.H</text>
</a>
</g>
</g>
<!-- Node8&#45;&gt;Node69 -->
<g id="edge15" class="edge">
<title>Node8&#45;&gt;Node69</title>
<path fill="none" stroke="midnightblue" d="M870.29,-107.18C887.04,-97.24 909.1,-84.15 923.42,-75.65"/>
<polygon fill="midnightblue" stroke="midnightblue" points="868.43,-104.21 861.62,-112.32 872.01,-110.23 868.43,-104.21"/>
</g>
<!-- Node8&#45;&gt;Node88 -->
<g id="edge18" class="edge">
<title>Node8&#45;&gt;Node88</title>
<path fill="none" stroke="midnightblue" d="M803.65,-116.08C738.17,-108.48 610.19,-92.98 502,-76 499.09,-75.54 496.1,-75.05 493.08,-74.54"/>
<polygon fill="midnightblue" stroke="midnightblue" points="803.28,-119.56 813.61,-117.23 804.08,-112.6 803.28,-119.56"/>
</g>
<!-- Node8&#45;&gt;Node92 -->
<g id="edge19" class="edge">
<title>Node8&#45;&gt;Node92</title>
<path fill="none" stroke="midnightblue" d="M890.17,-110.69C932.85,-100.49 997.39,-85.07 1037.28,-75.54"/>
<polygon fill="midnightblue" stroke="midnightblue" points="889.26,-107.3 880.35,-113.03 890.89,-114.11 889.26,-107.3"/>
</g>
<!-- Node8&#45;&gt;Node124 -->
<g id="edge20" class="edge">
<title>Node8&#45;&gt;Node124</title>
<path fill="none" stroke="midnightblue" d="M890.55,-114.22C955.37,-104.14 1076.87,-85.23 1144.81,-74.66"/>
<polygon fill="midnightblue" stroke="midnightblue" points="889.61,-110.83 880.27,-115.82 890.69,-117.74 889.61,-110.83"/>
</g>
<!-- Node8&#45;&gt;Node125 -->
<g id="edge21" class="edge">
<title>Node8&#45;&gt;Node125</title>
<path fill="none" stroke="midnightblue" d="M890.45,-116.56C964.65,-108.89 1120.52,-92.4 1252,-76 1254.94,-75.63 1257.95,-75.25 1260.99,-74.85"/>
<polygon fill="midnightblue" stroke="midnightblue" points="889.7,-113.12 880.11,-117.63 890.42,-120.08 889.7,-113.12"/>
</g>
<!-- Node8&#45;&gt;Node154 -->
<g id="edge22" class="edge">
<title>Node8&#45;&gt;Node154</title>
<path fill="none" stroke="midnightblue" d="M890.22,-118.85C981.42,-114 1200.08,-100.64 1382,-76 1385.02,-75.59 1388.15,-75.12 1391.28,-74.61"/>
<polygon fill="midnightblue" stroke="midnightblue" points="889.8,-115.37 880,-119.39 890.17,-122.36 889.8,-115.37"/>
</g>
<!-- Node23&#45;&gt;Node38 -->
<g id="edge11" class="edge">
<title>Node23&#45;&gt;Node38</title>
<path fill="none" stroke="midnightblue" d="M564.77,-50.62C579.02,-40.76 597.46,-27.99 609.5,-19.65"/>
<polygon fill="midnightblue" stroke="midnightblue" points="562.76,-47.75 556.53,-56.32 566.75,-53.51 562.76,-47.75"/>
</g>
<!-- Node69&#45;&gt;Node61 -->
<g id="edge16" class="edge">
<title>Node69&#45;&gt;Node61</title>
<path fill="none" stroke="midnightblue" d="M923.89,-48.43C915.82,-38.97 906.04,-27.48 899.45,-19.75"/>
<polygon fill="midnightblue" stroke="midnightblue" points="921.25,-50.74 930.4,-56.08 926.58,-46.2 921.25,-50.74"/>
</g>
<!-- Node69&#45;&gt;Node70 -->
<g id="edge17" class="edge">
<title>Node69&#45;&gt;Node70</title>
<path fill="none" stroke="midnightblue" d="M1011.55,-55.86C1168.93,-38.9 1341.49,-23.91 1432.73,-16.28"/>
<polygon fill="midnightblue" stroke="midnightblue" points="1010.77,-52.43 1001.2,-56.98 1011.52,-59.39 1010.77,-52.43"/>
</g>
<!-- Node181&#45;&gt;Node23 -->
<g id="edge34" class="edge">
<title>Node181&#45;&gt;Node23</title>
<path fill="none" stroke="midnightblue" d="M544,-101.8C544,-92.91 544,-82.78 544,-75.75"/>
<polygon fill="midnightblue" stroke="midnightblue" points="540.5,-102.08 544,-112.08 547.5,-102.08 540.5,-102.08"/>
</g>
<!-- Node181&#45;&gt;Node88 -->
<g id="edge35" class="edge">
<title>Node181&#45;&gt;Node88</title>
<path fill="none" stroke="midnightblue" d="M520.71,-107.18C503.96,-97.24 481.9,-84.15 467.58,-75.65"/>
<polygon fill="midnightblue" stroke="midnightblue" points="518.99,-110.23 529.38,-112.32 522.57,-104.21 518.99,-110.23"/>
</g>
<!-- Node183&#45;&gt;Node70 -->
<g id="edge38" class="edge">
<title>Node183&#45;&gt;Node70</title>
<path fill="none" stroke="midnightblue" d="M1719.2,-110.22C1760.44,-100.21 1803.87,-82.78 1781,-56 1753.32,-23.59 1636.22,-14.4 1561.3,-11.87"/>
<polygon fill="midnightblue" stroke="midnightblue" points="1718.32,-106.83 1709.36,-112.48 1719.89,-113.65 1718.32,-106.83"/>
</g>
<!-- Node183&#45;&gt;Node187 -->
<g id="edge39" class="edge">
<title>Node183&#45;&gt;Node187</title>
<path fill="none" stroke="midnightblue" d="M1639.96,-106.1C1627.54,-96.38 1611.76,-84.03 1601.29,-75.83"/>
<polygon fill="midnightblue" stroke="midnightblue" points="1637.88,-108.92 1647.91,-112.32 1642.2,-103.4 1637.88,-108.92"/>
</g>
<!-- Node183&#45;&gt;Node188 -->
<g id="edge40" class="edge">
<title>Node183&#45;&gt;Node188</title>
<path fill="none" stroke="midnightblue" d="M1677.04,-105.54C1688.27,-95.91 1702.32,-83.87 1711.69,-75.83"/>
<polygon fill="midnightblue" stroke="midnightblue" points="1674.44,-103.16 1669.12,-112.32 1678.99,-108.47 1674.44,-103.16"/>
</g>
<!-- Node183&#45;&gt;Node189 -->
<g id="edge41" class="edge">
<title>Node183&#45;&gt;Node189</title>
<path fill="none" stroke="midnightblue" d="M1704.47,-110.09C1746.97,-99.89 1809.58,-84.86 1848.51,-75.52"/>
<polygon fill="midnightblue" stroke="midnightblue" points="1703.56,-106.71 1694.65,-112.44 1705.19,-113.51 1703.56,-106.71"/>
</g>
<!-- Node183&#45;&gt;Node191 -->
<g id="edge42" class="edge">
<title>Node183&#45;&gt;Node191</title>
<path fill="none" stroke="midnightblue" d="M1724.28,-110.87C1792.07,-100.35 1896.58,-84.13 1957.74,-74.64"/>
<polygon fill="midnightblue" stroke="midnightblue" points="1723.49,-107.45 1714.14,-112.44 1724.56,-114.37 1723.49,-107.45"/>
</g>
<!-- Node183&#45;&gt;Node193 -->
<g id="edge43" class="edge">
<title>Node183&#45;&gt;Node193</title>
<path fill="none" stroke="midnightblue" d="M1727.34,-114.71C1808.16,-106.97 1946.66,-92.78 2065,-76 2067.9,-75.59 2070.89,-75.14 2073.9,-74.67"/>
<polygon fill="midnightblue" stroke="midnightblue" points="1726.92,-111.23 1717.3,-115.67 1727.58,-118.2 1726.92,-111.23"/>
</g>
</g>
</svg>
