<?xml version="1.0" encoding="UTF-8" standalone="no"?>
<!DOCTYPE svg PUBLIC "-//W3C//DTD SVG 1.1//EN"
 "http://www.w3.org/Graphics/SVG/1.1/DTD/svg11.dtd">
<!-- Generated by graphviz version 2.43.0 (0)
 -->
<!-- Title: IntField.H Pages: 1 -->
<svg width="3681pt" height="252pt"
 viewBox="0.00 0.00 3680.50 252.00" xmlns="http://www.w3.org/2000/svg" xmlns:xlink="http://www.w3.org/1999/xlink">
<g id="graph0" class="graph" transform="scale(1 1) rotate(0) translate(4 248)">
<title>IntField.H</title>
<polygon fill="white" stroke="transparent" points="-4,4 -4,-248 3676.5,-248 3676.5,4 -4,4"/>
<!-- Node1 -->
<g id="node1" class="node">
<title>Node1</title>
<g id="a_node1"><a xlink:title=" ">
<polygon fill="#bfbfbf" stroke="black" points="1021,-224.5 1021,-243.5 1084,-243.5 1084,-224.5 1021,-224.5"/>
<text text-anchor="middle" x="1052.5" y="-231.5" font-family="Helvetica,sans-Serif" font-size="10.00">IntField.H</text>
</a>
</g>
</g>
<!-- Node2 -->
<g id="node2" class="node">
<title>Node2</title>
<g id="a_node2"><a xlink:href="_field_repo_8_h.html" target="_top" xlink:title=" ">
<polygon fill="white" stroke="black" points="1755,-168.5 1755,-187.5 1830,-187.5 1830,-168.5 1755,-168.5"/>
<text text-anchor="middle" x="1792.5" y="-175.5" font-family="Helvetica,sans-Serif" font-size="10.00">FieldRepo.H</text>
</a>
</g>
</g>
<!-- Node1&#45;&gt;Node2 -->
<g id="edge1" class="edge">
<title>Node1&#45;&gt;Node2</title>
<path fill="none" stroke="midnightblue" d="M1094.37,-229.94C1225.86,-220.35 1629.22,-190.91 1754.79,-181.75"/>
<polygon fill="midnightblue" stroke="midnightblue" points="1094.02,-226.46 1084.3,-230.68 1094.53,-233.44 1094.02,-226.46"/>
</g>
<!-- Node177 -->
<g id="node24" class="node">
<title>Node177</title>
<g id="a_node24"><a xlink:href="_int_field_8cpp.html" target="_top" xlink:title=" ">
<polygon fill="white" stroke="black" points="256,-112.5 256,-131.5 329,-131.5 329,-112.5 256,-112.5"/>
<text text-anchor="middle" x="292.5" y="-119.5" font-family="Helvetica,sans-Serif" font-size="10.00">IntField.cpp</text>
</a>
</g>
</g>
<!-- Node1&#45;&gt;Node177 -->
<g id="edge66" class="edge">
<title>Node1&#45;&gt;Node177</title>
<path fill="none" stroke="midnightblue" d="M1011.03,-227.58C901.7,-213.19 596.56,-172.34 343.5,-132 338.88,-131.26 334.04,-130.46 329.25,-129.63"/>
<polygon fill="midnightblue" stroke="midnightblue" points="1010.62,-231.06 1021,-228.89 1011.54,-224.12 1010.62,-231.06"/>
</g>
<!-- Node3 -->
<g id="node3" class="node">
<title>Node3</title>
<g id="a_node3"><a xlink:href="_b_c_interface_8cpp.html" target="_top" xlink:title=" ">
<polygon fill="white" stroke="black" points="1387.5,-56.5 1387.5,-75.5 1481.5,-75.5 1481.5,-56.5 1387.5,-56.5"/>
<text text-anchor="middle" x="1434.5" y="-63.5" font-family="Helvetica,sans-Serif" font-size="10.00">BCInterface.cpp</text>
</a>
</g>
</g>
<!-- Node2&#45;&gt;Node3 -->
<g id="edge2" class="edge">
<title>Node2&#45;&gt;Node3</title>
<path fill="none" stroke="midnightblue" d="M1786.69,-158.31C1780.99,-143.27 1770.75,-122.9 1754.5,-112 1710.82,-82.71 1559.46,-72.18 1481.59,-68.65"/>
<polygon fill="midnightblue" stroke="midnightblue" points="1783.5,-159.8 1790.06,-168.12 1790.12,-157.52 1783.5,-159.8"/>
</g>
<!-- Node4 -->
<g id="node4" class="node">
<title>Node4</title>
<g id="a_node4"><a xlink:href="_fixed_gradient_b_c_8_h.html" target="_top" xlink:title=" ">
<polygon fill="white" stroke="black" points="761.5,-112.5 761.5,-131.5 869.5,-131.5 869.5,-112.5 761.5,-112.5"/>
<text text-anchor="middle" x="815.5" y="-119.5" font-family="Helvetica,sans-Serif" font-size="10.00">FixedGradientBC.H</text>
</a>
</g>
</g>
<!-- Node2&#45;&gt;Node4 -->
<g id="edge3" class="edge">
<title>Node2&#45;&gt;Node4</title>
<path fill="none" stroke="midnightblue" d="M1744.92,-176.21C1609.27,-173.63 1209.11,-163.69 878.5,-132 875.64,-131.73 872.71,-131.41 869.76,-131.08"/>
<polygon fill="midnightblue" stroke="midnightblue" points="1744.91,-179.71 1754.97,-176.4 1745.04,-172.71 1744.91,-179.71"/>
</g>
<!-- Node6 -->
<g id="node6" class="node">
<title>Node6</title>
<g id="a_node6"><a xlink:href="velocity__bcs_8_h.html" target="_top" xlink:title=" ">
<polygon fill="white" stroke="black" points="3584.5,-112.5 3584.5,-131.5 3672.5,-131.5 3672.5,-112.5 3584.5,-112.5"/>
<text text-anchor="middle" x="3628.5" y="-119.5" font-family="Helvetica,sans-Serif" font-size="10.00">velocity_bcs.H</text>
</a>
</g>
</g>
<!-- Node2&#45;&gt;Node6 -->
<g id="edge6" class="edge">
<title>Node2&#45;&gt;Node6</title>
<path fill="none" stroke="midnightblue" d="M1840.35,-176.62C2087.4,-174.55 3220.51,-163.45 3570.5,-132 3574.97,-131.6 3579.61,-131.07 3584.24,-130.47"/>
<polygon fill="midnightblue" stroke="midnightblue" points="1840.23,-173.12 1830.26,-176.71 1840.29,-180.12 1840.23,-173.12"/>
</g>
<!-- Node9 -->
<g id="node8" class="node">
<title>Node9</title>
<g id="a_node8"><a xlink:href="_c_f_d_sim_8_h.html" target="_top" xlink:title=" ">
<polygon fill="white" stroke="red" points="525.5,-112.5 525.5,-131.5 591.5,-131.5 591.5,-112.5 525.5,-112.5"/>
<text text-anchor="middle" x="558.5" y="-119.5" font-family="Helvetica,sans-Serif" font-size="10.00">CFDSim.H</text>
</a>
</g>
</g>
<!-- Node2&#45;&gt;Node9 -->
<g id="edge8" class="edge">
<title>Node2&#45;&gt;Node9</title>
<path fill="none" stroke="midnightblue" d="M1744.85,-176.16C1552.4,-172.6 831.97,-157.83 605.5,-132 600.96,-131.48 596.2,-130.77 591.53,-129.97"/>
<polygon fill="midnightblue" stroke="midnightblue" points="1744.87,-179.66 1754.93,-176.34 1745,-172.66 1744.87,-179.66"/>
</g>
<!-- Node11 -->
<g id="node10" class="node">
<title>Node11</title>
<g id="a_node10"><a xlink:href="incflo_8_h.html" target="_top" xlink:title=" ">
<polygon fill="white" stroke="red" points="0,-56.5 0,-75.5 53,-75.5 53,-56.5 0,-56.5"/>
<text text-anchor="middle" x="26.5" y="-63.5" font-family="Helvetica,sans-Serif" font-size="10.00">incflo.H</text>
</a>
</g>
</g>
<!-- Node2&#45;&gt;Node11 -->
<g id="edge30" class="edge">
<title>Node2&#45;&gt;Node11</title>
<path fill="none" stroke="midnightblue" d="M1744.51,-176.89C1511.69,-176.16 505.55,-170.79 371.5,-132 354.66,-127.13 354.08,-117.7 337.5,-112 220.92,-71.95 183.6,-98.99 62.5,-76 59.46,-75.42 56.3,-74.75 53.16,-74.03"/>
<polygon fill="midnightblue" stroke="midnightblue" points="1744.68,-180.39 1754.69,-176.92 1744.7,-173.39 1744.68,-180.39"/>
</g>
<!-- Node89 -->
<g id="node15" class="node">
<title>Node89</title>
<g id="a_node15"><a xlink:href="_p_d_e_base_8cpp.html" target="_top" xlink:title=" ">
<polygon fill="white" stroke="black" points="71.5,-56.5 71.5,-75.5 151.5,-75.5 151.5,-56.5 71.5,-56.5"/>
<text text-anchor="middle" x="111.5" y="-63.5" font-family="Helvetica,sans-Serif" font-size="10.00">PDEBase.cpp</text>
</a>
</g>
</g>
<!-- Node2&#45;&gt;Node89 -->
<g id="edge48" class="edge">
<title>Node2&#45;&gt;Node89</title>
<path fill="none" stroke="midnightblue" d="M1744.58,-176.57C1516.43,-174.39 545.86,-163.31 414.5,-132 394,-127.11 391.62,-118.27 371.5,-112 280.68,-83.69 254.17,-92.59 160.5,-76 157.6,-75.49 154.61,-74.95 151.6,-74.41"/>
<polygon fill="midnightblue" stroke="midnightblue" points="1744.85,-180.08 1754.88,-176.67 1744.91,-173.08 1744.85,-180.08"/>
</g>
<!-- Node93 -->
<g id="node16" class="node">
<title>Node93</title>
<g id="a_node16"><a xlink:href="_tioga_interface_8cpp.html" target="_top" xlink:title=" ">
<polygon fill="white" stroke="black" points="620,-56.5 620,-75.5 727,-75.5 727,-56.5 620,-56.5"/>
<text text-anchor="middle" x="673.5" y="-63.5" font-family="Helvetica,sans-Serif" font-size="10.00">TiogaInterface.cpp</text>
</a>
</g>
</g>
<!-- Node2&#45;&gt;Node93 -->
<g id="edge54" class="edge">
<title>Node2&#45;&gt;Node93</title>
<path fill="none" stroke="midnightblue" d="M1744.49,-177.25C1549.05,-177.95 819.3,-177.47 727.5,-132 702.78,-119.76 685.25,-90.44 677.67,-75.73"/>
<polygon fill="midnightblue" stroke="midnightblue" points="1744.75,-180.75 1754.73,-177.21 1744.72,-173.75 1744.75,-180.75"/>
</g>
<!-- Node125 -->
<g id="node17" class="node">
<title>Node125</title>
<g id="a_node17"><a xlink:href="_re_averaging_8cpp.html" target="_top" xlink:title=" ">
<polygon fill="white" stroke="black" points="745.5,-56.5 745.5,-75.5 843.5,-75.5 843.5,-56.5 745.5,-56.5"/>
<text text-anchor="middle" x="794.5" y="-63.5" font-family="Helvetica,sans-Serif" font-size="10.00">ReAveraging.cpp</text>
</a>
</g>
</g>
<!-- Node2&#45;&gt;Node125 -->
<g id="edge61" class="edge">
<title>Node2&#45;&gt;Node125</title>
<path fill="none" stroke="midnightblue" d="M1744.51,-176.78C1542.73,-175.63 771.79,-168.83 736.5,-132 717.66,-112.34 753.99,-88.19 777.22,-75.59"/>
<polygon fill="midnightblue" stroke="midnightblue" points="1744.77,-180.28 1754.79,-176.84 1744.81,-173.28 1744.77,-180.28"/>
</g>
<!-- Node126 -->
<g id="node18" class="node">
<title>Node126</title>
<g id="a_node18"><a xlink:href="_reynolds_stress_8cpp.html" target="_top" xlink:title=" ">
<polygon fill="white" stroke="black" points="861.5,-56.5 861.5,-75.5 973.5,-75.5 973.5,-56.5 861.5,-56.5"/>
<text text-anchor="middle" x="917.5" y="-63.5" font-family="Helvetica,sans-Serif" font-size="10.00">ReynoldsStress.cpp</text>
</a>
</g>
</g>
<!-- Node2&#45;&gt;Node126 -->
<g id="edge62" class="edge">
<title>Node2&#45;&gt;Node126</title>
<path fill="none" stroke="midnightblue" d="M1744.54,-176.77C1543.77,-175.55 779.5,-168.54 744.5,-132 738.35,-125.58 739.06,-119.03 744.5,-112 752.5,-101.66 824.92,-85.43 873.49,-75.55"/>
<polygon fill="midnightblue" stroke="midnightblue" points="1744.75,-180.27 1754.77,-176.82 1744.79,-173.27 1744.75,-180.27"/>
</g>
<!-- Node155 -->
<g id="node19" class="node">
<title>Node155</title>
<g id="a_node19"><a xlink:href="_actuator_8cpp.html" target="_top" xlink:title=" ">
<polygon fill="white" stroke="black" points="992,-56.5 992,-75.5 1069,-75.5 1069,-56.5 992,-56.5"/>
<text text-anchor="middle" x="1030.5" y="-63.5" font-family="Helvetica,sans-Serif" font-size="10.00">Actuator.cpp</text>
</a>
</g>
</g>
<!-- Node2&#45;&gt;Node155 -->
<g id="edge65" class="edge">
<title>Node2&#45;&gt;Node155</title>
<path fill="none" stroke="midnightblue" d="M1744.58,-176.75C1544.83,-175.47 787.21,-168.25 752.5,-132 746.35,-125.58 746.72,-118.75 752.5,-112 786.13,-72.69 931.52,-84.77 982.5,-76 985.51,-75.48 988.62,-74.93 991.75,-74.37"/>
<polygon fill="midnightblue" stroke="midnightblue" points="1744.74,-180.25 1754.76,-176.81 1744.78,-173.25 1744.74,-180.25"/>
</g>
<!-- Node166 -->
<g id="node20" class="node">
<title>Node166</title>
<g id="a_node20"><a xlink:href="_godunov_8_h.html" target="_top" xlink:title=" ">
<polygon fill="white" stroke="red" points="887.5,-112.5 887.5,-131.5 957.5,-131.5 957.5,-112.5 887.5,-112.5"/>
<text text-anchor="middle" x="922.5" y="-119.5" font-family="Helvetica,sans-Serif" font-size="10.00">Godunov.H</text>
</a>
</g>
</g>
<!-- Node2&#45;&gt;Node166 -->
<g id="edge21" class="edge">
<title>Node2&#45;&gt;Node166</title>
<path fill="none" stroke="midnightblue" d="M1744.69,-176.85C1617.51,-175.93 1260.56,-169.87 966.5,-132 963.72,-131.64 960.84,-131.21 957.97,-130.72"/>
<polygon fill="midnightblue" stroke="midnightblue" points="1744.84,-180.35 1754.86,-176.92 1744.89,-173.35 1744.84,-180.35"/>
</g>
<!-- Node172 -->
<g id="node21" class="node">
<title>Node172</title>
<g id="a_node21"><a xlink:href="_m_o_l_8_h.html" target="_top" xlink:title=" ">
<polygon fill="white" stroke="red" points="976,-112.5 976,-131.5 1025,-131.5 1025,-112.5 976,-112.5"/>
<text text-anchor="middle" x="1000.5" y="-119.5" font-family="Helvetica,sans-Serif" font-size="10.00">MOL.H</text>
</a>
</g>
</g>
<!-- Node2&#45;&gt;Node172 -->
<g id="edge22" class="edge">
<title>Node2&#45;&gt;Node172</title>
<path fill="none" stroke="midnightblue" d="M1744.41,-177.46C1624,-177.88 1300.15,-174.61 1034.5,-132 1031.49,-131.52 1028.35,-130.88 1025.26,-130.16"/>
<polygon fill="midnightblue" stroke="midnightblue" points="1744.76,-180.95 1754.75,-177.41 1744.73,-173.95 1744.76,-180.95"/>
</g>
<!-- Node175 -->
<g id="node22" class="node">
<title>Node175</title>
<g id="a_node22"><a xlink:href="_field_8cpp.html" target="_top" xlink:title=" ">
<polygon fill="white" stroke="black" points="1043.5,-112.5 1043.5,-131.5 1103.5,-131.5 1103.5,-112.5 1043.5,-112.5"/>
<text text-anchor="middle" x="1073.5" y="-119.5" font-family="Helvetica,sans-Serif" font-size="10.00">Field.cpp</text>
</a>
</g>
</g>
<!-- Node2&#45;&gt;Node175 -->
<g id="edge23" class="edge">
<title>Node2&#45;&gt;Node175</title>
<path fill="none" stroke="midnightblue" d="M1744.43,-176.47C1632.83,-174.65 1347.78,-166.7 1112.5,-132 1109.61,-131.57 1106.62,-131.05 1103.64,-130.46"/>
<polygon fill="midnightblue" stroke="midnightblue" points="1744.63,-179.97 1754.68,-176.62 1744.73,-172.97 1744.63,-179.97"/>
</g>
<!-- Node176 -->
<g id="node23" class="node">
<title>Node176</title>
<g id="a_node23"><a xlink:href="_field_repo_8cpp.html" target="_top" xlink:title=" ">
<polygon fill="white" stroke="black" points="1122,-112.5 1122,-131.5 1207,-131.5 1207,-112.5 1122,-112.5"/>
<text text-anchor="middle" x="1164.5" y="-119.5" font-family="Helvetica,sans-Serif" font-size="10.00">FieldRepo.cpp</text>
</a>
</g>
</g>
<!-- Node2&#45;&gt;Node176 -->
<g id="edge24" class="edge">
<title>Node2&#45;&gt;Node176</title>
<path fill="none" stroke="midnightblue" d="M1744.71,-174.78C1645.83,-169.85 1411.68,-156.46 1216.5,-132 1213.41,-131.61 1210.22,-131.17 1207.02,-130.69"/>
<polygon fill="midnightblue" stroke="midnightblue" points="1744.82,-178.29 1754.98,-175.28 1745.16,-171.3 1744.82,-178.29"/>
</g>
<!-- Node2&#45;&gt;Node177 -->
<g id="edge25" class="edge">
<title>Node2&#45;&gt;Node177</title>
<path fill="none" stroke="midnightblue" d="M1744.7,-176.44C1526.6,-173.74 624.46,-161 343.5,-132 338.85,-131.52 333.98,-130.86 329.18,-130.12"/>
<polygon fill="midnightblue" stroke="midnightblue" points="1744.82,-179.94 1754.86,-176.56 1744.9,-172.94 1744.82,-179.94"/>
</g>
<!-- Node178 -->
<g id="node25" class="node">
<title>Node178</title>
<g id="a_node25"><a xlink:href="_scratch_field_8cpp.html" target="_top" xlink:title=" ">
<polygon fill="white" stroke="black" points="1225.5,-112.5 1225.5,-131.5 1321.5,-131.5 1321.5,-112.5 1225.5,-112.5"/>
<text text-anchor="middle" x="1273.5" y="-119.5" font-family="Helvetica,sans-Serif" font-size="10.00">ScratchField.cpp</text>
</a>
</g>
</g>
<!-- Node2&#45;&gt;Node178 -->
<g id="edge26" class="edge">
<title>Node2&#45;&gt;Node178</title>
<path fill="none" stroke="midnightblue" d="M1745.01,-173.31C1661.16,-166.59 1481.49,-151.26 1330.5,-132 1327.62,-131.63 1324.66,-131.23 1321.67,-130.81"/>
<polygon fill="midnightblue" stroke="midnightblue" points="1744.74,-176.8 1754.99,-174.11 1745.3,-169.82 1744.74,-176.8"/>
</g>
<!-- Node179 -->
<g id="node26" class="node">
<title>Node179</title>
<g id="a_node26"><a xlink:href="_view_field_8cpp.html" target="_top" xlink:title=" ">
<polygon fill="white" stroke="black" points="1339.5,-112.5 1339.5,-131.5 1423.5,-131.5 1423.5,-112.5 1339.5,-112.5"/>
<text text-anchor="middle" x="1381.5" y="-119.5" font-family="Helvetica,sans-Serif" font-size="10.00">ViewField.cpp</text>
</a>
</g>
</g>
<!-- Node2&#45;&gt;Node179 -->
<g id="edge27" class="edge">
<title>Node2&#45;&gt;Node179</title>
<path fill="none" stroke="midnightblue" d="M1744.71,-171.8C1675.66,-164.11 1544.02,-148.8 1432.5,-132 1429.65,-131.57 1426.72,-131.11 1423.77,-130.63"/>
<polygon fill="midnightblue" stroke="midnightblue" points="1744.51,-175.3 1754.84,-172.92 1745.29,-168.34 1744.51,-175.3"/>
</g>
<!-- Node180 -->
<g id="node27" class="node">
<title>Node180</title>
<g id="a_node27"><a xlink:href="field__algebra_8cpp.html" target="_top" xlink:title=" ">
<polygon fill="white" stroke="black" points="1441.5,-112.5 1441.5,-131.5 1541.5,-131.5 1541.5,-112.5 1441.5,-112.5"/>
<text text-anchor="middle" x="1491.5" y="-119.5" font-family="Helvetica,sans-Serif" font-size="10.00">field_algebra.cpp</text>
</a>
</g>
</g>
<!-- Node2&#45;&gt;Node180 -->
<g id="edge28" class="edge">
<title>Node2&#45;&gt;Node180</title>
<path fill="none" stroke="midnightblue" d="M1744.91,-168.46C1688.54,-158.35 1595.21,-141.61 1538.92,-131.51"/>
<polygon fill="midnightblue" stroke="midnightblue" points="1744.53,-171.95 1754.99,-170.27 1745.76,-165.06 1744.53,-171.95"/>
</g>
<!-- Node181 -->
<g id="node28" class="node">
<title>Node181</title>
<g id="a_node28"><a xlink:href="diffusion_8_h.html" target="_top" xlink:title=" ">
<polygon fill="white" stroke="red" points="1560,-112.5 1560,-131.5 1629,-131.5 1629,-112.5 1560,-112.5"/>
<text text-anchor="middle" x="1594.5" y="-119.5" font-family="Helvetica,sans-Serif" font-size="10.00">diffusion.H</text>
</a>
</g>
</g>
<!-- Node2&#45;&gt;Node181 -->
<g id="edge29" class="edge">
<title>Node2&#45;&gt;Node181</title>
<path fill="none" stroke="midnightblue" d="M1751.06,-165.7C1713.69,-155.51 1659.56,-140.74 1625.73,-131.52"/>
<polygon fill="midnightblue" stroke="midnightblue" points="1750.56,-169.19 1761.13,-168.44 1752.4,-162.44 1750.56,-169.19"/>
</g>
<!-- Node182 -->
<g id="node29" class="node">
<title>Node182</title>
<g id="a_node29"><a xlink:href="_p_d_e_helpers_8_h.html" target="_top" xlink:title=" ">
<polygon fill="white" stroke="red" points="423.5,-112.5 423.5,-131.5 507.5,-131.5 507.5,-112.5 423.5,-112.5"/>
<text text-anchor="middle" x="465.5" y="-119.5" font-family="Helvetica,sans-Serif" font-size="10.00">PDEHelpers.H</text>
</a>
</g>
</g>
<!-- Node2&#45;&gt;Node182 -->
<g id="edge31" class="edge">
<title>Node2&#45;&gt;Node182</title>
<path fill="none" stroke="midnightblue" d="M1744.65,-176.21C1542.99,-172.72 761.5,-157.81 516.5,-132 513.64,-131.7 510.7,-131.33 507.74,-130.92"/>
<polygon fill="midnightblue" stroke="midnightblue" points="1744.85,-179.71 1754.91,-176.38 1744.97,-172.71 1744.85,-179.71"/>
</g>
<!-- Node183 -->
<g id="node30" class="node">
<title>Node183</title>
<g id="a_node30"><a xlink:href="_density_source_8_h.html" target="_top" xlink:title=" ">
<polygon fill="white" stroke="red" points="1647.5,-112.5 1647.5,-131.5 1745.5,-131.5 1745.5,-112.5 1647.5,-112.5"/>
<text text-anchor="middle" x="1696.5" y="-119.5" font-family="Helvetica,sans-Serif" font-size="10.00">DensitySource.H</text>
</a>
</g>
</g>
<!-- Node2&#45;&gt;Node183 -->
<g id="edge34" class="edge">
<title>Node2&#45;&gt;Node183</title>
<path fill="none" stroke="midnightblue" d="M1767.93,-163.18C1750.26,-153.24 1726.99,-140.15 1711.89,-131.65"/>
<polygon fill="midnightblue" stroke="midnightblue" points="1766.64,-166.47 1777.08,-168.32 1770.08,-160.37 1766.64,-166.47"/>
</g>
<!-- Node184 -->
<g id="node31" class="node">
<title>Node184</title>
<g id="a_node31"><a xlink:href="_momentum_source_8_h.html" target="_top" xlink:title=" ">
<polygon fill="white" stroke="red" points="1915.5,-112.5 1915.5,-131.5 2031.5,-131.5 2031.5,-112.5 1915.5,-112.5"/>
<text text-anchor="middle" x="1973.5" y="-119.5" font-family="Helvetica,sans-Serif" font-size="10.00">MomentumSource.H</text>
</a>
</g>
</g>
<!-- Node2&#45;&gt;Node184 -->
<g id="edge35" class="edge">
<title>Node2&#45;&gt;Node184</title>
<path fill="none" stroke="midnightblue" d="M1830.82,-165.57C1864.96,-155.38 1914.16,-140.7 1944.95,-131.52"/>
<polygon fill="midnightblue" stroke="midnightblue" points="1829.76,-162.23 1821.18,-168.44 1831.76,-168.94 1829.76,-162.23"/>
</g>
<!-- Node71 -->
<g id="node32" class="node">
<title>Node71</title>
<g id="a_node32"><a xlink:href="_a_b_l_mean_boussinesq_8_h.html" target="_top" xlink:title=" ">
<polygon fill="white" stroke="red" points="1611.5,-56.5 1611.5,-75.5 1739.5,-75.5 1739.5,-56.5 1611.5,-56.5"/>
<text text-anchor="middle" x="1675.5" y="-63.5" font-family="Helvetica,sans-Serif" font-size="10.00">ABLMeanBoussinesq.H</text>
</a>
</g>
</g>
<!-- Node2&#45;&gt;Node71 -->
<g id="edge42" class="edge">
<title>Node2&#45;&gt;Node71</title>
<path fill="none" stroke="midnightblue" d="M1795.96,-158.46C1797.52,-144.38 1797.22,-125.25 1787.5,-112 1773.5,-92.9 1750.03,-81.9 1728.19,-75.56"/>
<polygon fill="midnightblue" stroke="midnightblue" points="1792.49,-158.04 1794.46,-168.45 1799.41,-159.08 1792.49,-158.04"/>
</g>
<!-- Node188 -->
<g id="node33" class="node">
<title>Node188</title>
<g id="a_node33"><a xlink:href="_boussinesq_buoyancy_8_h.html" target="_top" xlink:title=" ">
<polygon fill="white" stroke="red" points="1758,-56.5 1758,-75.5 1887,-75.5 1887,-56.5 1758,-56.5"/>
<text text-anchor="middle" x="1822.5" y="-63.5" font-family="Helvetica,sans-Serif" font-size="10.00">BoussinesqBuoyancy.H</text>
</a>
</g>
</g>
<!-- Node2&#45;&gt;Node188 -->
<g id="edge43" class="edge">
<title>Node2&#45;&gt;Node188</title>
<path fill="none" stroke="midnightblue" d="M1808.21,-160.88C1814.93,-152.88 1822.01,-142.66 1825.5,-132 1831.83,-112.68 1827.77,-88.39 1824.81,-75.68"/>
<polygon fill="midnightblue" stroke="midnightblue" points="1805.6,-158.56 1801.52,-168.34 1810.8,-163.24 1805.6,-158.56"/>
</g>
<!-- Node189 -->
<g id="node34" class="node">
<title>Node189</title>
<g id="a_node34"><a xlink:href="_coriolis_forcing_8_h.html" target="_top" xlink:title=" ">
<polygon fill="white" stroke="red" points="1905,-56.5 1905,-75.5 2004,-75.5 2004,-56.5 1905,-56.5"/>
<text text-anchor="middle" x="1954.5" y="-63.5" font-family="Helvetica,sans-Serif" font-size="10.00">CoriolisForcing.H</text>
</a>
</g>
</g>
<!-- Node2&#45;&gt;Node189 -->
<g id="edge44" class="edge">
<title>Node2&#45;&gt;Node189</title>
<path fill="none" stroke="midnightblue" d="M1813.54,-162.71C1847.68,-139.53 1914.1,-94.43 1941.85,-75.59"/>
<polygon fill="midnightblue" stroke="midnightblue" points="1811.52,-159.86 1805.21,-168.37 1815.45,-165.65 1811.52,-159.86"/>
</g>
<!-- Node190 -->
<g id="node35" class="node">
<title>Node190</title>
<g id="a_node35"><a xlink:href="_density_buoyancy_8_h.html" target="_top" xlink:title=" ">
<polygon fill="white" stroke="red" points="2022,-56.5 2022,-75.5 2133,-75.5 2133,-56.5 2022,-56.5"/>
<text text-anchor="middle" x="2077.5" y="-63.5" font-family="Helvetica,sans-Serif" font-size="10.00">DensityBuoyancy.H</text>
</a>
</g>
</g>
<!-- Node2&#45;&gt;Node190 -->
<g id="edge45" class="edge">
<title>Node2&#45;&gt;Node190</title>
<path fill="none" stroke="midnightblue" d="M1840.1,-173.15C1902.85,-167.28 2008.96,-154.35 2040.5,-132 2060.21,-118.04 2070.81,-90.05 2075.13,-75.79"/>
<polygon fill="midnightblue" stroke="midnightblue" points="1839.69,-169.67 1830.05,-174.07 1840.33,-176.65 1839.69,-169.67"/>
</g>
<!-- Node192 -->
<g id="node36" class="node">
<title>Node192</title>
<g id="a_node36"><a xlink:href="_gravity_forcing_8_h.html" target="_top" xlink:title=" ">
<polygon fill="white" stroke="red" points="2151.5,-56.5 2151.5,-75.5 2249.5,-75.5 2249.5,-56.5 2151.5,-56.5"/>
<text text-anchor="middle" x="2200.5" y="-63.5" font-family="Helvetica,sans-Serif" font-size="10.00">GravityForcing.H</text>
</a>
</g>
</g>
<!-- Node2&#45;&gt;Node192 -->
<g id="edge46" class="edge">
<title>Node2&#45;&gt;Node192</title>
<path fill="none" stroke="midnightblue" d="M1840.21,-173.13C1895.09,-167.75 1987.4,-155.86 2063.5,-132 2110.22,-117.35 2161.37,-89.68 2185.85,-75.64"/>
<polygon fill="midnightblue" stroke="midnightblue" points="1839.71,-169.66 1830.08,-174.09 1840.37,-176.63 1839.71,-169.66"/>
</g>
<!-- Node194 -->
<g id="node37" class="node">
<title>Node194</title>
<g id="a_node37"><a xlink:href="_m_m_s_forcing_8_h.html" target="_top" xlink:title=" ">
<polygon fill="white" stroke="red" points="2868.5,-56.5 2868.5,-75.5 2954.5,-75.5 2954.5,-56.5 2868.5,-56.5"/>
<text text-anchor="middle" x="2911.5" y="-63.5" font-family="Helvetica,sans-Serif" font-size="10.00">MMSForcing.H</text>
</a>
</g>
</g>
<!-- Node2&#45;&gt;Node194 -->
<g id="edge55" class="edge">
<title>Node2&#45;&gt;Node194</title>
<path fill="none" stroke="midnightblue" d="M1840.4,-176.68C2117.81,-174.7 3507.04,-163.25 3537.5,-132 3543.7,-125.63 3543.56,-118.51 3537.5,-112 3497.92,-69.48 3089.9,-66.57 2954.73,-66.79"/>
<polygon fill="midnightblue" stroke="midnightblue" points="1840.23,-173.18 1830.26,-176.75 1840.28,-180.18 1840.23,-173.18"/>
</g>
<!-- Node195 -->
<g id="node38" class="node">
<title>Node195</title>
<g id="a_node38"><a xlink:href="_source_term_8_h.html" target="_top" xlink:title=" ">
<polygon fill="white" stroke="red" points="2125.5,-112.5 2125.5,-131.5 2209.5,-131.5 2209.5,-112.5 2125.5,-112.5"/>
<text text-anchor="middle" x="2167.5" y="-119.5" font-family="Helvetica,sans-Serif" font-size="10.00">SourceTerm.H</text>
</a>
</g>
</g>
<!-- Node2&#45;&gt;Node195 -->
<g id="edge47" class="edge">
<title>Node2&#45;&gt;Node195</title>
<path fill="none" stroke="midnightblue" d="M1840.29,-170.55C1902.71,-162.06 2015.37,-146.5 2111.5,-132 2115.98,-131.32 2120.66,-130.6 2125.32,-129.87"/>
<polygon fill="midnightblue" stroke="midnightblue" points="1839.78,-167.09 1830.35,-171.9 1840.73,-174.02 1839.78,-167.09"/>
</g>
<!-- Node196 -->
<g id="node39" class="node">
<title>Node196</title>
<g id="a_node39"><a xlink:href="_s_d_r_source_8_h.html" target="_top" xlink:title=" ">
<polygon fill="white" stroke="red" points="2227.5,-112.5 2227.5,-131.5 2307.5,-131.5 2307.5,-112.5 2227.5,-112.5"/>
<text text-anchor="middle" x="2267.5" y="-119.5" font-family="Helvetica,sans-Serif" font-size="10.00">SDRSource.H</text>
</a>
</g>
</g>
<!-- Node2&#45;&gt;Node196 -->
<g id="edge49" class="edge">
<title>Node2&#45;&gt;Node196</title>
<path fill="none" stroke="midnightblue" d="M1840.35,-173.15C1919.33,-166.52 2081.84,-151.74 2218.5,-132 2221.41,-131.58 2224.41,-131.11 2227.43,-130.62"/>
<polygon fill="midnightblue" stroke="midnightblue" points="1839.91,-169.67 1830.23,-173.99 1840.49,-176.65 1839.91,-169.67"/>
</g>
<!-- Node198 -->
<g id="node40" class="node">
<title>Node198</title>
<g id="a_node40"><a xlink:href="_temperature_source_8_h.html" target="_top" xlink:title=" ">
<polygon fill="white" stroke="red" points="2325.5,-112.5 2325.5,-131.5 2447.5,-131.5 2447.5,-112.5 2325.5,-112.5"/>
<text text-anchor="middle" x="2386.5" y="-119.5" font-family="Helvetica,sans-Serif" font-size="10.00">TemperatureSource.H</text>
</a>
</g>
</g>
<!-- Node2&#45;&gt;Node198 -->
<g id="edge50" class="edge">
<title>Node2&#45;&gt;Node198</title>
<path fill="none" stroke="midnightblue" d="M1840.16,-173.58C1932.3,-166.83 2141.23,-150.79 2316.5,-132 2319.42,-131.69 2322.41,-131.35 2325.43,-131.01"/>
<polygon fill="midnightblue" stroke="midnightblue" points="1839.76,-170.1 1830.04,-174.32 1840.27,-177.09 1839.76,-170.1"/>
</g>
<!-- Node199 -->
<g id="node41" class="node">
<title>Node199</title>
<g id="a_node41"><a xlink:href="_t_k_e_source_8_h.html" target="_top" xlink:title=" ">
<polygon fill="white" stroke="red" points="2466,-112.5 2466,-131.5 2545,-131.5 2545,-112.5 2466,-112.5"/>
<text text-anchor="middle" x="2505.5" y="-119.5" font-family="Helvetica,sans-Serif" font-size="10.00">TKESource.H</text>
</a>
</g>
</g>
<!-- Node2&#45;&gt;Node199 -->
<g id="edge51" class="edge">
<title>Node2&#45;&gt;Node199</title>
<path fill="none" stroke="midnightblue" d="M1840.13,-175.64C1949.44,-172.1 2226.6,-160.81 2456.5,-132 2459.59,-131.61 2462.78,-131.16 2465.98,-130.66"/>
<polygon fill="midnightblue" stroke="midnightblue" points="1839.97,-172.14 1830.08,-175.95 1840.19,-179.13 1839.97,-172.14"/>
</g>
<!-- Node203 -->
<g id="node42" class="node">
<title>Node203</title>
<g id="a_node42"><a xlink:href="_split_advection_8_h.html" target="_top" xlink:title=" ">
<polygon fill="white" stroke="red" points="2562.5,-112.5 2562.5,-131.5 2660.5,-131.5 2660.5,-112.5 2562.5,-112.5"/>
<text text-anchor="middle" x="2611.5" y="-119.5" font-family="Helvetica,sans-Serif" font-size="10.00">SplitAdvection.H</text>
</a>
</g>
</g>
<!-- Node2&#45;&gt;Node203 -->
<g id="edge52" class="edge">
<title>Node2&#45;&gt;Node203</title>
<path fill="none" stroke="midnightblue" d="M1840.55,-175.74C1960.91,-172.25 2284.92,-160.71 2553.5,-132 2556.44,-131.69 2559.46,-131.33 2562.5,-130.94"/>
<polygon fill="midnightblue" stroke="midnightblue" points="1840.11,-172.25 1830.22,-176.04 1840.31,-179.25 1840.11,-172.25"/>
</g>
<!-- Node205 -->
<g id="node43" class="node">
<title>Node205</title>
<g id="a_node43"><a xlink:href="fvm__utils_8_h.html" target="_top" xlink:title=" ">
<polygon fill="white" stroke="red" points="2679,-112.5 2679,-131.5 2752,-131.5 2752,-112.5 2679,-112.5"/>
<text text-anchor="middle" x="2715.5" y="-119.5" font-family="Helvetica,sans-Serif" font-size="10.00">fvm_utils.H</text>
</a>
</g>
</g>
<!-- Node2&#45;&gt;Node205 -->
<g id="edge53" class="edge">
<title>Node2&#45;&gt;Node205</title>
<path fill="none" stroke="midnightblue" d="M1840.49,-176.92C1972.99,-176.2 2354.95,-170.64 2669.5,-132 2672.57,-131.62 2675.74,-131.16 2678.92,-130.64"/>
<polygon fill="midnightblue" stroke="midnightblue" points="1840.26,-173.42 1830.28,-176.97 1840.29,-180.42 1840.26,-173.42"/>
</g>
<!-- Node215 -->
<g id="node44" class="node">
<title>Node215</title>
<g id="a_node44"><a xlink:href="_linear_profile_8cpp.html" target="_top" xlink:title=" ">
<polygon fill="white" stroke="black" points="2770.5,-112.5 2770.5,-131.5 2868.5,-131.5 2868.5,-112.5 2770.5,-112.5"/>
<text text-anchor="middle" x="2819.5" y="-119.5" font-family="Helvetica,sans-Serif" font-size="10.00">LinearProfile.cpp</text>
</a>
</g>
</g>
<!-- Node2&#45;&gt;Node215 -->
<g id="edge56" class="edge">
<title>Node2&#45;&gt;Node215</title>
<path fill="none" stroke="midnightblue" d="M1840.06,-176.6C1981.03,-175.03 2408.8,-167.45 2761.5,-132 2764.44,-131.7 2767.46,-131.36 2770.5,-130.98"/>
<polygon fill="midnightblue" stroke="midnightblue" points="1839.98,-173.1 1830.02,-176.71 1840.06,-180.1 1839.98,-173.1"/>
</g>
<!-- Node44 -->
<g id="node45" class="node">
<title>Node44</title>
<g id="a_node45"><a xlink:href="_power_law_profile_8cpp.html" target="_top" xlink:title=" ">
<polygon fill="white" stroke="black" points="2887,-112.5 2887,-131.5 3004,-131.5 3004,-112.5 2887,-112.5"/>
<text text-anchor="middle" x="2945.5" y="-119.5" font-family="Helvetica,sans-Serif" font-size="10.00">PowerLawProfile.cpp</text>
</a>
</g>
</g>
<!-- Node2&#45;&gt;Node44 -->
<g id="edge57" class="edge">
<title>Node2&#45;&gt;Node44</title>
<path fill="none" stroke="midnightblue" d="M1840.42,-176.55C1992.48,-174.8 2477.64,-166.68 2877.5,-132 2880.58,-131.73 2883.74,-131.43 2886.93,-131.09"/>
<polygon fill="midnightblue" stroke="midnightblue" points="1840.02,-173.06 1830.06,-176.67 1840.1,-180.06 1840.02,-173.06"/>
</g>
<!-- Node216 -->
<g id="node46" class="node">
<title>Node216</title>
<g id="a_node46"><a xlink:href="_u_d_f_8cpp.html" target="_top" xlink:title=" ">
<polygon fill="white" stroke="black" points="3022.5,-112.5 3022.5,-131.5 3078.5,-131.5 3078.5,-112.5 3022.5,-112.5"/>
<text text-anchor="middle" x="3050.5" y="-119.5" font-family="Helvetica,sans-Serif" font-size="10.00">UDF.cpp</text>
</a>
</g>
</g>
<!-- Node2&#45;&gt;Node216 -->
<g id="edge58" class="edge">
<title>Node2&#45;&gt;Node216</title>
<path fill="none" stroke="midnightblue" d="M1840.57,-176.52C2037.2,-174.37 2780.88,-164.24 3013.5,-132 3016.38,-131.6 3019.37,-131.07 3022.33,-130.47"/>
<polygon fill="midnightblue" stroke="midnightblue" points="1840.24,-173.03 1830.28,-176.63 1840.31,-180.03 1840.24,-173.03"/>
</g>
<!-- Node217 -->
<g id="node47" class="node">
<title>Node217</title>
<g id="a_node47"><a xlink:href="_transport_model_8_h.html" target="_top" xlink:title=" ">
<polygon fill="white" stroke="red" points="3096.5,-112.5 3096.5,-131.5 3198.5,-131.5 3198.5,-112.5 3096.5,-112.5"/>
<text text-anchor="middle" x="3147.5" y="-119.5" font-family="Helvetica,sans-Serif" font-size="10.00">TransportModel.H</text>
</a>
</g>
</g>
<!-- Node2&#45;&gt;Node217 -->
<g id="edge59" class="edge">
<title>Node2&#45;&gt;Node217</title>
<path fill="none" stroke="midnightblue" d="M1840.34,-177.3C2010.47,-177.97 2602.03,-176.7 3087.5,-132 3090.44,-131.73 3093.45,-131.41 3096.49,-131.06"/>
<polygon fill="midnightblue" stroke="midnightblue" points="1840.22,-173.8 1830.21,-177.26 1840.19,-180.8 1840.22,-173.8"/>
</g>
<!-- Node121 -->
<g id="node48" class="node">
<title>Node121</title>
<g id="a_node48"><a xlink:href="_smagorinsky_8_h.html" target="_top" xlink:title=" ">
<polygon fill="white" stroke="red" points="3217,-112.5 3217,-131.5 3306,-131.5 3306,-112.5 3217,-112.5"/>
<text text-anchor="middle" x="3261.5" y="-119.5" font-family="Helvetica,sans-Serif" font-size="10.00">Smagorinsky.H</text>
</a>
</g>
</g>
<!-- Node2&#45;&gt;Node121 -->
<g id="edge60" class="edge">
<title>Node2&#45;&gt;Node121</title>
<path fill="none" stroke="midnightblue" d="M1840.23,-176.34C2055.03,-173.23 2933.46,-159.07 3207.5,-132 3210.53,-131.7 3213.64,-131.34 3216.77,-130.93"/>
<polygon fill="midnightblue" stroke="midnightblue" points="1840.16,-172.84 1830.21,-176.48 1840.26,-179.84 1840.16,-172.84"/>
</g>
<!-- Node153 -->
<g id="node49" class="node">
<title>Node153</title>
<g id="a_node49"><a xlink:href="_act_src_line_op_8_h.html" target="_top" xlink:title=" ">
<polygon fill="white" stroke="red" points="3324.5,-112.5 3324.5,-131.5 3416.5,-131.5 3416.5,-112.5 3324.5,-112.5"/>
<text text-anchor="middle" x="3370.5" y="-119.5" font-family="Helvetica,sans-Serif" font-size="10.00">ActSrcLineOp.H</text>
</a>
</g>
</g>
<!-- Node2&#45;&gt;Node153 -->
<g id="edge63" class="edge">
<title>Node2&#45;&gt;Node153</title>
<path fill="none" stroke="midnightblue" d="M1840.16,-176.44C2064.75,-173.7 3018.88,-160.52 3315.5,-132 3318.39,-131.72 3321.36,-131.39 3324.34,-131.01"/>
<polygon fill="midnightblue" stroke="midnightblue" points="1839.98,-172.95 1830.02,-176.57 1840.07,-179.95 1839.98,-172.95"/>
</g>
<!-- Node159 -->
<g id="node50" class="node">
<title>Node159</title>
<g id="a_node50"><a xlink:href="_act_src_disk_op_8_h.html" target="_top" xlink:title=" ">
<polygon fill="white" stroke="red" points="3435,-112.5 3435,-131.5 3528,-131.5 3528,-112.5 3435,-112.5"/>
<text text-anchor="middle" x="3481.5" y="-119.5" font-family="Helvetica,sans-Serif" font-size="10.00">ActSrcDiskOp.H</text>
</a>
</g>
</g>
<!-- Node2&#45;&gt;Node159 -->
<g id="edge64" class="edge">
<title>Node2&#45;&gt;Node159</title>
<path fill="none" stroke="midnightblue" d="M1840.52,-176.53C2075.54,-174.11 3106.03,-161.94 3425.5,-132 3428.54,-131.72 3431.66,-131.37 3434.81,-130.98"/>
<polygon fill="midnightblue" stroke="midnightblue" points="1840.22,-173.03 1830.26,-176.64 1840.29,-180.03 1840.22,-173.03"/>
</g>
<!-- Node4&#45;&gt;Node3 -->
<g id="edge4" class="edge">
<title>Node4&#45;&gt;Node3</title>
<path fill="none" stroke="midnightblue" d="M879.88,-111.91C1074.06,-90.48 1292.76,-75.75 1387.18,-69.85"/>
<polygon fill="midnightblue" stroke="midnightblue" points="879.32,-108.45 869.77,-113.03 880.09,-115.41 879.32,-108.45"/>
</g>
<!-- Node5 -->
<g id="node5" class="node">
<title>Node5</title>
<g id="a_node5"><a xlink:href="_fixed_gradient_b_c_8cpp.html" target="_top" xlink:title=" ">
<polygon fill="white" stroke="black" points="1087.5,-56.5 1087.5,-75.5 1205.5,-75.5 1205.5,-56.5 1087.5,-56.5"/>
<text text-anchor="middle" x="1146.5" y="-63.5" font-family="Helvetica,sans-Serif" font-size="10.00">FixedGradientBC.cpp</text>
</a>
</g>
</g>
<!-- Node4&#45;&gt;Node5 -->
<g id="edge5" class="edge">
<title>Node4&#45;&gt;Node5</title>
<path fill="none" stroke="midnightblue" d="M878.08,-110.79C940.62,-100.59 1035.69,-85.08 1094.3,-75.52"/>
<polygon fill="midnightblue" stroke="midnightblue" points="877.25,-107.38 867.95,-112.44 878.38,-114.29 877.25,-107.38"/>
</g>
<!-- Node7 -->
<g id="node7" class="node">
<title>Node7</title>
<g id="a_node7"><a xlink:href="icns__bcop_8_h.html" target="_top" xlink:title=" ">
<polygon fill="white" stroke="red" points="3591,-56.5 3591,-75.5 3666,-75.5 3666,-56.5 3591,-56.5"/>
<text text-anchor="middle" x="3628.5" y="-63.5" font-family="Helvetica,sans-Serif" font-size="10.00">icns_bcop.H</text>
</a>
</g>
</g>
<!-- Node6&#45;&gt;Node7 -->
<g id="edge7" class="edge">
<title>Node6&#45;&gt;Node7</title>
<path fill="none" stroke="midnightblue" d="M3628.5,-101.8C3628.5,-92.91 3628.5,-82.78 3628.5,-75.75"/>
<polygon fill="midnightblue" stroke="midnightblue" points="3625,-102.08 3628.5,-112.08 3632,-102.08 3625,-102.08"/>
</g>
<!-- Node10 -->
<g id="node9" class="node">
<title>Node10</title>
<g id="a_node9"><a xlink:href="_c_f_d_sim_8cpp.html" target="_top" xlink:title=" ">
<polygon fill="white" stroke="black" points="487.5,-56.5 487.5,-75.5 563.5,-75.5 563.5,-56.5 487.5,-56.5"/>
<text text-anchor="middle" x="525.5" y="-63.5" font-family="Helvetica,sans-Serif" font-size="10.00">CFDSim.cpp</text>
</a>
</g>
</g>
<!-- Node9&#45;&gt;Node10 -->
<g id="edge9" class="edge">
<title>Node9&#45;&gt;Node10</title>
<path fill="none" stroke="midnightblue" d="M547.67,-103.27C542.03,-94.05 535.38,-83.17 530.85,-75.75"/>
<polygon fill="midnightblue" stroke="midnightblue" points="544.85,-105.38 553.05,-112.08 550.82,-101.73 544.85,-105.38"/>
</g>
<!-- Node9&#45;&gt;Node11 -->
<g id="edge10" class="edge">
<title>Node9&#45;&gt;Node11</title>
<path fill="none" stroke="midnightblue" d="M515.12,-111.99C314.44,-83.55 259.04,-108.13 62.5,-76 59.45,-75.5 56.28,-74.87 53.13,-74.18"/>
<polygon fill="midnightblue" stroke="midnightblue" points="514.7,-115.46 525.1,-113.43 515.7,-108.53 514.7,-115.46"/>
</g>
<!-- Node24 -->
<g id="node11" class="node">
<title>Node24</title>
<g id="a_node11"><a xlink:href="_p_d_e_ops_8_h.html" target="_top" xlink:title=" ">
<polygon fill="white" stroke="red" points="170,-56.5 170,-75.5 235,-75.5 235,-56.5 170,-56.5"/>
<text text-anchor="middle" x="202.5" y="-63.5" font-family="Helvetica,sans-Serif" font-size="10.00">PDEOps.H</text>
</a>
</g>
</g>
<!-- Node9&#45;&gt;Node24 -->
<g id="edge11" class="edge">
<title>Node9&#45;&gt;Node24</title>
<path fill="none" stroke="midnightblue" d="M515.06,-111.87C394.16,-91.46 360.87,-96.58 243.5,-76 240.77,-75.52 237.95,-74.99 235.12,-74.42"/>
<polygon fill="midnightblue" stroke="midnightblue" points="514.63,-115.35 525.08,-113.59 515.81,-108.45 514.63,-115.35"/>
</g>
<!-- Node39 -->
<g id="node12" class="node">
<title>Node39</title>
<g id="a_node12"><a xlink:href="_p_d_e_8_h.html" target="_top" xlink:title=" ">
<polygon fill="white" stroke="red" points="373,-0.5 373,-19.5 420,-19.5 420,-0.5 373,-0.5"/>
<text text-anchor="middle" x="396.5" y="-7.5" font-family="Helvetica,sans-Serif" font-size="10.00">PDE.H</text>
</a>
</g>
</g>
<!-- Node9&#45;&gt;Node39 -->
<g id="edge13" class="edge">
<title>Node9&#45;&gt;Node39</title>
<path fill="none" stroke="midnightblue" d="M569.25,-103.69C576.53,-89.51 583.08,-69.63 572.5,-56 553.88,-32.02 463.75,-18.66 420.18,-13.51"/>
<polygon fill="midnightblue" stroke="midnightblue" points="566.17,-102.02 564.29,-112.45 572.26,-105.47 566.17,-102.02"/>
</g>
<!-- Node61 -->
<g id="node13" class="node">
<title>Node61</title>
<g id="a_node13"><a xlink:href="_a_b_l_forcing_8cpp.html" target="_top" xlink:title=" ">
<polygon fill="white" stroke="black" points="253,-56.5 253,-75.5 344,-75.5 344,-56.5 253,-56.5"/>
<text text-anchor="middle" x="298.5" y="-63.5" font-family="Helvetica,sans-Serif" font-size="10.00">ABLForcing.cpp</text>
</a>
</g>
</g>
<!-- Node9&#45;&gt;Node61 -->
<g id="edge14" class="edge">
<title>Node9&#45;&gt;Node61</title>
<path fill="none" stroke="midnightblue" d="M515.61,-111.82C448.64,-97.76 382.15,-84.09 340.31,-75.53"/>
<polygon fill="midnightblue" stroke="midnightblue" points="514.98,-115.27 525.49,-113.9 516.42,-108.42 514.98,-115.27"/>
</g>
<!-- Node62 -->
<g id="node14" class="node">
<title>Node62</title>
<g id="a_node14"><a xlink:href="_a_b_l_wall_function_8_h.html" target="_top" xlink:title=" ">
<polygon fill="white" stroke="red" points="362,-56.5 362,-75.5 469,-75.5 469,-56.5 362,-56.5"/>
<text text-anchor="middle" x="415.5" y="-63.5" font-family="Helvetica,sans-Serif" font-size="10.00">ABLWallFunction.H</text>
</a>
</g>
</g>
<!-- Node9&#45;&gt;Node62 -->
<g id="edge15" class="edge">
<title>Node9&#45;&gt;Node62</title>
<path fill="none" stroke="midnightblue" d="M526.47,-108.91C499.59,-98.75 461.86,-84.51 438.05,-75.52"/>
<polygon fill="midnightblue" stroke="midnightblue" points="525.25,-112.19 535.84,-112.44 527.72,-105.64 525.25,-112.19"/>
</g>
<!-- Node9&#45;&gt;Node89 -->
<g id="edge16" class="edge">
<title>Node9&#45;&gt;Node89</title>
<path fill="none" stroke="midnightblue" d="M515.05,-111.93C357.65,-87.74 314.72,-97.92 160.5,-76 157.59,-75.59 154.59,-75.12 151.57,-74.63"/>
<polygon fill="midnightblue" stroke="midnightblue" points="514.67,-115.41 525.09,-113.49 515.75,-108.49 514.67,-115.41"/>
</g>
<!-- Node9&#45;&gt;Node93 -->
<g id="edge17" class="edge">
<title>Node9&#45;&gt;Node93</title>
<path fill="none" stroke="midnightblue" d="M585.98,-108.1C607.47,-98.01 636.72,-84.27 655.36,-75.52"/>
<polygon fill="midnightblue" stroke="midnightblue" points="584.29,-105.02 576.72,-112.44 587.26,-111.36 584.29,-105.02"/>
</g>
<!-- Node9&#45;&gt;Node125 -->
<g id="edge18" class="edge">
<title>Node9&#45;&gt;Node125</title>
<path fill="none" stroke="midnightblue" d="M601.49,-111.16C645.94,-100.99 714.66,-85.27 756.99,-75.58"/>
<polygon fill="midnightblue" stroke="midnightblue" points="600.53,-107.79 591.56,-113.43 602.09,-114.62 600.53,-107.79"/>
</g>
<!-- Node9&#45;&gt;Node126 -->
<g id="edge19" class="edge">
<title>Node9&#45;&gt;Node126</title>
<path fill="none" stroke="midnightblue" d="M601.54,-114.53C666.48,-104.76 789.55,-86.25 861.43,-75.43"/>
<polygon fill="midnightblue" stroke="midnightblue" points="601,-111.07 591.63,-116.02 602.04,-117.99 601,-111.07"/>
</g>
<!-- Node9&#45;&gt;Node155 -->
<g id="edge20" class="edge">
<title>Node9&#45;&gt;Node155</title>
<path fill="none" stroke="midnightblue" d="M601.85,-117.55C678.75,-111.17 844,-96.3 982.5,-76 985.52,-75.56 988.64,-75.06 991.77,-74.54"/>
<polygon fill="midnightblue" stroke="midnightblue" points="601.28,-114.08 591.6,-118.39 601.85,-121.06 601.28,-114.08"/>
</g>
<!-- Node24&#45;&gt;Node39 -->
<g id="edge12" class="edge">
<title>Node24&#45;&gt;Node39</title>
<path fill="none" stroke="midnightblue" d="M243.05,-53.71C282.37,-42.77 340.68,-26.54 372.92,-17.56"/>
<polygon fill="midnightblue" stroke="midnightblue" points="241.94,-50.39 233.24,-56.44 243.81,-57.13 241.94,-50.39"/>
</g>
<!-- Node182&#45;&gt;Node24 -->
<g id="edge32" class="edge">
<title>Node182&#45;&gt;Node24</title>
<path fill="none" stroke="midnightblue" d="M413.49,-110.7C368.46,-101.73 301.63,-88.27 243.5,-76 240.79,-75.43 237.98,-74.83 235.16,-74.22"/>
<polygon fill="midnightblue" stroke="midnightblue" points="412.82,-114.14 423.31,-112.66 414.19,-107.27 412.82,-114.14"/>
</g>
<!-- Node182&#45;&gt;Node89 -->
<g id="edge33" class="edge">
<title>Node182&#45;&gt;Node89</title>
<path fill="none" stroke="midnightblue" d="M413.32,-112.59C412.03,-112.39 410.76,-112.19 409.5,-112 298.96,-95.13 270.84,-94.1 160.5,-76 157.6,-75.52 154.6,-75.02 151.59,-74.49"/>
<polygon fill="midnightblue" stroke="midnightblue" points="412.89,-116.06 423.31,-114.15 413.97,-109.15 412.89,-116.06"/>
</g>
<!-- Node184&#45;&gt;Node71 -->
<g id="edge36" class="edge">
<title>Node184&#45;&gt;Node71</title>
<path fill="none" stroke="midnightblue" d="M1916.11,-110.6C1859.79,-100.4 1774.94,-85.02 1722.5,-75.52"/>
<polygon fill="midnightblue" stroke="midnightblue" points="1915.82,-114.1 1926.28,-112.44 1917.07,-107.22 1915.82,-114.1"/>
</g>
<!-- Node184&#45;&gt;Node188 -->
<g id="edge37" class="edge">
<title>Node184&#45;&gt;Node188</title>
<path fill="none" stroke="midnightblue" d="M1940.05,-109.04C1911.64,-98.88 1871.56,-84.55 1846.31,-75.52"/>
<polygon fill="midnightblue" stroke="midnightblue" points="1938.98,-112.37 1949.57,-112.44 1941.34,-105.78 1938.98,-112.37"/>
</g>
<!-- Node184&#45;&gt;Node189 -->
<g id="edge38" class="edge">
<title>Node184&#45;&gt;Node189</title>
<path fill="none" stroke="midnightblue" d="M1966.95,-102.4C1963.78,-93.36 1960.11,-82.94 1957.58,-75.75"/>
<polygon fill="midnightblue" stroke="midnightblue" points="1963.74,-103.81 1970.36,-112.08 1970.35,-101.49 1963.74,-103.81"/>
</g>
<!-- Node184&#45;&gt;Node190 -->
<g id="edge39" class="edge">
<title>Node184&#45;&gt;Node190</title>
<path fill="none" stroke="midnightblue" d="M1999.33,-107.59C2018.56,-97.61 2044.24,-84.27 2060.83,-75.65"/>
<polygon fill="midnightblue" stroke="midnightblue" points="1997.47,-104.61 1990.21,-112.32 2000.7,-110.82 1997.47,-104.61"/>
</g>
<!-- Node184&#45;&gt;Node192 -->
<g id="edge40" class="edge">
<title>Node184&#45;&gt;Node192</title>
<path fill="none" stroke="midnightblue" d="M2019.37,-110.09C2062.25,-99.89 2125.42,-84.86 2164.7,-75.52"/>
<polygon fill="midnightblue" stroke="midnightblue" points="2018.39,-106.72 2009.47,-112.44 2020.01,-113.53 2018.39,-106.72"/>
</g>
<!-- Node184&#45;&gt;Node194 -->
<g id="edge41" class="edge">
<title>Node184&#45;&gt;Node194</title>
<path fill="none" stroke="midnightblue" d="M2041.87,-116.61C2065.51,-115.11 2092.17,-113.45 2116.5,-112 2403.53,-94.84 2748.96,-75.86 2868.41,-69.34"/>
<polygon fill="midnightblue" stroke="midnightblue" points="2041.35,-113.13 2031.59,-117.26 2041.79,-120.12 2041.35,-113.13"/>
</g>
</g>
</svg>
