<?xml version="1.0" encoding="UTF-8" standalone="no"?>
<!DOCTYPE svg PUBLIC "-//W3C//DTD SVG 1.1//EN"
 "http://www.w3.org/Graphics/SVG/1.1/DTD/svg11.dtd">
<!-- Generated by graphviz version 2.43.0 (0)
 -->
<!-- Title: Physics.H Pages: 1 -->
<svg width="3401pt" height="364pt"
 viewBox="0.00 0.00 3400.50 364.00" xmlns="http://www.w3.org/2000/svg" xmlns:xlink="http://www.w3.org/1999/xlink">
<g id="graph0" class="graph" transform="scale(1 1) rotate(0) translate(4 360)">
<title>Physics.H</title>
<polygon fill="white" stroke="transparent" points="-4,4 -4,-360 3396.5,-360 3396.5,4 -4,4"/>
<!-- Node1 -->
<g id="node1" class="node">
<title>Node1</title>
<g id="a_node1"><a xlink:title=" ">
<polygon fill="#bfbfbf" stroke="black" points="1629,-336.5 1629,-355.5 1693,-355.5 1693,-336.5 1629,-336.5"/>
<text text-anchor="middle" x="1661" y="-343.5" font-family="Helvetica,sans-Serif" font-size="10.00">Physics.H</text>
</a>
</g>
</g>
<!-- Node2 -->
<g id="node2" class="node">
<title>Node2</title>
<g id="a_node2"><a xlink:href="_c_f_d_sim_8_h.html" target="_top" xlink:title=" ">
<polygon fill="white" stroke="red" points="1453,-280.5 1453,-299.5 1519,-299.5 1519,-280.5 1453,-280.5"/>
<text text-anchor="middle" x="1486" y="-287.5" font-family="Helvetica,sans-Serif" font-size="10.00">CFDSim.H</text>
</a>
</g>
</g>
<!-- Node1&#45;&gt;Node2 -->
<g id="edge1" class="edge">
<title>Node1&#45;&gt;Node2</title>
<path fill="none" stroke="midnightblue" d="M1623.53,-333.44C1590.53,-323.26 1543.24,-308.66 1513.6,-299.52"/>
<polygon fill="midnightblue" stroke="midnightblue" points="1622.68,-336.84 1633.27,-336.44 1624.75,-330.15 1622.68,-336.84"/>
</g>
<!-- Node7 -->
<g id="node5" class="node">
<title>Node7</title>
<g id="a_node5"><a xlink:href="incflo__advance_8cpp.html" target="_top" xlink:title=" ">
<polygon fill="white" stroke="black" points="162,-168.5 162,-187.5 272,-187.5 272,-168.5 162,-168.5"/>
<text text-anchor="middle" x="217" y="-175.5" font-family="Helvetica,sans-Serif" font-size="10.00">incflo_advance.cpp</text>
</a>
</g>
</g>
<!-- Node1&#45;&gt;Node7 -->
<g id="edge54" class="edge">
<title>Node1&#45;&gt;Node7</title>
<path fill="none" stroke="midnightblue" d="M1618.97,-344.75C1408.69,-343.36 476.09,-335.25 352,-300 303.74,-286.29 289.44,-279.5 254,-244 237.12,-227.09 225.39,-200.91 220.13,-187.52"/>
<polygon fill="midnightblue" stroke="midnightblue" points="1618.97,-348.25 1628.99,-344.82 1619.01,-341.25 1618.97,-348.25"/>
</g>
<!-- Node12 -->
<g id="node6" class="node">
<title>Node12</title>
<g id="a_node6"><a xlink:href="init_8cpp.html" target="_top" xlink:title=" ">
<polygon fill="white" stroke="black" points="219.5,-0.5 219.5,-19.5 272.5,-19.5 272.5,-0.5 219.5,-0.5"/>
<text text-anchor="middle" x="246" y="-7.5" font-family="Helvetica,sans-Serif" font-size="10.00">init.cpp</text>
</a>
</g>
</g>
<!-- Node1&#45;&gt;Node12 -->
<g id="edge73" class="edge">
<title>Node1&#45;&gt;Node12</title>
<path fill="none" stroke="midnightblue" d="M1618.89,-344.99C1413.47,-344.76 515.27,-341.36 239,-300 130.13,-283.7 0,-345.08 0,-235 0,-235 0,-235 0,-121 0,-25.8 155.45,-12.44 219.21,-10.97"/>
<polygon fill="midnightblue" stroke="midnightblue" points="1618.97,-348.49 1628.97,-345 1618.97,-341.49 1618.97,-348.49"/>
</g>
<!-- Node15 -->
<g id="node7" class="node">
<title>Node15</title>
<g id="a_node7"><a xlink:href="io_8cpp.html" target="_top" xlink:title=" ">
<polygon fill="white" stroke="black" points="328,-168.5 328,-187.5 374,-187.5 374,-168.5 328,-168.5"/>
<text text-anchor="middle" x="351" y="-175.5" font-family="Helvetica,sans-Serif" font-size="10.00">io.cpp</text>
</a>
</g>
</g>
<!-- Node1&#45;&gt;Node15 -->
<g id="edge74" class="edge">
<title>Node1&#45;&gt;Node15</title>
<path fill="none" stroke="midnightblue" d="M1618.72,-345.03C1401.21,-345.01 416.64,-342.54 369,-300 336.37,-270.86 344.6,-210.27 349.06,-187.71"/>
<polygon fill="midnightblue" stroke="midnightblue" points="1618.78,-348.53 1628.78,-345.03 1618.78,-341.53 1618.78,-348.53"/>
</g>
<!-- Node58 -->
<g id="node12" class="node">
<title>Node58</title>
<g id="a_node12"><a xlink:href="_a_b_l_8_h.html" target="_top" xlink:title=" ">
<polygon fill="white" stroke="red" points="772,-56.5 772,-75.5 818,-75.5 818,-56.5 772,-56.5"/>
<text text-anchor="middle" x="795" y="-63.5" font-family="Helvetica,sans-Serif" font-size="10.00">ABL.H</text>
</a>
</g>
</g>
<!-- Node1&#45;&gt;Node58 -->
<g id="edge50" class="edge">
<title>Node1&#45;&gt;Node58</title>
<path fill="none" stroke="midnightblue" d="M1618.75,-345.04C1408.62,-344.79 483.01,-338.31 402,-244 381,-219.56 392.34,-166.29 481,-112 529.96,-82.02 707.46,-71.02 771.64,-67.98"/>
<polygon fill="midnightblue" stroke="midnightblue" points="1618.77,-348.54 1628.77,-345.05 1618.77,-341.54 1618.77,-348.54"/>
</g>
<!-- Node89 -->
<g id="node31" class="node">
<title>Node89</title>
<g id="a_node31"><a xlink:href="_channel_flow_8_h.html" target="_top" xlink:title=" ">
<polygon fill="white" stroke="black" points="895.5,-224.5 895.5,-243.5 984.5,-243.5 984.5,-224.5 895.5,-224.5"/>
<text text-anchor="middle" x="940" y="-231.5" font-family="Helvetica,sans-Serif" font-size="10.00">ChannelFlow.H</text>
</a>
</g>
</g>
<!-- Node1&#45;&gt;Node89 -->
<g id="edge58" class="edge">
<title>Node1&#45;&gt;Node89</title>
<path fill="none" stroke="midnightblue" d="M1618.5,-338.52C1491.34,-319.12 1114.65,-261.65 984.68,-241.82"/>
<polygon fill="midnightblue" stroke="midnightblue" points="1618.21,-342.01 1628.62,-340.06 1619.26,-335.09 1618.21,-342.01"/>
</g>
<!-- Node91 -->
<g id="node33" class="node">
<title>Node91</title>
<g id="a_node33"><a xlink:href="_convecting_taylor_vortex_8_h.html" target="_top" xlink:title=" ">
<polygon fill="white" stroke="black" points="2789.5,-224.5 2789.5,-243.5 2932.5,-243.5 2932.5,-224.5 2789.5,-224.5"/>
<text text-anchor="middle" x="2861" y="-231.5" font-family="Helvetica,sans-Serif" font-size="10.00">ConvectingTaylorVortex.H</text>
</a>
</g>
</g>
<!-- Node1&#45;&gt;Node91 -->
<g id="edge59" class="edge">
<title>Node1&#45;&gt;Node91</title>
<path fill="none" stroke="midnightblue" d="M1621.86,-333.2C1588.78,-321.36 1549.86,-301.78 1571,-280 1617.61,-231.98 2708.23,-248.49 2775,-244 2779.64,-243.69 2784.42,-243.32 2789.24,-242.91"/>
<polygon fill="midnightblue" stroke="midnightblue" points="1620.83,-336.55 1631.43,-336.48 1623.1,-329.93 1620.83,-336.55"/>
</g>
<!-- Node93 -->
<g id="node35" class="node">
<title>Node93</title>
<g id="a_node35"><a xlink:href="_ekman_spiral_8_h.html" target="_top" xlink:title=" ">
<polygon fill="white" stroke="red" points="2950.5,-224.5 2950.5,-243.5 3039.5,-243.5 3039.5,-224.5 2950.5,-224.5"/>
<text text-anchor="middle" x="2995" y="-231.5" font-family="Helvetica,sans-Serif" font-size="10.00">EkmanSpiral.H</text>
</a>
</g>
</g>
<!-- Node1&#45;&gt;Node93 -->
<g id="edge60" class="edge">
<title>Node1&#45;&gt;Node93</title>
<path fill="none" stroke="midnightblue" d="M1636.84,-330.82C1616.52,-317.2 1593.11,-296.33 1609,-280 1660.67,-226.91 2868.27,-251.22 2942,-244 2944.69,-243.74 2947.46,-243.42 2950.24,-243.06"/>
<polygon fill="midnightblue" stroke="midnightblue" points="1635.21,-333.94 1645.53,-336.36 1638.98,-328.03 1635.21,-333.94"/>
</g>
<!-- Node96 -->
<g id="node36" class="node">
<title>Node96</title>
<g id="a_node36"><a xlink:href="_hybrid_r_a_n_s_l_e_s_a_b_l_8_h.html" target="_top" xlink:title=" ">
<polygon fill="white" stroke="red" points="3057.5,-224.5 3057.5,-243.5 3180.5,-243.5 3180.5,-224.5 3057.5,-224.5"/>
<text text-anchor="middle" x="3119" y="-231.5" font-family="Helvetica,sans-Serif" font-size="10.00">HybridRANSLESABL.H</text>
</a>
</g>
</g>
<!-- Node1&#45;&gt;Node96 -->
<g id="edge62" class="edge">
<title>Node1&#45;&gt;Node96</title>
<path fill="none" stroke="midnightblue" d="M1649.72,-327.45C1641.88,-312.84 1634.84,-292.48 1647,-280 1674.19,-252.1 3010.16,-246.99 3049,-244 3051.69,-243.79 3054.43,-243.56 3057.2,-243.29"/>
<polygon fill="midnightblue" stroke="midnightblue" points="1646.7,-329.22 1654.78,-336.08 1652.74,-325.68 1646.7,-329.22"/>
</g>
<!-- Node98 -->
<g id="node37" class="node">
<title>Node98</title>
<g id="a_node37"><a xlink:href="_m_m_s_8_h.html" target="_top" xlink:title=" ">
<polygon fill="white" stroke="red" points="3198.5,-224.5 3198.5,-243.5 3249.5,-243.5 3249.5,-224.5 3198.5,-224.5"/>
<text text-anchor="middle" x="3224" y="-231.5" font-family="Helvetica,sans-Serif" font-size="10.00">MMS.H</text>
</a>
</g>
</g>
<!-- Node1&#45;&gt;Node98 -->
<g id="edge63" class="edge">
<title>Node1&#45;&gt;Node98</title>
<path fill="none" stroke="midnightblue" d="M1662.39,-326.14C1664.62,-310.95 1670.34,-290.48 1685,-280 1753.04,-231.37 3107.2,-255.78 3190,-244 3192.66,-243.62 3195.41,-243.11 3198.14,-242.52"/>
<polygon fill="midnightblue" stroke="midnightblue" points="1658.87,-326.14 1661.29,-336.46 1665.83,-326.89 1658.87,-326.14"/>
</g>
<!-- Node108 -->
<g id="node38" class="node">
<title>Node108</title>
<g id="a_node38"><a xlink:href="_synthetic_turbulence_8_h.html" target="_top" xlink:title=" ">
<polygon fill="white" stroke="red" points="3267.5,-224.5 3267.5,-243.5 3392.5,-243.5 3392.5,-224.5 3267.5,-224.5"/>
<text text-anchor="middle" x="3330" y="-231.5" font-family="Helvetica,sans-Serif" font-size="10.00">SyntheticTurbulence.H</text>
</a>
</g>
</g>
<!-- Node1&#45;&gt;Node108 -->
<g id="edge71" class="edge">
<title>Node1&#45;&gt;Node108</title>
<path fill="none" stroke="midnightblue" d="M1670.89,-327.43C1680.8,-311.78 1697.62,-289.88 1719,-280 1796.69,-244.11 3173.66,-250.39 3259,-244 3261.73,-243.8 3264.51,-243.56 3267.32,-243.3"/>
<polygon fill="midnightblue" stroke="midnightblue" points="1667.77,-325.82 1665.64,-336.2 1673.78,-329.42 1667.77,-325.82"/>
</g>
<!-- Node161 -->
<g id="node39" class="node">
<title>Node161</title>
<g id="a_node39"><a xlink:href="_actuator_8_h.html" target="_top" xlink:title=" ">
<polygon fill="white" stroke="red" points="778,-280.5 778,-299.5 846,-299.5 846,-280.5 778,-280.5"/>
<text text-anchor="middle" x="812" y="-287.5" font-family="Helvetica,sans-Serif" font-size="10.00">Actuator.H</text>
</a>
</g>
</g>
<!-- Node1&#45;&gt;Node161 -->
<g id="edge51" class="edge">
<title>Node1&#45;&gt;Node161</title>
<path fill="none" stroke="midnightblue" d="M1618.73,-342.31C1471.11,-332.92 980.24,-301.7 846.12,-293.17"/>
<polygon fill="midnightblue" stroke="midnightblue" points="1618.55,-345.81 1628.75,-342.95 1619,-338.82 1618.55,-345.81"/>
</g>
<!-- Node163 -->
<g id="node40" class="node">
<title>Node163</title>
<g id="a_node40"><a xlink:href="_multi_phase_8_h.html" target="_top" xlink:title=" ">
<polygon fill="white" stroke="red" points="1727.5,-280.5 1727.5,-299.5 1808.5,-299.5 1808.5,-280.5 1727.5,-280.5"/>
<text text-anchor="middle" x="1768" y="-287.5" font-family="Helvetica,sans-Serif" font-size="10.00">MultiPhase.H</text>
</a>
</g>
</g>
<!-- Node1&#45;&gt;Node163 -->
<g id="edge53" class="edge">
<title>Node1&#45;&gt;Node163</title>
<path fill="none" stroke="midnightblue" d="M1687.3,-331.73C1707.11,-321.73 1733.71,-308.31 1750.85,-299.65"/>
<polygon fill="midnightblue" stroke="midnightblue" points="1685.54,-328.69 1678.19,-336.32 1688.7,-334.94 1685.54,-328.69"/>
</g>
<!-- Node166 -->
<g id="node41" class="node">
<title>Node166</title>
<g id="a_node41"><a xlink:href="_boussinesq_bubble_8_h.html" target="_top" xlink:title=" ">
<polygon fill="white" stroke="black" points="28,-168.5 28,-187.5 144,-187.5 144,-168.5 28,-168.5"/>
<text text-anchor="middle" x="86" y="-175.5" font-family="Helvetica,sans-Serif" font-size="10.00">BoussinesqBubble.H</text>
</a>
</g>
</g>
<!-- Node1&#45;&gt;Node166 -->
<g id="edge55" class="edge">
<title>Node1&#45;&gt;Node166</title>
<path fill="none" stroke="midnightblue" d="M1618.55,-344.83C1401.9,-343.8 424.69,-337.13 295,-300 211.16,-275.99 125.59,-211.12 96.45,-187.63"/>
<polygon fill="midnightblue" stroke="midnightblue" points="1618.85,-348.33 1628.86,-344.88 1618.88,-341.33 1618.85,-348.33"/>
</g>
<!-- Node167 -->
<g id="node42" class="node">
<title>Node167</title>
<g id="a_node42"><a xlink:href="_free_stream_8_h.html" target="_top" xlink:title=" ">
<polygon fill="white" stroke="red" points="1826.5,-280.5 1826.5,-299.5 1909.5,-299.5 1909.5,-280.5 1826.5,-280.5"/>
<text text-anchor="middle" x="1868" y="-287.5" font-family="Helvetica,sans-Serif" font-size="10.00">FreeStream.H</text>
</a>
</g>
</g>
<!-- Node1&#45;&gt;Node167 -->
<g id="edge61" class="edge">
<title>Node1&#45;&gt;Node167</title>
<path fill="none" stroke="midnightblue" d="M1703.35,-333.95C1742.39,-323.77 1799.53,-308.86 1835.2,-299.56"/>
<polygon fill="midnightblue" stroke="midnightblue" points="1702.14,-330.65 1693.34,-336.56 1703.9,-337.42 1702.14,-330.65"/>
</g>
<!-- Node168 -->
<g id="node43" class="node">
<title>Node168</title>
<g id="a_node43"><a xlink:href="_dam_break_8_h.html" target="_top" xlink:title=" ">
<polygon fill="white" stroke="red" points="1927.5,-280.5 1927.5,-299.5 2006.5,-299.5 2006.5,-280.5 1927.5,-280.5"/>
<text text-anchor="middle" x="1967" y="-287.5" font-family="Helvetica,sans-Serif" font-size="10.00">DamBreak.H</text>
</a>
</g>
</g>
<!-- Node1&#45;&gt;Node168 -->
<g id="edge64" class="edge">
<title>Node1&#45;&gt;Node168</title>
<path fill="none" stroke="midnightblue" d="M1703.21,-337.81C1754.33,-329.06 1843.03,-313.75 1919,-300 1921.75,-299.5 1924.59,-298.98 1927.45,-298.46"/>
<polygon fill="midnightblue" stroke="midnightblue" points="1702.47,-334.38 1693.2,-339.52 1703.65,-341.28 1702.47,-334.38"/>
</g>
<!-- Node169 -->
<g id="node44" class="node">
<title>Node169</title>
<g id="a_node44"><a xlink:href="_rain_drop_8_h.html" target="_top" xlink:title=" ">
<polygon fill="white" stroke="red" points="2025,-280.5 2025,-299.5 2097,-299.5 2097,-280.5 2025,-280.5"/>
<text text-anchor="middle" x="2061" y="-287.5" font-family="Helvetica,sans-Serif" font-size="10.00">RainDrop.H</text>
</a>
</g>
</g>
<!-- Node1&#45;&gt;Node169 -->
<g id="edge65" class="edge">
<title>Node1&#45;&gt;Node169</title>
<path fill="none" stroke="midnightblue" d="M1703.55,-340.6C1770.31,-333.47 1903.67,-318.33 2016,-300 2018.83,-299.54 2021.76,-299.03 2024.69,-298.49"/>
<polygon fill="midnightblue" stroke="midnightblue" points="1702.99,-337.14 1693.42,-341.67 1703.73,-344.1 1702.99,-337.14"/>
</g>
<!-- Node170 -->
<g id="node45" class="node">
<title>Node170</title>
<g id="a_node45"><a xlink:href="_sloshing_tank_8_h.html" target="_top" xlink:title=" ">
<polygon fill="white" stroke="red" points="2115.5,-280.5 2115.5,-299.5 2206.5,-299.5 2206.5,-280.5 2115.5,-280.5"/>
<text text-anchor="middle" x="2161" y="-287.5" font-family="Helvetica,sans-Serif" font-size="10.00">SloshingTank.H</text>
</a>
</g>
</g>
<!-- Node1&#45;&gt;Node170 -->
<g id="edge66" class="edge">
<title>Node1&#45;&gt;Node170</title>
<path fill="none" stroke="midnightblue" d="M1703.26,-341.6C1782.44,-335.03 1958.47,-319.51 2106,-300 2109.07,-299.59 2112.23,-299.15 2115.41,-298.68"/>
<polygon fill="midnightblue" stroke="midnightblue" points="1702.87,-338.12 1693.19,-342.43 1703.44,-345.09 1702.87,-338.12"/>
</g>
<!-- Node171 -->
<g id="node46" class="node">
<title>Node171</title>
<g id="a_node46"><a xlink:href="_vortex_patch_8_h.html" target="_top" xlink:title=" ">
<polygon fill="white" stroke="red" points="2224.5,-280.5 2224.5,-299.5 2309.5,-299.5 2309.5,-280.5 2224.5,-280.5"/>
<text text-anchor="middle" x="2267" y="-287.5" font-family="Helvetica,sans-Serif" font-size="10.00">VortexPatch.H</text>
</a>
</g>
</g>
<!-- Node1&#45;&gt;Node171 -->
<g id="edge67" class="edge">
<title>Node1&#45;&gt;Node171</title>
<path fill="none" stroke="midnightblue" d="M1703.14,-342.94C1796.04,-338.09 2025.35,-324.5 2216,-300 2218.76,-299.64 2221.61,-299.24 2224.47,-298.81"/>
<polygon fill="midnightblue" stroke="midnightblue" points="1702.82,-339.45 1693.02,-343.46 1703.19,-346.44 1702.82,-339.45"/>
</g>
<!-- Node172 -->
<g id="node47" class="node">
<title>Node172</title>
<g id="a_node47"><a xlink:href="_n_w_b_8_h.html" target="_top" xlink:title=" ">
<polygon fill="white" stroke="red" points="2327.5,-280.5 2327.5,-299.5 2378.5,-299.5 2378.5,-280.5 2327.5,-280.5"/>
<text text-anchor="middle" x="2353" y="-287.5" font-family="Helvetica,sans-Serif" font-size="10.00">NWB.H</text>
</a>
</g>
</g>
<!-- Node1&#45;&gt;Node172 -->
<g id="edge68" class="edge">
<title>Node1&#45;&gt;Node172</title>
<path fill="none" stroke="midnightblue" d="M1703.27,-344.89C1808.22,-344.01 2088.81,-337.98 2319,-300 2321.77,-299.54 2324.64,-298.96 2327.49,-298.31"/>
<polygon fill="midnightblue" stroke="midnightblue" points="1703.06,-341.39 1693.09,-344.96 1703.12,-348.39 1703.06,-341.39"/>
</g>
<!-- Node173 -->
<g id="node48" class="node">
<title>Node173</title>
<g id="a_node48"><a xlink:href="_zalesak_disk_8_h.html" target="_top" xlink:title=" ">
<polygon fill="white" stroke="red" points="2397,-280.5 2397,-299.5 2485,-299.5 2485,-280.5 2397,-280.5"/>
<text text-anchor="middle" x="2441" y="-287.5" font-family="Helvetica,sans-Serif" font-size="10.00">ZalesakDisk.H</text>
</a>
</g>
</g>
<!-- Node1&#45;&gt;Node173 -->
<g id="edge69" class="edge">
<title>Node1&#45;&gt;Node173</title>
<path fill="none" stroke="midnightblue" d="M1703.58,-343.95C1815.86,-340.83 2129.09,-329.91 2388,-300 2390.87,-299.67 2393.83,-299.28 2396.8,-298.87"/>
<polygon fill="midnightblue" stroke="midnightblue" points="1703.26,-340.45 1693.36,-344.22 1703.45,-347.45 1703.26,-340.45"/>
</g>
<!-- Node174 -->
<g id="node49" class="node">
<title>Node174</title>
<g id="a_node49"><a xlink:href="_rayleigh_taylor_8_h.html" target="_top" xlink:title=" ">
<polygon fill="white" stroke="red" points="2503,-280.5 2503,-299.5 2601,-299.5 2601,-280.5 2503,-280.5"/>
<text text-anchor="middle" x="2552" y="-287.5" font-family="Helvetica,sans-Serif" font-size="10.00">RayleighTaylor.H</text>
</a>
</g>
</g>
<!-- Node1&#45;&gt;Node174 -->
<g id="edge70" class="edge">
<title>Node1&#45;&gt;Node174</title>
<path fill="none" stroke="midnightblue" d="M1703.35,-344.21C1826.01,-341.59 2192.02,-331.51 2494,-300 2496.94,-299.69 2499.96,-299.34 2503,-298.96"/>
<polygon fill="midnightblue" stroke="midnightblue" points="1703.18,-340.71 1693.25,-344.42 1703.32,-347.71 1703.18,-340.71"/>
</g>
<!-- Node175 -->
<g id="node50" class="node">
<title>Node175</title>
<g id="a_node50"><a xlink:href="_taylor_green_vortex_8_h.html" target="_top" xlink:title=" ">
<polygon fill="white" stroke="red" points="2619.5,-280.5 2619.5,-299.5 2736.5,-299.5 2736.5,-280.5 2619.5,-280.5"/>
<text text-anchor="middle" x="2678" y="-287.5" font-family="Helvetica,sans-Serif" font-size="10.00">TaylorGreenVortex.H</text>
</a>
</g>
</g>
<!-- Node1&#45;&gt;Node175 -->
<g id="edge72" class="edge">
<title>Node1&#45;&gt;Node175</title>
<path fill="none" stroke="midnightblue" d="M1703.2,-344.27C1836.52,-341.67 2260.51,-331.36 2610,-300 2613.08,-299.72 2616.24,-299.41 2619.43,-299.07"/>
<polygon fill="midnightblue" stroke="midnightblue" points="1702.95,-340.77 1693.02,-344.46 1703.08,-347.77 1702.95,-340.77"/>
</g>
<!-- Node3 -->
<g id="node3" class="node">
<title>Node3</title>
<g id="a_node3"><a xlink:href="_c_f_d_sim_8cpp.html" target="_top" xlink:title=" ">
<polygon fill="white" stroke="black" points="619,-224.5 619,-243.5 695,-243.5 695,-224.5 619,-224.5"/>
<text text-anchor="middle" x="657" y="-231.5" font-family="Helvetica,sans-Serif" font-size="10.00">CFDSim.cpp</text>
</a>
</g>
</g>
<!-- Node2&#45;&gt;Node3 -->
<g id="edge2" class="edge">
<title>Node2&#45;&gt;Node3</title>
<path fill="none" stroke="midnightblue" d="M1442.87,-288.22C1324.98,-285.71 987.52,-276.06 709,-244 704.54,-243.49 699.88,-242.84 695.27,-242.13"/>
<polygon fill="midnightblue" stroke="midnightblue" points="1442.87,-291.72 1452.94,-288.43 1443.01,-284.72 1442.87,-291.72"/>
</g>
<!-- Node4 -->
<g id="node4" class="node">
<title>Node4</title>
<g id="a_node4"><a xlink:href="incflo_8_h.html" target="_top" xlink:title=" ">
<polygon fill="white" stroke="red" points="263.5,-224.5 263.5,-243.5 316.5,-243.5 316.5,-224.5 263.5,-224.5"/>
<text text-anchor="middle" x="290" y="-231.5" font-family="Helvetica,sans-Serif" font-size="10.00">incflo.H</text>
</a>
</g>
</g>
<!-- Node2&#45;&gt;Node4 -->
<g id="edge3" class="edge">
<title>Node2&#45;&gt;Node4</title>
<path fill="none" stroke="midnightblue" d="M1442.34,-287.79C1295.48,-283.61 805.98,-268.61 402,-244 372.79,-242.22 339.36,-239.44 316.68,-237.44"/>
<polygon fill="midnightblue" stroke="midnightblue" points="1442.62,-291.3 1452.71,-288.09 1442.81,-284.31 1442.62,-291.3"/>
</g>
<!-- Node17 -->
<g id="node8" class="node">
<title>Node17</title>
<g id="a_node8"><a xlink:href="_p_d_e_ops_8_h.html" target="_top" xlink:title=" ">
<polygon fill="white" stroke="red" points="1185.5,-224.5 1185.5,-243.5 1250.5,-243.5 1250.5,-224.5 1185.5,-224.5"/>
<text text-anchor="middle" x="1218" y="-231.5" font-family="Helvetica,sans-Serif" font-size="10.00">PDEOps.H</text>
</a>
</g>
</g>
<!-- Node2&#45;&gt;Node17 -->
<g id="edge7" class="edge">
<title>Node2&#45;&gt;Node17</title>
<path fill="none" stroke="midnightblue" d="M1442.98,-280.33C1389.36,-269.53 1298.9,-251.3 1250.64,-241.58"/>
<polygon fill="midnightblue" stroke="midnightblue" points="1442.37,-283.78 1452.87,-282.32 1443.76,-276.92 1442.37,-283.78"/>
</g>
<!-- Node34 -->
<g id="node9" class="node">
<title>Node34</title>
<g id="a_node9"><a xlink:href="_p_d_e_8_h.html" target="_top" xlink:title=" ">
<polygon fill="white" stroke="red" points="1218.5,-168.5 1218.5,-187.5 1265.5,-187.5 1265.5,-168.5 1218.5,-168.5"/>
<text text-anchor="middle" x="1242" y="-175.5" font-family="Helvetica,sans-Serif" font-size="10.00">PDE.H</text>
</a>
</g>
</g>
<!-- Node2&#45;&gt;Node34 -->
<g id="edge9" class="edge">
<title>Node2&#45;&gt;Node34</title>
<path fill="none" stroke="midnightblue" d="M1442.88,-285.39C1404.05,-280.58 1346.56,-269.47 1303,-244 1278.15,-229.47 1257.21,-201.74 1247.61,-187.66"/>
<polygon fill="midnightblue" stroke="midnightblue" points="1442.48,-288.87 1452.81,-286.54 1443.28,-281.92 1442.48,-288.87"/>
</g>
<!-- Node56 -->
<g id="node10" class="node">
<title>Node56</title>
<g id="a_node10"><a xlink:href="_a_b_l_forcing_8cpp.html" target="_top" xlink:title=" ">
<polygon fill="white" stroke="black" points="1019.5,-0.5 1019.5,-19.5 1110.5,-19.5 1110.5,-0.5 1019.5,-0.5"/>
<text text-anchor="middle" x="1065" y="-7.5" font-family="Helvetica,sans-Serif" font-size="10.00">ABLForcing.cpp</text>
</a>
</g>
</g>
<!-- Node2&#45;&gt;Node56 -->
<g id="edge10" class="edge">
<title>Node2&#45;&gt;Node56</title>
<path fill="none" stroke="midnightblue" d="M1442.76,-286.88C1409.32,-282.96 1364.12,-272.32 1336,-244 1314.79,-222.64 1317,-209.1 1317,-179 1317,-179 1317,-179 1317,-121 1317,-31.97 1183.25,-14.28 1110.64,-11.23"/>
<polygon fill="midnightblue" stroke="midnightblue" points="1442.43,-290.37 1452.73,-287.9 1443.14,-283.4 1442.43,-290.37"/>
</g>
<!-- Node57 -->
<g id="node11" class="node">
<title>Node57</title>
<g id="a_node11"><a xlink:href="_a_b_l_wall_function_8_h.html" target="_top" xlink:title=" ">
<polygon fill="white" stroke="red" points="669.5,-168.5 669.5,-187.5 776.5,-187.5 776.5,-168.5 669.5,-168.5"/>
<text text-anchor="middle" x="723" y="-175.5" font-family="Helvetica,sans-Serif" font-size="10.00">ABLWallFunction.H</text>
</a>
</g>
</g>
<!-- Node2&#45;&gt;Node57 -->
<g id="edge11" class="edge">
<title>Node2&#45;&gt;Node57</title>
<path fill="none" stroke="midnightblue" d="M1442.35,-289.24C1291.26,-289.67 796.76,-287.69 742,-244 724.91,-230.36 722.62,-202.23 722.65,-187.86"/>
<polygon fill="midnightblue" stroke="midnightblue" points="1442.63,-292.74 1452.62,-289.2 1442.61,-285.74 1442.63,-292.74"/>
</g>
<!-- Node59 -->
<g id="node13" class="node">
<title>Node59</title>
<g id="a_node13"><a xlink:href="_a_b_l_mean_boussinesq_8cpp.html" target="_top" xlink:title=" ">
<polygon fill="white" stroke="black" points="1882,-0.5 1882,-19.5 2020,-19.5 2020,-0.5 1882,-0.5"/>
<text text-anchor="middle" x="1951" y="-7.5" font-family="Helvetica,sans-Serif" font-size="10.00">ABLMeanBoussinesq.cpp</text>
</a>
</g>
</g>
<!-- Node2&#45;&gt;Node59 -->
<g id="edge25" class="edge">
<title>Node2&#45;&gt;Node59</title>
<path fill="none" stroke="midnightblue" d="M1529.26,-283.15C1539.64,-281.93 1550.7,-280.78 1561,-280 1624.35,-275.21 2653.77,-282.9 2704,-244 2727.8,-225.57 2723,-209.1 2723,-179 2723,-179 2723,-179 2723,-121 2723,-50.35 2209.68,-21.78 2020.19,-13.64"/>
<polygon fill="midnightblue" stroke="midnightblue" points="1528.67,-279.7 1519.17,-284.38 1529.52,-286.65 1528.67,-279.7"/>
</g>
<!-- Node61 -->
<g id="node14" class="node">
<title>Node61</title>
<g id="a_node14"><a xlink:href="_a_b_l_stats_base_8_h.html" target="_top" xlink:title=" ">
<polygon fill="white" stroke="red" points="652.5,-112.5 652.5,-131.5 747.5,-131.5 747.5,-112.5 652.5,-112.5"/>
<text text-anchor="middle" x="700" y="-119.5" font-family="Helvetica,sans-Serif" font-size="10.00">ABLStatsBase.H</text>
</a>
</g>
</g>
<!-- Node2&#45;&gt;Node61 -->
<g id="edge24" class="edge">
<title>Node2&#45;&gt;Node61</title>
<path fill="none" stroke="midnightblue" d="M1442.69,-288.41C1270.05,-285.86 638.96,-274.48 610,-244 573.49,-205.56 651.05,-152.22 685.07,-131.61"/>
<polygon fill="midnightblue" stroke="midnightblue" points="1442.87,-291.92 1452.92,-288.56 1442.97,-284.92 1442.87,-291.92"/>
</g>
<!-- Node64 -->
<g id="node15" class="node">
<title>Node64</title>
<g id="a_node15"><a xlink:href="_boussinesq_bubble_8cpp.html" target="_top" xlink:title=" ">
<polygon fill="white" stroke="black" points="490,-112.5 490,-131.5 616,-131.5 616,-112.5 490,-112.5"/>
<text text-anchor="middle" x="553" y="-119.5" font-family="Helvetica,sans-Serif" font-size="10.00">BoussinesqBubble.cpp</text>
</a>
</g>
</g>
<!-- Node2&#45;&gt;Node64 -->
<g id="edge39" class="edge">
<title>Node2&#45;&gt;Node64</title>
<path fill="none" stroke="midnightblue" d="M1442.87,-288.13C1269.54,-284.49 631.35,-269.38 597,-244 559.78,-216.51 553.99,-154.36 553.13,-131.58"/>
<polygon fill="midnightblue" stroke="midnightblue" points="1442.83,-291.63 1452.9,-288.34 1442.98,-284.64 1442.83,-291.63"/>
</g>
<!-- Node65 -->
<g id="node16" class="node">
<title>Node65</title>
<g id="a_node16"><a xlink:href="_field_plane_averaging_8_h.html" target="_top" xlink:title=" ">
<polygon fill="white" stroke="red" points="751,-224.5 751,-243.5 877,-243.5 877,-224.5 751,-224.5"/>
<text text-anchor="middle" x="814" y="-231.5" font-family="Helvetica,sans-Serif" font-size="10.00">FieldPlaneAveraging.H</text>
</a>
</g>
</g>
<!-- Node2&#45;&gt;Node65 -->
<g id="edge19" class="edge">
<title>Node2&#45;&gt;Node65</title>
<path fill="none" stroke="midnightblue" d="M1442.58,-286.48C1343.67,-280.59 1094.1,-264.8 886,-244 883.12,-243.71 880.17,-243.4 877.2,-243.08"/>
<polygon fill="midnightblue" stroke="midnightblue" points="1442.59,-289.99 1452.78,-287.09 1443,-283 1442.59,-289.99"/>
</g>
<!-- Node72 -->
<g id="node17" class="node">
<title>Node72</title>
<g id="a_node17"><a xlink:href="_a_b_l_boundary_plane_8_h.html" target="_top" xlink:title=" ">
<polygon fill="white" stroke="red" points="917.5,-112.5 917.5,-131.5 1036.5,-131.5 1036.5,-112.5 917.5,-112.5"/>
<text text-anchor="middle" x="977" y="-119.5" font-family="Helvetica,sans-Serif" font-size="10.00">ABLBoundaryPlane.H</text>
</a>
</g>
</g>
<!-- Node2&#45;&gt;Node72 -->
<g id="edge22" class="edge">
<title>Node2&#45;&gt;Node72</title>
<path fill="none" stroke="midnightblue" d="M1442.66,-286.31C1342.63,-279.81 1101.74,-262.43 1070,-244 1033.94,-223.06 1040.69,-200.84 1015,-168 1004.92,-155.11 992.6,-140.76 984.77,-131.8"/>
<polygon fill="midnightblue" stroke="midnightblue" points="1442.53,-289.81 1452.74,-286.96 1442.98,-282.82 1442.53,-289.81"/>
</g>
<!-- Node76 -->
<g id="node18" class="node">
<title>Node76</title>
<g id="a_node18"><a xlink:href="_actuator_forcing_8cpp.html" target="_top" xlink:title=" ">
<polygon fill="white" stroke="black" points="411.5,-224.5 411.5,-243.5 524.5,-243.5 524.5,-224.5 411.5,-224.5"/>
<text text-anchor="middle" x="468" y="-231.5" font-family="Helvetica,sans-Serif" font-size="10.00">ActuatorForcing.cpp</text>
</a>
</g>
</g>
<!-- Node2&#45;&gt;Node76 -->
<g id="edge26" class="edge">
<title>Node2&#45;&gt;Node76</title>
<path fill="none" stroke="midnightblue" d="M1442.51,-288.15C1307.98,-285.26 886.64,-274.25 539,-244 534.3,-243.59 529.42,-243.1 524.54,-242.57"/>
<polygon fill="midnightblue" stroke="midnightblue" points="1442.74,-291.66 1452.81,-288.37 1442.88,-284.66 1442.74,-291.66"/>
</g>
<!-- Node77 -->
<g id="node19" class="node">
<title>Node77</title>
<g id="a_node19"><a xlink:href="_body_force_8cpp.html" target="_top" xlink:title=" ">
<polygon fill="white" stroke="black" points="1079,-224.5 1079,-243.5 1167,-243.5 1167,-224.5 1079,-224.5"/>
<text text-anchor="middle" x="1123" y="-231.5" font-family="Helvetica,sans-Serif" font-size="10.00">BodyForce.cpp</text>
</a>
</g>
</g>
<!-- Node2&#45;&gt;Node77 -->
<g id="edge27" class="edge">
<title>Node2&#45;&gt;Node77</title>
<path fill="none" stroke="midnightblue" d="M1442.7,-283.05C1382.73,-274.73 1271.02,-258.96 1176,-244 1173.14,-243.55 1170.2,-243.08 1167.23,-242.59"/>
<polygon fill="midnightblue" stroke="midnightblue" points="1442.54,-286.56 1452.93,-284.47 1443.5,-279.63 1442.54,-286.56"/>
</g>
<!-- Node78 -->
<g id="node20" class="node">
<title>Node78</title>
<g id="a_node20"><a xlink:href="_boussinesq_buoyancy_8cpp.html" target="_top" xlink:title=" ">
<polygon fill="white" stroke="black" points="1345.5,-224.5 1345.5,-243.5 1484.5,-243.5 1484.5,-224.5 1345.5,-224.5"/>
<text text-anchor="middle" x="1415" y="-231.5" font-family="Helvetica,sans-Serif" font-size="10.00">BoussinesqBuoyancy.cpp</text>
</a>
</g>
</g>
<!-- Node2&#45;&gt;Node78 -->
<g id="edge28" class="edge">
<title>Node2&#45;&gt;Node78</title>
<path fill="none" stroke="midnightblue" d="M1466.41,-274.1C1453.63,-264.38 1437.39,-252.03 1426.61,-243.83"/>
<polygon fill="midnightblue" stroke="midnightblue" points="1464.51,-277.06 1474.59,-280.32 1468.75,-271.48 1464.51,-277.06"/>
</g>
<!-- Node79 -->
<g id="node21" class="node">
<title>Node79</title>
<g id="a_node21"><a xlink:href="_coriolis_forcing_8cpp.html" target="_top" xlink:title=" ">
<polygon fill="white" stroke="black" points="1502.5,-224.5 1502.5,-243.5 1611.5,-243.5 1611.5,-224.5 1502.5,-224.5"/>
<text text-anchor="middle" x="1557" y="-231.5" font-family="Helvetica,sans-Serif" font-size="10.00">CoriolisForcing.cpp</text>
</a>
</g>
</g>
<!-- Node2&#45;&gt;Node79 -->
<g id="edge29" class="edge">
<title>Node2&#45;&gt;Node79</title>
<path fill="none" stroke="midnightblue" d="M1505.59,-274.1C1518.37,-264.38 1534.61,-252.03 1545.39,-243.83"/>
<polygon fill="midnightblue" stroke="midnightblue" points="1503.25,-271.48 1497.41,-280.32 1507.49,-277.06 1503.25,-271.48"/>
</g>
<!-- Node80 -->
<g id="node22" class="node">
<title>Node80</title>
<g id="a_node22"><a xlink:href="_density_buoyancy_8cpp.html" target="_top" xlink:title=" ">
<polygon fill="white" stroke="black" points="1629.5,-224.5 1629.5,-243.5 1750.5,-243.5 1750.5,-224.5 1629.5,-224.5"/>
<text text-anchor="middle" x="1690" y="-231.5" font-family="Helvetica,sans-Serif" font-size="10.00">DensityBuoyancy.cpp</text>
</a>
</g>
</g>
<!-- Node2&#45;&gt;Node80 -->
<g id="edge30" class="edge">
<title>Node2&#45;&gt;Node80</title>
<path fill="none" stroke="midnightblue" d="M1528.2,-277.83C1566.72,-267.63 1622.82,-252.78 1657.83,-243.52"/>
<polygon fill="midnightblue" stroke="midnightblue" points="1527.1,-274.5 1518.32,-280.44 1528.89,-281.27 1527.1,-274.5"/>
</g>
<!-- Node81 -->
<g id="node23" class="node">
<title>Node81</title>
<g id="a_node23"><a xlink:href="_geostrophic_forcing_8cpp.html" target="_top" xlink:title=" ">
<polygon fill="white" stroke="black" points="1768.5,-224.5 1768.5,-243.5 1899.5,-243.5 1899.5,-224.5 1768.5,-224.5"/>
<text text-anchor="middle" x="1834" y="-231.5" font-family="Helvetica,sans-Serif" font-size="10.00">GeostrophicForcing.cpp</text>
</a>
</g>
</g>
<!-- Node2&#45;&gt;Node81 -->
<g id="edge31" class="edge">
<title>Node2&#45;&gt;Node81</title>
<path fill="none" stroke="midnightblue" d="M1529.15,-280.67C1530.45,-280.44 1531.73,-280.22 1533,-280 1615.43,-265.95 1710.97,-252.08 1771.91,-243.53"/>
<polygon fill="midnightblue" stroke="midnightblue" points="1528.31,-277.26 1519.09,-282.49 1529.56,-284.15 1528.31,-277.26"/>
</g>
<!-- Node82 -->
<g id="node24" class="node">
<title>Node82</title>
<g id="a_node24"><a xlink:href="_gravity_forcing_8cpp.html" target="_top" xlink:title=" ">
<polygon fill="white" stroke="black" points="1918,-224.5 1918,-243.5 2026,-243.5 2026,-224.5 1918,-224.5"/>
<text text-anchor="middle" x="1972" y="-231.5" font-family="Helvetica,sans-Serif" font-size="10.00">GravityForcing.cpp</text>
</a>
</g>
</g>
<!-- Node2&#45;&gt;Node82 -->
<g id="edge32" class="edge">
<title>Node2&#45;&gt;Node82</title>
<path fill="none" stroke="midnightblue" d="M1529.14,-280.58C1530.44,-280.38 1531.73,-280.18 1533,-280 1699.18,-256.19 1742.31,-263.88 1909,-244 1911.85,-243.66 1914.78,-243.3 1917.72,-242.92"/>
<polygon fill="midnightblue" stroke="midnightblue" points="1528.34,-277.16 1519.06,-282.27 1529.5,-284.07 1528.34,-277.16"/>
</g>
<!-- Node83 -->
<g id="node25" class="node">
<title>Node83</title>
<g id="a_node25"><a xlink:href="_synth_turb_forcing_8cpp.html" target="_top" xlink:title=" ">
<polygon fill="white" stroke="black" points="2044,-224.5 2044,-243.5 2164,-243.5 2164,-224.5 2044,-224.5"/>
<text text-anchor="middle" x="2104" y="-231.5" font-family="Helvetica,sans-Serif" font-size="10.00">SynthTurbForcing.cpp</text>
</a>
</g>
</g>
<!-- Node2&#45;&gt;Node83 -->
<g id="edge33" class="edge">
<title>Node2&#45;&gt;Node83</title>
<path fill="none" stroke="midnightblue" d="M1529.13,-280.54C1530.43,-280.35 1531.73,-280.17 1533,-280 1754.79,-250.92 1812.45,-266.48 2035,-244 2037.88,-243.71 2040.83,-243.39 2043.81,-243.06"/>
<polygon fill="midnightblue" stroke="midnightblue" points="1528.36,-277.12 1519.04,-282.17 1529.48,-284.03 1528.36,-277.12"/>
</g>
<!-- Node84 -->
<g id="node26" class="node">
<title>Node84</title>
<g id="a_node26"><a xlink:href="_p_d_e_base_8cpp.html" target="_top" xlink:title=" ">
<polygon fill="white" stroke="black" points="2182,-224.5 2182,-243.5 2262,-243.5 2262,-224.5 2182,-224.5"/>
<text text-anchor="middle" x="2222" y="-231.5" font-family="Helvetica,sans-Serif" font-size="10.00">PDEBase.cpp</text>
</a>
</g>
</g>
<!-- Node2&#45;&gt;Node84 -->
<g id="edge34" class="edge">
<title>Node2&#45;&gt;Node84</title>
<path fill="none" stroke="midnightblue" d="M1529.13,-280.51C1530.43,-280.33 1531.72,-280.16 1533,-280 1815.75,-245.13 1890.12,-277.8 2173,-244 2175.92,-243.65 2178.93,-243.24 2181.95,-242.78"/>
<polygon fill="midnightblue" stroke="midnightblue" points="1528.37,-277.09 1519.04,-282.1 1529.46,-284 1528.37,-277.09"/>
</g>
<!-- Node85 -->
<g id="node27" class="node">
<title>Node85</title>
<g id="a_node27"><a xlink:href="_s_d_r_src_8cpp.html" target="_top" xlink:title=" ">
<polygon fill="white" stroke="black" points="2280,-224.5 2280,-243.5 2352,-243.5 2352,-224.5 2280,-224.5"/>
<text text-anchor="middle" x="2316" y="-231.5" font-family="Helvetica,sans-Serif" font-size="10.00">SDRSrc.cpp</text>
</a>
</g>
</g>
<!-- Node2&#45;&gt;Node85 -->
<g id="edge35" class="edge">
<title>Node2&#45;&gt;Node85</title>
<path fill="none" stroke="midnightblue" d="M1529.13,-280.5C1530.43,-280.32 1531.72,-280.15 1533,-280 1859.07,-241.02 1945.09,-284.31 2271,-244 2273.85,-243.65 2276.78,-243.22 2279.73,-242.74"/>
<polygon fill="midnightblue" stroke="midnightblue" points="1528.38,-277.07 1519.03,-282.07 1529.45,-283.99 1528.38,-277.07"/>
</g>
<!-- Node86 -->
<g id="node28" class="node">
<title>Node86</title>
<g id="a_node28"><a xlink:href="_ksgs_m84_src_8cpp.html" target="_top" xlink:title=" ">
<polygon fill="white" stroke="black" points="2370,-224.5 2370,-243.5 2466,-243.5 2466,-224.5 2370,-224.5"/>
<text text-anchor="middle" x="2418" y="-231.5" font-family="Helvetica,sans-Serif" font-size="10.00">KsgsM84Src.cpp</text>
</a>
</g>
</g>
<!-- Node2&#45;&gt;Node86 -->
<g id="edge36" class="edge">
<title>Node2&#45;&gt;Node86</title>
<path fill="none" stroke="midnightblue" d="M1529.13,-280.49C1530.43,-280.31 1531.72,-280.15 1533,-280 1898.86,-237.25 1994.49,-280.78 2361,-244 2363.89,-243.71 2366.86,-243.37 2369.85,-243"/>
<polygon fill="midnightblue" stroke="midnightblue" points="1528.38,-277.06 1519.03,-282.05 1529.45,-283.98 1528.38,-277.06"/>
</g>
<!-- Node87 -->
<g id="node29" class="node">
<title>Node87</title>
<g id="a_node29"><a xlink:href="_kw_s_s_t_src_8cpp.html" target="_top" xlink:title=" ">
<polygon fill="white" stroke="black" points="2484.5,-224.5 2484.5,-243.5 2569.5,-243.5 2569.5,-224.5 2484.5,-224.5"/>
<text text-anchor="middle" x="2527" y="-231.5" font-family="Helvetica,sans-Serif" font-size="10.00">KwSSTSrc.cpp</text>
</a>
</g>
</g>
<!-- Node2&#45;&gt;Node87 -->
<g id="edge37" class="edge">
<title>Node2&#45;&gt;Node87</title>
<path fill="none" stroke="midnightblue" d="M1529.12,-280.48C1530.43,-280.31 1531.72,-280.15 1533,-280 1949.27,-232.47 2058.33,-287.82 2475,-244 2478.1,-243.67 2481.29,-243.28 2484.5,-242.83"/>
<polygon fill="midnightblue" stroke="midnightblue" points="1528.38,-277.05 1519.03,-282.03 1529.44,-283.97 1528.38,-277.05"/>
</g>
<!-- Node88 -->
<g id="node30" class="node">
<title>Node88</title>
<g id="a_node30"><a xlink:href="_tioga_interface_8cpp.html" target="_top" xlink:title=" ">
<polygon fill="white" stroke="black" points="2587.5,-224.5 2587.5,-243.5 2694.5,-243.5 2694.5,-224.5 2587.5,-224.5"/>
<text text-anchor="middle" x="2641" y="-231.5" font-family="Helvetica,sans-Serif" font-size="10.00">TiogaInterface.cpp</text>
</a>
</g>
</g>
<!-- Node2&#45;&gt;Node88 -->
<g id="edge38" class="edge">
<title>Node2&#45;&gt;Node88</title>
<path fill="none" stroke="midnightblue" d="M1529.12,-280.47C1530.43,-280.3 1531.72,-280.14 1533,-280 1995.26,-228.1 2115.69,-285.47 2579,-244 2581.71,-243.76 2584.48,-243.48 2587.27,-243.17"/>
<polygon fill="midnightblue" stroke="midnightblue" points="1528.39,-277.05 1519.03,-282.01 1529.44,-283.97 1528.39,-277.05"/>
</g>
<!-- Node2&#45;&gt;Node89 -->
<g id="edge40" class="edge">
<title>Node2&#45;&gt;Node89</title>
<path fill="none" stroke="midnightblue" d="M1442.8,-285.87C1357.69,-279.52 1162.43,-264 999,-244 994.37,-243.43 989.55,-242.79 984.74,-242.11"/>
<polygon fill="midnightblue" stroke="midnightblue" points="1442.63,-289.37 1452.86,-286.62 1443.15,-282.39 1442.63,-289.37"/>
</g>
<!-- Node90 -->
<g id="node32" class="node">
<title>Node90</title>
<g id="a_node32"><a xlink:href="_channel_flow_8cpp.html" target="_top" xlink:title=" ">
<polygon fill="white" stroke="black" points="907.5,-168.5 907.5,-187.5 1006.5,-187.5 1006.5,-168.5 907.5,-168.5"/>
<text text-anchor="middle" x="957" y="-175.5" font-family="Helvetica,sans-Serif" font-size="10.00">ChannelFlow.cpp</text>
</a>
</g>
</g>
<!-- Node2&#45;&gt;Node90 -->
<g id="edge42" class="edge">
<title>Node2&#45;&gt;Node90</title>
<path fill="none" stroke="midnightblue" d="M1442.71,-287.81C1344.9,-284.63 1109.76,-274 1037,-244 1005.9,-231.17 977.33,-202.13 964.35,-187.61"/>
<polygon fill="midnightblue" stroke="midnightblue" points="1442.73,-291.32 1452.84,-288.13 1442.95,-284.32 1442.73,-291.32"/>
</g>
<!-- Node2&#45;&gt;Node91 -->
<g id="edge43" class="edge">
<title>Node2&#45;&gt;Node91</title>
<path fill="none" stroke="midnightblue" d="M1529.12,-280.47C1530.43,-280.3 1531.72,-280.14 1533,-280 2081.95,-219.88 2223.99,-280.76 2775,-244 2779.64,-243.69 2784.42,-243.32 2789.24,-242.92"/>
<polygon fill="midnightblue" stroke="midnightblue" points="1528.39,-277.04 1519.02,-281.99 1529.43,-283.96 1528.39,-277.04"/>
</g>
<!-- Node92 -->
<g id="node34" class="node">
<title>Node92</title>
<g id="a_node34"><a xlink:href="_convecting_taylor_vortex_8cpp.html" target="_top" xlink:title=" ">
<polygon fill="white" stroke="black" points="2768,-168.5 2768,-187.5 2920,-187.5 2920,-168.5 2768,-168.5"/>
<text text-anchor="middle" x="2844" y="-175.5" font-family="Helvetica,sans-Serif" font-size="10.00">ConvectingTaylorVortex.cpp</text>
</a>
</g>
</g>
<!-- Node2&#45;&gt;Node92 -->
<g id="edge45" class="edge">
<title>Node2&#45;&gt;Node92</title>
<path fill="none" stroke="midnightblue" d="M1529.26,-283.14C1539.64,-281.92 1550.7,-280.77 1561,-280 1691.36,-270.2 2611.67,-281.16 2737,-244 2757.21,-238.01 2808.24,-203.77 2831.77,-187.54"/>
<polygon fill="midnightblue" stroke="midnightblue" points="1528.67,-279.69 1519.17,-284.38 1529.52,-286.64 1528.67,-279.69"/>
</g>
<!-- Node2&#45;&gt;Node93 -->
<g id="edge46" class="edge">
<title>Node2&#45;&gt;Node93</title>
<path fill="none" stroke="midnightblue" d="M1528.99,-283.78C1542.43,-282.33 1557.31,-280.9 1571,-280 2179.22,-239.88 2335.34,-303.17 2942,-244 2944.69,-243.74 2947.46,-243.42 2950.24,-243.06"/>
<polygon fill="midnightblue" stroke="midnightblue" points="1528.6,-280.3 1519.05,-284.89 1529.37,-287.26 1528.6,-280.3"/>
</g>
<!-- Node2&#45;&gt;Node96 -->
<g id="edge47" class="edge">
<title>Node2&#45;&gt;Node96</title>
<path fill="none" stroke="midnightblue" d="M1529.16,-285.33C1552.73,-283.46 1582.45,-281.3 1609,-280 2248.43,-248.63 2410.67,-292.88 3049,-244 3051.69,-243.79 3054.43,-243.56 3057.2,-243.3"/>
<polygon fill="midnightblue" stroke="midnightblue" points="1528.81,-281.85 1519.12,-286.14 1529.37,-288.83 1528.81,-281.85"/>
</g>
<!-- Node2&#45;&gt;Node98 -->
<g id="edge48" class="edge">
<title>Node2&#45;&gt;Node98</title>
<path fill="none" stroke="midnightblue" d="M1529.33,-286.2C1561.72,-284.19 1607.12,-281.58 1647,-280 1989.71,-266.43 2850.42,-292.22 3190,-244 3192.66,-243.62 3195.41,-243.11 3198.14,-242.52"/>
<polygon fill="midnightblue" stroke="midnightblue" points="1529.05,-282.71 1519.29,-286.82 1529.49,-289.69 1529.05,-282.71"/>
</g>
<!-- Node2&#45;&gt;Node108 -->
<g id="edge49" class="edge">
<title>Node2&#45;&gt;Node108</title>
<path fill="none" stroke="midnightblue" d="M1529.1,-286.77C1569.4,-284.76 1631.26,-281.83 1685,-280 2384.33,-256.19 2561.2,-296.07 3259,-244 3261.73,-243.8 3264.51,-243.56 3267.32,-243.3"/>
<polygon fill="midnightblue" stroke="midnightblue" points="1528.9,-283.28 1519.09,-287.28 1529.25,-290.27 1528.9,-283.28"/>
</g>
<!-- Node4&#45;&gt;Node7 -->
<g id="edge4" class="edge">
<title>Node4&#45;&gt;Node7</title>
<path fill="none" stroke="midnightblue" d="M269.86,-218.1C256.72,-208.38 240.02,-196.03 228.94,-187.83"/>
<polygon fill="midnightblue" stroke="midnightblue" points="268.15,-221.19 278.27,-224.32 272.31,-215.56 268.15,-221.19"/>
</g>
<!-- Node4&#45;&gt;Node12 -->
<g id="edge5" class="edge">
<title>Node4&#45;&gt;Node12</title>
<path fill="none" stroke="midnightblue" d="M287.79,-214.07C286.18,-201.07 283.78,-183.44 281,-168 270.74,-111.11 254.19,-43.57 248.23,-19.8"/>
<polygon fill="midnightblue" stroke="midnightblue" points="284.33,-214.62 289.01,-224.13 291.28,-213.79 284.33,-214.62"/>
</g>
<!-- Node4&#45;&gt;Node15 -->
<g id="edge6" class="edge">
<title>Node4&#45;&gt;Node15</title>
<path fill="none" stroke="midnightblue" d="M307.47,-217.54C318.34,-207.91 331.94,-195.87 341.02,-187.83"/>
<polygon fill="midnightblue" stroke="midnightblue" points="304.97,-215.07 299.8,-224.32 309.61,-220.32 304.97,-215.07"/>
</g>
<!-- Node17&#45;&gt;Node34 -->
<g id="edge8" class="edge">
<title>Node17&#45;&gt;Node34</title>
<path fill="none" stroke="midnightblue" d="M1226.14,-214.69C1230.18,-205.59 1234.88,-195.01 1238.11,-187.75"/>
<polygon fill="midnightblue" stroke="midnightblue" points="1222.83,-213.52 1221.96,-224.08 1229.22,-216.37 1222.83,-213.52"/>
</g>
<!-- Node57&#45;&gt;Node58 -->
<g id="edge12" class="edge">
<title>Node57&#45;&gt;Node58</title>
<path fill="none" stroke="midnightblue" d="M735.99,-160.06C742.23,-151.74 749.7,-141.48 756,-132 769.11,-112.27 783.07,-88.15 790.2,-75.57"/>
<polygon fill="midnightblue" stroke="midnightblue" points="733.07,-158.12 729.82,-168.21 738.65,-162.35 733.07,-158.12"/>
</g>
<!-- Node57&#45;&gt;Node61 -->
<g id="edge16" class="edge">
<title>Node57&#45;&gt;Node61</title>
<path fill="none" stroke="midnightblue" d="M715.2,-158.69C711.32,-149.59 706.82,-139.01 703.73,-131.75"/>
<polygon fill="midnightblue" stroke="midnightblue" points="712.06,-160.25 719.2,-168.08 718.5,-157.51 712.06,-160.25"/>
</g>
<!-- Node57&#45;&gt;Node64 -->
<g id="edge18" class="edge">
<title>Node57&#45;&gt;Node64</title>
<path fill="none" stroke="midnightblue" d="M686.18,-165.3C654.15,-155.13 608.48,-140.62 579.81,-131.52"/>
<polygon fill="midnightblue" stroke="midnightblue" points="685.47,-168.75 696.06,-168.44 687.59,-162.08 685.47,-168.75"/>
</g>
<!-- Node58&#45;&gt;Node12 -->
<g id="edge15" class="edge">
<title>Node58&#45;&gt;Node12</title>
<path fill="none" stroke="midnightblue" d="M761.59,-61.71C661.23,-51.84 363.69,-22.58 272.72,-13.63"/>
<polygon fill="midnightblue" stroke="midnightblue" points="761.47,-65.22 771.76,-62.71 762.15,-58.25 761.47,-65.22"/>
</g>
<!-- Node58&#45;&gt;Node56 -->
<g id="edge13" class="edge">
<title>Node58&#45;&gt;Node56</title>
<path fill="none" stroke="midnightblue" d="M828.06,-58.39C876.93,-48.61 968.47,-30.31 1022.34,-19.53"/>
<polygon fill="midnightblue" stroke="midnightblue" points="827.14,-55 818.02,-60.4 828.51,-61.87 827.14,-55"/>
</g>
<!-- Node58&#45;&gt;Node59 -->
<g id="edge14" class="edge">
<title>Node58&#45;&gt;Node59</title>
<path fill="none" stroke="midnightblue" d="M828.13,-63.45C985.84,-56.09 1661.95,-24.5 1881.71,-14.24"/>
<polygon fill="midnightblue" stroke="midnightblue" points="827.92,-59.96 818.09,-63.92 828.24,-66.95 827.92,-59.96"/>
</g>
<!-- Node61&#45;&gt;Node58 -->
<g id="edge17" class="edge">
<title>Node61&#45;&gt;Node58</title>
<path fill="none" stroke="midnightblue" d="M724.32,-107.18C741.8,-97.24 764.83,-84.15 779.77,-75.65"/>
<polygon fill="midnightblue" stroke="midnightblue" points="722.23,-104.34 715.26,-112.32 725.69,-110.43 722.23,-104.34"/>
</g>
<!-- Node65&#45;&gt;Node57 -->
<g id="edge20" class="edge">
<title>Node65&#45;&gt;Node57</title>
<path fill="none" stroke="midnightblue" d="M790.71,-219.18C773.96,-209.24 751.9,-196.15 737.58,-187.65"/>
<polygon fill="midnightblue" stroke="midnightblue" points="788.99,-222.23 799.38,-224.32 792.57,-216.21 788.99,-222.23"/>
</g>
<!-- Node65&#45;&gt;Node58 -->
<g id="edge21" class="edge">
<title>Node65&#45;&gt;Node58</title>
<path fill="none" stroke="midnightblue" d="M811.82,-213.93C807.7,-177.92 798.92,-101.23 795.98,-75.57"/>
<polygon fill="midnightblue" stroke="midnightblue" points="808.36,-214.54 812.98,-224.08 815.32,-213.74 808.36,-214.54"/>
</g>
<!-- Node72&#45;&gt;Node58 -->
<g id="edge23" class="edge">
<title>Node72&#45;&gt;Node58</title>
<path fill="none" stroke="midnightblue" d="M938.37,-109.54C901.93,-98.73 848.51,-82.88 818.22,-73.89"/>
<polygon fill="midnightblue" stroke="midnightblue" points="937.58,-112.95 948.16,-112.44 939.57,-106.24 937.58,-112.95"/>
</g>
<!-- Node89&#45;&gt;Node90 -->
<g id="edge41" class="edge">
<title>Node89&#45;&gt;Node90</title>
<path fill="none" stroke="midnightblue" d="M945.86,-214.4C948.7,-205.36 951.98,-194.94 954.25,-187.75"/>
<polygon fill="midnightblue" stroke="midnightblue" points="942.47,-213.49 942.81,-224.08 949.15,-215.6 942.47,-213.49"/>
</g>
<!-- Node91&#45;&gt;Node92 -->
<g id="edge44" class="edge">
<title>Node91&#45;&gt;Node92</title>
<path fill="none" stroke="midnightblue" d="M2855.14,-214.4C2852.3,-205.36 2849.02,-194.94 2846.75,-187.75"/>
<polygon fill="midnightblue" stroke="midnightblue" points="2851.85,-215.6 2858.19,-224.08 2858.53,-213.49 2851.85,-215.6"/>
</g>
<!-- Node161&#45;&gt;Node76 -->
<g id="edge52" class="edge">
<title>Node161&#45;&gt;Node76</title>
<path fill="none" stroke="midnightblue" d="M767.78,-282.06C705.01,-272.2 590.18,-254.18 522.32,-243.53"/>
<polygon fill="midnightblue" stroke="midnightblue" points="767.34,-285.53 777.76,-283.62 768.42,-278.62 767.34,-285.53"/>
</g>
<!-- Node166&#45;&gt;Node12 -->
<g id="edge57" class="edge">
<title>Node166&#45;&gt;Node12</title>
<path fill="none" stroke="midnightblue" d="M101.76,-160.65C135.22,-125.94 212.36,-45.9 237.74,-19.57"/>
<polygon fill="midnightblue" stroke="midnightblue" points="99.02,-158.45 94.6,-168.08 104.06,-163.3 99.02,-158.45"/>
</g>
<!-- Node166&#45;&gt;Node64 -->
<g id="edge56" class="edge">
<title>Node166&#45;&gt;Node64</title>
<path fill="none" stroke="midnightblue" d="M154.23,-167.87C279.24,-152.52 413.12,-137.89 489.91,-129.67"/>
<polygon fill="midnightblue" stroke="midnightblue" points="153.59,-164.42 144.09,-169.12 154.45,-171.37 153.59,-164.42"/>
</g>
</g>
</svg>
