<?xml version="1.0" encoding="UTF-8" standalone="no"?>
<!DOCTYPE svg PUBLIC "-//W3C//DTD SVG 1.1//EN"
 "http://www.w3.org/Graphics/SVG/1.1/DTD/svg11.dtd">
<!-- Generated by graphviz version 2.43.0 (0)
 -->
<!-- Title: ScratchField.H Pages: 1 -->
<svg width="3502pt" height="252pt"
 viewBox="0.00 0.00 3501.50 252.00" xmlns="http://www.w3.org/2000/svg" xmlns:xlink="http://www.w3.org/1999/xlink">
<g id="graph0" class="graph" transform="scale(1 1) rotate(0) translate(4 248)">
<title>ScratchField.H</title>
<polygon fill="white" stroke="transparent" points="-4,4 -4,-248 3497.5,-248 3497.5,4 -4,4"/>
<!-- Node1 -->
<g id="node1" class="node">
<title>Node1</title>
<g id="a_node1"><a xlink:title=" ">
<polygon fill="#bfbfbf" stroke="black" points="143.5,-224.5 143.5,-243.5 229.5,-243.5 229.5,-224.5 143.5,-224.5"/>
<text text-anchor="middle" x="186.5" y="-231.5" font-family="Helvetica,sans-Serif" font-size="10.00">ScratchField.H</text>
</a>
</g>
</g>
<!-- Node2 -->
<g id="node2" class="node">
<title>Node2</title>
<g id="a_node2"><a xlink:href="_field_repo_8_h.html" target="_top" xlink:title=" ">
<polygon fill="white" stroke="black" points="1509,-168.5 1509,-187.5 1584,-187.5 1584,-168.5 1509,-168.5"/>
<text text-anchor="middle" x="1546.5" y="-175.5" font-family="Helvetica,sans-Serif" font-size="10.00">FieldRepo.H</text>
</a>
</g>
</g>
<!-- Node1&#45;&gt;Node2 -->
<g id="edge1" class="edge">
<title>Node1&#45;&gt;Node2</title>
<path fill="none" stroke="midnightblue" d="M239.98,-230.88C463.3,-222.01 1318.58,-188.05 1508.84,-180.5"/>
<polygon fill="midnightblue" stroke="midnightblue" points="239.68,-227.39 229.83,-231.28 239.96,-234.38 239.68,-227.39"/>
</g>
<!-- Node178 -->
<g id="node25" class="node">
<title>Node178</title>
<g id="a_node25"><a xlink:href="_scratch_field_8cpp.html" target="_top" xlink:title=" ">
<polygon fill="white" stroke="black" points="30.5,-112.5 30.5,-131.5 126.5,-131.5 126.5,-112.5 30.5,-112.5"/>
<text text-anchor="middle" x="78.5" y="-119.5" font-family="Helvetica,sans-Serif" font-size="10.00">ScratchField.cpp</text>
</a>
</g>
</g>
<!-- Node1&#45;&gt;Node178 -->
<g id="edge66" class="edge">
<title>Node1&#45;&gt;Node178</title>
<path fill="none" stroke="midnightblue" d="M170.99,-217.21C147.84,-193.63 105.04,-150.03 86.94,-131.59"/>
<polygon fill="midnightblue" stroke="midnightblue" points="168.52,-219.68 178.03,-224.37 173.52,-214.78 168.52,-219.68"/>
</g>
<!-- Node179 -->
<g id="node26" class="node">
<title>Node179</title>
<g id="a_node26"><a xlink:href="_view_field_8cpp.html" target="_top" xlink:title=" ">
<polygon fill="white" stroke="black" points="144.5,-112.5 144.5,-131.5 228.5,-131.5 228.5,-112.5 144.5,-112.5"/>
<text text-anchor="middle" x="186.5" y="-119.5" font-family="Helvetica,sans-Serif" font-size="10.00">ViewField.cpp</text>
</a>
</g>
</g>
<!-- Node1&#45;&gt;Node179 -->
<g id="edge67" class="edge">
<title>Node1&#45;&gt;Node179</title>
<path fill="none" stroke="midnightblue" d="M186.5,-214.35C186.5,-190.25 186.5,-149.31 186.5,-131.59"/>
<polygon fill="midnightblue" stroke="midnightblue" points="183,-214.37 186.5,-224.37 190,-214.37 183,-214.37"/>
</g>
<!-- Node3 -->
<g id="node3" class="node">
<title>Node3</title>
<g id="a_node3"><a xlink:href="_b_c_interface_8cpp.html" target="_top" xlink:title=" ">
<polygon fill="white" stroke="black" points="3263.5,-56.5 3263.5,-75.5 3357.5,-75.5 3357.5,-56.5 3263.5,-56.5"/>
<text text-anchor="middle" x="3310.5" y="-63.5" font-family="Helvetica,sans-Serif" font-size="10.00">BCInterface.cpp</text>
</a>
</g>
</g>
<!-- Node2&#45;&gt;Node3 -->
<g id="edge2" class="edge">
<title>Node2&#45;&gt;Node3</title>
<path fill="none" stroke="midnightblue" d="M1594.28,-176.54C1870.99,-173.78 3256.92,-158.62 3291.5,-132 3308.83,-118.66 3311.01,-90.39 3310.9,-75.93"/>
<polygon fill="midnightblue" stroke="midnightblue" points="1594.12,-173.04 1584.16,-176.64 1594.19,-180.04 1594.12,-173.04"/>
</g>
<!-- Node4 -->
<g id="node4" class="node">
<title>Node4</title>
<g id="a_node4"><a xlink:href="_fixed_gradient_b_c_8_h.html" target="_top" xlink:title=" ">
<polygon fill="white" stroke="black" points="3338.5,-112.5 3338.5,-131.5 3446.5,-131.5 3446.5,-112.5 3338.5,-112.5"/>
<text text-anchor="middle" x="3392.5" y="-119.5" font-family="Helvetica,sans-Serif" font-size="10.00">FixedGradientBC.H</text>
</a>
</g>
</g>
<!-- Node2&#45;&gt;Node4 -->
<g id="edge3" class="edge">
<title>Node2&#45;&gt;Node4</title>
<path fill="none" stroke="midnightblue" d="M1594.34,-176.48C1841.33,-173.68 2974.18,-159.54 3324.5,-132 3329.01,-131.65 3333.68,-131.2 3338.36,-130.69"/>
<polygon fill="midnightblue" stroke="midnightblue" points="1594.21,-172.98 1584.25,-176.59 1594.29,-179.98 1594.21,-172.98"/>
</g>
<!-- Node6 -->
<g id="node6" class="node">
<title>Node6</title>
<g id="a_node6"><a xlink:href="velocity__bcs_8_h.html" target="_top" xlink:title=" ">
<polygon fill="white" stroke="black" points="246.5,-112.5 246.5,-131.5 334.5,-131.5 334.5,-112.5 246.5,-112.5"/>
<text text-anchor="middle" x="290.5" y="-119.5" font-family="Helvetica,sans-Serif" font-size="10.00">velocity_bcs.H</text>
</a>
</g>
</g>
<!-- Node2&#45;&gt;Node6 -->
<g id="edge6" class="edge">
<title>Node2&#45;&gt;Node6</title>
<path fill="none" stroke="midnightblue" d="M1498.77,-177.2C1336.94,-177.45 794.25,-174.81 348.5,-132 344.04,-131.57 339.39,-131.02 334.77,-130.41"/>
<polygon fill="midnightblue" stroke="midnightblue" points="1498.89,-180.7 1508.88,-177.18 1498.87,-173.7 1498.89,-180.7"/>
</g>
<!-- Node9 -->
<g id="node8" class="node">
<title>Node9</title>
<g id="a_node8"><a xlink:href="_c_f_d_sim_8_h.html" target="_top" xlink:title=" ">
<polygon fill="white" stroke="red" points="530.5,-112.5 530.5,-131.5 596.5,-131.5 596.5,-112.5 530.5,-112.5"/>
<text text-anchor="middle" x="563.5" y="-119.5" font-family="Helvetica,sans-Serif" font-size="10.00">CFDSim.H</text>
</a>
</g>
</g>
<!-- Node2&#45;&gt;Node9 -->
<g id="edge8" class="edge">
<title>Node2&#45;&gt;Node9</title>
<path fill="none" stroke="midnightblue" d="M1498.65,-177.08C1360.46,-176.79 949,-172.34 610.5,-132 605.96,-131.46 601.21,-130.74 596.53,-129.93"/>
<polygon fill="midnightblue" stroke="midnightblue" points="1498.89,-180.58 1508.89,-177.09 1498.9,-173.58 1498.89,-180.58"/>
</g>
<!-- Node11 -->
<g id="node10" class="node">
<title>Node11</title>
<g id="a_node10"><a xlink:href="incflo_8_h.html" target="_top" xlink:title=" ">
<polygon fill="white" stroke="red" points="93,-56.5 93,-75.5 146,-75.5 146,-56.5 93,-56.5"/>
<text text-anchor="middle" x="119.5" y="-63.5" font-family="Helvetica,sans-Serif" font-size="10.00">incflo.H</text>
</a>
</g>
</g>
<!-- Node2&#45;&gt;Node11 -->
<g id="edge30" class="edge">
<title>Node2&#45;&gt;Node11</title>
<path fill="none" stroke="midnightblue" d="M1498.59,-176.57C1292.27,-174.55 485.04,-164.58 376.5,-132 360.07,-127.07 359.51,-118.15 343.5,-112 264.09,-81.47 238.58,-94.32 155.5,-76 152.48,-75.33 149.33,-74.6 146.2,-73.85"/>
<polygon fill="midnightblue" stroke="midnightblue" points="1498.77,-180.08 1508.8,-176.67 1498.84,-173.08 1498.77,-180.08"/>
</g>
<!-- Node89 -->
<g id="node15" class="node">
<title>Node89</title>
<g id="a_node15"><a xlink:href="_p_d_e_base_8cpp.html" target="_top" xlink:title=" ">
<polygon fill="white" stroke="black" points="164.5,-56.5 164.5,-75.5 244.5,-75.5 244.5,-56.5 164.5,-56.5"/>
<text text-anchor="middle" x="204.5" y="-63.5" font-family="Helvetica,sans-Serif" font-size="10.00">PDEBase.cpp</text>
</a>
</g>
</g>
<!-- Node2&#45;&gt;Node89 -->
<g id="edge48" class="edge">
<title>Node2&#45;&gt;Node89</title>
<path fill="none" stroke="midnightblue" d="M1498.48,-176.2C1296.97,-172.67 525.25,-157.61 419.5,-132 399.02,-127.04 396.33,-119.14 376.5,-112 332.36,-96.11 280,-83.22 244.74,-75.38"/>
<polygon fill="midnightblue" stroke="midnightblue" points="1498.68,-179.7 1508.74,-176.37 1498.8,-172.7 1498.68,-179.7"/>
</g>
<!-- Node93 -->
<g id="node16" class="node">
<title>Node93</title>
<g id="a_node16"><a xlink:href="_tioga_interface_8cpp.html" target="_top" xlink:title=" ">
<polygon fill="white" stroke="black" points="713,-56.5 713,-75.5 820,-75.5 820,-56.5 713,-56.5"/>
<text text-anchor="middle" x="766.5" y="-63.5" font-family="Helvetica,sans-Serif" font-size="10.00">TiogaInterface.cpp</text>
</a>
</g>
</g>
<!-- Node2&#45;&gt;Node93 -->
<g id="edge54" class="edge">
<title>Node2&#45;&gt;Node93</title>
<path fill="none" stroke="midnightblue" d="M1498.82,-176.15C1328.66,-172.89 759.92,-159.93 733.5,-132 717.5,-115.08 741.55,-88.91 756.34,-75.52"/>
<polygon fill="midnightblue" stroke="midnightblue" points="1498.91,-179.65 1508.98,-176.34 1499.05,-172.65 1498.91,-179.65"/>
</g>
<!-- Node125 -->
<g id="node17" class="node">
<title>Node125</title>
<g id="a_node17"><a xlink:href="_re_averaging_8cpp.html" target="_top" xlink:title=" ">
<polygon fill="white" stroke="black" points="838.5,-56.5 838.5,-75.5 936.5,-75.5 936.5,-56.5 838.5,-56.5"/>
<text text-anchor="middle" x="887.5" y="-63.5" font-family="Helvetica,sans-Serif" font-size="10.00">ReAveraging.cpp</text>
</a>
</g>
</g>
<!-- Node2&#45;&gt;Node125 -->
<g id="edge61" class="edge">
<title>Node2&#45;&gt;Node125</title>
<path fill="none" stroke="midnightblue" d="M1498.72,-176.12C1329.54,-172.78 767.63,-159.63 741.5,-132 735.39,-125.54 736.22,-119.15 741.5,-112 753.31,-96 801.41,-83.3 839.21,-75.52"/>
<polygon fill="midnightblue" stroke="midnightblue" points="1498.76,-179.62 1508.82,-176.32 1498.89,-172.62 1498.76,-179.62"/>
</g>
<!-- Node126 -->
<g id="node18" class="node">
<title>Node126</title>
<g id="a_node18"><a xlink:href="_reynolds_stress_8cpp.html" target="_top" xlink:title=" ">
<polygon fill="white" stroke="black" points="954.5,-56.5 954.5,-75.5 1066.5,-75.5 1066.5,-56.5 954.5,-56.5"/>
<text text-anchor="middle" x="1010.5" y="-63.5" font-family="Helvetica,sans-Serif" font-size="10.00">ReynoldsStress.cpp</text>
</a>
</g>
</g>
<!-- Node2&#45;&gt;Node126 -->
<g id="edge62" class="edge">
<title>Node2&#45;&gt;Node126</title>
<path fill="none" stroke="midnightblue" d="M1498.91,-176.1C1331.06,-172.68 775.35,-159.35 749.5,-132 743.39,-125.54 743.77,-118.8 749.5,-112 756.09,-104.18 879.7,-85.48 954.41,-74.81"/>
<polygon fill="midnightblue" stroke="midnightblue" points="1498.87,-179.6 1508.94,-176.3 1499.01,-172.6 1498.87,-179.6"/>
</g>
<!-- Node155 -->
<g id="node19" class="node">
<title>Node155</title>
<g id="a_node19"><a xlink:href="_actuator_8cpp.html" target="_top" xlink:title=" ">
<polygon fill="white" stroke="black" points="1085,-56.5 1085,-75.5 1162,-75.5 1162,-56.5 1085,-56.5"/>
<text text-anchor="middle" x="1123.5" y="-63.5" font-family="Helvetica,sans-Serif" font-size="10.00">Actuator.cpp</text>
</a>
</g>
</g>
<!-- Node2&#45;&gt;Node155 -->
<g id="edge65" class="edge">
<title>Node2&#45;&gt;Node155</title>
<path fill="none" stroke="midnightblue" d="M1498.58,-176.06C1331.44,-172.56 783.04,-159.04 757.5,-132 751.4,-125.54 751.58,-118.63 757.5,-112 804.88,-58.96 1005.17,-86.56 1075.5,-76 1078.52,-75.55 1081.64,-75.04 1084.77,-74.51"/>
<polygon fill="midnightblue" stroke="midnightblue" points="1498.72,-179.57 1508.79,-176.27 1498.87,-172.57 1498.72,-179.57"/>
</g>
<!-- Node166 -->
<g id="node20" class="node">
<title>Node166</title>
<g id="a_node20"><a xlink:href="_godunov_8_h.html" target="_top" xlink:title=" ">
<polygon fill="white" stroke="red" points="766.5,-112.5 766.5,-131.5 836.5,-131.5 836.5,-112.5 766.5,-112.5"/>
<text text-anchor="middle" x="801.5" y="-119.5" font-family="Helvetica,sans-Serif" font-size="10.00">Godunov.H</text>
</a>
</g>
</g>
<!-- Node2&#45;&gt;Node166 -->
<g id="edge21" class="edge">
<title>Node2&#45;&gt;Node166</title>
<path fill="none" stroke="midnightblue" d="M1498.59,-176.19C1384.81,-173.79 1089.6,-164.64 845.5,-132 842.72,-131.63 839.85,-131.18 836.97,-130.69"/>
<polygon fill="midnightblue" stroke="midnightblue" points="1498.64,-179.7 1508.71,-176.4 1498.78,-172.7 1498.64,-179.7"/>
</g>
<!-- Node172 -->
<g id="node21" class="node">
<title>Node172</title>
<g id="a_node21"><a xlink:href="_m_o_l_8_h.html" target="_top" xlink:title=" ">
<polygon fill="white" stroke="red" points="855,-112.5 855,-131.5 904,-131.5 904,-112.5 855,-112.5"/>
<text text-anchor="middle" x="879.5" y="-119.5" font-family="Helvetica,sans-Serif" font-size="10.00">MOL.H</text>
</a>
</g>
</g>
<!-- Node2&#45;&gt;Node172 -->
<g id="edge22" class="edge">
<title>Node2&#45;&gt;Node172</title>
<path fill="none" stroke="midnightblue" d="M1498.69,-176.66C1392.62,-175.22 1129.9,-168.01 913.5,-132 910.49,-131.5 907.36,-130.85 904.27,-130.13"/>
<polygon fill="midnightblue" stroke="midnightblue" points="1498.71,-180.16 1508.75,-176.78 1498.8,-173.16 1498.71,-180.16"/>
</g>
<!-- Node175 -->
<g id="node22" class="node">
<title>Node175</title>
<g id="a_node22"><a xlink:href="_field_8cpp.html" target="_top" xlink:title=" ">
<polygon fill="white" stroke="black" points="922.5,-112.5 922.5,-131.5 982.5,-131.5 982.5,-112.5 922.5,-112.5"/>
<text text-anchor="middle" x="952.5" y="-119.5" font-family="Helvetica,sans-Serif" font-size="10.00">Field.cpp</text>
</a>
</g>
</g>
<!-- Node2&#45;&gt;Node175 -->
<g id="edge23" class="edge">
<title>Node2&#45;&gt;Node175</title>
<path fill="none" stroke="midnightblue" d="M1498.92,-175.48C1402.62,-171.89 1177.91,-160.91 991.5,-132 988.62,-131.55 985.63,-131.01 982.65,-130.42"/>
<polygon fill="midnightblue" stroke="midnightblue" points="1498.81,-178.98 1508.93,-175.84 1499.06,-171.98 1498.81,-178.98"/>
</g>
<!-- Node176 -->
<g id="node23" class="node">
<title>Node176</title>
<g id="a_node23"><a xlink:href="_field_repo_8cpp.html" target="_top" xlink:title=" ">
<polygon fill="white" stroke="black" points="1001,-112.5 1001,-131.5 1086,-131.5 1086,-112.5 1001,-112.5"/>
<text text-anchor="middle" x="1043.5" y="-119.5" font-family="Helvetica,sans-Serif" font-size="10.00">FieldRepo.cpp</text>
</a>
</g>
</g>
<!-- Node2&#45;&gt;Node176 -->
<g id="edge24" class="edge">
<title>Node2&#45;&gt;Node176</title>
<path fill="none" stroke="midnightblue" d="M1498.8,-173.44C1416.22,-167.02 1241.34,-152.24 1094.5,-132 1091.74,-131.62 1088.9,-131.2 1086.04,-130.75"/>
<polygon fill="midnightblue" stroke="midnightblue" points="1498.64,-176.94 1508.88,-174.22 1499.18,-169.96 1498.64,-176.94"/>
</g>
<!-- Node177 -->
<g id="node24" class="node">
<title>Node177</title>
<g id="a_node24"><a xlink:href="_int_field_8cpp.html" target="_top" xlink:title=" ">
<polygon fill="white" stroke="black" points="1104,-112.5 1104,-131.5 1177,-131.5 1177,-112.5 1104,-112.5"/>
<text text-anchor="middle" x="1140.5" y="-119.5" font-family="Helvetica,sans-Serif" font-size="10.00">IntField.cpp</text>
</a>
</g>
</g>
<!-- Node2&#45;&gt;Node177 -->
<g id="edge25" class="edge">
<title>Node2&#45;&gt;Node177</title>
<path fill="none" stroke="midnightblue" d="M1498.67,-172.08C1429.56,-164.73 1297.86,-149.83 1186.5,-132 1183.45,-131.51 1180.29,-130.97 1177.12,-130.4"/>
<polygon fill="midnightblue" stroke="midnightblue" points="1498.49,-175.58 1508.8,-173.15 1499.23,-168.62 1498.49,-175.58"/>
</g>
<!-- Node2&#45;&gt;Node178 -->
<g id="edge26" class="edge">
<title>Node2&#45;&gt;Node178</title>
<path fill="none" stroke="midnightblue" d="M1498.59,-176.28C1283.88,-172.91 408.74,-157.83 135.5,-132 132.61,-131.73 129.64,-131.4 126.65,-131.03"/>
<polygon fill="midnightblue" stroke="midnightblue" points="1498.84,-179.78 1508.9,-176.44 1498.95,-172.78 1498.84,-179.78"/>
</g>
<!-- Node2&#45;&gt;Node179 -->
<g id="edge27" class="edge">
<title>Node2&#45;&gt;Node179</title>
<path fill="none" stroke="midnightblue" d="M1498.74,-176.26C1293.99,-172.93 489.38,-158.42 237.5,-132 234.64,-131.7 231.7,-131.33 228.74,-130.92"/>
<polygon fill="midnightblue" stroke="midnightblue" points="1498.82,-179.76 1508.87,-176.42 1498.93,-172.76 1498.82,-179.76"/>
</g>
<!-- Node180 -->
<g id="node27" class="node">
<title>Node180</title>
<g id="a_node27"><a xlink:href="field__algebra_8cpp.html" target="_top" xlink:title=" ">
<polygon fill="white" stroke="black" points="1195.5,-112.5 1195.5,-131.5 1295.5,-131.5 1295.5,-112.5 1195.5,-112.5"/>
<text text-anchor="middle" x="1245.5" y="-119.5" font-family="Helvetica,sans-Serif" font-size="10.00">field_algebra.cpp</text>
</a>
</g>
</g>
<!-- Node2&#45;&gt;Node180 -->
<g id="edge28" class="edge">
<title>Node2&#45;&gt;Node180</title>
<path fill="none" stroke="midnightblue" d="M1498.91,-168.46C1442.54,-158.35 1349.21,-141.61 1292.92,-131.51"/>
<polygon fill="midnightblue" stroke="midnightblue" points="1498.53,-171.95 1508.99,-170.27 1499.76,-165.06 1498.53,-171.95"/>
</g>
<!-- Node181 -->
<g id="node28" class="node">
<title>Node181</title>
<g id="a_node28"><a xlink:href="diffusion_8_h.html" target="_top" xlink:title=" ">
<polygon fill="white" stroke="red" points="1314,-112.5 1314,-131.5 1383,-131.5 1383,-112.5 1314,-112.5"/>
<text text-anchor="middle" x="1348.5" y="-119.5" font-family="Helvetica,sans-Serif" font-size="10.00">diffusion.H</text>
</a>
</g>
</g>
<!-- Node2&#45;&gt;Node181 -->
<g id="edge29" class="edge">
<title>Node2&#45;&gt;Node181</title>
<path fill="none" stroke="midnightblue" d="M1505.06,-165.7C1467.69,-155.51 1413.56,-140.74 1379.73,-131.52"/>
<polygon fill="midnightblue" stroke="midnightblue" points="1504.56,-169.19 1515.13,-168.44 1506.4,-162.44 1504.56,-169.19"/>
</g>
<!-- Node182 -->
<g id="node29" class="node">
<title>Node182</title>
<g id="a_node29"><a xlink:href="_p_d_e_helpers_8_h.html" target="_top" xlink:title=" ">
<polygon fill="white" stroke="red" points="428.5,-112.5 428.5,-131.5 512.5,-131.5 512.5,-112.5 428.5,-112.5"/>
<text text-anchor="middle" x="470.5" y="-119.5" font-family="Helvetica,sans-Serif" font-size="10.00">PDEHelpers.H</text>
</a>
</g>
</g>
<!-- Node2&#45;&gt;Node182 -->
<g id="edge31" class="edge">
<title>Node2&#45;&gt;Node182</title>
<path fill="none" stroke="midnightblue" d="M1498.65,-177.12C1352.05,-177 896.28,-173.12 521.5,-132 518.64,-131.69 515.7,-131.31 512.74,-130.89"/>
<polygon fill="midnightblue" stroke="midnightblue" points="1498.67,-180.62 1508.67,-177.12 1498.67,-173.62 1498.67,-180.62"/>
</g>
<!-- Node183 -->
<g id="node30" class="node">
<title>Node183</title>
<g id="a_node30"><a xlink:href="_density_source_8_h.html" target="_top" xlink:title=" ">
<polygon fill="white" stroke="red" points="1401.5,-112.5 1401.5,-131.5 1499.5,-131.5 1499.5,-112.5 1401.5,-112.5"/>
<text text-anchor="middle" x="1450.5" y="-119.5" font-family="Helvetica,sans-Serif" font-size="10.00">DensitySource.H</text>
</a>
</g>
</g>
<!-- Node2&#45;&gt;Node183 -->
<g id="edge34" class="edge">
<title>Node2&#45;&gt;Node183</title>
<path fill="none" stroke="midnightblue" d="M1521.93,-163.18C1504.26,-153.24 1480.99,-140.15 1465.89,-131.65"/>
<polygon fill="midnightblue" stroke="midnightblue" points="1520.64,-166.47 1531.08,-168.32 1524.08,-160.37 1520.64,-166.47"/>
</g>
<!-- Node184 -->
<g id="node31" class="node">
<title>Node184</title>
<g id="a_node31"><a xlink:href="_momentum_source_8_h.html" target="_top" xlink:title=" ">
<polygon fill="white" stroke="red" points="1631.5,-112.5 1631.5,-131.5 1747.5,-131.5 1747.5,-112.5 1631.5,-112.5"/>
<text text-anchor="middle" x="1689.5" y="-119.5" font-family="Helvetica,sans-Serif" font-size="10.00">MomentumSource.H</text>
</a>
</g>
</g>
<!-- Node2&#45;&gt;Node184 -->
<g id="edge35" class="edge">
<title>Node2&#45;&gt;Node184</title>
<path fill="none" stroke="midnightblue" d="M1578.53,-164.91C1605.41,-154.75 1643.14,-140.51 1666.95,-131.52"/>
<polygon fill="midnightblue" stroke="midnightblue" points="1577.28,-161.64 1569.16,-168.44 1579.75,-168.19 1577.28,-161.64"/>
</g>
<!-- Node71 -->
<g id="node32" class="node">
<title>Node71</title>
<g id="a_node32"><a xlink:href="_a_b_l_mean_boussinesq_8_h.html" target="_top" xlink:title=" ">
<polygon fill="white" stroke="red" points="1284.5,-56.5 1284.5,-75.5 1412.5,-75.5 1412.5,-56.5 1284.5,-56.5"/>
<text text-anchor="middle" x="1348.5" y="-63.5" font-family="Helvetica,sans-Serif" font-size="10.00">ABLMeanBoussinesq.H</text>
</a>
</g>
</g>
<!-- Node2&#45;&gt;Node71 -->
<g id="edge42" class="edge">
<title>Node2&#45;&gt;Node71</title>
<path fill="none" stroke="midnightblue" d="M1540.29,-158.87C1534.35,-144.16 1523.98,-123.96 1508.5,-112 1490.41,-98.02 1433.38,-84.1 1392.57,-75.52"/>
<polygon fill="midnightblue" stroke="midnightblue" points="1537.08,-160.26 1543.85,-168.41 1543.64,-157.82 1537.08,-160.26"/>
</g>
<!-- Node188 -->
<g id="node33" class="node">
<title>Node188</title>
<g id="a_node33"><a xlink:href="_boussinesq_buoyancy_8_h.html" target="_top" xlink:title=" ">
<polygon fill="white" stroke="red" points="1431,-56.5 1431,-75.5 1560,-75.5 1560,-56.5 1431,-56.5"/>
<text text-anchor="middle" x="1495.5" y="-63.5" font-family="Helvetica,sans-Serif" font-size="10.00">BoussinesqBuoyancy.H</text>
</a>
</g>
</g>
<!-- Node2&#45;&gt;Node188 -->
<g id="edge43" class="edge">
<title>Node2&#45;&gt;Node188</title>
<path fill="none" stroke="midnightblue" d="M1548.47,-158.08C1549.07,-144.61 1548.23,-126.42 1541.5,-112 1534.32,-96.61 1519.45,-83.63 1508.55,-75.63"/>
<polygon fill="midnightblue" stroke="midnightblue" points="1544.98,-157.86 1547.72,-168.1 1551.96,-158.39 1544.98,-157.86"/>
</g>
<!-- Node189 -->
<g id="node34" class="node">
<title>Node189</title>
<g id="a_node34"><a xlink:href="_coriolis_forcing_8_h.html" target="_top" xlink:title=" ">
<polygon fill="white" stroke="red" points="1578,-56.5 1578,-75.5 1677,-75.5 1677,-56.5 1578,-56.5"/>
<text text-anchor="middle" x="1627.5" y="-63.5" font-family="Helvetica,sans-Serif" font-size="10.00">CoriolisForcing.H</text>
</a>
</g>
</g>
<!-- Node2&#45;&gt;Node189 -->
<g id="edge44" class="edge">
<title>Node2&#45;&gt;Node189</title>
<path fill="none" stroke="midnightblue" d="M1558.82,-160.27C1576.33,-136.49 1607.77,-93.79 1621.17,-75.59"/>
<polygon fill="midnightblue" stroke="midnightblue" points="1555.97,-158.24 1552.86,-168.37 1561.6,-162.39 1555.97,-158.24"/>
</g>
<!-- Node190 -->
<g id="node35" class="node">
<title>Node190</title>
<g id="a_node35"><a xlink:href="_density_buoyancy_8_h.html" target="_top" xlink:title=" ">
<polygon fill="white" stroke="red" points="1695,-56.5 1695,-75.5 1806,-75.5 1806,-56.5 1695,-56.5"/>
<text text-anchor="middle" x="1750.5" y="-63.5" font-family="Helvetica,sans-Serif" font-size="10.00">DensityBuoyancy.H</text>
</a>
</g>
</g>
<!-- Node2&#45;&gt;Node190 -->
<g id="edge45" class="edge">
<title>Node2&#45;&gt;Node190</title>
<path fill="none" stroke="midnightblue" d="M1594.08,-173.6C1649.63,-168.52 1736.47,-156.77 1756.5,-132 1769.61,-115.78 1760.77,-89.3 1754.77,-75.68"/>
<polygon fill="midnightblue" stroke="midnightblue" points="1593.76,-170.11 1584.1,-174.47 1594.37,-177.09 1593.76,-170.11"/>
</g>
<!-- Node192 -->
<g id="node36" class="node">
<title>Node192</title>
<g id="a_node36"><a xlink:href="_gravity_forcing_8_h.html" target="_top" xlink:title=" ">
<polygon fill="white" stroke="red" points="1824.5,-56.5 1824.5,-75.5 1922.5,-75.5 1922.5,-56.5 1824.5,-56.5"/>
<text text-anchor="middle" x="1873.5" y="-63.5" font-family="Helvetica,sans-Serif" font-size="10.00">GravityForcing.H</text>
</a>
</g>
</g>
<!-- Node2&#45;&gt;Node192 -->
<g id="edge46" class="edge">
<title>Node2&#45;&gt;Node192</title>
<path fill="none" stroke="midnightblue" d="M1594.52,-172.82C1641.54,-167.52 1714.5,-155.98 1773.5,-132 1809.18,-117.5 1845.8,-89.76 1863.16,-75.67"/>
<polygon fill="midnightblue" stroke="midnightblue" points="1593.88,-169.37 1584.31,-173.93 1594.63,-176.33 1593.88,-169.37"/>
</g>
<!-- Node194 -->
<g id="node37" class="node">
<title>Node194</title>
<g id="a_node37"><a xlink:href="_m_m_s_forcing_8_h.html" target="_top" xlink:title=" ">
<polygon fill="white" stroke="red" points="1940.5,-56.5 1940.5,-75.5 2026.5,-75.5 2026.5,-56.5 1940.5,-56.5"/>
<text text-anchor="middle" x="1983.5" y="-63.5" font-family="Helvetica,sans-Serif" font-size="10.00">MMSForcing.H</text>
</a>
</g>
</g>
<!-- Node2&#45;&gt;Node194 -->
<g id="edge55" class="edge">
<title>Node2&#45;&gt;Node194</title>
<path fill="none" stroke="midnightblue" d="M1594.28,-171.29C1646.68,-164.44 1732.95,-151.38 1805.5,-132 1864.3,-116.29 1931.07,-89.34 1963.59,-75.6"/>
<polygon fill="midnightblue" stroke="midnightblue" points="1593.74,-167.83 1584.27,-172.58 1594.63,-174.78 1593.74,-167.83"/>
</g>
<!-- Node195 -->
<g id="node38" class="node">
<title>Node195</title>
<g id="a_node38"><a xlink:href="_source_term_8_h.html" target="_top" xlink:title=" ">
<polygon fill="white" stroke="red" points="1879.5,-112.5 1879.5,-131.5 1963.5,-131.5 1963.5,-112.5 1879.5,-112.5"/>
<text text-anchor="middle" x="1921.5" y="-119.5" font-family="Helvetica,sans-Serif" font-size="10.00">SourceTerm.H</text>
</a>
</g>
</g>
<!-- Node2&#45;&gt;Node195 -->
<g id="edge47" class="edge">
<title>Node2&#45;&gt;Node195</title>
<path fill="none" stroke="midnightblue" d="M1594.29,-170.55C1656.71,-162.06 1769.37,-146.5 1865.5,-132 1869.98,-131.32 1874.66,-130.6 1879.32,-129.87"/>
<polygon fill="midnightblue" stroke="midnightblue" points="1593.78,-167.09 1584.35,-171.9 1594.73,-174.02 1593.78,-167.09"/>
</g>
<!-- Node196 -->
<g id="node39" class="node">
<title>Node196</title>
<g id="a_node39"><a xlink:href="_s_d_r_source_8_h.html" target="_top" xlink:title=" ">
<polygon fill="white" stroke="red" points="1981.5,-112.5 1981.5,-131.5 2061.5,-131.5 2061.5,-112.5 1981.5,-112.5"/>
<text text-anchor="middle" x="2021.5" y="-119.5" font-family="Helvetica,sans-Serif" font-size="10.00">SDRSource.H</text>
</a>
</g>
</g>
<!-- Node2&#45;&gt;Node196 -->
<g id="edge49" class="edge">
<title>Node2&#45;&gt;Node196</title>
<path fill="none" stroke="midnightblue" d="M1594.35,-173.15C1673.33,-166.52 1835.84,-151.74 1972.5,-132 1975.41,-131.58 1978.41,-131.11 1981.43,-130.62"/>
<polygon fill="midnightblue" stroke="midnightblue" points="1593.91,-169.67 1584.23,-173.99 1594.49,-176.65 1593.91,-169.67"/>
</g>
<!-- Node198 -->
<g id="node40" class="node">
<title>Node198</title>
<g id="a_node40"><a xlink:href="_temperature_source_8_h.html" target="_top" xlink:title=" ">
<polygon fill="white" stroke="red" points="2079.5,-112.5 2079.5,-131.5 2201.5,-131.5 2201.5,-112.5 2079.5,-112.5"/>
<text text-anchor="middle" x="2140.5" y="-119.5" font-family="Helvetica,sans-Serif" font-size="10.00">TemperatureSource.H</text>
</a>
</g>
</g>
<!-- Node2&#45;&gt;Node198 -->
<g id="edge50" class="edge">
<title>Node2&#45;&gt;Node198</title>
<path fill="none" stroke="midnightblue" d="M1594.16,-173.58C1686.3,-166.83 1895.23,-150.79 2070.5,-132 2073.42,-131.69 2076.41,-131.35 2079.43,-131.01"/>
<polygon fill="midnightblue" stroke="midnightblue" points="1593.76,-170.1 1584.04,-174.32 1594.27,-177.09 1593.76,-170.1"/>
</g>
<!-- Node199 -->
<g id="node41" class="node">
<title>Node199</title>
<g id="a_node41"><a xlink:href="_t_k_e_source_8_h.html" target="_top" xlink:title=" ">
<polygon fill="white" stroke="red" points="2220,-112.5 2220,-131.5 2299,-131.5 2299,-112.5 2220,-112.5"/>
<text text-anchor="middle" x="2259.5" y="-119.5" font-family="Helvetica,sans-Serif" font-size="10.00">TKESource.H</text>
</a>
</g>
</g>
<!-- Node2&#45;&gt;Node199 -->
<g id="edge51" class="edge">
<title>Node2&#45;&gt;Node199</title>
<path fill="none" stroke="midnightblue" d="M1594.13,-175.64C1703.44,-172.1 1980.6,-160.81 2210.5,-132 2213.59,-131.61 2216.78,-131.16 2219.98,-130.66"/>
<polygon fill="midnightblue" stroke="midnightblue" points="1593.97,-172.14 1584.08,-175.95 1594.19,-179.13 1593.97,-172.14"/>
</g>
<!-- Node203 -->
<g id="node42" class="node">
<title>Node203</title>
<g id="a_node42"><a xlink:href="_split_advection_8_h.html" target="_top" xlink:title=" ">
<polygon fill="white" stroke="red" points="2316.5,-112.5 2316.5,-131.5 2414.5,-131.5 2414.5,-112.5 2316.5,-112.5"/>
<text text-anchor="middle" x="2365.5" y="-119.5" font-family="Helvetica,sans-Serif" font-size="10.00">SplitAdvection.H</text>
</a>
</g>
</g>
<!-- Node2&#45;&gt;Node203 -->
<g id="edge52" class="edge">
<title>Node2&#45;&gt;Node203</title>
<path fill="none" stroke="midnightblue" d="M1594.62,-175.79C1715.15,-172.4 2039.6,-161.1 2308.5,-132 2311.09,-131.72 2313.74,-131.4 2316.42,-131.06"/>
<polygon fill="midnightblue" stroke="midnightblue" points="1594.17,-172.3 1584.27,-176.07 1594.36,-179.3 1594.17,-172.3"/>
</g>
<!-- Node205 -->
<g id="node43" class="node">
<title>Node205</title>
<g id="a_node43"><a xlink:href="fvm__utils_8_h.html" target="_top" xlink:title=" ">
<polygon fill="white" stroke="red" points="2433,-112.5 2433,-131.5 2506,-131.5 2506,-112.5 2433,-112.5"/>
<text text-anchor="middle" x="2469.5" y="-119.5" font-family="Helvetica,sans-Serif" font-size="10.00">fvm_utils.H</text>
</a>
</g>
</g>
<!-- Node2&#45;&gt;Node205 -->
<g id="edge53" class="edge">
<title>Node2&#45;&gt;Node205</title>
<path fill="none" stroke="midnightblue" d="M1594.49,-176.92C1726.99,-176.2 2108.95,-170.64 2423.5,-132 2426.57,-131.62 2429.74,-131.16 2432.92,-130.64"/>
<polygon fill="midnightblue" stroke="midnightblue" points="1594.26,-173.42 1584.28,-176.97 1594.29,-180.42 1594.26,-173.42"/>
</g>
<!-- Node215 -->
<g id="node44" class="node">
<title>Node215</title>
<g id="a_node44"><a xlink:href="_linear_profile_8cpp.html" target="_top" xlink:title=" ">
<polygon fill="white" stroke="black" points="2524.5,-112.5 2524.5,-131.5 2622.5,-131.5 2622.5,-112.5 2524.5,-112.5"/>
<text text-anchor="middle" x="2573.5" y="-119.5" font-family="Helvetica,sans-Serif" font-size="10.00">LinearProfile.cpp</text>
</a>
</g>
</g>
<!-- Node2&#45;&gt;Node215 -->
<g id="edge56" class="edge">
<title>Node2&#45;&gt;Node215</title>
<path fill="none" stroke="midnightblue" d="M1594.06,-176.6C1735.03,-175.03 2162.8,-167.45 2515.5,-132 2518.44,-131.7 2521.46,-131.36 2524.5,-130.98"/>
<polygon fill="midnightblue" stroke="midnightblue" points="1593.98,-173.1 1584.02,-176.71 1594.06,-180.1 1593.98,-173.1"/>
</g>
<!-- Node44 -->
<g id="node45" class="node">
<title>Node44</title>
<g id="a_node45"><a xlink:href="_power_law_profile_8cpp.html" target="_top" xlink:title=" ">
<polygon fill="white" stroke="black" points="2641,-112.5 2641,-131.5 2758,-131.5 2758,-112.5 2641,-112.5"/>
<text text-anchor="middle" x="2699.5" y="-119.5" font-family="Helvetica,sans-Serif" font-size="10.00">PowerLawProfile.cpp</text>
</a>
</g>
</g>
<!-- Node2&#45;&gt;Node44 -->
<g id="edge57" class="edge">
<title>Node2&#45;&gt;Node44</title>
<path fill="none" stroke="midnightblue" d="M1594.42,-176.55C1746.48,-174.8 2231.64,-166.68 2631.5,-132 2634.58,-131.73 2637.74,-131.43 2640.93,-131.09"/>
<polygon fill="midnightblue" stroke="midnightblue" points="1594.02,-173.06 1584.06,-176.67 1594.1,-180.06 1594.02,-173.06"/>
</g>
<!-- Node216 -->
<g id="node46" class="node">
<title>Node216</title>
<g id="a_node46"><a xlink:href="_u_d_f_8cpp.html" target="_top" xlink:title=" ">
<polygon fill="white" stroke="black" points="2776.5,-112.5 2776.5,-131.5 2832.5,-131.5 2832.5,-112.5 2776.5,-112.5"/>
<text text-anchor="middle" x="2804.5" y="-119.5" font-family="Helvetica,sans-Serif" font-size="10.00">UDF.cpp</text>
</a>
</g>
</g>
<!-- Node2&#45;&gt;Node216 -->
<g id="edge58" class="edge">
<title>Node2&#45;&gt;Node216</title>
<path fill="none" stroke="midnightblue" d="M1594.57,-176.52C1791.2,-174.37 2534.88,-164.24 2767.5,-132 2770.38,-131.6 2773.37,-131.07 2776.33,-130.47"/>
<polygon fill="midnightblue" stroke="midnightblue" points="1594.24,-173.03 1584.28,-176.63 1594.31,-180.03 1594.24,-173.03"/>
</g>
<!-- Node217 -->
<g id="node47" class="node">
<title>Node217</title>
<g id="a_node47"><a xlink:href="_transport_model_8_h.html" target="_top" xlink:title=" ">
<polygon fill="white" stroke="red" points="2850.5,-112.5 2850.5,-131.5 2952.5,-131.5 2952.5,-112.5 2850.5,-112.5"/>
<text text-anchor="middle" x="2901.5" y="-119.5" font-family="Helvetica,sans-Serif" font-size="10.00">TransportModel.H</text>
</a>
</g>
</g>
<!-- Node2&#45;&gt;Node217 -->
<g id="edge59" class="edge">
<title>Node2&#45;&gt;Node217</title>
<path fill="none" stroke="midnightblue" d="M1594.34,-177.3C1764.47,-177.97 2356.03,-176.7 2841.5,-132 2844.44,-131.73 2847.45,-131.41 2850.49,-131.06"/>
<polygon fill="midnightblue" stroke="midnightblue" points="1594.22,-173.8 1584.21,-177.26 1594.19,-180.8 1594.22,-173.8"/>
</g>
<!-- Node121 -->
<g id="node48" class="node">
<title>Node121</title>
<g id="a_node48"><a xlink:href="_smagorinsky_8_h.html" target="_top" xlink:title=" ">
<polygon fill="white" stroke="red" points="2971,-112.5 2971,-131.5 3060,-131.5 3060,-112.5 2971,-112.5"/>
<text text-anchor="middle" x="3015.5" y="-119.5" font-family="Helvetica,sans-Serif" font-size="10.00">Smagorinsky.H</text>
</a>
</g>
</g>
<!-- Node2&#45;&gt;Node121 -->
<g id="edge60" class="edge">
<title>Node2&#45;&gt;Node121</title>
<path fill="none" stroke="midnightblue" d="M1594.23,-176.34C1809.03,-173.23 2687.46,-159.07 2961.5,-132 2964.53,-131.7 2967.64,-131.34 2970.77,-130.93"/>
<polygon fill="midnightblue" stroke="midnightblue" points="1594.16,-172.84 1584.21,-176.48 1594.26,-179.84 1594.16,-172.84"/>
</g>
<!-- Node153 -->
<g id="node49" class="node">
<title>Node153</title>
<g id="a_node49"><a xlink:href="_act_src_line_op_8_h.html" target="_top" xlink:title=" ">
<polygon fill="white" stroke="red" points="3078.5,-112.5 3078.5,-131.5 3170.5,-131.5 3170.5,-112.5 3078.5,-112.5"/>
<text text-anchor="middle" x="3124.5" y="-119.5" font-family="Helvetica,sans-Serif" font-size="10.00">ActSrcLineOp.H</text>
</a>
</g>
</g>
<!-- Node2&#45;&gt;Node153 -->
<g id="edge63" class="edge">
<title>Node2&#45;&gt;Node153</title>
<path fill="none" stroke="midnightblue" d="M1594.16,-176.44C1818.75,-173.7 2772.88,-160.52 3069.5,-132 3072.39,-131.72 3075.36,-131.39 3078.34,-131.01"/>
<polygon fill="midnightblue" stroke="midnightblue" points="1593.98,-172.95 1584.02,-176.57 1594.07,-179.95 1593.98,-172.95"/>
</g>
<!-- Node159 -->
<g id="node50" class="node">
<title>Node159</title>
<g id="a_node50"><a xlink:href="_act_src_disk_op_8_h.html" target="_top" xlink:title=" ">
<polygon fill="white" stroke="red" points="3189,-112.5 3189,-131.5 3282,-131.5 3282,-112.5 3189,-112.5"/>
<text text-anchor="middle" x="3235.5" y="-119.5" font-family="Helvetica,sans-Serif" font-size="10.00">ActSrcDiskOp.H</text>
</a>
</g>
</g>
<!-- Node2&#45;&gt;Node159 -->
<g id="edge64" class="edge">
<title>Node2&#45;&gt;Node159</title>
<path fill="none" stroke="midnightblue" d="M1594.52,-176.53C1829.54,-174.11 2860.03,-161.94 3179.5,-132 3182.54,-131.72 3185.66,-131.37 3188.81,-130.98"/>
<polygon fill="midnightblue" stroke="midnightblue" points="1594.22,-173.03 1584.26,-176.64 1594.29,-180.03 1594.22,-173.03"/>
</g>
<!-- Node4&#45;&gt;Node3 -->
<g id="edge4" class="edge">
<title>Node4&#45;&gt;Node3</title>
<path fill="none" stroke="midnightblue" d="M3370.67,-106.62C3355.69,-96.76 3336.3,-83.99 3323.64,-75.65"/>
<polygon fill="midnightblue" stroke="midnightblue" points="3369.05,-109.75 3379.33,-112.32 3372.9,-103.9 3369.05,-109.75"/>
</g>
<!-- Node5 -->
<g id="node5" class="node">
<title>Node5</title>
<g id="a_node5"><a xlink:href="_fixed_gradient_b_c_8cpp.html" target="_top" xlink:title=" ">
<polygon fill="white" stroke="black" points="3375.5,-56.5 3375.5,-75.5 3493.5,-75.5 3493.5,-56.5 3375.5,-56.5"/>
<text text-anchor="middle" x="3434.5" y="-63.5" font-family="Helvetica,sans-Serif" font-size="10.00">FixedGradientBC.cpp</text>
</a>
</g>
</g>
<!-- Node4&#45;&gt;Node5 -->
<g id="edge5" class="edge">
<title>Node4&#45;&gt;Node5</title>
<path fill="none" stroke="midnightblue" d="M3405.61,-104.14C3412.93,-94.74 3421.74,-83.4 3427.69,-75.75"/>
<polygon fill="midnightblue" stroke="midnightblue" points="3402.81,-102.04 3399.44,-112.08 3408.34,-106.34 3402.81,-102.04"/>
</g>
<!-- Node7 -->
<g id="node7" class="node">
<title>Node7</title>
<g id="a_node7"><a xlink:href="icns__bcop_8_h.html" target="_top" xlink:title=" ">
<polygon fill="white" stroke="red" points="0,-56.5 0,-75.5 75,-75.5 75,-56.5 0,-56.5"/>
<text text-anchor="middle" x="37.5" y="-63.5" font-family="Helvetica,sans-Serif" font-size="10.00">icns_bcop.H</text>
</a>
</g>
</g>
<!-- Node6&#45;&gt;Node7 -->
<g id="edge7" class="edge">
<title>Node6&#45;&gt;Node7</title>
<path fill="none" stroke="midnightblue" d="M240.43,-110.31C191.87,-99.95 119.26,-84.45 75.33,-75.08"/>
<polygon fill="midnightblue" stroke="midnightblue" points="239.9,-113.78 250.41,-112.44 241.36,-106.93 239.9,-113.78"/>
</g>
<!-- Node10 -->
<g id="node9" class="node">
<title>Node10</title>
<g id="a_node9"><a xlink:href="_c_f_d_sim_8cpp.html" target="_top" xlink:title=" ">
<polygon fill="white" stroke="black" points="580.5,-56.5 580.5,-75.5 656.5,-75.5 656.5,-56.5 580.5,-56.5"/>
<text text-anchor="middle" x="618.5" y="-63.5" font-family="Helvetica,sans-Serif" font-size="10.00">CFDSim.cpp</text>
</a>
</g>
</g>
<!-- Node9&#45;&gt;Node10 -->
<g id="edge9" class="edge">
<title>Node9&#45;&gt;Node10</title>
<path fill="none" stroke="midnightblue" d="M579.79,-105C589.54,-95.43 601.55,-83.64 609.59,-75.75"/>
<polygon fill="midnightblue" stroke="midnightblue" points="577.27,-102.58 572.58,-112.08 582.17,-107.57 577.27,-102.58"/>
</g>
<!-- Node9&#45;&gt;Node11 -->
<g id="edge10" class="edge">
<title>Node9&#45;&gt;Node11</title>
<path fill="none" stroke="midnightblue" d="M519.79,-111.9C358.17,-87.52 313.25,-103.32 155.5,-76 152.45,-75.47 149.28,-74.83 146.14,-74.12"/>
<polygon fill="midnightblue" stroke="midnightblue" points="519.68,-115.42 530.09,-113.49 520.74,-108.51 519.68,-115.42"/>
</g>
<!-- Node24 -->
<g id="node11" class="node">
<title>Node24</title>
<g id="a_node11"><a xlink:href="_p_d_e_ops_8_h.html" target="_top" xlink:title=" ">
<polygon fill="white" stroke="red" points="263,-56.5 263,-75.5 328,-75.5 328,-56.5 263,-56.5"/>
<text text-anchor="middle" x="295.5" y="-63.5" font-family="Helvetica,sans-Serif" font-size="10.00">PDEOps.H</text>
</a>
</g>
</g>
<!-- Node9&#45;&gt;Node24 -->
<g id="edge11" class="edge">
<title>Node9&#45;&gt;Node24</title>
<path fill="none" stroke="midnightblue" d="M520.64,-111.86C437.8,-95.04 415.48,-92.35 336.5,-76 333.79,-75.44 330.98,-74.85 328.16,-74.24"/>
<polygon fill="midnightblue" stroke="midnightblue" points="520,-115.3 530.5,-113.87 521.4,-108.44 520,-115.3"/>
</g>
<!-- Node39 -->
<g id="node12" class="node">
<title>Node39</title>
<g id="a_node12"><a xlink:href="_p_d_e_8_h.html" target="_top" xlink:title=" ">
<polygon fill="white" stroke="red" points="466,-0.5 466,-19.5 513,-19.5 513,-0.5 466,-0.5"/>
<text text-anchor="middle" x="489.5" y="-7.5" font-family="Helvetica,sans-Serif" font-size="10.00">PDE.H</text>
</a>
</g>
</g>
<!-- Node9&#45;&gt;Node39 -->
<g id="edge13" class="edge">
<title>Node9&#45;&gt;Node39</title>
<path fill="none" stroke="midnightblue" d="M606.7,-110.99C642.9,-100.53 685.69,-82 665.5,-56 646.88,-32.02 556.75,-18.66 513.18,-13.51"/>
<polygon fill="midnightblue" stroke="midnightblue" points="605.44,-107.71 596.72,-113.73 607.29,-114.46 605.44,-107.71"/>
</g>
<!-- Node61 -->
<g id="node13" class="node">
<title>Node61</title>
<g id="a_node13"><a xlink:href="_a_b_l_forcing_8cpp.html" target="_top" xlink:title=" ">
<polygon fill="white" stroke="black" points="346,-56.5 346,-75.5 437,-75.5 437,-56.5 346,-56.5"/>
<text text-anchor="middle" x="391.5" y="-63.5" font-family="Helvetica,sans-Serif" font-size="10.00">ABLForcing.cpp</text>
</a>
</g>
</g>
<!-- Node9&#45;&gt;Node61 -->
<g id="edge14" class="edge">
<title>Node9&#45;&gt;Node61</title>
<path fill="none" stroke="midnightblue" d="M526.67,-109.44C494.24,-99.26 447.76,-84.66 418.63,-75.52"/>
<polygon fill="midnightblue" stroke="midnightblue" points="525.66,-112.79 536.25,-112.44 527.75,-106.11 525.66,-112.79"/>
</g>
<!-- Node62 -->
<g id="node14" class="node">
<title>Node62</title>
<g id="a_node14"><a xlink:href="_a_b_l_wall_function_8_h.html" target="_top" xlink:title=" ">
<polygon fill="white" stroke="red" points="455,-56.5 455,-75.5 562,-75.5 562,-56.5 455,-56.5"/>
<text text-anchor="middle" x="508.5" y="-63.5" font-family="Helvetica,sans-Serif" font-size="10.00">ABLWallFunction.H</text>
</a>
</g>
</g>
<!-- Node9&#45;&gt;Node62 -->
<g id="edge15" class="edge">
<title>Node9&#45;&gt;Node62</title>
<path fill="none" stroke="midnightblue" d="M547.21,-105C537.46,-95.43 525.45,-83.64 517.41,-75.75"/>
<polygon fill="midnightblue" stroke="midnightblue" points="544.83,-107.57 554.42,-112.08 549.73,-102.58 544.83,-107.57"/>
</g>
<!-- Node9&#45;&gt;Node89 -->
<g id="edge16" class="edge">
<title>Node9&#45;&gt;Node89</title>
<path fill="none" stroke="midnightblue" d="M519.87,-111.83C401.34,-91.57 368.95,-94.35 253.5,-76 250.6,-75.54 247.6,-75.04 244.58,-74.52"/>
<polygon fill="midnightblue" stroke="midnightblue" points="519.62,-115.34 530.07,-113.59 520.82,-108.44 519.62,-115.34"/>
</g>
<!-- Node9&#45;&gt;Node93 -->
<g id="edge17" class="edge">
<title>Node9&#45;&gt;Node93</title>
<path fill="none" stroke="midnightblue" d="M605.49,-109.83C643.82,-99.63 699.65,-84.78 734.48,-75.52"/>
<polygon fill="midnightblue" stroke="midnightblue" points="604.43,-106.49 595.67,-112.44 606.23,-113.26 604.43,-106.49"/>
</g>
<!-- Node9&#45;&gt;Node125 -->
<g id="edge18" class="edge">
<title>Node9&#45;&gt;Node125</title>
<path fill="none" stroke="midnightblue" d="M606.57,-113.82C666.63,-103.81 775.24,-85.71 838.38,-75.19"/>
<polygon fill="midnightblue" stroke="midnightblue" points="605.94,-110.38 596.65,-115.47 607.09,-117.28 605.94,-110.38"/>
</g>
<!-- Node9&#45;&gt;Node126 -->
<g id="edge19" class="edge">
<title>Node9&#45;&gt;Node126</title>
<path fill="none" stroke="midnightblue" d="M607.07,-116.16C678.03,-108.21 822.96,-91.7 945.5,-76 948.44,-75.62 951.45,-75.23 954.49,-74.83"/>
<polygon fill="midnightblue" stroke="midnightblue" points="606.29,-112.72 596.74,-117.31 607.07,-119.68 606.29,-112.72"/>
</g>
<!-- Node9&#45;&gt;Node155 -->
<g id="edge20" class="edge">
<title>Node9&#45;&gt;Node155</title>
<path fill="none" stroke="midnightblue" d="M606.74,-118.63C695.11,-113.47 902.63,-99.75 1075.5,-76 1078.52,-75.58 1081.65,-75.11 1084.78,-74.6"/>
<polygon fill="midnightblue" stroke="midnightblue" points="606.35,-115.15 596.57,-119.22 606.75,-122.13 606.35,-115.15"/>
</g>
<!-- Node24&#45;&gt;Node39 -->
<g id="edge12" class="edge">
<title>Node24&#45;&gt;Node39</title>
<path fill="none" stroke="midnightblue" d="M336.05,-53.71C375.37,-42.77 433.68,-26.54 465.92,-17.56"/>
<polygon fill="midnightblue" stroke="midnightblue" points="334.94,-50.39 326.24,-56.44 336.81,-57.13 334.94,-50.39"/>
</g>
<!-- Node182&#45;&gt;Node24 -->
<g id="edge32" class="edge">
<title>Node182&#45;&gt;Node24</title>
<path fill="none" stroke="midnightblue" d="M433.03,-109.44C400.03,-99.26 352.74,-84.66 323.1,-75.52"/>
<polygon fill="midnightblue" stroke="midnightblue" points="432.18,-112.84 442.77,-112.44 434.25,-106.15 432.18,-112.84"/>
</g>
<!-- Node182&#45;&gt;Node89 -->
<g id="edge33" class="edge">
<title>Node182&#45;&gt;Node89</title>
<path fill="none" stroke="midnightblue" d="M418.53,-110.45C367.63,-100.12 291.14,-84.59 244.71,-75.16"/>
<polygon fill="midnightblue" stroke="midnightblue" points="417.86,-113.88 428.35,-112.44 419.25,-107.02 417.86,-113.88"/>
</g>
<!-- Node184&#45;&gt;Node71 -->
<g id="edge36" class="edge">
<title>Node184&#45;&gt;Node71</title>
<path fill="none" stroke="midnightblue" d="M1625.43,-110.85C1561,-100.65 1462.78,-85.1 1402.28,-75.52"/>
<polygon fill="midnightblue" stroke="midnightblue" points="1625.04,-114.34 1635.47,-112.44 1626.14,-107.42 1625.04,-114.34"/>
</g>
<!-- Node184&#45;&gt;Node188 -->
<g id="edge37" class="edge">
<title>Node184&#45;&gt;Node188</title>
<path fill="none" stroke="midnightblue" d="M1648.9,-109.7C1612.28,-99.51 1559.24,-84.74 1526.1,-75.52"/>
<polygon fill="midnightblue" stroke="midnightblue" points="1648.19,-113.13 1658.76,-112.44 1650.06,-106.39 1648.19,-113.13"/>
</g>
<!-- Node184&#45;&gt;Node189 -->
<g id="edge38" class="edge">
<title>Node184&#45;&gt;Node189</title>
<path fill="none" stroke="midnightblue" d="M1671.75,-105.54C1660.69,-95.91 1646.87,-83.87 1637.64,-75.83"/>
<polygon fill="midnightblue" stroke="midnightblue" points="1669.7,-108.4 1679.54,-112.32 1674.3,-103.12 1669.7,-108.4"/>
</g>
<!-- Node184&#45;&gt;Node190 -->
<g id="edge39" class="edge">
<title>Node184&#45;&gt;Node190</title>
<path fill="none" stroke="midnightblue" d="M1706.97,-105.54C1717.84,-95.91 1731.44,-83.87 1740.52,-75.83"/>
<polygon fill="midnightblue" stroke="midnightblue" points="1704.47,-103.07 1699.3,-112.32 1709.11,-108.32 1704.47,-103.07"/>
</g>
<!-- Node184&#45;&gt;Node192 -->
<g id="edge40" class="edge">
<title>Node184&#45;&gt;Node192</title>
<path fill="none" stroke="midnightblue" d="M1728.45,-109.57C1763.16,-99.38 1813.18,-84.7 1844.48,-75.52"/>
<polygon fill="midnightblue" stroke="midnightblue" points="1727.27,-106.27 1718.66,-112.44 1729.24,-112.99 1727.27,-106.27"/>
</g>
<!-- Node184&#45;&gt;Node194 -->
<g id="edge41" class="edge">
<title>Node184&#45;&gt;Node194</title>
<path fill="none" stroke="midnightblue" d="M1745.98,-110.63C1802.76,-100.2 1889.03,-84.35 1940.48,-74.9"/>
<polygon fill="midnightblue" stroke="midnightblue" points="1745.29,-107.19 1736.09,-112.44 1746.55,-114.08 1745.29,-107.19"/>
</g>
</g>
</svg>
