<?xml version="1.0" encoding="UTF-8" standalone="no"?>
<!DOCTYPE svg PUBLIC "-//W3C//DTD SVG 1.1//EN"
 "http://www.w3.org/Graphics/SVG/1.1/DTD/svg11.dtd">
<!-- Generated by graphviz version 2.43.0 (0)
 -->
<!-- Title: SimTime.H Pages: 1 -->
<svg width="3711pt" height="364pt"
 viewBox="0.00 0.00 3710.50 364.00" xmlns="http://www.w3.org/2000/svg" xmlns:xlink="http://www.w3.org/1999/xlink">
<g id="graph0" class="graph" transform="scale(1 1) rotate(0) translate(4 360)">
<title>SimTime.H</title>
<polygon fill="white" stroke="transparent" points="-4,4 -4,-360 3706.5,-360 3706.5,4 -4,4"/>
<!-- Node1 -->
<g id="node1" class="node">
<title>Node1</title>
<g id="a_node1"><a xlink:title=" ">
<polygon fill="#bfbfbf" stroke="black" points="2881.5,-336.5 2881.5,-355.5 2952.5,-355.5 2952.5,-336.5 2881.5,-336.5"/>
<text text-anchor="middle" x="2917" y="-343.5" font-family="Helvetica,sans-Serif" font-size="10.00">SimTime.H</text>
</a>
</g>
</g>
<!-- Node2 -->
<g id="node2" class="node">
<title>Node2</title>
<g id="a_node2"><a xlink:href="_field_fill_patch_ops_8_h.html" target="_top" xlink:title=" ">
<polygon fill="white" stroke="black" points="209,-280.5 209,-299.5 319,-299.5 319,-280.5 209,-280.5"/>
<text text-anchor="middle" x="264" y="-287.5" font-family="Helvetica,sans-Serif" font-size="10.00">FieldFillPatchOps.H</text>
</a>
</g>
</g>
<!-- Node1&#45;&gt;Node2 -->
<g id="edge1" class="edge">
<title>Node1&#45;&gt;Node2</title>
<path fill="none" stroke="midnightblue" d="M2870.7,-344.06C2550.43,-337.54 666.69,-299.2 319.12,-292.12"/>
<polygon fill="midnightblue" stroke="midnightblue" points="2870.94,-347.56 2881.01,-344.27 2871.08,-340.56 2870.94,-347.56"/>
</g>
<!-- Node3 -->
<g id="node3" class="node">
<title>Node3</title>
<g id="a_node3"><a xlink:href="velocity__bcs_8_h.html" target="_top" xlink:title=" ">
<polygon fill="white" stroke="black" points="0,-224.5 0,-243.5 88,-243.5 88,-224.5 0,-224.5"/>
<text text-anchor="middle" x="44" y="-231.5" font-family="Helvetica,sans-Serif" font-size="10.00">velocity_bcs.H</text>
</a>
</g>
</g>
<!-- Node1&#45;&gt;Node3 -->
<g id="edge10" class="edge">
<title>Node1&#45;&gt;Node3</title>
<path fill="none" stroke="midnightblue" d="M2871.26,-344.78C2512.88,-342.98 167.67,-330.05 102,-300 76.14,-288.17 56.98,-258.66 48.63,-243.82"/>
<polygon fill="midnightblue" stroke="midnightblue" points="2871.26,-348.28 2881.28,-344.83 2871.3,-341.28 2871.26,-348.28"/>
</g>
<!-- Node6 -->
<g id="node5" class="node">
<title>Node6</title>
<g id="a_node5"><a xlink:href="_field_8cpp.html" target="_top" xlink:title=" ">
<polygon fill="white" stroke="black" points="144,-224.5 144,-243.5 204,-243.5 204,-224.5 144,-224.5"/>
<text text-anchor="middle" x="174" y="-231.5" font-family="Helvetica,sans-Serif" font-size="10.00">Field.cpp</text>
</a>
</g>
</g>
<!-- Node1&#45;&gt;Node6 -->
<g id="edge61" class="edge">
<title>Node1&#45;&gt;Node6</title>
<path fill="none" stroke="midnightblue" d="M2871.39,-344.94C2520.16,-344.42 257.32,-339.51 200,-300 181.19,-287.03 175.98,-258.06 174.55,-243.58"/>
<polygon fill="midnightblue" stroke="midnightblue" points="2871.45,-348.44 2881.46,-344.96 2871.46,-341.44 2871.45,-348.44"/>
</g>
<!-- Node7 -->
<g id="node6" class="node">
<title>Node7</title>
<g id="a_node6"><a xlink:href="_p_d_e_helpers_8_h.html" target="_top" xlink:title=" ">
<polygon fill="white" stroke="red" points="222,-224.5 222,-243.5 306,-243.5 306,-224.5 222,-224.5"/>
<text text-anchor="middle" x="264" y="-231.5" font-family="Helvetica,sans-Serif" font-size="10.00">PDEHelpers.H</text>
</a>
</g>
</g>
<!-- Node1&#45;&gt;Node7 -->
<g id="edge64" class="edge">
<title>Node1&#45;&gt;Node7</title>
<path fill="none" stroke="midnightblue" d="M2871.4,-344.43C2674.1,-341.83 1874.26,-329.92 1218,-300 833.15,-282.45 736.93,-275.83 353,-244 337.68,-242.73 320.9,-241.1 306.08,-239.57"/>
<polygon fill="midnightblue" stroke="midnightblue" points="2871.36,-347.93 2881.41,-344.56 2871.46,-340.93 2871.36,-347.93"/>
</g>
<!-- Node50 -->
<g id="node11" class="node">
<title>Node50</title>
<g id="a_node11"><a xlink:href="_c_f_d_sim_8_h.html" target="_top" xlink:title=" ">
<polygon fill="white" stroke="red" points="1921,-280.5 1921,-299.5 1987,-299.5 1987,-280.5 1921,-280.5"/>
<text text-anchor="middle" x="1954" y="-287.5" font-family="Helvetica,sans-Serif" font-size="10.00">CFDSim.H</text>
</a>
</g>
</g>
<!-- Node1&#45;&gt;Node50 -->
<g id="edge11" class="edge">
<title>Node1&#45;&gt;Node50</title>
<path fill="none" stroke="midnightblue" d="M2870.87,-342.41C2703.63,-333.04 2131.37,-300.95 1987.19,-292.86"/>
<polygon fill="midnightblue" stroke="midnightblue" points="2871.12,-345.93 2881.3,-343 2871.51,-338.94 2871.12,-345.93"/>
</g>
<!-- Node52 -->
<g id="node13" class="node">
<title>Node52</title>
<g id="a_node13"><a xlink:href="incflo_8_h.html" target="_top" xlink:title=" ">
<polygon fill="white" stroke="red" points="362.5,-224.5 362.5,-243.5 415.5,-243.5 415.5,-224.5 362.5,-224.5"/>
<text text-anchor="middle" x="389" y="-231.5" font-family="Helvetica,sans-Serif" font-size="10.00">incflo.H</text>
</a>
</g>
</g>
<!-- Node1&#45;&gt;Node52 -->
<g id="edge63" class="edge">
<title>Node1&#45;&gt;Node52</title>
<path fill="none" stroke="midnightblue" d="M2871.25,-343.41C2542.61,-331.97 550.8,-262.08 425,-244 421.94,-243.56 418.76,-242.97 415.62,-242.3"/>
<polygon fill="midnightblue" stroke="midnightblue" points="2871.25,-346.91 2881.37,-343.76 2871.5,-339.92 2871.25,-346.91"/>
</g>
<!-- Node67 -->
<g id="node16" class="node">
<title>Node67</title>
<g id="a_node16"><a xlink:href="_a_b_l_8_h.html" target="_top" xlink:title=" ">
<polygon fill="white" stroke="red" points="2413,-56.5 2413,-75.5 2459,-75.5 2459,-56.5 2413,-56.5"/>
<text text-anchor="middle" x="2436" y="-63.5" font-family="Helvetica,sans-Serif" font-size="10.00">ABL.H</text>
</a>
</g>
</g>
<!-- Node1&#45;&gt;Node67 -->
<g id="edge68" class="edge">
<title>Node1&#45;&gt;Node67</title>
<path fill="none" stroke="midnightblue" d="M2871.17,-344.78C2518.23,-343.02 244.13,-330.48 181,-300 151.99,-286 145.86,-274.32 135,-244 100.12,-146.59 230.02,-182.21 308,-168 741.46,-89.02 2211.25,-69.57 2412.98,-67.25"/>
<polygon fill="midnightblue" stroke="midnightblue" points="2871.27,-348.28 2881.29,-344.83 2871.3,-341.28 2871.27,-348.28"/>
</g>
<!-- Node73 -->
<g id="node20" class="node">
<title>Node73</title>
<g id="a_node20"><a xlink:href="_field_plane_averaging_8_h.html" target="_top" xlink:title=" ">
<polygon fill="white" stroke="red" points="2835,-224.5 2835,-243.5 2961,-243.5 2961,-224.5 2835,-224.5"/>
<text text-anchor="middle" x="2898" y="-231.5" font-family="Helvetica,sans-Serif" font-size="10.00">FieldPlaneAveraging.H</text>
</a>
</g>
</g>
<!-- Node1&#45;&gt;Node73 -->
<g id="edge67" class="edge">
<title>Node1&#45;&gt;Node73</title>
<path fill="none" stroke="midnightblue" d="M2913.78,-326.35C2909.62,-302.25 2902.54,-261.31 2899.48,-243.59"/>
<polygon fill="midnightblue" stroke="midnightblue" points="2910.36,-327.11 2915.51,-336.37 2917.26,-325.92 2910.36,-327.11"/>
</g>
<!-- Node21 -->
<g id="node43" class="node">
<title>Node21</title>
<g id="a_node43"><a xlink:href="_multi_phase_8cpp.html" target="_top" xlink:title=" ">
<polygon fill="white" stroke="black" points="3017.5,-224.5 3017.5,-243.5 3108.5,-243.5 3108.5,-224.5 3017.5,-224.5"/>
<text text-anchor="middle" x="3063" y="-231.5" font-family="Helvetica,sans-Serif" font-size="10.00">MultiPhase.cpp</text>
</a>
</g>
</g>
<!-- Node1&#45;&gt;Node21 -->
<g id="edge75" class="edge">
<title>Node1&#45;&gt;Node21</title>
<path fill="none" stroke="midnightblue" d="M2925.31,-326.95C2932.69,-312.62 2944.67,-292.89 2960,-280 2980.91,-262.42 3009.75,-250.61 3031.6,-243.52"/>
<polygon fill="midnightblue" stroke="midnightblue" points="2922,-325.75 2920.77,-336.27 2928.3,-328.81 2922,-325.75"/>
</g>
<!-- Node164 -->
<g id="node44" class="node">
<title>Node164</title>
<g id="a_node44"><a xlink:href="_fast_iface_8cpp.html" target="_top" xlink:title=" ">
<polygon fill="white" stroke="black" points="3127,-224.5 3127,-243.5 3207,-243.5 3207,-224.5 3127,-224.5"/>
<text text-anchor="middle" x="3167" y="-231.5" font-family="Helvetica,sans-Serif" font-size="10.00">FastIface.cpp</text>
</a>
</g>
</g>
<!-- Node1&#45;&gt;Node164 -->
<g id="edge77" class="edge">
<title>Node1&#45;&gt;Node164</title>
<path fill="none" stroke="midnightblue" d="M2931.48,-328.99C2945.74,-314.17 2968.84,-292.59 2993,-280 3016.11,-267.96 3083.11,-252.48 3126.91,-243.17"/>
<polygon fill="midnightblue" stroke="midnightblue" points="2928.8,-326.73 2924.52,-336.42 2933.91,-331.52 2928.8,-326.73"/>
</g>
<!-- Node165 -->
<g id="node45" class="node">
<title>Node165</title>
<g id="a_node45"><a xlink:href="_sim_time_8cpp.html" target="_top" xlink:title=" ">
<polygon fill="white" stroke="black" points="3002,-280.5 3002,-299.5 3082,-299.5 3082,-280.5 3002,-280.5"/>
<text text-anchor="middle" x="3042" y="-287.5" font-family="Helvetica,sans-Serif" font-size="10.00">SimTime.cpp</text>
</a>
</g>
</g>
<!-- Node1&#45;&gt;Node165 -->
<g id="edge62" class="edge">
<title>Node1&#45;&gt;Node165</title>
<path fill="none" stroke="midnightblue" d="M2946.24,-332.37C2969.65,-322.26 3001.84,-308.35 3022.29,-299.52"/>
<polygon fill="midnightblue" stroke="midnightblue" points="2944.6,-329.26 2936.81,-336.44 2947.37,-335.69 2944.6,-329.26"/>
</g>
<!-- Node166 -->
<g id="node46" class="node">
<title>Node166</title>
<g id="a_node46"><a xlink:href="_a_b_l_forcing_8_h.html" target="_top" xlink:title=" ">
<polygon fill="white" stroke="red" points="3299.5,-56.5 3299.5,-75.5 3380.5,-75.5 3380.5,-56.5 3299.5,-56.5"/>
<text text-anchor="middle" x="3340" y="-63.5" font-family="Helvetica,sans-Serif" font-size="10.00">ABLForcing.H</text>
</a>
</g>
</g>
<!-- Node1&#45;&gt;Node166 -->
<g id="edge65" class="edge">
<title>Node1&#45;&gt;Node166</title>
<path fill="none" stroke="midnightblue" d="M2962.99,-344.08C3103.63,-340.94 3521.67,-329.24 3575,-300 3606.49,-282.74 3623,-270.91 3623,-235 3623,-235 3623,-235 3623,-177 3623,-125.6 3458.8,-88.68 3380.55,-74.01"/>
<polygon fill="midnightblue" stroke="midnightblue" points="2962.49,-340.59 2952.57,-344.3 2962.65,-347.58 2962.49,-340.59"/>
</g>
<!-- Node167 -->
<g id="node47" class="node">
<title>Node167</title>
<g id="a_node47"><a xlink:href="_actuator_forcing_8_h.html" target="_top" xlink:title=" ">
<polygon fill="white" stroke="black" points="3165,-280.5 3165,-299.5 3269,-299.5 3269,-280.5 3165,-280.5"/>
<text text-anchor="middle" x="3217" y="-287.5" font-family="Helvetica,sans-Serif" font-size="10.00">ActuatorForcing.H</text>
</a>
</g>
</g>
<!-- Node1&#45;&gt;Node167 -->
<g id="edge69" class="edge">
<title>Node1&#45;&gt;Node167</title>
<path fill="none" stroke="midnightblue" d="M2962.57,-336.8C3018.5,-326.73 3112.88,-309.74 3169.62,-299.53"/>
<polygon fill="midnightblue" stroke="midnightblue" points="2961.81,-333.38 2952.59,-338.59 2963.05,-340.27 2961.81,-333.38"/>
</g>
<!-- Node168 -->
<g id="node48" class="node">
<title>Node168</title>
<g id="a_node48"><a xlink:href="_body_force_8_h.html" target="_top" xlink:title=" ">
<polygon fill="white" stroke="black" points="3324,-280.5 3324,-299.5 3402,-299.5 3402,-280.5 3324,-280.5"/>
<text text-anchor="middle" x="3363" y="-287.5" font-family="Helvetica,sans-Serif" font-size="10.00">BodyForce.H</text>
</a>
</g>
</g>
<!-- Node1&#45;&gt;Node168 -->
<g id="edge71" class="edge">
<title>Node1&#45;&gt;Node168</title>
<path fill="none" stroke="midnightblue" d="M2962.68,-339.47C3050.52,-328.83 3241.56,-305.7 3323.92,-295.73"/>
<polygon fill="midnightblue" stroke="midnightblue" points="2962.25,-336 2952.74,-340.67 2963.09,-342.94 2962.25,-336"/>
</g>
<!-- Node169 -->
<g id="node49" class="node">
<title>Node169</title>
<g id="a_node49"><a xlink:href="_geostrophic_forcing_8_h.html" target="_top" xlink:title=" ">
<polygon fill="white" stroke="black" points="3444.5,-280.5 3444.5,-299.5 3565.5,-299.5 3565.5,-280.5 3444.5,-280.5"/>
<text text-anchor="middle" x="3505" y="-287.5" font-family="Helvetica,sans-Serif" font-size="10.00">GeostrophicForcing.H</text>
</a>
</g>
</g>
<!-- Node1&#45;&gt;Node169 -->
<g id="edge73" class="edge">
<title>Node1&#45;&gt;Node169</title>
<path fill="none" stroke="midnightblue" d="M2962.74,-340.9C3049.94,-333.08 3246,-315.41 3411,-300 3421.77,-298.99 3433.24,-297.91 3444.33,-296.85"/>
<polygon fill="midnightblue" stroke="midnightblue" points="2962.3,-337.43 2952.65,-341.81 2962.92,-344.4 2962.3,-337.43"/>
</g>
<!-- Node170 -->
<g id="node50" class="node">
<title>Node170</title>
<g id="a_node50"><a xlink:href="_n_w_b_8_h.html" target="_top" xlink:title=" ">
<polygon fill="white" stroke="red" points="3651.5,-280.5 3651.5,-299.5 3702.5,-299.5 3702.5,-280.5 3651.5,-280.5"/>
<text text-anchor="middle" x="3677" y="-287.5" font-family="Helvetica,sans-Serif" font-size="10.00">NWB.H</text>
</a>
</g>
</g>
<!-- Node1&#45;&gt;Node170 -->
<g id="edge76" class="edge">
<title>Node1&#45;&gt;Node170</title>
<path fill="none" stroke="midnightblue" d="M2962.94,-344.65C3077.39,-343.24 3384.21,-336.1 3637,-300 3641.65,-299.34 3646.56,-298.42 3651.29,-297.42"/>
<polygon fill="midnightblue" stroke="midnightblue" points="2962.75,-341.16 2952.79,-344.77 2962.83,-348.15 2962.75,-341.16"/>
</g>
<!-- Node2&#45;&gt;Node3 -->
<g id="edge2" class="edge">
<title>Node2&#45;&gt;Node3</title>
<path fill="none" stroke="midnightblue" d="M219.28,-278.02C177.72,-267.82 116.69,-252.84 78.7,-243.52"/>
<polygon fill="midnightblue" stroke="midnightblue" points="218.59,-281.46 229.14,-280.44 220.26,-274.66 218.59,-281.46"/>
</g>
<!-- Node2&#45;&gt;Node6 -->
<g id="edge4" class="edge">
<title>Node2&#45;&gt;Node6</title>
<path fill="none" stroke="midnightblue" d="M240.96,-275.18C224.4,-265.24 202.58,-252.15 188.42,-243.65"/>
<polygon fill="midnightblue" stroke="midnightblue" points="239.16,-278.18 249.54,-280.32 242.77,-272.18 239.16,-278.18"/>
</g>
<!-- Node2&#45;&gt;Node7 -->
<g id="edge5" class="edge">
<title>Node2&#45;&gt;Node7</title>
<path fill="none" stroke="midnightblue" d="M264,-269.8C264,-260.91 264,-250.78 264,-243.75"/>
<polygon fill="midnightblue" stroke="midnightblue" points="260.5,-270.08 264,-280.08 267.5,-270.08 260.5,-270.08"/>
</g>
<!-- Node47 -->
<g id="node10" class="node">
<title>Node47</title>
<g id="a_node10"><a xlink:href="_a_b_l_fill_inflow_8_h.html" target="_top" xlink:title=" ">
<polygon fill="white" stroke="red" points="2013.5,-168.5 2013.5,-187.5 2102.5,-187.5 2102.5,-168.5 2013.5,-168.5"/>
<text text-anchor="middle" x="2058" y="-175.5" font-family="Helvetica,sans-Serif" font-size="10.00">ABLFillInflow.H</text>
</a>
</g>
</g>
<!-- Node2&#45;&gt;Node47 -->
<g id="edge9" class="edge">
<title>Node2&#45;&gt;Node47</title>
<path fill="none" stroke="midnightblue" d="M281.98,-273.84C303.2,-256.33 337.55,-229.23 353,-224 525.86,-165.49 1813.12,-202.93 1995,-188 2000.95,-187.51 2007.19,-186.83 2013.33,-186.06"/>
<polygon fill="midnightblue" stroke="midnightblue" points="279.48,-271.37 274.04,-280.46 283.96,-276.75 279.48,-271.37"/>
</g>
<!-- Node4 -->
<g id="node4" class="node">
<title>Node4</title>
<g id="a_node4"><a xlink:href="icns__bcop_8_h.html" target="_top" xlink:title=" ">
<polygon fill="white" stroke="red" points="6.5,-168.5 6.5,-187.5 81.5,-187.5 81.5,-168.5 6.5,-168.5"/>
<text text-anchor="middle" x="44" y="-175.5" font-family="Helvetica,sans-Serif" font-size="10.00">icns_bcop.H</text>
</a>
</g>
</g>
<!-- Node3&#45;&gt;Node4 -->
<g id="edge3" class="edge">
<title>Node3&#45;&gt;Node4</title>
<path fill="none" stroke="midnightblue" d="M44,-213.8C44,-204.91 44,-194.78 44,-187.75"/>
<polygon fill="midnightblue" stroke="midnightblue" points="40.5,-214.08 44,-224.08 47.5,-214.08 40.5,-214.08"/>
</g>
<!-- Node8 -->
<g id="node7" class="node">
<title>Node8</title>
<g id="a_node7"><a xlink:href="_p_d_e_ops_8_h.html" target="_top" xlink:title=" ">
<polygon fill="white" stroke="red" points="1184.5,-168.5 1184.5,-187.5 1249.5,-187.5 1249.5,-168.5 1184.5,-168.5"/>
<text text-anchor="middle" x="1217" y="-175.5" font-family="Helvetica,sans-Serif" font-size="10.00">PDEOps.H</text>
</a>
</g>
</g>
<!-- Node7&#45;&gt;Node8 -->
<g id="edge6" class="edge">
<title>Node7&#45;&gt;Node8</title>
<path fill="none" stroke="midnightblue" d="M316.16,-224.43C317.45,-224.28 318.73,-224.13 320,-224 656.5,-188.63 1067.04,-180.89 1184.32,-179.35"/>
<polygon fill="midnightblue" stroke="midnightblue" points="315.6,-220.97 306.13,-225.72 316.5,-227.91 315.6,-220.97"/>
</g>
<!-- Node45 -->
<g id="node9" class="node">
<title>Node45</title>
<g id="a_node9"><a xlink:href="_p_d_e_base_8cpp.html" target="_top" xlink:title=" ">
<polygon fill="white" stroke="black" points="317,-168.5 317,-187.5 397,-187.5 397,-168.5 317,-168.5"/>
<text text-anchor="middle" x="357" y="-175.5" font-family="Helvetica,sans-Serif" font-size="10.00">PDEBase.cpp</text>
</a>
</g>
</g>
<!-- Node7&#45;&gt;Node45 -->
<g id="edge8" class="edge">
<title>Node7&#45;&gt;Node45</title>
<path fill="none" stroke="midnightblue" d="M287.81,-219.18C304.92,-209.24 327.47,-196.15 342.1,-187.65"/>
<polygon fill="midnightblue" stroke="midnightblue" points="285.83,-216.28 278.94,-224.32 289.35,-222.33 285.83,-216.28"/>
</g>
<!-- Node23 -->
<g id="node8" class="node">
<title>Node23</title>
<g id="a_node8"><a xlink:href="_p_d_e_8_h.html" target="_top" xlink:title=" ">
<polygon fill="white" stroke="red" points="2178.5,-112.5 2178.5,-131.5 2225.5,-131.5 2225.5,-112.5 2178.5,-112.5"/>
<text text-anchor="middle" x="2202" y="-119.5" font-family="Helvetica,sans-Serif" font-size="10.00">PDE.H</text>
</a>
</g>
</g>
<!-- Node8&#45;&gt;Node23 -->
<g id="edge7" class="edge">
<title>Node8&#45;&gt;Node23</title>
<path fill="none" stroke="midnightblue" d="M1259.67,-169.18C1262.82,-168.74 1265.96,-168.34 1269,-168 1629.67,-128.24 2072.61,-123.61 2178.48,-123.07"/>
<polygon fill="midnightblue" stroke="midnightblue" points="1259,-165.74 1249.64,-170.72 1260.06,-172.66 1259,-165.74"/>
</g>
<!-- Node50&#45;&gt;Node8 -->
<g id="edge14" class="edge">
<title>Node50&#45;&gt;Node8</title>
<path fill="none" stroke="midnightblue" d="M1910.57,-287.63C1759.35,-282.68 1263.55,-264.92 1237,-244 1219.75,-230.41 1217.01,-202.25 1216.8,-187.87"/>
<polygon fill="midnightblue" stroke="midnightblue" points="1910.75,-291.14 1920.86,-287.96 1910.97,-284.14 1910.75,-291.14"/>
</g>
<!-- Node50&#45;&gt;Node23 -->
<g id="edge15" class="edge">
<title>Node50&#45;&gt;Node23</title>
<path fill="none" stroke="midnightblue" d="M1997.4,-289.02C2071.6,-288.04 2217.95,-281.29 2250,-244 2280.05,-209.04 2231.73,-152.96 2210.86,-131.62"/>
<polygon fill="midnightblue" stroke="midnightblue" points="1996.97,-285.53 1987,-289.13 1997.04,-292.53 1996.97,-285.53"/>
</g>
<!-- Node50&#45;&gt;Node45 -->
<g id="edge40" class="edge">
<title>Node50&#45;&gt;Node45</title>
<path fill="none" stroke="midnightblue" d="M1910.56,-287.98C1669.27,-282.28 503.57,-254.23 468,-244 447.18,-238.01 394.17,-203.77 369.72,-187.54"/>
<polygon fill="midnightblue" stroke="midnightblue" points="1910.62,-291.48 1920.7,-288.22 1910.78,-284.48 1910.62,-291.48"/>
</g>
<!-- Node51 -->
<g id="node12" class="node">
<title>Node51</title>
<g id="a_node12"><a xlink:href="_c_f_d_sim_8cpp.html" target="_top" xlink:title=" ">
<polygon fill="white" stroke="black" points="2027,-224.5 2027,-243.5 2103,-243.5 2103,-224.5 2027,-224.5"/>
<text text-anchor="middle" x="2065" y="-231.5" font-family="Helvetica,sans-Serif" font-size="10.00">CFDSim.cpp</text>
</a>
</g>
</g>
<!-- Node50&#45;&gt;Node51 -->
<g id="edge12" class="edge">
<title>Node50&#45;&gt;Node51</title>
<path fill="none" stroke="midnightblue" d="M1981.01,-275.86C2001.59,-265.85 2029.34,-252.35 2047.21,-243.65"/>
<polygon fill="midnightblue" stroke="midnightblue" points="1979.3,-272.8 1971.83,-280.32 1982.36,-279.1 1979.3,-272.8"/>
</g>
<!-- Node50&#45;&gt;Node52 -->
<g id="edge13" class="edge">
<title>Node50&#45;&gt;Node52</title>
<path fill="none" stroke="midnightblue" d="M1910.7,-287.95C1670.05,-282.08 505.35,-253.3 430,-244 425.37,-243.43 420.49,-242.58 415.78,-241.63"/>
<polygon fill="midnightblue" stroke="midnightblue" points="1910.73,-291.45 1920.81,-288.2 1910.9,-284.45 1910.73,-291.45"/>
</g>
<!-- Node65 -->
<g id="node14" class="node">
<title>Node65</title>
<g id="a_node14"><a xlink:href="_a_b_l_forcing_8cpp.html" target="_top" xlink:title=" ">
<polygon fill="white" stroke="black" points="2943.5,-0.5 2943.5,-19.5 3034.5,-19.5 3034.5,-0.5 2943.5,-0.5"/>
<text text-anchor="middle" x="2989" y="-7.5" font-family="Helvetica,sans-Serif" font-size="10.00">ABLForcing.cpp</text>
</a>
</g>
</g>
<!-- Node50&#45;&gt;Node65 -->
<g id="edge16" class="edge">
<title>Node50&#45;&gt;Node65</title>
<path fill="none" stroke="midnightblue" d="M1997.34,-288.48C2186.4,-286.02 2931.21,-274.44 2970,-244 2993.68,-225.42 2989,-209.1 2989,-179 2989,-179 2989,-179 2989,-121 2989,-83.19 2989,-38.06 2989,-19.56"/>
<polygon fill="midnightblue" stroke="midnightblue" points="1997.18,-284.98 1987.22,-288.61 1997.27,-291.98 1997.18,-284.98"/>
</g>
<!-- Node66 -->
<g id="node15" class="node">
<title>Node66</title>
<g id="a_node15"><a xlink:href="_a_b_l_wall_function_8_h.html" target="_top" xlink:title=" ">
<polygon fill="white" stroke="red" points="2382.5,-168.5 2382.5,-187.5 2489.5,-187.5 2489.5,-168.5 2382.5,-168.5"/>
<text text-anchor="middle" x="2436" y="-175.5" font-family="Helvetica,sans-Serif" font-size="10.00">ABLWallFunction.H</text>
</a>
</g>
</g>
<!-- Node50&#45;&gt;Node66 -->
<g id="edge17" class="edge">
<title>Node50&#45;&gt;Node66</title>
<path fill="none" stroke="midnightblue" d="M1997.49,-287.36C2088.25,-283.41 2294.76,-271.61 2359,-244 2389.22,-231.01 2416.58,-202.05 2428.98,-187.57"/>
<polygon fill="midnightblue" stroke="midnightblue" points="1997.11,-283.87 1987.27,-287.79 1997.4,-290.86 1997.11,-283.87"/>
</g>
<!-- Node68 -->
<g id="node17" class="node">
<title>Node68</title>
<g id="a_node17"><a xlink:href="_a_b_l_mean_boussinesq_8cpp.html" target="_top" xlink:title=" ">
<polygon fill="white" stroke="black" points="1390,-0.5 1390,-19.5 1528,-19.5 1528,-0.5 1390,-0.5"/>
<text text-anchor="middle" x="1459" y="-7.5" font-family="Helvetica,sans-Serif" font-size="10.00">ABLMeanBoussinesq.cpp</text>
</a>
</g>
</g>
<!-- Node50&#45;&gt;Node68 -->
<g id="edge31" class="edge">
<title>Node50&#45;&gt;Node68</title>
<path fill="none" stroke="midnightblue" d="M1910.86,-288.01C1671.35,-282.45 515.31,-255.08 501,-244 477.2,-225.58 482,-209.1 482,-179 482,-179 482,-179 482,-121 482,-29.52 1167.11,-14.11 1389.91,-11.52"/>
<polygon fill="midnightblue" stroke="midnightblue" points="1910.85,-291.51 1920.93,-288.24 1911.01,-284.51 1910.85,-291.51"/>
</g>
<!-- Node70 -->
<g id="node18" class="node">
<title>Node70</title>
<g id="a_node18"><a xlink:href="_a_b_l_stats_base_8_h.html" target="_top" xlink:title=" ">
<polygon fill="white" stroke="red" points="2388.5,-112.5 2388.5,-131.5 2483.5,-131.5 2483.5,-112.5 2388.5,-112.5"/>
<text text-anchor="middle" x="2436" y="-119.5" font-family="Helvetica,sans-Serif" font-size="10.00">ABLStatsBase.H</text>
</a>
</g>
</g>
<!-- Node50&#45;&gt;Node70 -->
<g id="edge30" class="edge">
<title>Node50&#45;&gt;Node70</title>
<path fill="none" stroke="midnightblue" d="M1997.18,-286.36C2075.58,-281.04 2237.92,-267.52 2289,-244 2335.03,-222.8 2334.55,-199.81 2374,-168 2390.56,-154.64 2410.64,-140.4 2423.37,-131.6"/>
<polygon fill="midnightblue" stroke="midnightblue" points="1996.9,-282.87 1987.15,-287.02 1997.36,-289.85 1996.9,-282.87"/>
</g>
<!-- Node72 -->
<g id="node19" class="node">
<title>Node72</title>
<g id="a_node19"><a xlink:href="_boussinesq_bubble_8cpp.html" target="_top" xlink:title=" ">
<polygon fill="white" stroke="black" points="2244,-112.5 2244,-131.5 2370,-131.5 2370,-112.5 2244,-112.5"/>
<text text-anchor="middle" x="2307" y="-119.5" font-family="Helvetica,sans-Serif" font-size="10.00">BoussinesqBubble.cpp</text>
</a>
</g>
</g>
<!-- Node50&#45;&gt;Node72 -->
<g id="edge45" class="edge">
<title>Node50&#45;&gt;Node72</title>
<path fill="none" stroke="midnightblue" d="M1997.52,-288.31C2073.93,-286.21 2227.95,-277.78 2268,-244 2302.76,-214.69 2306.83,-154.2 2307.1,-131.69"/>
<polygon fill="midnightblue" stroke="midnightblue" points="1997.18,-284.81 1987.27,-288.56 1997.35,-291.81 1997.18,-284.81"/>
</g>
<!-- Node50&#45;&gt;Node73 -->
<g id="edge24" class="edge">
<title>Node50&#45;&gt;Node73</title>
<path fill="none" stroke="midnightblue" d="M1997.46,-287.88C2124.92,-284.34 2508.75,-271.98 2826,-244 2828.89,-243.75 2831.83,-243.46 2834.81,-243.16"/>
<polygon fill="midnightblue" stroke="midnightblue" points="1997.23,-284.38 1987.32,-288.15 1997.42,-291.38 1997.23,-284.38"/>
</g>
<!-- Node80 -->
<g id="node21" class="node">
<title>Node80</title>
<g id="a_node21"><a xlink:href="_a_b_l_boundary_plane_8_h.html" target="_top" xlink:title=" ">
<polygon fill="white" stroke="red" points="2121.5,-224.5 2121.5,-243.5 2240.5,-243.5 2240.5,-224.5 2121.5,-224.5"/>
<text text-anchor="middle" x="2181" y="-231.5" font-family="Helvetica,sans-Serif" font-size="10.00">ABLBoundaryPlane.H</text>
</a>
</g>
</g>
<!-- Node50&#45;&gt;Node80 -->
<g id="edge27" class="edge">
<title>Node50&#45;&gt;Node80</title>
<path fill="none" stroke="midnightblue" d="M1996.85,-278.81C2039.65,-268.62 2104.72,-253.15 2144.95,-243.58"/>
<polygon fill="midnightblue" stroke="midnightblue" points="1995.93,-275.43 1987.01,-281.15 1997.55,-282.24 1995.93,-275.43"/>
</g>
<!-- Node81 -->
<g id="node22" class="node">
<title>Node81</title>
<g id="a_node22"><a xlink:href="_actuator_forcing_8cpp.html" target="_top" xlink:title=" ">
<polygon fill="white" stroke="black" points="3225.5,-224.5 3225.5,-243.5 3338.5,-243.5 3338.5,-224.5 3225.5,-224.5"/>
<text text-anchor="middle" x="3282" y="-231.5" font-family="Helvetica,sans-Serif" font-size="10.00">ActuatorForcing.cpp</text>
</a>
</g>
</g>
<!-- Node50&#45;&gt;Node81 -->
<g id="edge32" class="edge">
<title>Node50&#45;&gt;Node81</title>
<path fill="none" stroke="midnightblue" d="M1997.22,-289.02C2158.37,-288.77 2739.36,-284.89 3216,-244 3219,-243.74 3222.06,-243.45 3225.16,-243.12"/>
<polygon fill="midnightblue" stroke="midnightblue" points="1997.22,-285.52 1987.22,-289.03 1997.23,-292.52 1997.22,-285.52"/>
</g>
<!-- Node82 -->
<g id="node23" class="node">
<title>Node82</title>
<g id="a_node23"><a xlink:href="_body_force_8cpp.html" target="_top" xlink:title=" ">
<polygon fill="white" stroke="black" points="3357,-224.5 3357,-243.5 3445,-243.5 3445,-224.5 3357,-224.5"/>
<text text-anchor="middle" x="3401" y="-231.5" font-family="Helvetica,sans-Serif" font-size="10.00">BodyForce.cpp</text>
</a>
</g>
</g>
<!-- Node50&#45;&gt;Node82 -->
<g id="edge33" class="edge">
<title>Node50&#45;&gt;Node82</title>
<path fill="none" stroke="midnightblue" d="M1997.2,-288.4C2202,-285.42 3076.41,-271.32 3348,-244 3350.88,-243.71 3353.84,-243.36 3356.81,-242.97"/>
<polygon fill="midnightblue" stroke="midnightblue" points="1997.08,-284.9 1987.13,-288.54 1997.18,-291.9 1997.08,-284.9"/>
</g>
<!-- Node83 -->
<g id="node24" class="node">
<title>Node83</title>
<g id="a_node24"><a xlink:href="_boussinesq_buoyancy_8cpp.html" target="_top" xlink:title=" ">
<polygon fill="white" stroke="black" points="2411.5,-224.5 2411.5,-243.5 2550.5,-243.5 2550.5,-224.5 2411.5,-224.5"/>
<text text-anchor="middle" x="2481" y="-231.5" font-family="Helvetica,sans-Serif" font-size="10.00">BoussinesqBuoyancy.cpp</text>
</a>
</g>
</g>
<!-- Node50&#45;&gt;Node83 -->
<g id="edge34" class="edge">
<title>Node50&#45;&gt;Node83</title>
<path fill="none" stroke="midnightblue" d="M1997.16,-284.7C2076.39,-276.78 2250.38,-259.3 2397,-244 2401.67,-243.51 2406.48,-243.01 2411.33,-242.49"/>
<polygon fill="midnightblue" stroke="midnightblue" points="1996.67,-281.23 1987.07,-285.7 1997.37,-288.19 1996.67,-281.23"/>
</g>
<!-- Node84 -->
<g id="node25" class="node">
<title>Node84</title>
<g id="a_node25"><a xlink:href="_coriolis_forcing_8cpp.html" target="_top" xlink:title=" ">
<polygon fill="white" stroke="black" points="2568.5,-224.5 2568.5,-243.5 2677.5,-243.5 2677.5,-224.5 2568.5,-224.5"/>
<text text-anchor="middle" x="2623" y="-231.5" font-family="Helvetica,sans-Serif" font-size="10.00">CoriolisForcing.cpp</text>
</a>
</g>
</g>
<!-- Node50&#45;&gt;Node84 -->
<g id="edge35" class="edge">
<title>Node50&#45;&gt;Node84</title>
<path fill="none" stroke="midnightblue" d="M1997.53,-286.78C2097.23,-281.48 2349.77,-266.8 2560,-244 2562.75,-243.7 2565.56,-243.38 2568.39,-243.03"/>
<polygon fill="midnightblue" stroke="midnightblue" points="1997.05,-283.3 1987.25,-287.32 1997.42,-290.29 1997.05,-283.3"/>
</g>
<!-- Node85 -->
<g id="node26" class="node">
<title>Node85</title>
<g id="a_node26"><a xlink:href="_density_buoyancy_8cpp.html" target="_top" xlink:title=" ">
<polygon fill="white" stroke="black" points="2695.5,-224.5 2695.5,-243.5 2816.5,-243.5 2816.5,-224.5 2695.5,-224.5"/>
<text text-anchor="middle" x="2756" y="-231.5" font-family="Helvetica,sans-Serif" font-size="10.00">DensityBuoyancy.cpp</text>
</a>
</g>
</g>
<!-- Node50&#45;&gt;Node85 -->
<g id="edge36" class="edge">
<title>Node50&#45;&gt;Node85</title>
<path fill="none" stroke="midnightblue" d="M1997.33,-287.38C2110.78,-282.9 2425.78,-269.03 2687,-244 2689.77,-243.74 2692.59,-243.45 2695.44,-243.14"/>
<polygon fill="midnightblue" stroke="midnightblue" points="1997.16,-283.88 1987.3,-287.77 1997.43,-290.87 1997.16,-283.88"/>
</g>
<!-- Node86 -->
<g id="node27" class="node">
<title>Node86</title>
<g id="a_node27"><a xlink:href="_geostrophic_forcing_8cpp.html" target="_top" xlink:title=" ">
<polygon fill="white" stroke="black" points="3463.5,-224.5 3463.5,-243.5 3594.5,-243.5 3594.5,-224.5 3463.5,-224.5"/>
<text text-anchor="middle" x="3529" y="-231.5" font-family="Helvetica,sans-Serif" font-size="10.00">GeostrophicForcing.cpp</text>
</a>
</g>
</g>
<!-- Node50&#45;&gt;Node86 -->
<g id="edge37" class="edge">
<title>Node50&#45;&gt;Node86</title>
<path fill="none" stroke="midnightblue" d="M1997.12,-289.12C2176.18,-289.3 2878.62,-287.07 3454,-244 3457.01,-243.77 3460.08,-243.52 3463.18,-243.24"/>
<polygon fill="midnightblue" stroke="midnightblue" points="1997.05,-285.62 1987.05,-289.1 1997.04,-292.62 1997.05,-285.62"/>
</g>
<!-- Node87 -->
<g id="node28" class="node">
<title>Node87</title>
<g id="a_node28"><a xlink:href="_gravity_forcing_8cpp.html" target="_top" xlink:title=" ">
<polygon fill="white" stroke="black" points="510,-224.5 510,-243.5 618,-243.5 618,-224.5 510,-224.5"/>
<text text-anchor="middle" x="564" y="-231.5" font-family="Helvetica,sans-Serif" font-size="10.00">GravityForcing.cpp</text>
</a>
</g>
</g>
<!-- Node50&#45;&gt;Node87 -->
<g id="edge38" class="edge">
<title>Node50&#45;&gt;Node87</title>
<path fill="none" stroke="midnightblue" d="M1910.66,-288.16C1711.74,-284.21 884.88,-266.73 627,-244 624.14,-243.75 621.21,-243.45 618.25,-243.13"/>
<polygon fill="midnightblue" stroke="midnightblue" points="1910.66,-291.66 1920.73,-288.36 1910.8,-284.66 1910.66,-291.66"/>
</g>
<!-- Node88 -->
<g id="node29" class="node">
<title>Node88</title>
<g id="a_node29"><a xlink:href="_synth_turb_forcing_8cpp.html" target="_top" xlink:title=" ">
<polygon fill="white" stroke="black" points="636,-224.5 636,-243.5 756,-243.5 756,-224.5 636,-224.5"/>
<text text-anchor="middle" x="696" y="-231.5" font-family="Helvetica,sans-Serif" font-size="10.00">SynthTurbForcing.cpp</text>
</a>
</g>
</g>
<!-- Node50&#45;&gt;Node88 -->
<g id="edge39" class="edge">
<title>Node50&#45;&gt;Node88</title>
<path fill="none" stroke="midnightblue" d="M1910.76,-287.9C1725.08,-283.08 994.31,-263.25 765,-244 762.11,-243.76 759.16,-243.48 756.18,-243.18"/>
<polygon fill="midnightblue" stroke="midnightblue" points="1910.87,-291.4 1920.95,-288.16 1911.05,-284.4 1910.87,-291.4"/>
</g>
<!-- Node89 -->
<g id="node30" class="node">
<title>Node89</title>
<g id="a_node30"><a xlink:href="_s_d_r_src_8cpp.html" target="_top" xlink:title=" ">
<polygon fill="white" stroke="black" points="774,-224.5 774,-243.5 846,-243.5 846,-224.5 774,-224.5"/>
<text text-anchor="middle" x="810" y="-231.5" font-family="Helvetica,sans-Serif" font-size="10.00">SDRSrc.cpp</text>
</a>
</g>
</g>
<!-- Node50&#45;&gt;Node89 -->
<g id="edge41" class="edge">
<title>Node50&#45;&gt;Node89</title>
<path fill="none" stroke="midnightblue" d="M1910.59,-288.13C1733.46,-284.44 1064.85,-269.12 855,-244 852.15,-243.66 849.22,-243.24 846.27,-242.76"/>
<polygon fill="midnightblue" stroke="midnightblue" points="1910.75,-291.63 1920.82,-288.34 1910.9,-284.64 1910.75,-291.63"/>
</g>
<!-- Node90 -->
<g id="node31" class="node">
<title>Node90</title>
<g id="a_node31"><a xlink:href="_ksgs_m84_src_8cpp.html" target="_top" xlink:title=" ">
<polygon fill="white" stroke="black" points="864,-224.5 864,-243.5 960,-243.5 960,-224.5 864,-224.5"/>
<text text-anchor="middle" x="912" y="-231.5" font-family="Helvetica,sans-Serif" font-size="10.00">KsgsM84Src.cpp</text>
</a>
</g>
</g>
<!-- Node50&#45;&gt;Node90 -->
<g id="edge42" class="edge">
<title>Node50&#45;&gt;Node90</title>
<path fill="none" stroke="midnightblue" d="M1910.38,-287.63C1744.98,-282.36 1156.49,-262.68 970,-244 966.76,-243.68 963.42,-243.29 960.06,-242.87"/>
<polygon fill="midnightblue" stroke="midnightblue" points="1910.55,-291.14 1920.65,-287.96 1910.77,-284.15 1910.55,-291.14"/>
</g>
<!-- Node91 -->
<g id="node32" class="node">
<title>Node91</title>
<g id="a_node32"><a xlink:href="_kw_s_s_t_src_8cpp.html" target="_top" xlink:title=" ">
<polygon fill="white" stroke="black" points="978.5,-224.5 978.5,-243.5 1063.5,-243.5 1063.5,-224.5 978.5,-224.5"/>
<text text-anchor="middle" x="1021" y="-231.5" font-family="Helvetica,sans-Serif" font-size="10.00">KwSSTSrc.cpp</text>
</a>
</g>
</g>
<!-- Node50&#45;&gt;Node91 -->
<g id="edge43" class="edge">
<title>Node50&#45;&gt;Node91</title>
<path fill="none" stroke="midnightblue" d="M1910.47,-288.63C1781.95,-287.13 1393.14,-279.75 1073,-244 1069.9,-243.65 1066.71,-243.24 1063.51,-242.79"/>
<polygon fill="midnightblue" stroke="midnightblue" points="1910.64,-292.13 1920.68,-288.74 1910.72,-285.13 1910.64,-292.13"/>
</g>
<!-- Node92 -->
<g id="node33" class="node">
<title>Node92</title>
<g id="a_node33"><a xlink:href="_tioga_interface_8cpp.html" target="_top" xlink:title=" ">
<polygon fill="white" stroke="black" points="1081.5,-224.5 1081.5,-243.5 1188.5,-243.5 1188.5,-224.5 1081.5,-224.5"/>
<text text-anchor="middle" x="1135" y="-231.5" font-family="Helvetica,sans-Serif" font-size="10.00">TiogaInterface.cpp</text>
</a>
</g>
</g>
<!-- Node50&#45;&gt;Node92 -->
<g id="edge44" class="edge">
<title>Node50&#45;&gt;Node92</title>
<path fill="none" stroke="midnightblue" d="M1910.82,-287.5C1795.64,-283.26 1471.55,-269.78 1203,-244 1198.38,-243.56 1193.58,-243.04 1188.78,-242.48"/>
<polygon fill="midnightblue" stroke="midnightblue" points="1910.87,-291 1920.99,-287.87 1911.13,-284.01 1910.87,-291"/>
</g>
<!-- Node93 -->
<g id="node34" class="node">
<title>Node93</title>
<g id="a_node34"><a xlink:href="_channel_flow_8_h.html" target="_top" xlink:title=" ">
<polygon fill="white" stroke="black" points="1245.5,-224.5 1245.5,-243.5 1334.5,-243.5 1334.5,-224.5 1245.5,-224.5"/>
<text text-anchor="middle" x="1290" y="-231.5" font-family="Helvetica,sans-Serif" font-size="10.00">ChannelFlow.H</text>
</a>
</g>
</g>
<!-- Node50&#45;&gt;Node93 -->
<g id="edge46" class="edge">
<title>Node50&#45;&gt;Node93</title>
<path fill="none" stroke="midnightblue" d="M1910.53,-286.92C1810.96,-281.9 1558.78,-267.77 1349,-244 1344.37,-243.48 1339.54,-242.86 1334.73,-242.19"/>
<polygon fill="midnightblue" stroke="midnightblue" points="1910.64,-290.43 1920.8,-287.43 1910.98,-283.44 1910.64,-290.43"/>
</g>
<!-- Node94 -->
<g id="node35" class="node">
<title>Node94</title>
<g id="a_node35"><a xlink:href="_channel_flow_8cpp.html" target="_top" xlink:title=" ">
<polygon fill="white" stroke="black" points="1277.5,-168.5 1277.5,-187.5 1376.5,-187.5 1376.5,-168.5 1277.5,-168.5"/>
<text text-anchor="middle" x="1327" y="-175.5" font-family="Helvetica,sans-Serif" font-size="10.00">ChannelFlow.cpp</text>
</a>
</g>
</g>
<!-- Node50&#45;&gt;Node94 -->
<g id="edge48" class="edge">
<title>Node50&#45;&gt;Node94</title>
<path fill="none" stroke="midnightblue" d="M1910.51,-288.56C1798.37,-286.93 1501.86,-279.31 1411,-244 1378.69,-231.44 1348.53,-202.27 1334.79,-187.66"/>
<polygon fill="midnightblue" stroke="midnightblue" points="1910.73,-292.06 1920.77,-288.7 1910.82,-285.07 1910.73,-292.06"/>
</g>
<!-- Node95 -->
<g id="node36" class="node">
<title>Node95</title>
<g id="a_node36"><a xlink:href="_convecting_taylor_vortex_8_h.html" target="_top" xlink:title=" ">
<polygon fill="white" stroke="black" points="1429.5,-224.5 1429.5,-243.5 1572.5,-243.5 1572.5,-224.5 1429.5,-224.5"/>
<text text-anchor="middle" x="1501" y="-231.5" font-family="Helvetica,sans-Serif" font-size="10.00">ConvectingTaylorVortex.H</text>
</a>
</g>
</g>
<!-- Node50&#45;&gt;Node95 -->
<g id="edge49" class="edge">
<title>Node50&#45;&gt;Node95</title>
<path fill="none" stroke="midnightblue" d="M1910.72,-283.84C1832.69,-274.54 1667.72,-254.87 1572.63,-243.54"/>
<polygon fill="midnightblue" stroke="midnightblue" points="1910.35,-287.32 1920.69,-285.03 1911.17,-280.37 1910.35,-287.32"/>
</g>
<!-- Node96 -->
<g id="node37" class="node">
<title>Node96</title>
<g id="a_node37"><a xlink:href="_convecting_taylor_vortex_8cpp.html" target="_top" xlink:title=" ">
<polygon fill="white" stroke="black" points="1415,-168.5 1415,-187.5 1567,-187.5 1567,-168.5 1415,-168.5"/>
<text text-anchor="middle" x="1491" y="-175.5" font-family="Helvetica,sans-Serif" font-size="10.00">ConvectingTaylorVortex.cpp</text>
</a>
</g>
</g>
<!-- Node50&#45;&gt;Node96 -->
<g id="edge51" class="edge">
<title>Node50&#45;&gt;Node96</title>
<path fill="none" stroke="midnightblue" d="M1910.71,-288.63C1789.58,-287.14 1453.9,-279.79 1421,-244 1401.14,-222.39 1442.2,-199.59 1469.44,-187.58"/>
<polygon fill="midnightblue" stroke="midnightblue" points="1910.7,-292.13 1920.74,-288.74 1910.78,-285.13 1910.7,-292.13"/>
</g>
<!-- Node97 -->
<g id="node38" class="node">
<title>Node97</title>
<g id="a_node38"><a xlink:href="_ekman_spiral_8_h.html" target="_top" xlink:title=" ">
<polygon fill="white" stroke="black" points="1701.5,-224.5 1701.5,-243.5 1790.5,-243.5 1790.5,-224.5 1701.5,-224.5"/>
<text text-anchor="middle" x="1746" y="-231.5" font-family="Helvetica,sans-Serif" font-size="10.00">EkmanSpiral.H</text>
</a>
</g>
</g>
<!-- Node50&#45;&gt;Node97 -->
<g id="edge52" class="edge">
<title>Node50&#45;&gt;Node97</title>
<path fill="none" stroke="midnightblue" d="M1911.22,-277.89C1871.94,-267.7 1814.57,-252.8 1778.8,-243.52"/>
<polygon fill="midnightblue" stroke="midnightblue" points="1910.48,-281.32 1921.04,-280.44 1912.24,-274.54 1910.48,-281.32"/>
</g>
<!-- Node98 -->
<g id="node39" class="node">
<title>Node98</title>
<g id="a_node39"><a xlink:href="_ekman_spiral_8cpp.html" target="_top" xlink:title=" ">
<polygon fill="white" stroke="black" points="1711,-168.5 1711,-187.5 1809,-187.5 1809,-168.5 1711,-168.5"/>
<text text-anchor="middle" x="1760" y="-175.5" font-family="Helvetica,sans-Serif" font-size="10.00">EkmanSpiral.cpp</text>
</a>
</g>
</g>
<!-- Node50&#45;&gt;Node98 -->
<g id="edge54" class="edge">
<title>Node50&#45;&gt;Node98</title>
<path fill="none" stroke="midnightblue" d="M1915.21,-277.24C1892.22,-269.46 1863,-258.09 1839,-244 1810.82,-227.46 1782.33,-201.12 1768.54,-187.61"/>
<polygon fill="midnightblue" stroke="midnightblue" points="1914.37,-280.65 1924.96,-280.46 1916.56,-274 1914.37,-280.65"/>
</g>
<!-- Node99 -->
<g id="node40" class="node">
<title>Node99</title>
<g id="a_node40"><a xlink:href="_free_stream_8cpp.html" target="_top" xlink:title=" ">
<polygon fill="white" stroke="black" points="1590.5,-224.5 1590.5,-243.5 1683.5,-243.5 1683.5,-224.5 1590.5,-224.5"/>
<text text-anchor="middle" x="1637" y="-231.5" font-family="Helvetica,sans-Serif" font-size="10.00">FreeStream.cpp</text>
</a>
</g>
</g>
<!-- Node50&#45;&gt;Node99 -->
<g id="edge55" class="edge">
<title>Node50&#45;&gt;Node99</title>
<path fill="none" stroke="midnightblue" d="M1910.8,-281.64C1851.41,-271.52 1744.96,-253.39 1683.75,-242.96"/>
<polygon fill="midnightblue" stroke="midnightblue" points="1910.53,-285.14 1920.97,-283.37 1911.7,-278.24 1910.53,-285.14"/>
</g>
<!-- Node100 -->
<g id="node41" class="node">
<title>Node100</title>
<g id="a_node41"><a xlink:href="_hybrid_r_a_n_s_l_e_s_a_b_l_8_h.html" target="_top" xlink:title=" ">
<polygon fill="white" stroke="black" points="1847.5,-224.5 1847.5,-243.5 1970.5,-243.5 1970.5,-224.5 1847.5,-224.5"/>
<text text-anchor="middle" x="1909" y="-231.5" font-family="Helvetica,sans-Serif" font-size="10.00">HybridRANSLESABL.H</text>
</a>
</g>
</g>
<!-- Node50&#45;&gt;Node100 -->
<g id="edge56" class="edge">
<title>Node50&#45;&gt;Node100</title>
<path fill="none" stroke="midnightblue" d="M1939.95,-272.14C1932.11,-262.74 1922.67,-251.4 1916.29,-243.75"/>
<polygon fill="midnightblue" stroke="midnightblue" points="1937.48,-274.64 1946.57,-280.08 1942.86,-270.16 1937.48,-274.64"/>
</g>
<!-- Node101 -->
<g id="node42" class="node">
<title>Node101</title>
<g id="a_node42"><a xlink:href="_hybrid_r_a_n_s_l_e_s_a_b_l_8cpp.html" target="_top" xlink:title=" ">
<polygon fill="white" stroke="black" points="1852.5,-168.5 1852.5,-187.5 1985.5,-187.5 1985.5,-168.5 1852.5,-168.5"/>
<text text-anchor="middle" x="1919" y="-175.5" font-family="Helvetica,sans-Serif" font-size="10.00">HybridRANSLESABL.cpp</text>
</a>
</g>
</g>
<!-- Node50&#45;&gt;Node101 -->
<g id="edge58" class="edge">
<title>Node50&#45;&gt;Node101</title>
<path fill="none" stroke="midnightblue" d="M1968.38,-272.54C1978.2,-259.18 1988.09,-240.02 1980,-224 1971.46,-207.08 1953.22,-194.96 1938.91,-187.59"/>
<polygon fill="midnightblue" stroke="midnightblue" points="1965.62,-270.38 1962.12,-280.38 1971.09,-274.74 1965.62,-270.38"/>
</g>
<!-- Node50&#45;&gt;Node21 -->
<g id="edge59" class="edge">
<title>Node50&#45;&gt;Node21</title>
<path fill="none" stroke="midnightblue" d="M1997.31,-288.79C2140.86,-287.72 2614,-281.41 3003,-244 3007.61,-243.56 3012.41,-243 3017.2,-242.38"/>
<polygon fill="midnightblue" stroke="midnightblue" points="1997.13,-285.29 1987.16,-288.86 1997.18,-292.29 1997.13,-285.29"/>
</g>
<!-- Node50&#45;&gt;Node164 -->
<g id="edge60" class="edge">
<title>Node50&#45;&gt;Node164</title>
<path fill="none" stroke="midnightblue" d="M1997.26,-288.16C2180.62,-284.46 2894.45,-268.72 3118,-244 3120.92,-243.68 3123.93,-243.28 3126.96,-242.84"/>
<polygon fill="midnightblue" stroke="midnightblue" points="1997.12,-284.66 1987.19,-288.36 1997.26,-291.66 1997.12,-284.66"/>
</g>
<!-- Node66&#45;&gt;Node67 -->
<g id="edge18" class="edge">
<title>Node66&#45;&gt;Node67</title>
<path fill="none" stroke="midnightblue" d="M2462.67,-163.22C2474.25,-155.7 2486.6,-145.2 2493,-132 2504.39,-108.5 2473.96,-86.92 2453.3,-75.5"/>
<polygon fill="midnightblue" stroke="midnightblue" points="2460.84,-160.23 2454.08,-168.39 2464.45,-166.23 2460.84,-160.23"/>
</g>
<!-- Node66&#45;&gt;Node70 -->
<g id="edge21" class="edge">
<title>Node66&#45;&gt;Node70</title>
<path fill="none" stroke="midnightblue" d="M2436,-157.8C2436,-148.91 2436,-138.78 2436,-131.75"/>
<polygon fill="midnightblue" stroke="midnightblue" points="2432.5,-158.08 2436,-168.08 2439.5,-158.08 2432.5,-158.08"/>
</g>
<!-- Node66&#45;&gt;Node72 -->
<g id="edge23" class="edge">
<title>Node66&#45;&gt;Node72</title>
<path fill="none" stroke="midnightblue" d="M2406.15,-164.5C2381.96,-154.38 2348.54,-140.39 2327.34,-131.52"/>
<polygon fill="midnightblue" stroke="midnightblue" points="2404.98,-167.81 2415.56,-168.44 2407.69,-161.35 2404.98,-167.81"/>
</g>
<!-- Node67&#45;&gt;Node65 -->
<g id="edge19" class="edge">
<title>Node67&#45;&gt;Node65</title>
<path fill="none" stroke="midnightblue" d="M2469.19,-61.76C2563.81,-52.52 2835.04,-26.03 2943.44,-15.45"/>
<polygon fill="midnightblue" stroke="midnightblue" points="2468.67,-58.29 2459.06,-62.75 2469.35,-65.26 2468.67,-58.29"/>
</g>
<!-- Node67&#45;&gt;Node68 -->
<g id="edge20" class="edge">
<title>Node67&#45;&gt;Node68</title>
<path fill="none" stroke="midnightblue" d="M2402.72,-63.16C2262.94,-55.43 1721.65,-25.52 1528.21,-14.83"/>
<polygon fill="midnightblue" stroke="midnightblue" points="2402.63,-66.66 2412.81,-63.72 2403.02,-59.67 2402.63,-66.66"/>
</g>
<!-- Node70&#45;&gt;Node67 -->
<g id="edge22" class="edge">
<title>Node70&#45;&gt;Node67</title>
<path fill="none" stroke="midnightblue" d="M2436,-101.8C2436,-92.91 2436,-82.78 2436,-75.75"/>
<polygon fill="midnightblue" stroke="midnightblue" points="2432.5,-102.08 2436,-112.08 2439.5,-102.08 2432.5,-102.08"/>
</g>
<!-- Node73&#45;&gt;Node66 -->
<g id="edge25" class="edge">
<title>Node73&#45;&gt;Node66</title>
<path fill="none" stroke="midnightblue" d="M2824.57,-223.84C2698.49,-208.72 2562.86,-193.29 2489.64,-185.03"/>
<polygon fill="midnightblue" stroke="midnightblue" points="2824.44,-227.35 2834.79,-225.06 2825.28,-220.4 2824.44,-227.35"/>
</g>
<!-- Node73&#45;&gt;Node67 -->
<g id="edge26" class="edge">
<title>Node73&#45;&gt;Node67</title>
<path fill="none" stroke="midnightblue" d="M2864.55,-220.98C2775.61,-189.02 2534.95,-102.55 2459.17,-75.33"/>
<polygon fill="midnightblue" stroke="midnightblue" points="2863.54,-224.34 2874.13,-224.42 2865.91,-217.75 2863.54,-224.34"/>
</g>
<!-- Node80&#45;&gt;Node47 -->
<g id="edge29" class="edge">
<title>Node80&#45;&gt;Node47</title>
<path fill="none" stroke="midnightblue" d="M2152.23,-220.37C2129.19,-210.26 2097.52,-196.35 2077.4,-187.52"/>
<polygon fill="midnightblue" stroke="midnightblue" points="2150.95,-223.63 2161.51,-224.44 2153.76,-217.22 2150.95,-223.63"/>
</g>
<!-- Node80&#45;&gt;Node67 -->
<g id="edge28" class="edge">
<title>Node80&#45;&gt;Node67</title>
<path fill="none" stroke="midnightblue" d="M2172.22,-215.08C2160.92,-189.13 2145.47,-141.03 2170,-112 2201.06,-75.24 2353.66,-68.5 2412.66,-67.27"/>
<polygon fill="midnightblue" stroke="midnightblue" points="2169.17,-216.83 2176.54,-224.44 2175.53,-213.89 2169.17,-216.83"/>
</g>
<!-- Node93&#45;&gt;Node94 -->
<g id="edge47" class="edge">
<title>Node93&#45;&gt;Node94</title>
<path fill="none" stroke="midnightblue" d="M1301.95,-215.57C1308.31,-206.27 1315.87,-195.25 1321,-187.75"/>
<polygon fill="midnightblue" stroke="midnightblue" points="1298.87,-213.86 1296.11,-224.08 1304.65,-217.81 1298.87,-213.86"/>
</g>
<!-- Node95&#45;&gt;Node96 -->
<g id="edge50" class="edge">
<title>Node95&#45;&gt;Node96</title>
<path fill="none" stroke="midnightblue" d="M1497.5,-214.1C1495.84,-205.14 1493.94,-194.86 1492.62,-187.75"/>
<polygon fill="midnightblue" stroke="midnightblue" points="1494.09,-214.89 1499.35,-224.08 1500.97,-213.61 1494.09,-214.89"/>
</g>
<!-- Node97&#45;&gt;Node98 -->
<g id="edge53" class="edge">
<title>Node97&#45;&gt;Node98</title>
<path fill="none" stroke="midnightblue" d="M1750.82,-214.4C1753.17,-205.36 1755.87,-194.94 1757.73,-187.75"/>
<polygon fill="midnightblue" stroke="midnightblue" points="1747.43,-213.52 1748.31,-224.08 1754.21,-215.28 1747.43,-213.52"/>
</g>
<!-- Node100&#45;&gt;Node101 -->
<g id="edge57" class="edge">
<title>Node100&#45;&gt;Node101</title>
<path fill="none" stroke="midnightblue" d="M1912.5,-214.1C1914.16,-205.14 1916.06,-194.86 1917.38,-187.75"/>
<polygon fill="midnightblue" stroke="midnightblue" points="1909.03,-213.61 1910.65,-224.08 1915.91,-214.89 1909.03,-213.61"/>
</g>
<!-- Node166&#45;&gt;Node65 -->
<g id="edge66" class="edge">
<title>Node166&#45;&gt;Node65</title>
<path fill="none" stroke="midnightblue" d="M3289.3,-57.2C3221,-46.69 3100.45,-28.15 3034.78,-18.04"/>
<polygon fill="midnightblue" stroke="midnightblue" points="3288.98,-60.69 3299.39,-58.75 3290.04,-53.77 3288.98,-60.69"/>
</g>
<!-- Node167&#45;&gt;Node81 -->
<g id="edge70" class="edge">
<title>Node167&#45;&gt;Node81</title>
<path fill="none" stroke="midnightblue" d="M3235.27,-273.82C3246.92,-264.15 3261.6,-251.95 3271.37,-243.83"/>
<polygon fill="midnightblue" stroke="midnightblue" points="3232.9,-271.24 3227.44,-280.32 3237.37,-276.63 3232.9,-271.24"/>
</g>
<!-- Node168&#45;&gt;Node82 -->
<g id="edge72" class="edge">
<title>Node168&#45;&gt;Node82</title>
<path fill="none" stroke="midnightblue" d="M3375.06,-271.86C3381.64,-262.5 3389.51,-251.33 3394.84,-243.75"/>
<polygon fill="midnightblue" stroke="midnightblue" points="3372.17,-269.89 3369.27,-280.08 3377.89,-273.92 3372.17,-269.89"/>
</g>
<!-- Node169&#45;&gt;Node86 -->
<g id="edge74" class="edge">
<title>Node169&#45;&gt;Node86</title>
<path fill="none" stroke="midnightblue" d="M3513.14,-270.69C3517.18,-261.59 3521.88,-251.01 3525.11,-243.75"/>
<polygon fill="midnightblue" stroke="midnightblue" points="3509.83,-269.52 3508.96,-280.08 3516.22,-272.37 3509.83,-269.52"/>
</g>
</g>
</svg>
