<?xml version="1.0" encoding="UTF-8" standalone="no"?>
<!DOCTYPE svg PUBLIC "-//W3C//DTD SVG 1.1//EN"
 "http://www.w3.org/Graphics/SVG/1.1/DTD/svg11.dtd">
<!-- Generated by graphviz version 2.43.0 (0)
 -->
<!-- Title: Slice.H Pages: 1 -->
<svg width="1103pt" height="308pt"
 viewBox="0.00 0.00 1102.50 308.00" xmlns="http://www.w3.org/2000/svg" xmlns:xlink="http://www.w3.org/1999/xlink">
<g id="graph0" class="graph" transform="scale(1 1) rotate(0) translate(4 304)">
<title>Slice.H</title>
<polygon fill="white" stroke="transparent" points="-4,4 -4,-304 1098.5,-304 1098.5,4 -4,4"/>
<!-- Node1 -->
<g id="node1" class="node">
<title>Node1</title>
<g id="a_node1"><a xlink:title=" ">
<polygon fill="#bfbfbf" stroke="black" points="551,-280.5 551,-299.5 601,-299.5 601,-280.5 551,-280.5"/>
<text text-anchor="middle" x="576" y="-287.5" font-family="Helvetica,sans-Serif" font-size="10.00">Slice.H</text>
</a>
</g>
</g>
<!-- Node2 -->
<g id="node2" class="node">
<title>Node2</title>
<g id="a_node2"><a xlink:href="actuator__types_8_h.html" target="_top" xlink:title=" ">
<polygon fill="white" stroke="black" points="526,-224.5 526,-243.5 626,-243.5 626,-224.5 526,-224.5"/>
<text text-anchor="middle" x="576" y="-231.5" font-family="Helvetica,sans-Serif" font-size="10.00">actuator_types.H</text>
</a>
</g>
</g>
<!-- Node1&#45;&gt;Node2 -->
<g id="edge1" class="edge">
<title>Node1&#45;&gt;Node2</title>
<path fill="none" stroke="midnightblue" d="M576,-269.8C576,-260.91 576,-250.78 576,-243.75"/>
<polygon fill="midnightblue" stroke="midnightblue" points="572.5,-270.08 576,-280.08 579.5,-270.08 572.5,-270.08"/>
</g>
<!-- Node3 -->
<g id="node3" class="node">
<title>Node3</title>
<g id="a_node3"><a xlink:href="_act_src_line_op_8_h.html" target="_top" xlink:title=" ">
<polygon fill="white" stroke="black" points="361,-112.5 361,-131.5 453,-131.5 453,-112.5 361,-112.5"/>
<text text-anchor="middle" x="407" y="-119.5" font-family="Helvetica,sans-Serif" font-size="10.00">ActSrcLineOp.H</text>
</a>
</g>
</g>
<!-- Node2&#45;&gt;Node3 -->
<g id="edge2" class="edge">
<title>Node2&#45;&gt;Node3</title>
<path fill="none" stroke="midnightblue" d="M515.82,-227.76C485.93,-222.21 451.32,-210.92 428,-188 412.44,-172.7 408.4,-145.82 407.36,-131.9"/>
<polygon fill="midnightblue" stroke="midnightblue" points="515.31,-231.22 525.75,-229.43 516.47,-224.32 515.31,-231.22"/>
</g>
<!-- Node4 -->
<g id="node4" class="node">
<title>Node4</title>
<g id="a_node4"><a xlink:href="_actuator_model_8_h.html" target="_top" xlink:title=" ">
<polygon fill="white" stroke="black" points="376,-56.5 376,-75.5 474,-75.5 474,-56.5 376,-56.5"/>
<text text-anchor="middle" x="425" y="-63.5" font-family="Helvetica,sans-Serif" font-size="10.00">ActuatorModel.H</text>
</a>
</g>
</g>
<!-- Node2&#45;&gt;Node4 -->
<g id="edge23" class="edge">
<title>Node2&#45;&gt;Node4</title>
<path fill="none" stroke="midnightblue" d="M566.39,-215.03C558.86,-201.57 547.71,-182.97 536,-168 505.33,-128.81 458.64,-91.88 436.9,-75.65"/>
<polygon fill="midnightblue" stroke="midnightblue" points="563.53,-217.09 571.4,-224.18 569.67,-213.73 563.53,-217.09"/>
</g>
<!-- Node9 -->
<g id="node9" class="node">
<title>Node9</title>
<g id="a_node9"><a xlink:href="actuator__ops_8_h.html" target="_top" xlink:title=" ">
<polygon fill="white" stroke="black" points="437,-168.5 437,-187.5 527,-187.5 527,-168.5 437,-168.5"/>
<text text-anchor="middle" x="482" y="-175.5" font-family="Helvetica,sans-Serif" font-size="10.00">actuator_ops.H</text>
</a>
</g>
</g>
<!-- Node2&#45;&gt;Node9 -->
<g id="edge8" class="edge">
<title>Node2&#45;&gt;Node9</title>
<path fill="none" stroke="midnightblue" d="M551.94,-219.18C534.64,-209.24 511.85,-196.15 497.07,-187.65"/>
<polygon fill="midnightblue" stroke="midnightblue" points="550.48,-222.38 560.9,-224.32 553.97,-216.31 550.48,-222.38"/>
</g>
<!-- Node13 -->
<g id="node13" class="node">
<title>Node13</title>
<g id="a_node13"><a xlink:href="wing__ops_8_h.html" target="_top" xlink:title=" ">
<polygon fill="white" stroke="black" points="623.5,-112.5 623.5,-131.5 696.5,-131.5 696.5,-112.5 623.5,-112.5"/>
<text text-anchor="middle" x="660" y="-119.5" font-family="Helvetica,sans-Serif" font-size="10.00">wing_ops.H</text>
</a>
</g>
</g>
<!-- Node2&#45;&gt;Node13 -->
<g id="edge48" class="edge">
<title>Node2&#45;&gt;Node13</title>
<path fill="none" stroke="midnightblue" d="M588.77,-216.27C606.93,-192.49 639.54,-149.79 653.44,-131.59"/>
<polygon fill="midnightblue" stroke="midnightblue" points="585.88,-214.3 582.59,-224.37 591.44,-218.54 585.88,-214.3"/>
</g>
<!-- Node16 -->
<g id="node16" class="node">
<title>Node16</title>
<g id="a_node16"><a xlink:href="turbine__types_8_h.html" target="_top" xlink:title=" ">
<polygon fill="white" stroke="black" points="158,-168.5 158,-187.5 252,-187.5 252,-168.5 158,-168.5"/>
<text text-anchor="middle" x="205" y="-175.5" font-family="Helvetica,sans-Serif" font-size="10.00">turbine_types.H</text>
</a>
</g>
</g>
<!-- Node2&#45;&gt;Node16 -->
<g id="edge24" class="edge">
<title>Node2&#45;&gt;Node16</title>
<path fill="none" stroke="midnightblue" d="M515.93,-224.26C442.37,-213.55 319.32,-195.64 252.19,-185.87"/>
<polygon fill="midnightblue" stroke="midnightblue" points="515.57,-227.74 525.97,-225.72 516.57,-220.81 515.57,-227.74"/>
</g>
<!-- Node20 -->
<g id="node20" class="node">
<title>Node20</title>
<g id="a_node20"><a xlink:href="actuator__utils_8cpp.html" target="_top" xlink:title=" ">
<polygon fill="white" stroke="black" points="892,-168.5 892,-187.5 996,-187.5 996,-168.5 892,-168.5"/>
<text text-anchor="middle" x="944" y="-175.5" font-family="Helvetica,sans-Serif" font-size="10.00">actuator_utils.cpp</text>
</a>
</g>
</g>
<!-- Node2&#45;&gt;Node20 -->
<g id="edge32" class="edge">
<title>Node2&#45;&gt;Node20</title>
<path fill="none" stroke="midnightblue" d="M636.24,-224.19C698.14,-215.13 797.3,-200.6 883,-188 885.86,-187.58 888.79,-187.15 891.76,-186.71"/>
<polygon fill="midnightblue" stroke="midnightblue" points="635.64,-220.74 626.25,-225.65 636.66,-227.66 635.64,-220.74"/>
</g>
<!-- Node21 -->
<g id="node21" class="node">
<title>Node21</title>
<g id="a_node21"><a xlink:href="_airfoil_table_8_h.html" target="_top" xlink:title=" ">
<polygon fill="white" stroke="black" points="792,-168.5 792,-187.5 874,-187.5 874,-168.5 792,-168.5"/>
<text text-anchor="middle" x="833" y="-175.5" font-family="Helvetica,sans-Serif" font-size="10.00">AirfoilTable.H</text>
</a>
</g>
</g>
<!-- Node2&#45;&gt;Node21 -->
<g id="edge33" class="edge">
<title>Node2&#45;&gt;Node21</title>
<path fill="none" stroke="midnightblue" d="M626.71,-222.35C675.28,-212.14 747.62,-196.94 792.47,-187.52"/>
<polygon fill="midnightblue" stroke="midnightblue" points="625.79,-218.96 616.72,-224.44 627.23,-225.81 625.79,-218.96"/>
</g>
<!-- Node26 -->
<g id="node26" class="node">
<title>Node26</title>
<g id="a_node26"><a xlink:href="_actuator_wing_8_h.html" target="_top" xlink:title=" ">
<polygon fill="white" stroke="black" points="672.5,-168.5 672.5,-187.5 765.5,-187.5 765.5,-168.5 672.5,-168.5"/>
<text text-anchor="middle" x="719" y="-175.5" font-family="Helvetica,sans-Serif" font-size="10.00">ActuatorWing.H</text>
</a>
</g>
</g>
<!-- Node2&#45;&gt;Node26 -->
<g id="edge44" class="edge">
<title>Node2&#45;&gt;Node26</title>
<path fill="none" stroke="midnightblue" d="M608.03,-220.91C634.91,-210.75 672.64,-196.51 696.45,-187.52"/>
<polygon fill="midnightblue" stroke="midnightblue" points="606.78,-217.64 598.66,-224.44 609.25,-224.19 606.78,-217.64"/>
</g>
<!-- Node3&#45;&gt;Node4 -->
<g id="edge3" class="edge">
<title>Node3&#45;&gt;Node4</title>
<path fill="none" stroke="midnightblue" d="M413.2,-102.4C416.21,-93.36 419.69,-82.94 422.08,-75.75"/>
<polygon fill="midnightblue" stroke="midnightblue" points="409.81,-101.49 409.97,-112.08 416.46,-103.7 409.81,-101.49"/>
</g>
<!-- Node5 -->
<g id="node5" class="node">
<title>Node5</title>
<g id="a_node5"><a xlink:href="_actuator_8cpp.html" target="_top" xlink:title=" ">
<polygon fill="white" stroke="black" points="386.5,-0.5 386.5,-19.5 463.5,-19.5 463.5,-0.5 386.5,-0.5"/>
<text text-anchor="middle" x="425" y="-7.5" font-family="Helvetica,sans-Serif" font-size="10.00">Actuator.cpp</text>
</a>
</g>
</g>
<!-- Node4&#45;&gt;Node5 -->
<g id="edge4" class="edge">
<title>Node4&#45;&gt;Node5</title>
<path fill="none" stroke="midnightblue" d="M425,-45.8C425,-36.91 425,-26.78 425,-19.75"/>
<polygon fill="midnightblue" stroke="midnightblue" points="421.5,-46.08 425,-56.08 428.5,-46.08 421.5,-46.08"/>
</g>
<!-- Node6 -->
<g id="node6" class="node">
<title>Node6</title>
<g id="a_node6"><a xlink:href="_turbine_fast_8cpp.html" target="_top" xlink:title=" ">
<polygon fill="white" stroke="black" points="188,-0.5 188,-19.5 280,-19.5 280,-0.5 188,-0.5"/>
<text text-anchor="middle" x="234" y="-7.5" font-family="Helvetica,sans-Serif" font-size="10.00">TurbineFast.cpp</text>
</a>
</g>
</g>
<!-- Node4&#45;&gt;Node6 -->
<g id="edge5" class="edge">
<title>Node4&#45;&gt;Node6</title>
<path fill="none" stroke="midnightblue" d="M385.03,-53.7C348.98,-43.51 296.76,-28.74 264.12,-19.52"/>
<polygon fill="midnightblue" stroke="midnightblue" points="384.16,-57.09 394.74,-56.44 386.06,-50.35 384.16,-57.09"/>
</g>
<!-- Node7 -->
<g id="node7" class="node">
<title>Node7</title>
<g id="a_node7"><a xlink:href="_fixed_wing_8cpp.html" target="_top" xlink:title=" ">
<polygon fill="white" stroke="black" points="752.5,-0.5 752.5,-19.5 839.5,-19.5 839.5,-0.5 752.5,-0.5"/>
<text text-anchor="middle" x="796" y="-7.5" font-family="Helvetica,sans-Serif" font-size="10.00">FixedWing.cpp</text>
</a>
</g>
</g>
<!-- Node4&#45;&gt;Node7 -->
<g id="edge6" class="edge">
<title>Node4&#45;&gt;Node7</title>
<path fill="none" stroke="midnightblue" d="M484.22,-55.83C586.32,-40.61 693.89,-25.35 752.43,-17.11"/>
<polygon fill="midnightblue" stroke="midnightblue" points="483.42,-52.41 474.04,-57.35 484.45,-59.34 483.42,-52.41"/>
</g>
<!-- Node8 -->
<g id="node8" class="node">
<title>Node8</title>
<g id="a_node8"><a xlink:href="_flat_plate_8cpp.html" target="_top" xlink:title=" ">
<polygon fill="white" stroke="black" points="601,-0.5 601,-19.5 681,-19.5 681,-0.5 601,-0.5"/>
<text text-anchor="middle" x="641" y="-7.5" font-family="Helvetica,sans-Serif" font-size="10.00">FlatPlate.cpp</text>
</a>
</g>
</g>
<!-- Node4&#45;&gt;Node8 -->
<g id="edge7" class="edge">
<title>Node4&#45;&gt;Node8</title>
<path fill="none" stroke="midnightblue" d="M469.16,-53.96C509.96,-43.76 569.71,-28.82 606.93,-19.52"/>
<polygon fill="midnightblue" stroke="midnightblue" points="468.08,-50.62 459.23,-56.44 469.78,-57.41 468.08,-50.62"/>
</g>
<!-- Node9&#45;&gt;Node3 -->
<g id="edge9" class="edge">
<title>Node9&#45;&gt;Node3</title>
<path fill="none" stroke="midnightblue" d="M461.69,-162.38C448.14,-152.62 430.76,-140.11 419.27,-131.83"/>
<polygon fill="midnightblue" stroke="midnightblue" points="459.79,-165.32 469.95,-168.32 463.88,-159.64 459.79,-165.32"/>
</g>
<!-- Node9&#45;&gt;Node4 -->
<g id="edge10" class="edge">
<title>Node9&#45;&gt;Node4</title>
<path fill="none" stroke="midnightblue" d="M478.27,-158.2C475.12,-144.79 469.86,-126.62 462,-112 454.43,-97.92 442.11,-84.08 433.79,-75.55"/>
<polygon fill="midnightblue" stroke="midnightblue" points="474.89,-159.13 480.42,-168.16 481.73,-157.65 474.89,-159.13"/>
</g>
<!-- Node10 -->
<g id="node10" class="node">
<title>Node10</title>
<g id="a_node10"><a xlink:href="_act_src_disk_op_8_h.html" target="_top" xlink:title=" ">
<polygon fill="white" stroke="black" points="211.5,-112.5 211.5,-131.5 304.5,-131.5 304.5,-112.5 211.5,-112.5"/>
<text text-anchor="middle" x="258" y="-119.5" font-family="Helvetica,sans-Serif" font-size="10.00">ActSrcDiskOp.H</text>
</a>
</g>
</g>
<!-- Node9&#45;&gt;Node10 -->
<g id="edge11" class="edge">
<title>Node9&#45;&gt;Node10</title>
<path fill="none" stroke="midnightblue" d="M436.74,-166.09C394.42,-155.89 332.09,-140.86 293.33,-131.52"/>
<polygon fill="midnightblue" stroke="midnightblue" points="435.96,-169.5 446.51,-168.44 437.61,-162.7 435.96,-169.5"/>
</g>
<!-- Node11 -->
<g id="node11" class="node">
<title>Node11</title>
<g id="a_node11"><a xlink:href="turbine__fast__ops_8_h.html" target="_top" xlink:title=" ">
<polygon fill="white" stroke="black" points="180,-56.5 180,-75.5 288,-75.5 288,-56.5 180,-56.5"/>
<text text-anchor="middle" x="234" y="-63.5" font-family="Helvetica,sans-Serif" font-size="10.00">turbine_fast_ops.H</text>
</a>
</g>
</g>
<!-- Node9&#45;&gt;Node11 -->
<g id="edge13" class="edge">
<title>Node9&#45;&gt;Node11</title>
<path fill="none" stroke="midnightblue" d="M443.22,-165.49C417.03,-157.25 381.9,-145.29 352,-132 331.59,-122.93 275.95,-91.21 249.01,-75.69"/>
<polygon fill="midnightblue" stroke="midnightblue" points="442.21,-168.84 452.8,-168.46 444.29,-162.15 442.21,-168.84"/>
</g>
<!-- Node12 -->
<g id="node12" class="node">
<title>Node12</title>
<g id="a_node12"><a xlink:href="fixed__wing__ops_8_h.html" target="_top" xlink:title=" ">
<polygon fill="white" stroke="black" points="745.5,-56.5 745.5,-75.5 846.5,-75.5 846.5,-56.5 745.5,-56.5"/>
<text text-anchor="middle" x="796" y="-63.5" font-family="Helvetica,sans-Serif" font-size="10.00">fixed_wing_ops.H</text>
</a>
</g>
</g>
<!-- Node9&#45;&gt;Node12 -->
<g id="edge15" class="edge">
<title>Node9&#45;&gt;Node12</title>
<path fill="none" stroke="midnightblue" d="M509.65,-164.1C528.45,-155.25 553.83,-143.13 576,-132 593.05,-123.43 596.16,-118.78 614,-112 658.27,-95.16 711.01,-82.93 748.29,-75.5"/>
<polygon fill="midnightblue" stroke="midnightblue" points="508.04,-160.99 500.47,-168.41 511.01,-167.33 508.04,-160.99"/>
</g>
<!-- Node9&#45;&gt;Node13 -->
<g id="edge17" class="edge">
<title>Node9&#45;&gt;Node13</title>
<path fill="none" stroke="midnightblue" d="M520.12,-165.44C553.68,-155.26 601.77,-140.66 631.93,-131.52"/>
<polygon fill="midnightblue" stroke="midnightblue" points="518.76,-162.19 510.2,-168.44 520.79,-168.89 518.76,-162.19"/>
</g>
<!-- Node14 -->
<g id="node14" class="node">
<title>Node14</title>
<g id="a_node14"><a xlink:href="flat__plate__ops_8_h.html" target="_top" xlink:title=" ">
<polygon fill="white" stroke="black" points="593.5,-56.5 593.5,-75.5 688.5,-75.5 688.5,-56.5 593.5,-56.5"/>
<text text-anchor="middle" x="641" y="-63.5" font-family="Helvetica,sans-Serif" font-size="10.00">flat_plate_ops.H</text>
</a>
</g>
</g>
<!-- Node9&#45;&gt;Node14 -->
<g id="edge22" class="edge">
<title>Node9&#45;&gt;Node14</title>
<path fill="none" stroke="midnightblue" d="M503.08,-162.42C536.71,-139.15 601.47,-94.35 628.58,-75.59"/>
<polygon fill="midnightblue" stroke="midnightblue" points="500.71,-159.8 494.48,-168.37 504.69,-165.56 500.71,-159.8"/>
</g>
<!-- Node10&#45;&gt;Node4 -->
<g id="edge12" class="edge">
<title>Node10&#45;&gt;Node4</title>
<path fill="none" stroke="midnightblue" d="M294.17,-109.3C325.64,-99.13 370.49,-84.62 398.66,-75.52"/>
<polygon fill="midnightblue" stroke="midnightblue" points="292.9,-106.04 284.46,-112.44 295.05,-112.7 292.9,-106.04"/>
</g>
<!-- Node11&#45;&gt;Node6 -->
<g id="edge14" class="edge">
<title>Node11&#45;&gt;Node6</title>
<path fill="none" stroke="midnightblue" d="M234,-45.8C234,-36.91 234,-26.78 234,-19.75"/>
<polygon fill="midnightblue" stroke="midnightblue" points="230.5,-46.08 234,-56.08 237.5,-46.08 230.5,-46.08"/>
</g>
<!-- Node12&#45;&gt;Node7 -->
<g id="edge16" class="edge">
<title>Node12&#45;&gt;Node7</title>
<path fill="none" stroke="midnightblue" d="M796,-45.8C796,-36.91 796,-26.78 796,-19.75"/>
<polygon fill="midnightblue" stroke="midnightblue" points="792.5,-46.08 796,-56.08 799.5,-46.08 792.5,-46.08"/>
</g>
<!-- Node13&#45;&gt;Node12 -->
<g id="edge18" class="edge">
<title>Node13&#45;&gt;Node12</title>
<path fill="none" stroke="midnightblue" d="M691.13,-108.64C716.66,-98.5 752.11,-84.43 774.55,-75.52"/>
<polygon fill="midnightblue" stroke="midnightblue" points="689.55,-105.5 681.55,-112.44 692.14,-112.01 689.55,-105.5"/>
</g>
<!-- Node13&#45;&gt;Node14 -->
<g id="edge19" class="edge">
<title>Node13&#45;&gt;Node14</title>
<path fill="none" stroke="midnightblue" d="M653.45,-102.4C650.28,-93.36 646.61,-82.94 644.08,-75.75"/>
<polygon fill="midnightblue" stroke="midnightblue" points="650.24,-103.81 656.86,-112.08 656.85,-101.49 650.24,-103.81"/>
</g>
<!-- Node15 -->
<g id="node15" class="node">
<title>Node15</title>
<g id="a_node15"><a xlink:href="wing__ops_8cpp.html" target="_top" xlink:title=" ">
<polygon fill="white" stroke="black" points="492.5,-56.5 492.5,-75.5 575.5,-75.5 575.5,-56.5 492.5,-56.5"/>
<text text-anchor="middle" x="534" y="-63.5" font-family="Helvetica,sans-Serif" font-size="10.00">wing_ops.cpp</text>
</a>
</g>
</g>
<!-- Node13&#45;&gt;Node15 -->
<g id="edge21" class="edge">
<title>Node13&#45;&gt;Node15</title>
<path fill="none" stroke="midnightblue" d="M630.84,-108.5C607.22,-98.38 574.57,-84.39 553.87,-75.52"/>
<polygon fill="midnightblue" stroke="midnightblue" points="629.46,-111.72 640.03,-112.44 632.22,-105.29 629.46,-111.72"/>
</g>
<!-- Node14&#45;&gt;Node8 -->
<g id="edge20" class="edge">
<title>Node14&#45;&gt;Node8</title>
<path fill="none" stroke="midnightblue" d="M641,-45.8C641,-36.91 641,-26.78 641,-19.75"/>
<polygon fill="midnightblue" stroke="midnightblue" points="637.5,-46.08 641,-56.08 644.5,-46.08 637.5,-46.08"/>
</g>
<!-- Node16&#45;&gt;Node10 -->
<g id="edge25" class="edge">
<title>Node16&#45;&gt;Node10</title>
<path fill="none" stroke="midnightblue" d="M220.98,-160.72C230.32,-151.2 241.75,-139.56 249.41,-131.75"/>
<polygon fill="midnightblue" stroke="midnightblue" points="218.26,-158.49 213.75,-168.08 223.25,-163.4 218.26,-158.49"/>
</g>
<!-- Node17 -->
<g id="node17" class="node">
<title>Node17</title>
<g id="a_node17"><a xlink:href="_turbine_fast_8_h.html" target="_top" xlink:title=" ">
<polygon fill="white" stroke="black" points="111,-112.5 111,-131.5 193,-131.5 193,-112.5 111,-112.5"/>
<text text-anchor="middle" x="152" y="-119.5" font-family="Helvetica,sans-Serif" font-size="10.00">TurbineFast.H</text>
</a>
</g>
</g>
<!-- Node16&#45;&gt;Node17 -->
<g id="edge26" class="edge">
<title>Node16&#45;&gt;Node17</title>
<path fill="none" stroke="midnightblue" d="M189.02,-160.72C179.68,-151.2 168.25,-139.56 160.59,-131.75"/>
<polygon fill="midnightblue" stroke="midnightblue" points="186.75,-163.4 196.25,-168.08 191.74,-158.49 186.75,-163.4"/>
</g>
<!-- Node18 -->
<g id="node18" class="node">
<title>Node18</title>
<g id="a_node18"><a xlink:href="turbine__utils_8_h.html" target="_top" xlink:title=" ">
<polygon fill="white" stroke="black" points="5,-112.5 5,-131.5 93,-131.5 93,-112.5 5,-112.5"/>
<text text-anchor="middle" x="49" y="-119.5" font-family="Helvetica,sans-Serif" font-size="10.00">turbine_utils.H</text>
</a>
</g>
</g>
<!-- Node16&#45;&gt;Node18 -->
<g id="edge29" class="edge">
<title>Node16&#45;&gt;Node18</title>
<path fill="none" stroke="midnightblue" d="M170.83,-165.17C141.46,-155 99.8,-140.59 73.6,-131.52"/>
<polygon fill="midnightblue" stroke="midnightblue" points="169.69,-168.48 180.28,-168.44 171.98,-161.86 169.69,-168.48"/>
</g>
<!-- Node17&#45;&gt;Node6 -->
<g id="edge28" class="edge">
<title>Node17&#45;&gt;Node6</title>
<path fill="none" stroke="midnightblue" d="M154.19,-101.96C156.53,-88.17 161.32,-69.63 171,-56 182.52,-39.78 201.77,-27.27 215.97,-19.61"/>
<polygon fill="midnightblue" stroke="midnightblue" points="150.67,-101.83 152.74,-112.22 157.6,-102.81 150.67,-101.83"/>
</g>
<!-- Node17&#45;&gt;Node11 -->
<g id="edge27" class="edge">
<title>Node17&#45;&gt;Node11</title>
<path fill="none" stroke="midnightblue" d="M173.83,-106.62C188.81,-96.76 208.2,-83.99 220.86,-75.65"/>
<polygon fill="midnightblue" stroke="midnightblue" points="171.6,-103.9 165.17,-112.32 175.45,-109.75 171.6,-103.9"/>
</g>
<!-- Node18&#45;&gt;Node11 -->
<g id="edge30" class="edge">
<title>Node18&#45;&gt;Node11</title>
<path fill="none" stroke="midnightblue" d="M88.17,-109.57C123.07,-99.38 173.35,-84.7 204.82,-75.52"/>
<polygon fill="midnightblue" stroke="midnightblue" points="86.93,-106.28 78.31,-112.44 88.89,-113 86.93,-106.28"/>
</g>
<!-- Node19 -->
<g id="node19" class="node">
<title>Node19</title>
<g id="a_node19"><a xlink:href="turbine__utils_8cpp.html" target="_top" xlink:title=" ">
<polygon fill="white" stroke="black" points="0,-56.5 0,-75.5 98,-75.5 98,-56.5 0,-56.5"/>
<text text-anchor="middle" x="49" y="-63.5" font-family="Helvetica,sans-Serif" font-size="10.00">turbine_utils.cpp</text>
</a>
</g>
</g>
<!-- Node18&#45;&gt;Node19 -->
<g id="edge31" class="edge">
<title>Node18&#45;&gt;Node19</title>
<path fill="none" stroke="midnightblue" d="M49,-101.8C49,-92.91 49,-82.78 49,-75.75"/>
<polygon fill="midnightblue" stroke="midnightblue" points="45.5,-102.08 49,-112.08 52.5,-102.08 45.5,-102.08"/>
</g>
<!-- Node21&#45;&gt;Node13 -->
<g id="edge40" class="edge">
<title>Node21&#45;&gt;Node13</title>
<path fill="none" stroke="midnightblue" d="M795.95,-165.44C763.34,-155.26 716.59,-140.66 687.28,-131.52"/>
<polygon fill="midnightblue" stroke="midnightblue" points="795,-168.8 805.59,-168.44 797.08,-162.12 795,-168.8"/>
</g>
<!-- Node22 -->
<g id="node22" class="node">
<title>Node22</title>
<g id="a_node22"><a xlink:href="_airfoil_table_8cpp.html" target="_top" xlink:title=" ">
<polygon fill="white" stroke="black" points="899,-112.5 899,-131.5 991,-131.5 991,-112.5 899,-112.5"/>
<text text-anchor="middle" x="945" y="-119.5" font-family="Helvetica,sans-Serif" font-size="10.00">AirfoilTable.cpp</text>
</a>
</g>
</g>
<!-- Node21&#45;&gt;Node22 -->
<g id="edge34" class="edge">
<title>Node21&#45;&gt;Node22</title>
<path fill="none" stroke="midnightblue" d="M860.25,-163.86C881.02,-153.85 909.02,-140.35 927.05,-131.65"/>
<polygon fill="midnightblue" stroke="midnightblue" points="858.48,-160.83 850.99,-168.32 861.52,-167.13 858.48,-160.83"/>
</g>
<!-- Node23 -->
<g id="node23" class="node">
<title>Node23</title>
<g id="a_node23"><a xlink:href="_airfoil_table_i_8_h.html" target="_top" xlink:title=" ">
<polygon fill="white" stroke="black" points="1009.5,-112.5 1009.5,-131.5 1094.5,-131.5 1094.5,-112.5 1009.5,-112.5"/>
<text text-anchor="middle" x="1052" y="-119.5" font-family="Helvetica,sans-Serif" font-size="10.00">AirfoilTableI.H</text>
</a>
</g>
</g>
<!-- Node21&#45;&gt;Node23 -->
<g id="edge35" class="edge">
<title>Node21&#45;&gt;Node23</title>
<path fill="none" stroke="midnightblue" d="M872.46,-165.89C912.11,-155.7 972.68,-140.8 1012.38,-131.52"/>
<polygon fill="midnightblue" stroke="midnightblue" points="871.42,-162.55 862.61,-168.44 873.17,-169.33 871.42,-162.55"/>
</g>
<!-- Node24 -->
<g id="node24" class="node">
<title>Node24</title>
<g id="a_node24"><a xlink:href="_fixed_wing_8_h.html" target="_top" xlink:title=" ">
<polygon fill="white" stroke="black" points="803.5,-112.5 803.5,-131.5 880.5,-131.5 880.5,-112.5 803.5,-112.5"/>
<text text-anchor="middle" x="842" y="-119.5" font-family="Helvetica,sans-Serif" font-size="10.00">FixedWing.H</text>
</a>
</g>
</g>
<!-- Node21&#45;&gt;Node24 -->
<g id="edge37" class="edge">
<title>Node21&#45;&gt;Node24</title>
<path fill="none" stroke="midnightblue" d="M836.15,-158.1C837.64,-149.14 839.36,-138.86 840.54,-131.75"/>
<polygon fill="midnightblue" stroke="midnightblue" points="832.68,-157.64 834.49,-168.08 839.58,-158.79 832.68,-157.64"/>
</g>
<!-- Node25 -->
<g id="node25" class="node">
<title>Node25</title>
<g id="a_node25"><a xlink:href="_flat_plate_8_h.html" target="_top" xlink:title=" ">
<polygon fill="white" stroke="black" points="714.5,-112.5 714.5,-131.5 785.5,-131.5 785.5,-112.5 714.5,-112.5"/>
<text text-anchor="middle" x="750" y="-119.5" font-family="Helvetica,sans-Serif" font-size="10.00">FlatPlate.H</text>
</a>
</g>
</g>
<!-- Node21&#45;&gt;Node25 -->
<g id="edge41" class="edge">
<title>Node21&#45;&gt;Node25</title>
<path fill="none" stroke="midnightblue" d="M810.9,-162.62C795.74,-152.76 776.12,-139.99 763.3,-131.65"/>
<polygon fill="midnightblue" stroke="midnightblue" points="809.37,-165.8 819.66,-168.32 813.19,-159.94 809.37,-165.8"/>
</g>
<!-- Node23&#45;&gt;Node21 -->
<g id="edge36" class="edge">
<title>Node23&#45;&gt;Node21</title>
<path fill="none" stroke="midnightblue" d="M1012.71,-134.06C973.13,-144.25 912.55,-159.14 872.79,-168.44"/>
<polygon fill="midnightblue" stroke="midnightblue" points="1013.74,-137.41 1022.54,-131.52 1011.98,-130.63 1013.74,-137.41"/>
</g>
<!-- Node24&#45;&gt;Node7 -->
<g id="edge39" class="edge">
<title>Node24&#45;&gt;Node7</title>
<path fill="none" stroke="midnightblue" d="M852.03,-102.94C858.12,-89.43 863.4,-70.81 856,-56 847.56,-39.11 829.43,-26.92 815.3,-19.52"/>
<polygon fill="midnightblue" stroke="midnightblue" points="848.78,-101.62 847.43,-112.13 855.04,-104.76 848.78,-101.62"/>
</g>
<!-- Node24&#45;&gt;Node12 -->
<g id="edge38" class="edge">
<title>Node24&#45;&gt;Node12</title>
<path fill="none" stroke="midnightblue" d="M827.89,-104.43C819.82,-94.97 810.04,-83.48 803.45,-75.75"/>
<polygon fill="midnightblue" stroke="midnightblue" points="825.25,-106.74 834.4,-112.08 830.58,-102.2 825.25,-106.74"/>
</g>
<!-- Node25&#45;&gt;Node8 -->
<g id="edge43" class="edge">
<title>Node25&#45;&gt;Node8</title>
<path fill="none" stroke="midnightblue" d="M738.12,-104.07C728.16,-90.41 713.16,-71.06 698,-56 683.87,-41.96 665.47,-28.11 653.45,-19.56"/>
<polygon fill="midnightblue" stroke="midnightblue" points="735.49,-106.4 744.15,-112.49 741.18,-102.33 735.49,-106.4"/>
</g>
<!-- Node25&#45;&gt;Node14 -->
<g id="edge42" class="edge">
<title>Node25&#45;&gt;Node14</title>
<path fill="none" stroke="midnightblue" d="M723.48,-107.86C703.27,-97.85 676.01,-84.35 658.47,-75.65"/>
<polygon fill="midnightblue" stroke="midnightblue" points="721.97,-111.02 732.49,-112.32 725.08,-104.75 721.97,-111.02"/>
</g>
<!-- Node26&#45;&gt;Node13 -->
<g id="edge46" class="edge">
<title>Node26&#45;&gt;Node13</title>
<path fill="none" stroke="midnightblue" d="M702.11,-161.54C691.59,-151.91 678.43,-139.87 669.65,-131.83"/>
<polygon fill="midnightblue" stroke="midnightblue" points="699.78,-164.15 709.52,-168.32 704.51,-158.99 699.78,-164.15"/>
</g>
<!-- Node26&#45;&gt;Node24 -->
<g id="edge45" class="edge">
<title>Node26&#45;&gt;Node24</title>
<path fill="none" stroke="midnightblue" d="M747.77,-164.37C770.81,-154.26 802.48,-140.35 822.6,-131.52"/>
<polygon fill="midnightblue" stroke="midnightblue" points="746.24,-161.22 738.49,-168.44 749.05,-167.63 746.24,-161.22"/>
</g>
<!-- Node26&#45;&gt;Node25 -->
<g id="edge47" class="edge">
<title>Node26&#45;&gt;Node25</title>
<path fill="none" stroke="midnightblue" d="M729.18,-159.27C734.47,-150.05 740.72,-139.17 744.98,-131.75"/>
<polygon fill="midnightblue" stroke="midnightblue" points="726.06,-157.67 724.12,-168.08 732.13,-161.15 726.06,-157.67"/>
</g>
</g>
</svg>
