<?xml version="1.0" encoding="UTF-8" standalone="no"?>
<!DOCTYPE svg PUBLIC "-//W3C//DTD SVG 1.1//EN"
 "http://www.w3.org/Graphics/SVG/1.1/DTD/svg11.dtd">
<!-- Generated by graphviz version 2.43.0 (0)
 -->
<!-- Title: actuator_opsI.H Pages: 1 -->
<svg width="601pt" height="252pt"
 viewBox="0.00 0.00 600.50 252.00" xmlns="http://www.w3.org/2000/svg" xmlns:xlink="http://www.w3.org/1999/xlink">
<g id="graph0" class="graph" transform="scale(1 1) rotate(0) translate(4 248)">
<title>actuator_opsI.H</title>
<polygon fill="white" stroke="transparent" points="-4,4 -4,-248 596.5,-248 596.5,4 -4,4"/>
<!-- Node1 -->
<g id="node1" class="node">
<title>Node1</title>
<g id="a_node1"><a xlink:title=" ">
<polygon fill="#bfbfbf" stroke="black" points="274.5,-224.5 274.5,-243.5 367.5,-243.5 367.5,-224.5 274.5,-224.5"/>
<text text-anchor="middle" x="321" y="-231.5" font-family="Helvetica,sans-Serif" font-size="10.00">actuator_opsI.H</text>
</a>
</g>
</g>
<!-- Node2 -->
<g id="node2" class="node">
<title>Node2</title>
<g id="a_node2"><a xlink:href="actuator__ops_8_h.html" target="_top" xlink:title=" ">
<polygon fill="white" stroke="black" points="276,-168.5 276,-187.5 366,-187.5 366,-168.5 276,-168.5"/>
<text text-anchor="middle" x="321" y="-175.5" font-family="Helvetica,sans-Serif" font-size="10.00">actuator_ops.H</text>
</a>
</g>
</g>
<!-- Node1&#45;&gt;Node2 -->
<g id="edge1" class="edge">
<title>Node1&#45;&gt;Node2</title>
<path fill="none" stroke="midnightblue" d="M321,-213.8C321,-204.91 321,-194.78 321,-187.75"/>
<polygon fill="midnightblue" stroke="midnightblue" points="317.5,-214.08 321,-224.08 324.5,-214.08 317.5,-214.08"/>
</g>
<!-- Node3 -->
<g id="node3" class="node">
<title>Node3</title>
<g id="a_node3"><a xlink:href="_act_src_line_op_8_h.html" target="_top" xlink:title=" ">
<polygon fill="white" stroke="black" points="164,-112.5 164,-131.5 256,-131.5 256,-112.5 164,-112.5"/>
<text text-anchor="middle" x="210" y="-119.5" font-family="Helvetica,sans-Serif" font-size="10.00">ActSrcLineOp.H</text>
</a>
</g>
</g>
<!-- Node2&#45;&gt;Node3 -->
<g id="edge2" class="edge">
<title>Node2&#45;&gt;Node3</title>
<path fill="none" stroke="midnightblue" d="M293.99,-163.86C273.41,-153.85 245.66,-140.35 227.79,-131.65"/>
<polygon fill="midnightblue" stroke="midnightblue" points="292.64,-167.1 303.17,-168.32 295.7,-160.8 292.64,-167.1"/>
</g>
<!-- Node4 -->
<g id="node4" class="node">
<title>Node4</title>
<g id="a_node4"><a xlink:href="_actuator_model_8_h.html" target="_top" xlink:title=" ">
<polygon fill="white" stroke="black" points="161,-56.5 161,-75.5 259,-75.5 259,-56.5 161,-56.5"/>
<text text-anchor="middle" x="210" y="-63.5" font-family="Helvetica,sans-Serif" font-size="10.00">ActuatorModel.H</text>
</a>
</g>
</g>
<!-- Node2&#45;&gt;Node4 -->
<g id="edge8" class="edge">
<title>Node2&#45;&gt;Node4</title>
<path fill="none" stroke="midnightblue" d="M265.77,-169.32C222.91,-162.1 168.56,-149.73 155,-132 139.01,-111.1 171.85,-87.84 193.34,-75.61"/>
<polygon fill="midnightblue" stroke="midnightblue" points="265.4,-172.81 275.83,-170.96 266.52,-165.9 265.4,-172.81"/>
</g>
<!-- Node9 -->
<g id="node9" class="node">
<title>Node9</title>
<g id="a_node9"><a xlink:href="_act_src_disk_op_8_h.html" target="_top" xlink:title=" ">
<polygon fill="white" stroke="black" points="274.5,-112.5 274.5,-131.5 367.5,-131.5 367.5,-112.5 274.5,-112.5"/>
<text text-anchor="middle" x="321" y="-119.5" font-family="Helvetica,sans-Serif" font-size="10.00">ActSrcDiskOp.H</text>
</a>
</g>
</g>
<!-- Node2&#45;&gt;Node9 -->
<g id="edge9" class="edge">
<title>Node2&#45;&gt;Node9</title>
<path fill="none" stroke="midnightblue" d="M321,-157.8C321,-148.91 321,-138.78 321,-131.75"/>
<polygon fill="midnightblue" stroke="midnightblue" points="317.5,-158.08 321,-168.08 324.5,-158.08 317.5,-158.08"/>
</g>
<!-- Node10 -->
<g id="node10" class="node">
<title>Node10</title>
<g id="a_node10"><a xlink:href="turbine__fast__ops_8_h.html" target="_top" xlink:title=" ">
<polygon fill="white" stroke="black" points="0,-112.5 0,-131.5 108,-131.5 108,-112.5 0,-112.5"/>
<text text-anchor="middle" x="54" y="-119.5" font-family="Helvetica,sans-Serif" font-size="10.00">turbine_fast_ops.H</text>
</a>
</g>
</g>
<!-- Node2&#45;&gt;Node10 -->
<g id="edge11" class="edge">
<title>Node2&#45;&gt;Node10</title>
<path fill="none" stroke="midnightblue" d="M268.64,-166.41C218.18,-156.2 142.8,-140.96 96.11,-131.52"/>
<polygon fill="midnightblue" stroke="midnightblue" points="268.2,-169.89 278.69,-168.44 269.59,-163.03 268.2,-169.89"/>
</g>
<!-- Node11 -->
<g id="node11" class="node">
<title>Node11</title>
<g id="a_node11"><a xlink:href="fixed__wing__ops_8_h.html" target="_top" xlink:title=" ">
<polygon fill="white" stroke="black" points="277.5,-56.5 277.5,-75.5 378.5,-75.5 378.5,-56.5 277.5,-56.5"/>
<text text-anchor="middle" x="328" y="-63.5" font-family="Helvetica,sans-Serif" font-size="10.00">fixed_wing_ops.H</text>
</a>
</g>
</g>
<!-- Node2&#45;&gt;Node11 -->
<g id="edge13" class="edge">
<title>Node2&#45;&gt;Node11</title>
<path fill="none" stroke="midnightblue" d="M347.32,-163.05C358.66,-155.51 370.75,-145.05 377,-132 387.75,-109.57 360.56,-87.26 342.51,-75.5"/>
<polygon fill="midnightblue" stroke="midnightblue" points="345.19,-160.25 338.5,-168.46 348.85,-166.21 345.19,-160.25"/>
</g>
<!-- Node12 -->
<g id="node12" class="node">
<title>Node12</title>
<g id="a_node12"><a xlink:href="wing__ops_8_h.html" target="_top" xlink:title=" ">
<polygon fill="white" stroke="black" points="424.5,-112.5 424.5,-131.5 497.5,-131.5 497.5,-112.5 424.5,-112.5"/>
<text text-anchor="middle" x="461" y="-119.5" font-family="Helvetica,sans-Serif" font-size="10.00">wing_ops.H</text>
</a>
</g>
</g>
<!-- Node2&#45;&gt;Node12 -->
<g id="edge15" class="edge">
<title>Node2&#45;&gt;Node12</title>
<path fill="none" stroke="midnightblue" d="M352.7,-164.77C379,-154.63 415.72,-140.47 438.92,-131.52"/>
<polygon fill="midnightblue" stroke="midnightblue" points="351.25,-161.58 343.18,-168.44 353.77,-168.11 351.25,-161.58"/>
</g>
<!-- Node13 -->
<g id="node13" class="node">
<title>Node13</title>
<g id="a_node13"><a xlink:href="flat__plate__ops_8_h.html" target="_top" xlink:title=" ">
<polygon fill="white" stroke="black" points="497.5,-56.5 497.5,-75.5 592.5,-75.5 592.5,-56.5 497.5,-56.5"/>
<text text-anchor="middle" x="545" y="-63.5" font-family="Helvetica,sans-Serif" font-size="10.00">flat_plate_ops.H</text>
</a>
</g>
</g>
<!-- Node2&#45;&gt;Node13 -->
<g id="edge20" class="edge">
<title>Node2&#45;&gt;Node13</title>
<path fill="none" stroke="midnightblue" d="M376.18,-174.94C415.96,-170.94 469.11,-160.18 507,-132 526.51,-117.49 537.73,-89.75 542.41,-75.67"/>
<polygon fill="midnightblue" stroke="midnightblue" points="375.76,-171.46 366.11,-175.84 376.38,-178.43 375.76,-171.46"/>
</g>
<!-- Node3&#45;&gt;Node4 -->
<g id="edge3" class="edge">
<title>Node3&#45;&gt;Node4</title>
<path fill="none" stroke="midnightblue" d="M210,-101.8C210,-92.91 210,-82.78 210,-75.75"/>
<polygon fill="midnightblue" stroke="midnightblue" points="206.5,-102.08 210,-112.08 213.5,-102.08 206.5,-102.08"/>
</g>
<!-- Node5 -->
<g id="node5" class="node">
<title>Node5</title>
<g id="a_node5"><a xlink:href="_actuator_8cpp.html" target="_top" xlink:title=" ">
<polygon fill="white" stroke="black" points="171.5,-0.5 171.5,-19.5 248.5,-19.5 248.5,-0.5 171.5,-0.5"/>
<text text-anchor="middle" x="210" y="-7.5" font-family="Helvetica,sans-Serif" font-size="10.00">Actuator.cpp</text>
</a>
</g>
</g>
<!-- Node4&#45;&gt;Node5 -->
<g id="edge4" class="edge">
<title>Node4&#45;&gt;Node5</title>
<path fill="none" stroke="midnightblue" d="M210,-45.8C210,-36.91 210,-26.78 210,-19.75"/>
<polygon fill="midnightblue" stroke="midnightblue" points="206.5,-46.08 210,-56.08 213.5,-46.08 206.5,-46.08"/>
</g>
<!-- Node6 -->
<g id="node6" class="node">
<title>Node6</title>
<g id="a_node6"><a xlink:href="_turbine_fast_8cpp.html" target="_top" xlink:title=" ">
<polygon fill="white" stroke="black" points="48,-0.5 48,-19.5 140,-19.5 140,-0.5 48,-0.5"/>
<text text-anchor="middle" x="94" y="-7.5" font-family="Helvetica,sans-Serif" font-size="10.00">TurbineFast.cpp</text>
</a>
</g>
</g>
<!-- Node4&#45;&gt;Node6 -->
<g id="edge5" class="edge">
<title>Node4&#45;&gt;Node6</title>
<path fill="none" stroke="midnightblue" d="M182.28,-52.1C160.61,-42.01 131.1,-28.27 112.29,-19.52"/>
<polygon fill="midnightblue" stroke="midnightblue" points="181.08,-55.4 191.62,-56.44 184.03,-49.05 181.08,-55.4"/>
</g>
<!-- Node7 -->
<g id="node7" class="node">
<title>Node7</title>
<g id="a_node7"><a xlink:href="_fixed_wing_8cpp.html" target="_top" xlink:title=" ">
<polygon fill="white" stroke="black" points="275.5,-0.5 275.5,-19.5 362.5,-19.5 362.5,-0.5 275.5,-0.5"/>
<text text-anchor="middle" x="319" y="-7.5" font-family="Helvetica,sans-Serif" font-size="10.00">FixedWing.cpp</text>
</a>
</g>
</g>
<!-- Node4&#45;&gt;Node7 -->
<g id="edge6" class="edge">
<title>Node4&#45;&gt;Node7</title>
<path fill="none" stroke="midnightblue" d="M236.52,-51.86C256.73,-41.85 283.99,-28.35 301.53,-19.65"/>
<polygon fill="midnightblue" stroke="midnightblue" points="234.92,-48.75 227.51,-56.32 238.03,-55.02 234.92,-48.75"/>
</g>
<!-- Node8 -->
<g id="node8" class="node">
<title>Node8</title>
<g id="a_node8"><a xlink:href="_flat_plate_8cpp.html" target="_top" xlink:title=" ">
<polygon fill="white" stroke="black" points="438,-0.5 438,-19.5 518,-19.5 518,-0.5 438,-0.5"/>
<text text-anchor="middle" x="478" y="-7.5" font-family="Helvetica,sans-Serif" font-size="10.00">FlatPlate.cpp</text>
</a>
</g>
</g>
<!-- Node4&#45;&gt;Node8 -->
<g id="edge7" class="edge">
<title>Node4&#45;&gt;Node8</title>
<path fill="none" stroke="midnightblue" d="M262.39,-54.44C313.84,-44.08 391.2,-28.49 437.92,-19.08"/>
<polygon fill="midnightblue" stroke="midnightblue" points="261.58,-51.04 252.47,-56.44 262.96,-57.9 261.58,-51.04"/>
</g>
<!-- Node9&#45;&gt;Node4 -->
<g id="edge10" class="edge">
<title>Node9&#45;&gt;Node4</title>
<path fill="none" stroke="midnightblue" d="M293.99,-107.86C273.41,-97.85 245.66,-84.35 227.79,-75.65"/>
<polygon fill="midnightblue" stroke="midnightblue" points="292.64,-111.1 303.17,-112.32 295.7,-104.8 292.64,-111.1"/>
</g>
<!-- Node10&#45;&gt;Node6 -->
<g id="edge12" class="edge">
<title>Node10&#45;&gt;Node6</title>
<path fill="none" stroke="midnightblue" d="M60.66,-102.67C69.41,-78.62 84.4,-37.39 90.88,-19.59"/>
<polygon fill="midnightblue" stroke="midnightblue" points="57.27,-101.77 57.14,-112.37 63.85,-104.17 57.27,-101.77"/>
</g>
<!-- Node11&#45;&gt;Node7 -->
<g id="edge14" class="edge">
<title>Node11&#45;&gt;Node7</title>
<path fill="none" stroke="midnightblue" d="M324.85,-46.1C323.36,-37.14 321.64,-26.86 320.46,-19.75"/>
<polygon fill="midnightblue" stroke="midnightblue" points="321.42,-46.79 326.51,-56.08 328.32,-45.64 321.42,-46.79"/>
</g>
<!-- Node12&#45;&gt;Node11 -->
<g id="edge16" class="edge">
<title>Node12&#45;&gt;Node11</title>
<path fill="none" stroke="midnightblue" d="M430.55,-108.64C405.59,-98.5 370.92,-84.43 348.98,-75.52"/>
<polygon fill="midnightblue" stroke="midnightblue" points="429.34,-111.92 439.93,-112.44 431.98,-105.44 429.34,-111.92"/>
</g>
<!-- Node12&#45;&gt;Node13 -->
<g id="edge17" class="edge">
<title>Node12&#45;&gt;Node13</title>
<path fill="none" stroke="midnightblue" d="M482.93,-106.9C498.34,-97 518.45,-84.07 531.54,-75.65"/>
<polygon fill="midnightblue" stroke="midnightblue" points="481.02,-103.97 474.5,-112.32 484.8,-109.86 481.02,-103.97"/>
</g>
<!-- Node14 -->
<g id="node14" class="node">
<title>Node14</title>
<g id="a_node14"><a xlink:href="wing__ops_8cpp.html" target="_top" xlink:title=" ">
<polygon fill="white" stroke="black" points="396.5,-56.5 396.5,-75.5 479.5,-75.5 479.5,-56.5 396.5,-56.5"/>
<text text-anchor="middle" x="438" y="-63.5" font-family="Helvetica,sans-Serif" font-size="10.00">wing_ops.cpp</text>
</a>
</g>
</g>
<!-- Node12&#45;&gt;Node14 -->
<g id="edge19" class="edge">
<title>Node12&#45;&gt;Node14</title>
<path fill="none" stroke="midnightblue" d="M453.2,-102.69C449.32,-93.59 444.82,-83.01 441.73,-75.75"/>
<polygon fill="midnightblue" stroke="midnightblue" points="450.06,-104.25 457.2,-112.08 456.5,-101.51 450.06,-104.25"/>
</g>
<!-- Node13&#45;&gt;Node8 -->
<g id="edge18" class="edge">
<title>Node13&#45;&gt;Node8</title>
<path fill="none" stroke="midnightblue" d="M526.17,-49.82C514.16,-40.15 499.03,-27.95 488.96,-19.83"/>
<polygon fill="midnightblue" stroke="midnightblue" points="524.25,-52.77 534.24,-56.32 528.65,-47.32 524.25,-52.77"/>
</g>
</g>
</svg>
