<?xml version="1.0" encoding="UTF-8" standalone="no"?>
<!DOCTYPE svg PUBLIC "-//W3C//DTD SVG 1.1//EN"
 "http://www.w3.org/Graphics/SVG/1.1/DTD/svg11.dtd">
<!-- Generated by graphviz version 2.43.0 (0)
 -->
<!-- Title: amr&#45;wind Pages: 1 -->
<!--zoomable 724 -->
<svg id="main" version="1.1" xmlns="http://www.w3.org/2000/svg" xmlns:xlink="http://www.w3.org/1999/xlink" xml:space="preserve" onload="init(evt)">
<style type="text/css"><![CDATA[
.edge:hover path { stroke: red; }
.edge:hover polygon { stroke: red; fill: red; }
]]></style>
<script type="text/javascript"><![CDATA[
var edges = document.getElementsByTagName('g');
if (edges && edges.length) {
  for (var i=0;i<edges.length;i++) {
    if (edges[i].id.substr(0,4)=='edge') {
      edges[i].setAttribute('class','edge');
    }
  }
}
]]></script>
        <defs>
                <circle id="rim" cx="0" cy="0" r="7"/>
                <circle id="rim2" cx="0" cy="0" r="3.5"/>
                <g id="zoomPlus">
                        <use xlink:href="#rim" fill="#404040">
                                <set attributeName="fill" to="#808080" begin="zoomplus.mouseover" end="zoomplus.mouseout"/>
                        </use>
                        <path d="M-4,0h8M0,-4v8" fill="none" stroke="white" stroke-width="1.5" pointer-events="none"/>
                </g>
                <g id="zoomMin">
                        <use xlink:href="#rim" fill="#404040">
                                <set attributeName="fill" to="#808080" begin="zoomminus.mouseover" end="zoomminus.mouseout"/>
                        </use>
                        <path d="M-4,0h8" fill="none" stroke="white" stroke-width="1.5" pointer-events="none"/>
                </g>
                <g id="dirArrow">
                        <path fill="none" stroke="white" stroke-width="1.5" d="M0,-3.0v7 M-2.5,-0.5L0,-3.0L2.5,-0.5"/>
                </g>
               <g id="resetDef">
                       <use xlink:href="#rim2" fill="#404040">
                               <set attributeName="fill" to="#808080" begin="reset.mouseover" end="reset.mouseout"/>
                       </use>
               </g>
        </defs>

<script type="text/javascript">
var viewWidth = 740;
var viewHeight = 724;
var sectionId = 'dynsection-0';
</script>
<script xlink:href="svgpan.js"/>
<svg id="graph" class="graph">
<g id="viewport">
<title>amr&#45;wind</title>
<polygon fill="white" stroke="transparent" points="-4,4 -4,-720 736,-720 736,4 -4,4"/>
<g id="clust1" class="cluster">
<title>clusterdir_d85575251dd712327fe3cf057fa568b4</title>
<g id="a_clust1"><a xlink:href="dir_d85575251dd712327fe3cf057fa568b4.html" target="_top">
<polygon fill="#eeeeff" stroke="black" points="8,-8 8,-708 724,-708 724,-8 8,-8"/>
</a>
</g>
</g>
<!-- dir_d85575251dd712327fe3cf057fa568b4 -->
<g id="node1" class="node">
<title>dir_d85575251dd712327fe3cf057fa568b4</title>
<text text-anchor="middle" x="395" y="-679.5" font-family="Helvetica,sans-Serif" font-size="10.00">amr&#45;wind</text>
</g>
<!-- dir_4bb30ed846ea1df1fc4d16874a455d91 -->
<g id="node7" class="node">
<title>dir_4bb30ed846ea1df1fc4d16874a455d91</title>
<g id="a_node7"><a xlink:href="dir_4bb30ed846ea1df1fc4d16874a455d91.html" target="_top" xlink:title="equation_systems">
<polygon fill="white" stroke="red" points="448,-556 342,-556 342,-520 448,-520 448,-556"/>
<text text-anchor="middle" x="395" y="-535.5" font-family="Helvetica,sans-Serif" font-size="10.00">equation_systems</text>
</a>
</g>
</g>
<!-- dir_d85575251dd712327fe3cf057fa568b4&#45;&gt;dir_4bb30ed846ea1df1fc4d16874a455d91 -->
<g id="edge11" class="edge">
<title>dir_d85575251dd712327fe3cf057fa568b4&#45;&gt;dir_4bb30ed846ea1df1fc4d16874a455d91</title>
<path fill="none" stroke="black" d="M395,-663.87C395,-639.67 395,-595.21 395,-566.39"/>
<polygon fill="black" stroke="black" points="398.5,-566.19 395,-556.19 391.5,-566.19 398.5,-566.19"/>
<g id="a_edge11&#45;headlabel"><a xlink:href="dir_000000_000002.html" target="_top" xlink:title="23">
<text text-anchor="middle" x="401.34" y="-567.28" font-family="Helvetica,sans-Serif" font-size="10.00">23</text>
</a>
</g>
</g>
<!-- dir_629222d9fcf2f4ceefae477297f2ec84 -->
<g id="node9" class="node">
<title>dir_629222d9fcf2f4ceefae477297f2ec84</title>
<g id="a_node9"><a xlink:href="dir_629222d9fcf2f4ceefae477297f2ec84.html" target="_top" xlink:title="overset">
<polygon fill="white" stroke="black" points="615,-628 561,-628 561,-592 615,-592 615,-628"/>
<text text-anchor="middle" x="588" y="-607.5" font-family="Helvetica,sans-Serif" font-size="10.00">overset</text>
</a>
</g>
</g>
<!-- dir_d85575251dd712327fe3cf057fa568b4&#45;&gt;dir_629222d9fcf2f4ceefae477297f2ec84 -->
<g id="edge10" class="edge">
<title>dir_d85575251dd712327fe3cf057fa568b4&#45;&gt;dir_629222d9fcf2f4ceefae477297f2ec84</title>
<path fill="none" stroke="black" d="M426.87,-669.44C461.02,-657.05 515.17,-637.41 551.14,-624.37"/>
<polygon fill="black" stroke="black" points="552.56,-627.58 560.77,-620.88 550.17,-621 552.56,-627.58"/>
<g id="a_edge10&#45;headlabel"><a xlink:href="dir_000000_000038.html" target="_top" xlink:title="2">
<text text-anchor="middle" x="550.15" y="-628.97" font-family="Helvetica,sans-Serif" font-size="10.00">2</text>
</a>
</g>
</g>
<!-- dir_9ff815a534beac751fa88e427dbab695 -->
<g id="node14" class="node">
<title>dir_9ff815a534beac751fa88e427dbab695</title>
<g id="a_node14"><a xlink:href="dir_9ff815a534beac751fa88e427dbab695.html" target="_top" xlink:title="turbulence">
<polygon fill="white" stroke="red" points="91,-340 23,-340 23,-304 91,-304 91,-340"/>
<text text-anchor="middle" x="57" y="-319.5" font-family="Helvetica,sans-Serif" font-size="10.00">turbulence</text>
</a>
</g>
</g>
<!-- dir_d85575251dd712327fe3cf057fa568b4&#45;&gt;dir_9ff815a534beac751fa88e427dbab695 -->
<g id="edge9" class="edge">
<title>dir_d85575251dd712327fe3cf057fa568b4&#45;&gt;dir_9ff815a534beac751fa88e427dbab695</title>
<path fill="none" stroke="black" d="M363.45,-680.96C283.83,-679.05 81,-662.1 81,-539 81,-539 81,-539 81,-465 81,-424.65 71.46,-378.74 64.41,-350.32"/>
<polygon fill="black" stroke="black" points="67.73,-349.15 61.86,-340.33 60.94,-350.88 67.73,-349.15"/>
<g id="a_edge9&#45;headlabel"><a xlink:href="dir_000000_000026.html" target="_top" xlink:title="7">
<text text-anchor="middle" x="71.37" y="-349.43" font-family="Helvetica,sans-Serif" font-size="10.00">7</text>
</a>
</g>
</g>
<!-- dir_ebb19deee3cd40f4ac122fef25c04ca8 -->
<g id="node2" class="node">
<title>dir_ebb19deee3cd40f4ac122fef25c04ca8</title>
<g id="a_node2"><a xlink:href="dir_ebb19deee3cd40f4ac122fef25c04ca8.html" target="_top" xlink:title="boundary_conditions">
<polygon fill="white" stroke="black" points="330,-484 212,-484 212,-448 330,-448 330,-484"/>
<text text-anchor="middle" x="271" y="-463.5" font-family="Helvetica,sans-Serif" font-size="10.00">boundary_conditions</text>
</a>
</g>
</g>
<!-- dir_3d3615e9a999cab4f3407307569d6ced -->
<g id="node4" class="node">
<title>dir_3d3615e9a999cab4f3407307569d6ced</title>
<g id="a_node4"><a xlink:href="dir_3d3615e9a999cab4f3407307569d6ced.html" target="_top" xlink:title="core">
<polygon fill="white" stroke="red" points="396,-196 342,-196 342,-160 396,-160 396,-196"/>
<text text-anchor="middle" x="369" y="-175.5" font-family="Helvetica,sans-Serif" font-size="10.00">core</text>
</a>
</g>
</g>
<!-- dir_ebb19deee3cd40f4ac122fef25c04ca8&#45;&gt;dir_3d3615e9a999cab4f3407307569d6ced -->
<g id="edge29" class="edge">
<title>dir_ebb19deee3cd40f4ac122fef25c04ca8&#45;&gt;dir_3d3615e9a999cab4f3407307569d6ced</title>
<path fill="none" stroke="black" d="M271.41,-447.58C274.97,-437.35 280.72,-424.1 285,-412 312.7,-333.73 306.07,-309.83 335,-232 338.33,-223.04 342.59,-213.51 347.08,-205.04"/>
<polygon fill="black" stroke="black" points="350.13,-206.77 352.03,-196.35 344.04,-203.31 350.13,-206.77"/>
<g id="a_edge29&#45;headlabel"><a xlink:href="dir_000010_000013.html" target="_top" xlink:title="8">
<text text-anchor="middle" x="350.82" y="-208.8" font-family="Helvetica,sans-Serif" font-size="10.00">8</text>
</a>
</g>
</g>
<!-- dir_f2c65bfcbdc19ebacbfc0bbbfb0d01b6 -->
<g id="node10" class="node">
<title>dir_f2c65bfcbdc19ebacbfc0bbbfb0d01b6</title>
<g id="a_node10"><a xlink:href="dir_f2c65bfcbdc19ebacbfc0bbbfb0d01b6.html" target="_top" xlink:title="physics">
<polygon fill="white" stroke="red" points="285,-412 231,-412 231,-376 285,-376 285,-412"/>
<text text-anchor="middle" x="258" y="-391.5" font-family="Helvetica,sans-Serif" font-size="10.00">physics</text>
</a>
</g>
</g>
<!-- dir_ebb19deee3cd40f4ac122fef25c04ca8&#45;&gt;dir_f2c65bfcbdc19ebacbfc0bbbfb0d01b6 -->
<g id="edge28" class="edge">
<title>dir_ebb19deee3cd40f4ac122fef25c04ca8&#45;&gt;dir_f2c65bfcbdc19ebacbfc0bbbfb0d01b6</title>
<path fill="none" stroke="black" d="M267.79,-447.7C266.35,-439.98 264.63,-430.71 263.04,-422.11"/>
<polygon fill="black" stroke="black" points="266.44,-421.3 261.18,-412.1 259.56,-422.58 266.44,-421.3"/>
<g id="a_edge28&#45;headlabel"><a xlink:href="dir_000010_000011.html" target="_top" xlink:title="2">
<text text-anchor="middle" x="269.89" y="-421.81" font-family="Helvetica,sans-Serif" font-size="10.00">2</text>
</a>
</g>
</g>
<!-- dir_35ffb1505af3943bdf99903da87524fe -->
<g id="node3" class="node">
<title>dir_35ffb1505af3943bdf99903da87524fe</title>
<g id="a_node3"><a xlink:href="dir_35ffb1505af3943bdf99903da87524fe.html" target="_top" xlink:title="convection">
<polygon fill="white" stroke="black" points="556,-268 486,-268 486,-232 556,-232 556,-268"/>
<text text-anchor="middle" x="521" y="-247.5" font-family="Helvetica,sans-Serif" font-size="10.00">convection</text>
</a>
</g>
</g>
<!-- dir_35ffb1505af3943bdf99903da87524fe&#45;&gt;dir_3d3615e9a999cab4f3407307569d6ced -->
<g id="edge22" class="edge">
<title>dir_35ffb1505af3943bdf99903da87524fe&#45;&gt;dir_3d3615e9a999cab4f3407307569d6ced</title>
<path fill="none" stroke="black" d="M485.75,-232.76C461.75,-221.71 430.05,-207.11 405.74,-195.92"/>
<polygon fill="black" stroke="black" points="407.03,-192.66 396.48,-191.66 404.1,-199.02 407.03,-192.66"/>
<g id="a_edge22&#45;headlabel"><a xlink:href="dir_000022_000013.html" target="_top" xlink:title="2">
<text text-anchor="middle" x="411.48" y="-189.08" font-family="Helvetica,sans-Serif" font-size="10.00">2</text>
</a>
</g>
</g>
<!-- dir_e4cd57caa88bf1f4e1bf9521bc47c3c0 -->
<g id="node15" class="node">
<title>dir_e4cd57caa88bf1f4e1bf9521bc47c3c0</title>
<g id="a_node15"><a xlink:href="dir_e4cd57caa88bf1f4e1bf9521bc47c3c0.html" target="_top" xlink:title="utilities">
<polygon fill="white" stroke="red" points="548,-124 494,-124 494,-88 548,-88 548,-124"/>
<text text-anchor="middle" x="521" y="-103.5" font-family="Helvetica,sans-Serif" font-size="10.00">utilities</text>
</a>
</g>
</g>
<!-- dir_35ffb1505af3943bdf99903da87524fe&#45;&gt;dir_e4cd57caa88bf1f4e1bf9521bc47c3c0 -->
<g id="edge21" class="edge">
<title>dir_35ffb1505af3943bdf99903da87524fe&#45;&gt;dir_e4cd57caa88bf1f4e1bf9521bc47c3c0</title>
<path fill="none" stroke="black" d="M521,-231.87C521,-207.67 521,-163.21 521,-134.39"/>
<polygon fill="black" stroke="black" points="524.5,-134.19 521,-124.19 517.5,-134.19 524.5,-134.19"/>
<g id="a_edge21&#45;headlabel"><a xlink:href="dir_000022_000009.html" target="_top" xlink:title="3">
<text text-anchor="middle" x="527.34" y="-135.28" font-family="Helvetica,sans-Serif" font-size="10.00">3</text>
</a>
</g>
</g>
<!-- dir_3d3615e9a999cab4f3407307569d6ced&#45;&gt;dir_ebb19deee3cd40f4ac122fef25c04ca8 -->
<g id="edge47" class="edge">
<title>dir_3d3615e9a999cab4f3407307569d6ced&#45;&gt;dir_ebb19deee3cd40f4ac122fef25c04ca8</title>
<path fill="none" stroke="black" d="M367.78,-196.35C363.79,-206.54 357.54,-219.79 353,-232 324.07,-309.83 330.7,-333.73 303,-412 299.89,-420.79 296,-430.19 291.88,-438.6"/>
<polygon fill="black" stroke="black" points="288.72,-437.1 287.16,-447.58 294.91,-440.35 288.72,-437.1"/>
<g id="a_edge47&#45;headlabel"><a xlink:href="dir_000013_000010.html" target="_top" xlink:title="1">
<text text-anchor="middle" x="287.88" y="-430.09" font-family="Helvetica,sans-Serif" font-size="10.00">1</text>
</a>
</g>
</g>
<!-- dir_3d3615e9a999cab4f3407307569d6ced&#45;&gt;dir_e4cd57caa88bf1f4e1bf9521bc47c3c0 -->
<g id="edge48" class="edge">
<title>dir_3d3615e9a999cab4f3407307569d6ced&#45;&gt;dir_e4cd57caa88bf1f4e1bf9521bc47c3c0</title>
<path fill="none" stroke="black" d="M396.3,-161.81C421.07,-149.73 457.57,-132.94 484.75,-121.14"/>
<polygon fill="black" stroke="black" points="486.14,-124.35 493.95,-117.19 483.38,-117.92 486.14,-124.35"/>
<g id="a_edge48&#45;headlabel"><a xlink:href="dir_000013_000009.html" target="_top" xlink:title="1">
<text text-anchor="middle" x="483.96" y="-125.88" font-family="Helvetica,sans-Serif" font-size="10.00">1</text>
</a>
</g>
</g>
<!-- dir_63a0b6c750cdf58b4c6ba486311e48e1 -->
<g id="node5" class="node">
<title>dir_63a0b6c750cdf58b4c6ba486311e48e1</title>
<g id="a_node5"><a xlink:href="dir_63a0b6c750cdf58b4c6ba486311e48e1.html" target="_top" xlink:title="derive">
<polygon fill="white" stroke="black" points="150,-268 96,-268 96,-232 150,-232 150,-268"/>
<text text-anchor="middle" x="123" y="-247.5" font-family="Helvetica,sans-Serif" font-size="10.00">derive</text>
</a>
</g>
</g>
<!-- dir_63a0b6c750cdf58b4c6ba486311e48e1&#45;&gt;dir_3d3615e9a999cab4f3407307569d6ced -->
<g id="edge30" class="edge">
<title>dir_63a0b6c750cdf58b4c6ba486311e48e1&#45;&gt;dir_3d3615e9a999cab4f3407307569d6ced</title>
<path fill="none" stroke="black" d="M150.29,-235.45C153.19,-234.2 156.14,-233.03 159,-232 218.19,-210.78 289.65,-194.67 332.1,-186.05"/>
<polygon fill="black" stroke="black" points="332.87,-189.46 341.98,-184.07 331.49,-182.6 332.87,-189.46"/>
<g id="a_edge30&#45;headlabel"><a xlink:href="dir_000021_000013.html" target="_top" xlink:title="1">
<text text-anchor="middle" x="329.9" y="-190.45" font-family="Helvetica,sans-Serif" font-size="10.00">1</text>
</a>
</g>
</g>
<!-- dir_a816a247b59c90f95e41afe29b966a18 -->
<g id="node6" class="node">
<title>dir_a816a247b59c90f95e41afe29b966a18</title>
<g id="a_node6"><a xlink:href="dir_a816a247b59c90f95e41afe29b966a18.html" target="_top" xlink:title="diffusion">
<polygon fill="white" stroke="black" points="447.5,-268 388.5,-268 388.5,-232 447.5,-232 447.5,-268"/>
<text text-anchor="middle" x="418" y="-247.5" font-family="Helvetica,sans-Serif" font-size="10.00">diffusion</text>
</a>
</g>
</g>
<!-- dir_a816a247b59c90f95e41afe29b966a18&#45;&gt;dir_3d3615e9a999cab4f3407307569d6ced -->
<g id="edge38" class="edge">
<title>dir_a816a247b59c90f95e41afe29b966a18&#45;&gt;dir_3d3615e9a999cab4f3407307569d6ced</title>
<path fill="none" stroke="black" d="M405.89,-231.7C400.13,-223.47 393.14,-213.48 386.79,-204.42"/>
<polygon fill="black" stroke="black" points="389.58,-202.29 380.97,-196.1 383.84,-206.3 389.58,-202.29"/>
<g id="a_edge38&#45;headlabel"><a xlink:href="dir_000018_000013.html" target="_top" xlink:title="1">
<text text-anchor="middle" x="393.96" y="-201.11" font-family="Helvetica,sans-Serif" font-size="10.00">1</text>
</a>
</g>
</g>
<!-- dir_4bb30ed846ea1df1fc4d16874a455d91&#45;&gt;dir_ebb19deee3cd40f4ac122fef25c04ca8 -->
<g id="edge43" class="edge">
<title>dir_4bb30ed846ea1df1fc4d16874a455d91&#45;&gt;dir_ebb19deee3cd40f4ac122fef25c04ca8</title>
<path fill="none" stroke="black" d="M364.67,-519.88C348.3,-510.64 327.92,-499.13 310.35,-489.21"/>
<polygon fill="black" stroke="black" points="311.88,-486.06 301.45,-484.19 308.44,-492.15 311.88,-486.06"/>
<g id="a_edge43&#45;headlabel"><a xlink:href="dir_000002_000010.html" target="_top" xlink:title="2">
<text text-anchor="middle" x="316.41" y="-482.85" font-family="Helvetica,sans-Serif" font-size="10.00">2</text>
</a>
</g>
</g>
<!-- dir_4bb30ed846ea1df1fc4d16874a455d91&#45;&gt;dir_35ffb1505af3943bdf99903da87524fe -->
<g id="edge41" class="edge">
<title>dir_4bb30ed846ea1df1fc4d16874a455d91&#45;&gt;dir_35ffb1505af3943bdf99903da87524fe</title>
<path fill="none" stroke="black" d="M413.05,-519.99C422.24,-510.31 432.76,-497.45 439,-484 473.2,-410.29 434.48,-376.59 471,-304 476.31,-293.44 484.4,-283.54 492.54,-275.21"/>
<polygon fill="black" stroke="black" points="495.2,-277.5 499.94,-268.03 490.33,-272.48 495.2,-277.5"/>
<g id="a_edge41&#45;headlabel"><a xlink:href="dir_000002_000022.html" target="_top" xlink:title="2">
<text text-anchor="middle" x="494.59" y="-279.54" font-family="Helvetica,sans-Serif" font-size="10.00">2</text>
</a>
</g>
</g>
<!-- dir_4bb30ed846ea1df1fc4d16874a455d91&#45;&gt;dir_3d3615e9a999cab4f3407307569d6ced -->
<g id="edge46" class="edge">
<title>dir_4bb30ed846ea1df1fc4d16874a455d91&#45;&gt;dir_3d3615e9a999cab4f3407307569d6ced</title>
<path fill="none" stroke="black" d="M379.97,-519.58C372.38,-509.78 363.78,-496.94 359,-484 345.19,-446.67 349,-434.8 349,-395 349,-395 349,-395 349,-321 349,-280.82 356.95,-234.87 362.82,-206.39"/>
<polygon fill="black" stroke="black" points="366.3,-206.89 364.95,-196.38 359.45,-205.43 366.3,-206.89"/>
<g id="a_edge46&#45;headlabel"><a xlink:href="dir_000002_000013.html" target="_top" xlink:title="54">
<text text-anchor="middle" x="368.33" y="-208.49" font-family="Helvetica,sans-Serif" font-size="10.00">54</text>
</a>
</g>
</g>
<!-- dir_4bb30ed846ea1df1fc4d16874a455d91&#45;&gt;dir_a816a247b59c90f95e41afe29b966a18 -->
<g id="edge45" class="edge">
<title>dir_4bb30ed846ea1df1fc4d16874a455d91&#45;&gt;dir_a816a247b59c90f95e41afe29b966a18</title>
<path fill="none" stroke="black" d="M410.61,-519.77C418.37,-510.03 426.95,-497.18 431,-484 453.1,-412.12 436.32,-321.98 425.42,-277.85"/>
<polygon fill="black" stroke="black" points="428.81,-276.97 422.93,-268.16 422.03,-278.71 428.81,-276.97"/>
<g id="a_edge45&#45;headlabel"><a xlink:href="dir_000002_000018.html" target="_top" xlink:title="1">
<text text-anchor="middle" x="432.45" y="-277.25" font-family="Helvetica,sans-Serif" font-size="10.00">1</text>
</a>
</g>
</g>
<!-- dir_4bb30ed846ea1df1fc4d16874a455d91&#45;&gt;dir_f2c65bfcbdc19ebacbfc0bbbfb0d01b6 -->
<g id="edge40" class="edge">
<title>dir_4bb30ed846ea1df1fc4d16874a455d91&#45;&gt;dir_f2c65bfcbdc19ebacbfc0bbbfb0d01b6</title>
<path fill="none" stroke="black" d="M341.84,-530.64C288.33,-522.62 211.54,-507.04 194,-484 177.27,-462.02 199.82,-434.75 222.78,-416.23"/>
<polygon fill="black" stroke="black" points="225.03,-418.92 230.85,-410.07 220.78,-413.35 225.03,-418.92"/>
<g id="a_edge40&#45;headlabel"><a xlink:href="dir_000002_000011.html" target="_top" xlink:title="2">
<text text-anchor="middle" x="223.89" y="-420.85" font-family="Helvetica,sans-Serif" font-size="10.00">2</text>
</a>
</g>
</g>
<!-- dir_4bb30ed846ea1df1fc4d16874a455d91&#45;&gt;dir_9ff815a534beac751fa88e427dbab695 -->
<g id="edge39" class="edge">
<title>dir_4bb30ed846ea1df1fc4d16874a455d91&#45;&gt;dir_9ff815a534beac751fa88e427dbab695</title>
<path fill="none" stroke="black" d="M341.98,-532.93C296.79,-527.35 231.98,-514.28 184,-484 129.13,-449.37 85.02,-385.47 66.08,-349.46"/>
<polygon fill="black" stroke="black" points="69.01,-347.48 61.42,-340.09 62.74,-350.6 69.01,-347.48"/>
<g id="a_edge39&#45;headlabel"><a xlink:href="dir_000002_000026.html" target="_top" xlink:title="4">
<text text-anchor="middle" x="73.15" y="-346.94" font-family="Helvetica,sans-Serif" font-size="10.00">4</text>
</a>
</g>
</g>
<!-- dir_4bb30ed846ea1df1fc4d16874a455d91&#45;&gt;dir_e4cd57caa88bf1f4e1bf9521bc47c3c0 -->
<g id="edge44" class="edge">
<title>dir_4bb30ed846ea1df1fc4d16874a455d91&#45;&gt;dir_e4cd57caa88bf1f4e1bf9521bc47c3c0</title>
<path fill="none" stroke="black" d="M448.08,-521.68C499.86,-503.9 576.81,-469.42 619,-412 685.61,-321.33 708.56,-251.43 643,-160 623.29,-132.5 586.18,-119.12 558.04,-112.7"/>
<polygon fill="black" stroke="black" points="558.64,-109.25 548.13,-110.64 557.21,-116.1 558.64,-109.25"/>
<g id="a_edge44&#45;headlabel"><a xlink:href="dir_000002_000009.html" target="_top" xlink:title="9">
<text text-anchor="middle" x="562.73" y="-104.7" font-family="Helvetica,sans-Serif" font-size="10.00">9</text>
</a>
</g>
</g>
<!-- dir_0c368f76a33d967d5b838b5681461de6 -->
<g id="node16" class="node">
<title>dir_0c368f76a33d967d5b838b5681461de6</title>
<g id="a_node16"><a xlink:href="dir_0c368f76a33d967d5b838b5681461de6.html" target="_top" xlink:title="wind_energy">
<polygon fill="white" stroke="red" points="558.5,-340 479.5,-340 479.5,-304 558.5,-304 558.5,-340"/>
<text text-anchor="middle" x="519" y="-319.5" font-family="Helvetica,sans-Serif" font-size="10.00">wind_energy</text>
</a>
</g>
</g>
<!-- dir_4bb30ed846ea1df1fc4d16874a455d91&#45;&gt;dir_0c368f76a33d967d5b838b5681461de6 -->
<g id="edge42" class="edge">
<title>dir_4bb30ed846ea1df1fc4d16874a455d91&#45;&gt;dir_0c368f76a33d967d5b838b5681461de6</title>
<path fill="none" stroke="black" d="M417.96,-519.78C431.02,-510.72 446.58,-498.48 457,-484 486.62,-442.83 500.38,-384.12 508.96,-350.15"/>
<polygon fill="black" stroke="black" points="512.46,-350.6 511.57,-340.04 505.68,-348.85 512.46,-350.6"/>
<g id="a_edge42&#45;headlabel"><a xlink:href="dir_000002_000001.html" target="_top" xlink:title="3">
<text text-anchor="middle" x="514.3" y="-352.29" font-family="Helvetica,sans-Serif" font-size="10.00">3</text>
</a>
</g>
</g>
<!-- dir_7f7a014517bfe31ea45620a6a947e37b -->
<g id="node8" class="node">
<title>dir_7f7a014517bfe31ea45620a6a947e37b</title>
<g id="a_node8"><a xlink:href="dir_7f7a014517bfe31ea45620a6a947e37b.html" target="_top" xlink:title="fvm">
<polygon fill="white" stroke="black" points="396,-52 342,-52 342,-16 396,-16 396,-52"/>
<text text-anchor="middle" x="369" y="-31.5" font-family="Helvetica,sans-Serif" font-size="10.00">fvm</text>
</a>
</g>
</g>
<!-- dir_7f7a014517bfe31ea45620a6a947e37b&#45;&gt;dir_3d3615e9a999cab4f3407307569d6ced -->
<g id="edge37" class="edge">
<title>dir_7f7a014517bfe31ea45620a6a947e37b&#45;&gt;dir_3d3615e9a999cab4f3407307569d6ced</title>
<path fill="none" stroke="black" d="M369,-52.19C369,-76.42 369,-120.89 369,-149.68"/>
<polygon fill="black" stroke="black" points="365.5,-149.87 369,-159.87 372.5,-149.87 365.5,-149.87"/>
<g id="a_edge37&#45;headlabel"><a xlink:href="dir_000015_000013.html" target="_top" xlink:title="1">
<text text-anchor="middle" x="362.66" y="-143.78" font-family="Helvetica,sans-Serif" font-size="10.00">1</text>
</a>
</g>
</g>
<!-- dir_629222d9fcf2f4ceefae477297f2ec84&#45;&gt;dir_3d3615e9a999cab4f3407307569d6ced -->
<g id="edge20" class="edge">
<title>dir_629222d9fcf2f4ceefae477297f2ec84&#45;&gt;dir_3d3615e9a999cab4f3407307569d6ced</title>
<path fill="none" stroke="black" d="M612.82,-591.98C644.43,-568.07 695,-521.33 695,-467 695,-467 695,-467 695,-393 695,-304.55 651.24,-281.61 578,-232 525.35,-196.34 450.54,-184.67 406.17,-180.85"/>
<polygon fill="black" stroke="black" points="406.35,-177.35 396.11,-180.08 405.81,-184.33 406.35,-177.35"/>
<g id="a_edge20&#45;headlabel"><a xlink:href="dir_000038_000013.html" target="_top" xlink:title="3">
<text text-anchor="middle" x="410.15" y="-172.3" font-family="Helvetica,sans-Serif" font-size="10.00">3</text>
</a>
</g>
</g>
<!-- dir_629222d9fcf2f4ceefae477297f2ec84&#45;&gt;dir_4bb30ed846ea1df1fc4d16874a455d91 -->
<g id="edge19" class="edge">
<title>dir_629222d9fcf2f4ceefae477297f2ec84&#45;&gt;dir_4bb30ed846ea1df1fc4d16874a455d91</title>
<path fill="none" stroke="black" d="M560.76,-599.12C532.52,-588.88 487.57,-572.58 451.6,-559.53"/>
<polygon fill="black" stroke="black" points="452.78,-556.23 442.19,-556.12 450.4,-562.82 452.78,-556.23"/>
<g id="a_edge19&#45;headlabel"><a xlink:href="dir_000038_000002.html" target="_top" xlink:title="1">
<text text-anchor="middle" x="457.13" y="-552.29" font-family="Helvetica,sans-Serif" font-size="10.00">1</text>
</a>
</g>
</g>
<!-- dir_629222d9fcf2f4ceefae477297f2ec84&#45;&gt;dir_e4cd57caa88bf1f4e1bf9521bc47c3c0 -->
<g id="edge18" class="edge">
<title>dir_629222d9fcf2f4ceefae477297f2ec84&#45;&gt;dir_e4cd57caa88bf1f4e1bf9521bc47c3c0</title>
<path fill="none" stroke="black" d="M615.38,-596.39C633.02,-587.19 655.48,-573.31 671,-556 700.45,-523.14 715,-511.13 715,-467 715,-467 715,-467 715,-249 715,-172.18 614.73,-132.42 558.36,-116.14"/>
<polygon fill="black" stroke="black" points="558.96,-112.67 548.38,-113.37 557.08,-119.42 558.96,-112.67"/>
<g id="a_edge18&#45;headlabel"><a xlink:href="dir_000038_000009.html" target="_top" xlink:title="1">
<text text-anchor="middle" x="563.18" y="-108.4" font-family="Helvetica,sans-Serif" font-size="10.00">1</text>
</a>
</g>
</g>
<!-- dir_f2c65bfcbdc19ebacbfc0bbbfb0d01b6&#45;&gt;dir_3d3615e9a999cab4f3407307569d6ced -->
<g id="edge17" class="edge">
<title>dir_f2c65bfcbdc19ebacbfc0bbbfb0d01b6&#45;&gt;dir_3d3615e9a999cab4f3407307569d6ced</title>
<path fill="none" stroke="black" d="M271.86,-375.72C279.3,-365.76 288.11,-352.72 294,-340 314.94,-294.8 300.67,-276.02 324,-232 329.31,-221.98 336.79,-212.17 344.12,-203.78"/>
<polygon fill="black" stroke="black" points="346.88,-205.94 351.04,-196.19 341.71,-201.22 346.88,-205.94"/>
<g id="a_edge17&#45;headlabel"><a xlink:href="dir_000011_000013.html" target="_top" xlink:title="49">
<text text-anchor="middle" x="346.56" y="-208.01" font-family="Helvetica,sans-Serif" font-size="10.00">49</text>
</a>
</g>
</g>
<!-- dir_f2c65bfcbdc19ebacbfc0bbbfb0d01b6&#45;&gt;dir_4bb30ed846ea1df1fc4d16874a455d91 -->
<g id="edge16" class="edge">
<title>dir_f2c65bfcbdc19ebacbfc0bbbfb0d01b6&#45;&gt;dir_4bb30ed846ea1df1fc4d16874a455d91</title>
<path fill="none" stroke="black" d="M241.44,-412.04C221.6,-430.44 193.96,-460.3 212,-484 226.93,-503.61 284.76,-517.81 331.53,-526.55"/>
<polygon fill="black" stroke="black" points="331.16,-530.04 341.63,-528.39 332.42,-523.15 331.16,-530.04"/>
<g id="a_edge16&#45;headlabel"><a xlink:href="dir_000011_000002.html" target="_top" xlink:title="4">
<text text-anchor="middle" x="327.12" y="-529.69" font-family="Helvetica,sans-Serif" font-size="10.00">4</text>
</a>
</g>
</g>
<!-- dir_f2c65bfcbdc19ebacbfc0bbbfb0d01b6&#45;&gt;dir_7f7a014517bfe31ea45620a6a947e37b -->
<g id="edge15" class="edge">
<title>dir_f2c65bfcbdc19ebacbfc0bbbfb0d01b6&#45;&gt;dir_7f7a014517bfe31ea45620a6a947e37b</title>
<path fill="none" stroke="black" d="M230.99,-382.66C190.94,-365.68 117.3,-327.68 87,-268 79.76,-253.73 79.6,-246.19 87,-232 139.28,-131.71 268.52,-72 332.26,-47.71"/>
<polygon fill="black" stroke="black" points="333.75,-50.89 341.9,-44.11 331.31,-44.33 333.75,-50.89"/>
<g id="a_edge15&#45;headlabel"><a xlink:href="dir_000011_000015.html" target="_top" xlink:title="4">
<text text-anchor="middle" x="331.38" y="-52.3" font-family="Helvetica,sans-Serif" font-size="10.00">4</text>
</a>
</g>
</g>
<!-- dir_f2c65bfcbdc19ebacbfc0bbbfb0d01b6&#45;&gt;dir_9ff815a534beac751fa88e427dbab695 -->
<g id="edge12" class="edge">
<title>dir_f2c65bfcbdc19ebacbfc0bbbfb0d01b6&#45;&gt;dir_9ff815a534beac751fa88e427dbab695</title>
<path fill="none" stroke="black" d="M230.9,-383.67C200.3,-373.13 149.04,-355.43 105,-340 103.59,-339.51 102.16,-339 100.72,-338.5"/>
<polygon fill="black" stroke="black" points="101.67,-335.12 91.08,-335.1 99.35,-341.73 101.67,-335.12"/>
<g id="a_edge12&#45;headlabel"><a xlink:href="dir_000011_000026.html" target="_top" xlink:title="1">
<text text-anchor="middle" x="106.01" y="-331.14" font-family="Helvetica,sans-Serif" font-size="10.00">1</text>
</a>
</g>
</g>
<!-- dir_f2c65bfcbdc19ebacbfc0bbbfb0d01b6&#45;&gt;dir_e4cd57caa88bf1f4e1bf9521bc47c3c0 -->
<g id="edge14" class="edge">
<title>dir_f2c65bfcbdc19ebacbfc0bbbfb0d01b6&#45;&gt;dir_e4cd57caa88bf1f4e1bf9521bc47c3c0</title>
<path fill="none" stroke="black" d="M261.28,-375.71C270.87,-326.99 300.23,-190.13 333,-160 374.66,-121.7 441.88,-110.81 483.64,-107.87"/>
<polygon fill="black" stroke="black" points="483.9,-111.36 493.68,-107.29 483.49,-104.38 483.9,-111.36"/>
<g id="a_edge14&#45;headlabel"><a xlink:href="dir_000011_000009.html" target="_top" xlink:title="10">
<text text-anchor="middle" x="480.48" y="-111.91" font-family="Helvetica,sans-Serif" font-size="10.00">10</text>
</a>
</g>
</g>
<!-- dir_f2c65bfcbdc19ebacbfc0bbbfb0d01b6&#45;&gt;dir_0c368f76a33d967d5b838b5681461de6 -->
<g id="edge13" class="edge">
<title>dir_f2c65bfcbdc19ebacbfc0bbbfb0d01b6&#45;&gt;dir_0c368f76a33d967d5b838b5681461de6</title>
<path fill="none" stroke="black" d="M285.44,-385.64C329.06,-373.94 414.84,-350.93 469.43,-336.3"/>
<polygon fill="black" stroke="black" points="470.49,-339.64 479.24,-333.66 468.67,-332.87 470.49,-339.64"/>
<g id="a_edge13&#45;headlabel"><a xlink:href="dir_000011_000001.html" target="_top" xlink:title="1">
<text text-anchor="middle" x="467.75" y="-340.81" font-family="Helvetica,sans-Serif" font-size="10.00">1</text>
</a>
</g>
</g>
<!-- dir_d599e6111b2fbf4fd47cd3a4f2a09da4 -->
<g id="node11" class="node">
<title>dir_d599e6111b2fbf4fd47cd3a4f2a09da4</title>
<g id="a_node11"><a xlink:href="dir_d599e6111b2fbf4fd47cd3a4f2a09da4.html" target="_top" xlink:title="projection">
<polygon fill="white" stroke="black" points="609.5,-412 544.5,-412 544.5,-376 609.5,-376 609.5,-412"/>
<text text-anchor="middle" x="577" y="-391.5" font-family="Helvetica,sans-Serif" font-size="10.00">projection</text>
</a>
</g>
</g>
<!-- dir_d599e6111b2fbf4fd47cd3a4f2a09da4&#45;&gt;dir_3d3615e9a999cab4f3407307569d6ced -->
<g id="edge8" class="edge">
<title>dir_d599e6111b2fbf4fd47cd3a4f2a09da4&#45;&gt;dir_3d3615e9a999cab4f3407307569d6ced</title>
<path fill="none" stroke="black" d="M581.55,-375.62C588.89,-343.31 599.28,-273.49 565,-232 544.94,-207.72 457.39,-191.51 406.34,-183.94"/>
<polygon fill="black" stroke="black" points="406.74,-180.46 396.34,-182.5 405.74,-187.39 406.74,-180.46"/>
<g id="a_edge8&#45;headlabel"><a xlink:href="dir_000024_000013.html" target="_top" xlink:title="2">
<text text-anchor="middle" x="410.7" y="-175.66" font-family="Helvetica,sans-Serif" font-size="10.00">2</text>
</a>
</g>
</g>
<!-- dir_d599e6111b2fbf4fd47cd3a4f2a09da4&#45;&gt;dir_e4cd57caa88bf1f4e1bf9521bc47c3c0 -->
<g id="edge7" class="edge">
<title>dir_d599e6111b2fbf4fd47cd3a4f2a09da4&#45;&gt;dir_e4cd57caa88bf1f4e1bf9521bc47c3c0</title>
<path fill="none" stroke="black" d="M589.35,-375.71C616.86,-334.9 677.28,-230.7 632,-160 615.73,-134.6 583.62,-121.09 558.11,-114.09"/>
<polygon fill="black" stroke="black" points="558.9,-110.68 548.35,-111.63 557.19,-117.47 558.9,-110.68"/>
<g id="a_edge7&#45;headlabel"><a xlink:href="dir_000024_000009.html" target="_top" xlink:title="1">
<text text-anchor="middle" x="563.08" y="-106.3" font-family="Helvetica,sans-Serif" font-size="10.00">1</text>
</a>
</g>
</g>
<!-- dir_d599e6111b2fbf4fd47cd3a4f2a09da4&#45;&gt;dir_0c368f76a33d967d5b838b5681461de6 -->
<g id="edge6" class="edge">
<title>dir_d599e6111b2fbf4fd47cd3a4f2a09da4&#45;&gt;dir_0c368f76a33d967d5b838b5681461de6</title>
<path fill="none" stroke="black" d="M562.66,-375.7C555.71,-367.3 547.23,-357.07 539.6,-347.86"/>
<polygon fill="black" stroke="black" points="542.25,-345.57 533.17,-340.1 536.86,-350.04 542.25,-345.57"/>
<g id="a_edge6&#45;headlabel"><a xlink:href="dir_000024_000001.html" target="_top" xlink:title="1">
<text text-anchor="middle" x="546.73" y="-344.03" font-family="Helvetica,sans-Serif" font-size="10.00">1</text>
</a>
</g>
</g>
<!-- dir_073a3c37bc9e3eb3e412aa8cf4eda4c3 -->
<g id="node12" class="node">
<title>dir_073a3c37bc9e3eb3e412aa8cf4eda4c3</title>
<g id="a_node12"><a xlink:href="dir_073a3c37bc9e3eb3e412aa8cf4eda4c3.html" target="_top" xlink:title="setup">
<polygon fill="white" stroke="black" points="422,-484 368,-484 368,-448 422,-448 422,-484"/>
<text text-anchor="middle" x="395" y="-463.5" font-family="Helvetica,sans-Serif" font-size="10.00">setup</text>
</a>
</g>
</g>
<!-- dir_073a3c37bc9e3eb3e412aa8cf4eda4c3&#45;&gt;dir_3d3615e9a999cab4f3407307569d6ced -->
<g id="edge36" class="edge">
<title>dir_073a3c37bc9e3eb3e412aa8cf4eda4c3&#45;&gt;dir_3d3615e9a999cab4f3407307569d6ced</title>
<path fill="none" stroke="black" d="M393.45,-447.97C389.11,-400.19 376.78,-264.62 371.48,-206.27"/>
<polygon fill="black" stroke="black" points="374.96,-205.95 370.57,-196.31 367.99,-206.58 374.96,-205.95"/>
<g id="a_edge36&#45;headlabel"><a xlink:href="dir_000025_000013.html" target="_top" xlink:title="1">
<text text-anchor="middle" x="378.12" y="-206.77" font-family="Helvetica,sans-Serif" font-size="10.00">1</text>
</a>
</g>
</g>
<!-- dir_073a3c37bc9e3eb3e412aa8cf4eda4c3&#45;&gt;dir_f2c65bfcbdc19ebacbfc0bbbfb0d01b6 -->
<g id="edge33" class="edge">
<title>dir_073a3c37bc9e3eb3e412aa8cf4eda4c3&#45;&gt;dir_f2c65bfcbdc19ebacbfc0bbbfb0d01b6</title>
<path fill="none" stroke="black" d="M367.93,-451.17C346.82,-440.38 317.31,-425.3 294.17,-413.48"/>
<polygon fill="black" stroke="black" points="295.51,-410.23 285.01,-408.8 292.32,-416.47 295.51,-410.23"/>
<g id="a_edge33&#45;headlabel"><a xlink:href="dir_000025_000011.html" target="_top" xlink:title="1">
<text text-anchor="middle" x="300" y="-406.84" font-family="Helvetica,sans-Serif" font-size="10.00">1</text>
</a>
</g>
</g>
<!-- dir_073a3c37bc9e3eb3e412aa8cf4eda4c3&#45;&gt;dir_e4cd57caa88bf1f4e1bf9521bc47c3c0 -->
<g id="edge35" class="edge">
<title>dir_073a3c37bc9e3eb3e412aa8cf4eda4c3&#45;&gt;dir_e4cd57caa88bf1f4e1bf9521bc47c3c0</title>
<path fill="none" stroke="black" d="M398.6,-447.92C406.28,-415.47 427.26,-344.56 471,-304 503.8,-273.58 539.65,-304.86 565,-268 593.79,-226.14 562.51,-166.1 539.93,-132.42"/>
<polygon fill="black" stroke="black" points="542.71,-130.28 534.14,-124.05 536.95,-134.26 542.71,-130.28"/>
<g id="a_edge35&#45;headlabel"><a xlink:href="dir_000025_000009.html" target="_top" xlink:title="2">
<text text-anchor="middle" x="547.09" y="-129.12" font-family="Helvetica,sans-Serif" font-size="10.00">2</text>
</a>
</g>
</g>
<!-- dir_073a3c37bc9e3eb3e412aa8cf4eda4c3&#45;&gt;dir_0c368f76a33d967d5b838b5681461de6 -->
<g id="edge34" class="edge">
<title>dir_073a3c37bc9e3eb3e412aa8cf4eda4c3&#45;&gt;dir_0c368f76a33d967d5b838b5681461de6</title>
<path fill="none" stroke="black" d="M409.96,-447.87C431.74,-422.92 472.33,-376.45 497.37,-347.77"/>
<polygon fill="black" stroke="black" points="500.05,-350.02 503.99,-340.19 494.78,-345.42 500.05,-350.02"/>
<g id="a_edge34&#45;headlabel"><a xlink:href="dir_000025_000001.html" target="_top" xlink:title="1">
<text text-anchor="middle" x="499.82" y="-352.1" font-family="Helvetica,sans-Serif" font-size="10.00">1</text>
</a>
</g>
</g>
<!-- dir_7b7e55eaa727ae9c717abfc097345a8f -->
<g id="node13" class="node">
<title>dir_7b7e55eaa727ae9c717abfc097345a8f</title>
<g id="a_node13"><a xlink:href="dir_7b7e55eaa727ae9c717abfc097345a8f.html" target="_top" xlink:title="transport_models">
<polygon fill="white" stroke="black" points="270,-268 168,-268 168,-232 270,-232 270,-268"/>
<text text-anchor="middle" x="219" y="-247.5" font-family="Helvetica,sans-Serif" font-size="10.00">transport_models</text>
</a>
</g>
</g>
<!-- dir_7b7e55eaa727ae9c717abfc097345a8f&#45;&gt;dir_3d3615e9a999cab4f3407307569d6ced -->
<g id="edge50" class="edge">
<title>dir_7b7e55eaa727ae9c717abfc097345a8f&#45;&gt;dir_3d3615e9a999cab4f3407307569d6ced</title>
<path fill="none" stroke="black" d="M255.69,-231.88C279.02,-220.99 309.1,-206.95 332.41,-196.07"/>
<polygon fill="black" stroke="black" points="334.04,-199.18 341.62,-191.78 331.08,-192.83 334.04,-199.18"/>
<g id="a_edge50&#45;headlabel"><a xlink:href="dir_000014_000013.html" target="_top" xlink:title="2">
<text text-anchor="middle" x="331.98" y="-200.77" font-family="Helvetica,sans-Serif" font-size="10.00">2</text>
</a>
</g>
</g>
<!-- dir_7b7e55eaa727ae9c717abfc097345a8f&#45;&gt;dir_f2c65bfcbdc19ebacbfc0bbbfb0d01b6 -->
<g id="edge49" class="edge">
<title>dir_7b7e55eaa727ae9c717abfc097345a8f&#45;&gt;dir_f2c65bfcbdc19ebacbfc0bbbfb0d01b6</title>
<path fill="none" stroke="black" d="M223.72,-268.19C230.41,-292.53 242.7,-337.28 250.6,-366.06"/>
<polygon fill="black" stroke="black" points="247.27,-367.16 253.3,-375.87 254.02,-365.3 247.27,-367.16"/>
<g id="a_edge49&#45;headlabel"><a xlink:href="dir_000014_000011.html" target="_top" xlink:title="1">
<text text-anchor="middle" x="243.58" y="-361.94" font-family="Helvetica,sans-Serif" font-size="10.00">1</text>
</a>
</g>
</g>
<!-- dir_9ff815a534beac751fa88e427dbab695&#45;&gt;dir_3d3615e9a999cab4f3407307569d6ced -->
<g id="edge3" class="edge">
<title>dir_9ff815a534beac751fa88e427dbab695&#45;&gt;dir_3d3615e9a999cab4f3407307569d6ced</title>
<path fill="none" stroke="black" d="M57.8,-303.77C59.72,-283.47 66.08,-250.19 87,-232 123.04,-200.66 263.29,-186.54 331.43,-181.42"/>
<polygon fill="black" stroke="black" points="332,-184.89 341.72,-180.67 331.49,-177.9 332,-184.89"/>
<g id="a_edge3&#45;headlabel"><a xlink:href="dir_000026_000013.html" target="_top" xlink:title="5">
<text text-anchor="middle" x="328.62" y="-185.48" font-family="Helvetica,sans-Serif" font-size="10.00">5</text>
</a>
</g>
</g>
<!-- dir_9ff815a534beac751fa88e427dbab695&#45;&gt;dir_4bb30ed846ea1df1fc4d16874a455d91 -->
<g id="edge4" class="edge">
<title>dir_9ff815a534beac751fa88e427dbab695&#45;&gt;dir_4bb30ed846ea1df1fc4d16874a455d91</title>
<path fill="none" stroke="black" d="M71.59,-340.09C94.82,-373.19 141.97,-446.12 202,-484 241.35,-508.83 292.01,-522.09 331.61,-529.13"/>
<polygon fill="black" stroke="black" points="331.25,-532.62 341.69,-530.83 332.41,-525.72 331.25,-532.62"/>
<g id="a_edge4&#45;headlabel"><a xlink:href="dir_000026_000002.html" target="_top" xlink:title="11">
<text text-anchor="middle" x="327.23" y="-532.32" font-family="Helvetica,sans-Serif" font-size="10.00">11</text>
</a>
</g>
</g>
<!-- dir_9ff815a534beac751fa88e427dbab695&#45;&gt;dir_7f7a014517bfe31ea45620a6a947e37b -->
<g id="edge2" class="edge">
<title>dir_9ff815a534beac751fa88e427dbab695&#45;&gt;dir_7f7a014517bfe31ea45620a6a947e37b</title>
<path fill="none" stroke="black" d="M51.52,-303.91C38.87,-260.72 12.98,-146.5 72,-88 108.09,-52.23 260.1,-40.23 331.57,-36.52"/>
<polygon fill="black" stroke="black" points="332.1,-40 341.91,-36.02 331.75,-33.01 332.1,-40"/>
<g id="a_edge2&#45;headlabel"><a xlink:href="dir_000026_000015.html" target="_top" xlink:title="8">
<text text-anchor="middle" x="328.64" y="-40.51" font-family="Helvetica,sans-Serif" font-size="10.00">8</text>
</a>
</g>
</g>
<!-- dir_9ff815a534beac751fa88e427dbab695&#45;&gt;dir_7b7e55eaa727ae9c717abfc097345a8f -->
<g id="edge5" class="edge">
<title>dir_9ff815a534beac751fa88e427dbab695&#45;&gt;dir_7b7e55eaa727ae9c717abfc097345a8f</title>
<path fill="none" stroke="black" d="M91.36,-306.15C114.25,-296.26 144.69,-283.11 170.1,-272.13"/>
<polygon fill="black" stroke="black" points="171.77,-275.22 179.56,-268.04 169,-268.79 171.77,-275.22"/>
<g id="a_edge5&#45;headlabel"><a xlink:href="dir_000026_000014.html" target="_top" xlink:title="2">
<text text-anchor="middle" x="169.6" y="-276.75" font-family="Helvetica,sans-Serif" font-size="10.00">2</text>
</a>
</g>
</g>
<!-- dir_9ff815a534beac751fa88e427dbab695&#45;&gt;dir_e4cd57caa88bf1f4e1bf9521bc47c3c0 -->
<g id="edge1" class="edge">
<title>dir_9ff815a534beac751fa88e427dbab695&#45;&gt;dir_e4cd57caa88bf1f4e1bf9521bc47c3c0</title>
<path fill="none" stroke="black" d="M52.43,-303.65C48.4,-284.15 45.33,-252.54 61,-232 113.18,-163.61 383.97,-123.86 483.9,-111.34"/>
<polygon fill="black" stroke="black" points="484.35,-114.81 493.85,-110.11 483.5,-107.86 484.35,-114.81"/>
<g id="a_edge1&#45;headlabel"><a xlink:href="dir_000026_000009.html" target="_top" xlink:title="1">
<text text-anchor="middle" x="481.13" y="-115.57" font-family="Helvetica,sans-Serif" font-size="10.00">1</text>
</a>
</g>
</g>
<!-- dir_e4cd57caa88bf1f4e1bf9521bc47c3c0&#45;&gt;dir_3d3615e9a999cab4f3407307569d6ced -->
<g id="edge32" class="edge">
<title>dir_e4cd57caa88bf1f4e1bf9521bc47c3c0&#45;&gt;dir_3d3615e9a999cab4f3407307569d6ced</title>
<path fill="none" stroke="black" d="M493.88,-122.1C469.11,-134.19 432.5,-151.03 405.25,-162.86"/>
<polygon fill="black" stroke="black" points="403.84,-159.66 396.03,-166.82 406.6,-166.09 403.84,-159.66"/>
<g id="a_edge32&#45;headlabel"><a xlink:href="dir_000009_000013.html" target="_top" xlink:title="19">
<text text-anchor="middle" x="406.02" y="-153.13" font-family="Helvetica,sans-Serif" font-size="10.00">19</text>
</a>
</g>
</g>
<!-- dir_e4cd57caa88bf1f4e1bf9521bc47c3c0&#45;&gt;dir_7f7a014517bfe31ea45620a6a947e37b -->
<g id="edge31" class="edge">
<title>dir_e4cd57caa88bf1f4e1bf9521bc47c3c0&#45;&gt;dir_7f7a014517bfe31ea45620a6a947e37b</title>
<path fill="none" stroke="black" d="M493.83,-92.49C469.15,-81.12 432.57,-64.28 405.39,-51.76"/>
<polygon fill="black" stroke="black" points="406.74,-48.53 396.2,-47.52 403.81,-54.89 406.74,-48.53"/>
<g id="a_edge31&#45;headlabel"><a xlink:href="dir_000009_000015.html" target="_top" xlink:title="2">
<text text-anchor="middle" x="411.19" y="-44.95" font-family="Helvetica,sans-Serif" font-size="10.00">2</text>
</a>
</g>
</g>
<!-- dir_0c368f76a33d967d5b838b5681461de6&#45;&gt;dir_3d3615e9a999cab4f3407307569d6ced -->
<g id="edge27" class="edge">
<title>dir_0c368f76a33d967d5b838b5681461de6&#45;&gt;dir_3d3615e9a999cab4f3407307569d6ced</title>
<path fill="none" stroke="black" d="M504.26,-303.87C495.84,-293.75 485.34,-280.5 477,-268 466.84,-252.78 469.71,-245.17 457,-232 442.37,-216.84 422.5,-204.39 405.35,-195.37"/>
<polygon fill="black" stroke="black" points="406.65,-192.11 396.15,-190.72 403.49,-198.36 406.65,-192.11"/>
<g id="a_edge27&#45;headlabel"><a xlink:href="dir_000001_000013.html" target="_top" xlink:title="24">
<text text-anchor="middle" x="411.14" y="-188.7" font-family="Helvetica,sans-Serif" font-size="10.00">24</text>
</a>
</g>
</g>
<!-- dir_0c368f76a33d967d5b838b5681461de6&#45;&gt;dir_a816a247b59c90f95e41afe29b966a18 -->
<g id="edge25" class="edge">
<title>dir_0c368f76a33d967d5b838b5681461de6&#45;&gt;dir_a816a247b59c90f95e41afe29b966a18</title>
<path fill="none" stroke="black" d="M494.29,-303.88C481.33,-294.89 465.27,-283.76 451.23,-274.03"/>
<polygon fill="black" stroke="black" points="453.02,-271.01 442.8,-268.19 449.03,-276.76 453.02,-271.01"/>
<g id="a_edge25&#45;headlabel"><a xlink:href="dir_000001_000018.html" target="_top" xlink:title="1">
<text text-anchor="middle" x="457.59" y="-268.22" font-family="Helvetica,sans-Serif" font-size="10.00">1</text>
</a>
</g>
</g>
<!-- dir_0c368f76a33d967d5b838b5681461de6&#45;&gt;dir_4bb30ed846ea1df1fc4d16874a455d91 -->
<g id="edge26" class="edge">
<title>dir_0c368f76a33d967d5b838b5681461de6&#45;&gt;dir_4bb30ed846ea1df1fc4d16874a455d91</title>
<path fill="none" stroke="black" d="M522.1,-340.04C521.17,-371.21 507.83,-438.38 475,-484 466.61,-495.65 454.9,-505.86 442.97,-514.11"/>
<polygon fill="black" stroke="black" points="440.75,-511.38 434.29,-519.78 444.58,-517.25 440.75,-511.38"/>
<g id="a_edge26&#45;headlabel"><a xlink:href="dir_000001_000002.html" target="_top" xlink:title="4">
<text text-anchor="middle" x="442.21" y="-504.54" font-family="Helvetica,sans-Serif" font-size="10.00">4</text>
</a>
</g>
</g>
<!-- dir_0c368f76a33d967d5b838b5681461de6&#45;&gt;dir_7f7a014517bfe31ea45620a6a947e37b -->
<g id="edge24" class="edge">
<title>dir_0c368f76a33d967d5b838b5681461de6&#45;&gt;dir_7f7a014517bfe31ea45620a6a947e37b</title>
<path fill="none" stroke="black" d="M558.73,-313.86C584.71,-306.91 616.74,-293.49 633,-268 639.67,-257.55 643.78,-187.12 632,-160 594.03,-72.59 469.37,-46.13 406.29,-38.26"/>
<polygon fill="black" stroke="black" points="406.68,-34.78 396.35,-37.11 405.88,-41.73 406.68,-34.78"/>
<g id="a_edge24&#45;headlabel"><a xlink:href="dir_000001_000015.html" target="_top" xlink:title="1">
<text text-anchor="middle" x="410.58" y="-29.87" font-family="Helvetica,sans-Serif" font-size="10.00">1</text>
</a>
</g>
</g>
<!-- dir_0c368f76a33d967d5b838b5681461de6&#45;&gt;dir_e4cd57caa88bf1f4e1bf9521bc47c3c0 -->
<g id="edge23" class="edge">
<title>dir_0c368f76a33d967d5b838b5681461de6&#45;&gt;dir_e4cd57caa88bf1f4e1bf9521bc47c3c0</title>
<path fill="none" stroke="black" d="M558.64,-311.13C580.84,-303.35 606.68,-290.03 620,-268 644.83,-226.92 644.66,-201.18 620,-160 606.56,-137.56 580.02,-124.09 557.8,-116.34"/>
<polygon fill="black" stroke="black" points="558.87,-113.01 548.28,-113.27 556.72,-119.67 558.87,-113.01"/>
<g id="a_edge23&#45;headlabel"><a xlink:href="dir_000001_000009.html" target="_top" xlink:title="27">
<text text-anchor="middle" x="563.16" y="-108.91" font-family="Helvetica,sans-Serif" font-size="10.00">27</text>
</a>
</g>
</g>
</g>
</svg>
        <g id="navigator" transform="translate(0 0)" fill="#404254">
                <rect fill="#f2f5e9" fill-opacity="0.5" stroke="#606060" stroke-width=".5" x="0" y="0" width="60" height="60"/>
                <use id="zoomplus" xlink:href="#zoomPlus" x="17" y="9" onmousedown="handleZoom(evt,'in')"/>
                <use id="zoomminus" xlink:href="#zoomMin" x="42" y="9" onmousedown="handleZoom(evt,'out')"/>
                <use id="reset" xlink:href="#resetDef" x="30" y="36" onmousedown="handleReset()"/>
                <g id="arrowUp" xlink:href="#dirArrow" transform="translate(30 24)" onmousedown="handlePan(0,-1)">
                  <use xlink:href="#rim" fill="#404040">
                        <set attributeName="fill" to="#808080" begin="arrowUp.mouseover" end="arrowUp.mouseout"/>
                  </use>
                  <path fill="none" stroke="white" stroke-width="1.5" d="M0,-3.0v7 M-2.5,-0.5L0,-3.0L2.5,-0.5"/>
                </g>
                <g id="arrowRight" xlink:href="#dirArrow" transform="rotate(90) translate(36 -43)" onmousedown="handlePan(1,0)">
                  <use xlink:href="#rim" fill="#404040">
                        <set attributeName="fill" to="#808080" begin="arrowRight.mouseover" end="arrowRight.mouseout"/>
                  </use>
                  <path fill="none" stroke="white" stroke-width="1.5" d="M0,-3.0v7 M-2.5,-0.5L0,-3.0L2.5,-0.5"/>
                </g>
                <g id="arrowDown" xlink:href="#dirArrow" transform="rotate(180) translate(-30 -48)" onmousedown="handlePan(0,1)">
                  <use xlink:href="#rim" fill="#404040">
                        <set attributeName="fill" to="#808080" begin="arrowDown.mouseover" end="arrowDown.mouseout"/>
                  </use>
                  <path fill="none" stroke="white" stroke-width="1.5" d="M0,-3.0v7 M-2.5,-0.5L0,-3.0L2.5,-0.5"/>
                </g>
                <g id="arrowLeft" xlink:href="#dirArrow" transform="rotate(270) translate(-36 17)" onmousedown="handlePan(-1,0)">
                  <use xlink:href="#rim" fill="#404040">
                        <set attributeName="fill" to="#808080" begin="arrowLeft.mouseover" end="arrowLeft.mouseout"/>
                  </use>
                  <path fill="none" stroke="white" stroke-width="1.5" d="M0,-3.0v7 M-2.5,-0.5L0,-3.0L2.5,-0.5"/>
                </g>
        </g>
        <svg viewBox="0 0 15 15" width="100%" height="30px" preserveAspectRatio="xMaxYMin meet">
         <g id="arrow_out" transform="scale(0.3 0.3)">
          <a xlink:href="dir_d85575251dd712327fe3cf057fa568b4_dep_org.svg" target="_base">
           <rect id="button" ry="5" rx="5" y="6" x="6" height="38" width="38"
                fill="#f2f5e9" fill-opacity="0.5" stroke="#606060" stroke-width="1.0"/>
           <path id="arrow"
             d="M 11.500037,31.436501 C 11.940474,20.09759 22.043105,11.32322 32.158766,21.979434 L 37.068811,17.246167 C 37.068811,17.246167 37.088388,32 37.088388,32 L 22.160133,31.978069 C 22.160133,31.978069 26.997745,27.140456 26.997745,27.140456 C 18.528582,18.264221 13.291696,25.230495 11.500037,31.436501 z"
             style="fill:#404040;"/>
          </a>
         </g>
        </svg>
</svg>
