<?xml version="1.0" encoding="UTF-8" standalone="no"?>
<!DOCTYPE svg PUBLIC "-//W3C//DTD SVG 1.1//EN"
 "http://www.w3.org/Graphics/SVG/1.1/DTD/svg11.dtd">
<!-- Generated by graphviz version 2.43.0 (0)
 -->
<!-- Title: actuator Pages: 1 -->
<svg width="242pt" height="303pt"
 viewBox="0.00 0.00 242.42 303.00" xmlns="http://www.w3.org/2000/svg" xmlns:xlink="http://www.w3.org/1999/xlink">
<g id="graph0" class="graph" transform="scale(1 1) rotate(0) translate(4 299)">
<title>actuator</title>
<polygon fill="white" stroke="transparent" points="-4,4 -4,-299 238.42,-299 238.42,4 -4,4"/>
<g id="clust1" class="cluster">
<title>clusterdir_0c368f76a33d967d5b838b5681461de6</title>
<g id="a_clust1"><a xlink:href="dir_0c368f76a33d967d5b838b5681461de6.html" target="_top" xlink:title="wind_energy">
<polygon fill="#ddddee" stroke="black" points="32.6,-128 32.6,-287 194.6,-287 194.6,-128 32.6,-128"/>
<text text-anchor="middle" x="113.6" y="-275" font-family="Helvetica,sans-Serif" font-size="10.00">wind_energy</text>
</a>
</g>
</g>
<g id="clust2" class="cluster">
<title>clusterdir_7ecfdf414f04b0541a95d392dbc1e5c0</title>
<g id="a_clust2"><a xlink:href="dir_7ecfdf414f04b0541a95d392dbc1e5c0.html" target="_top">
<polygon fill="#eeeeff" stroke="black" points="40.6,-136 40.6,-260 186.6,-260 186.6,-136 40.6,-136"/>
</a>
</g>
</g>
<!-- dir_7ecfdf414f04b0541a95d392dbc1e5c0 -->
<g id="node1" class="node">
<title>dir_7ecfdf414f04b0541a95d392dbc1e5c0</title>
<text text-anchor="middle" x="77.6" y="-231.5" font-family="Helvetica,sans-Serif" font-size="10.00">actuator</text>
</g>
<!-- dir_26e13646035c47d7e3eb3b975c94bc4e -->
<g id="node3" class="node">
<title>dir_26e13646035c47d7e3eb3b975c94bc4e</title>
<g id="a_node3"><a xlink:href="dir_26e13646035c47d7e3eb3b975c94bc4e.html" target="_top" xlink:title="turbine">
<polygon fill="white" stroke="red" points="176.6,-180 122.6,-180 122.6,-144 176.6,-144 176.6,-180"/>
<text text-anchor="middle" x="149.6" y="-159.5" font-family="Helvetica,sans-Serif" font-size="10.00">turbine</text>
</a>
</g>
</g>
<!-- dir_7ecfdf414f04b0541a95d392dbc1e5c0&#45;&gt;dir_26e13646035c47d7e3eb3b975c94bc4e -->
<g id="edge8" class="edge">
<title>dir_7ecfdf414f04b0541a95d392dbc1e5c0&#45;&gt;dir_26e13646035c47d7e3eb3b975c94bc4e</title>
<path fill="none" stroke="black" d="M95.4,-215.7C104.2,-207.14 114.98,-196.66 124.6,-187.3"/>
<polygon fill="black" stroke="black" points="127.27,-189.58 132,-180.1 122.39,-184.57 127.27,-189.58"/>
<g id="a_edge8&#45;headlabel"><a xlink:href="dir_000005_000006.html" target="_top" xlink:title="1">
<text text-anchor="middle" x="126.68" y="-191.63" font-family="Helvetica,sans-Serif" font-size="10.00">1</text>
</a>
</g>
</g>
<!-- dir_e4cd57caa88bf1f4e1bf9521bc47c3c0 -->
<g id="node5" class="node">
<title>dir_e4cd57caa88bf1f4e1bf9521bc47c3c0</title>
<g id="a_node5"><a xlink:href="dir_e4cd57caa88bf1f4e1bf9521bc47c3c0.html" target="_top" xlink:title="utilities">
<polygon fill="white" stroke="red" points="113.6,-108 59.6,-108 59.6,-72 113.6,-72 113.6,-108"/>
<text text-anchor="middle" x="86.6" y="-87.5" font-family="Helvetica,sans-Serif" font-size="10.00">utilities</text>
</a>
</g>
</g>
<!-- dir_7ecfdf414f04b0541a95d392dbc1e5c0&#45;&gt;dir_e4cd57caa88bf1f4e1bf9521bc47c3c0 -->
<g id="edge9" class="edge">
<title>dir_7ecfdf414f04b0541a95d392dbc1e5c0&#45;&gt;dir_e4cd57caa88bf1f4e1bf9521bc47c3c0</title>
<path fill="none" stroke="black" d="M48.8,-219.09C33.86,-210.18 17.01,-197.07 8.6,-180 -1.62,-159.27 -3.76,-147.53 8.6,-128 17.73,-113.56 34.2,-104.64 49.66,-99.19"/>
<polygon fill="black" stroke="black" points="51.09,-102.41 59.59,-96.09 49,-95.73 51.09,-102.41"/>
<g id="a_edge9&#45;headlabel"><a xlink:href="dir_000005_000009.html" target="_top" xlink:title="10">
<text text-anchor="middle" x="48.51" y="-103.69" font-family="Helvetica,sans-Serif" font-size="10.00">10</text>
</a>
</g>
</g>
<!-- dir_3d3615e9a999cab4f3407307569d6ced -->
<g id="node6" class="node">
<title>dir_3d3615e9a999cab4f3407307569d6ced</title>
<g id="a_node6"><a xlink:href="dir_3d3615e9a999cab4f3407307569d6ced.html" target="_top" xlink:title="core">
<polygon fill="white" stroke="red" points="176.6,-36 122.6,-36 122.6,0 176.6,0 176.6,-36"/>
<text text-anchor="middle" x="149.6" y="-15.5" font-family="Helvetica,sans-Serif" font-size="10.00">core</text>
</a>
</g>
</g>
<!-- dir_7ecfdf414f04b0541a95d392dbc1e5c0&#45;&gt;dir_3d3615e9a999cab4f3407307569d6ced -->
<g id="edge10" class="edge">
<title>dir_7ecfdf414f04b0541a95d392dbc1e5c0&#45;&gt;dir_3d3615e9a999cab4f3407307569d6ced</title>
<path fill="none" stroke="black" d="M106.29,-219.84C137.49,-205.38 183.28,-183.72 185.6,-180 211.91,-137.78 185.95,-78.75 166.53,-45.15"/>
<polygon fill="black" stroke="black" points="169.42,-43.16 161.28,-36.38 163.42,-46.75 169.42,-43.16"/>
<g id="a_edge10&#45;headlabel"><a xlink:href="dir_000005_000013.html" target="_top" xlink:title="16">
<text text-anchor="middle" x="173.71" y="-42.28" font-family="Helvetica,sans-Serif" font-size="10.00">16</text>
</a>
</g>
</g>
<!-- dir_e4e9964e9eecc53686804f6e188c33cc -->
<g id="node2" class="node">
<title>dir_e4e9964e9eecc53686804f6e188c33cc</title>
<g id="a_node2"><a xlink:href="dir_e4e9964e9eecc53686804f6e188c33cc.html" target="_top" xlink:title="aero">
<polygon fill="white" stroke="black" points="104.6,-180 50.6,-180 50.6,-144 104.6,-144 104.6,-180"/>
<text text-anchor="middle" x="77.6" y="-159.5" font-family="Helvetica,sans-Serif" font-size="10.00">aero</text>
</a>
</g>
</g>
<!-- dir_e4e9964e9eecc53686804f6e188c33cc&#45;&gt;dir_e4cd57caa88bf1f4e1bf9521bc47c3c0 -->
<g id="edge1" class="edge">
<title>dir_e4e9964e9eecc53686804f6e188c33cc&#45;&gt;dir_e4cd57caa88bf1f4e1bf9521bc47c3c0</title>
<path fill="none" stroke="black" d="M79.82,-143.7C80.81,-135.98 82.01,-126.71 83.11,-118.11"/>
<polygon fill="black" stroke="black" points="86.59,-118.47 84.4,-108.1 79.65,-117.58 86.59,-118.47"/>
<g id="a_edge1&#45;headlabel"><a xlink:href="dir_000008_000009.html" target="_top" xlink:title="1">
<text text-anchor="middle" x="88.95" y="-119.9" font-family="Helvetica,sans-Serif" font-size="10.00">1</text>
</a>
</g>
</g>
<!-- dir_26e13646035c47d7e3eb3b975c94bc4e&#45;&gt;dir_e4cd57caa88bf1f4e1bf9521bc47c3c0 -->
<g id="edge5" class="edge">
<title>dir_26e13646035c47d7e3eb3b975c94bc4e&#45;&gt;dir_e4cd57caa88bf1f4e1bf9521bc47c3c0</title>
<path fill="none" stroke="black" d="M134.02,-143.7C126.4,-135.22 117.07,-124.86 108.72,-115.58"/>
<polygon fill="black" stroke="black" points="111.28,-113.2 101.99,-108.1 106.08,-117.88 111.28,-113.2"/>
<g id="a_edge5&#45;headlabel"><a xlink:href="dir_000006_000009.html" target="_top" xlink:title="4">
<text text-anchor="middle" x="115.8" y="-111.47" font-family="Helvetica,sans-Serif" font-size="10.00">4</text>
</a>
</g>
</g>
<!-- dir_26e13646035c47d7e3eb3b975c94bc4e&#45;&gt;dir_3d3615e9a999cab4f3407307569d6ced -->
<g id="edge6" class="edge">
<title>dir_26e13646035c47d7e3eb3b975c94bc4e&#45;&gt;dir_3d3615e9a999cab4f3407307569d6ced</title>
<path fill="none" stroke="black" d="M149.6,-143.87C149.6,-119.67 149.6,-75.21 149.6,-46.39"/>
<polygon fill="black" stroke="black" points="153.1,-46.19 149.6,-36.19 146.1,-46.19 153.1,-46.19"/>
<g id="a_edge6&#45;headlabel"><a xlink:href="dir_000006_000013.html" target="_top" xlink:title="4">
<text text-anchor="middle" x="155.94" y="-47.28" font-family="Helvetica,sans-Serif" font-size="10.00">4</text>
</a>
</g>
</g>
<!-- dir_e3d85df9da26726704711d7e5a0bc894 -->
<g id="node4" class="node">
<title>dir_e3d85df9da26726704711d7e5a0bc894</title>
<g id="a_node4"><a xlink:href="dir_e3d85df9da26726704711d7e5a0bc894.html" target="_top" xlink:title="wing">
<polygon fill="white" stroke="black" points="178.6,-252 124.6,-252 124.6,-216 178.6,-216 178.6,-252"/>
<text text-anchor="middle" x="151.6" y="-231.5" font-family="Helvetica,sans-Serif" font-size="10.00">wing</text>
</a>
</g>
</g>
<!-- dir_e3d85df9da26726704711d7e5a0bc894&#45;&gt;dir_e4e9964e9eecc53686804f6e188c33cc -->
<g id="edge2" class="edge">
<title>dir_e3d85df9da26726704711d7e5a0bc894&#45;&gt;dir_e4e9964e9eecc53686804f6e188c33cc</title>
<path fill="none" stroke="black" d="M133.31,-215.7C124.16,-207.05 112.96,-196.45 103,-187.03"/>
<polygon fill="black" stroke="black" points="105.35,-184.43 95.68,-180.1 100.54,-189.52 105.35,-184.43"/>
<g id="a_edge2&#45;headlabel"><a xlink:href="dir_000007_000008.html" target="_top" xlink:title="3">
<text text-anchor="middle" x="109.91" y="-182.34" font-family="Helvetica,sans-Serif" font-size="10.00">3</text>
</a>
</g>
</g>
<!-- dir_e3d85df9da26726704711d7e5a0bc894&#45;&gt;dir_e4cd57caa88bf1f4e1bf9521bc47c3c0 -->
<g id="edge3" class="edge">
<title>dir_e3d85df9da26726704711d7e5a0bc894&#45;&gt;dir_e4cd57caa88bf1f4e1bf9521bc47c3c0</title>
<path fill="none" stroke="black" d="M124.32,-220.07C91.94,-204.7 42.21,-180.97 41.6,-180 29.3,-160.43 31.73,-148.9 41.6,-128 44.03,-122.86 47.56,-118.19 51.6,-114.03"/>
<polygon fill="black" stroke="black" points="54.19,-116.41 59.28,-107.11 49.5,-111.21 54.19,-116.41"/>
<g id="a_edge3&#45;headlabel"><a xlink:href="dir_000007_000009.html" target="_top" xlink:title="3">
<text text-anchor="middle" x="53.42" y="-118.42" font-family="Helvetica,sans-Serif" font-size="10.00">3</text>
</a>
</g>
</g>
<!-- dir_e3d85df9da26726704711d7e5a0bc894&#45;&gt;dir_3d3615e9a999cab4f3407307569d6ced -->
<g id="edge4" class="edge">
<title>dir_e3d85df9da26726704711d7e5a0bc894&#45;&gt;dir_3d3615e9a999cab4f3407307569d6ced</title>
<path fill="none" stroke="black" d="M178.89,-219.32C193.58,-210.34 210.33,-197.09 218.6,-180 239.51,-136.79 239.82,-115.06 218.6,-72 211.49,-57.58 198.36,-45.99 185.45,-37.37"/>
<polygon fill="black" stroke="black" points="186.97,-34.18 176.63,-31.87 183.27,-40.13 186.97,-34.18"/>
<g id="a_edge4&#45;headlabel"><a xlink:href="dir_000007_000013.html" target="_top" xlink:title="1">
<text text-anchor="middle" x="191.52" y="-31.17" font-family="Helvetica,sans-Serif" font-size="10.00">1</text>
</a>
</g>
</g>
<!-- dir_e4cd57caa88bf1f4e1bf9521bc47c3c0&#45;&gt;dir_3d3615e9a999cab4f3407307569d6ced -->
<g id="edge7" class="edge">
<title>dir_e4cd57caa88bf1f4e1bf9521bc47c3c0&#45;&gt;dir_3d3615e9a999cab4f3407307569d6ced</title>
<path fill="none" stroke="black" d="M96.25,-71.7C103.08,-63.14 112.33,-52.66 121.26,-43.3"/>
<polygon fill="black" stroke="black" points="123.82,-45.7 128.31,-36.1 118.81,-40.8 123.82,-45.7"/>
<g id="a_edge7&#45;headlabel"><a xlink:href="dir_000009_000013.html" target="_top" xlink:title="19">
<text text-anchor="middle" x="123.33" y="-47.75" font-family="Helvetica,sans-Serif" font-size="10.00">19</text>
</a>
</g>
</g>
<!-- dir_3d3615e9a999cab4f3407307569d6ced&#45;&gt;dir_e4cd57caa88bf1f4e1bf9521bc47c3c0 -->
<g id="edge11" class="edge">
<title>dir_3d3615e9a999cab4f3407307569d6ced&#45;&gt;dir_e4cd57caa88bf1f4e1bf9521bc47c3c0</title>
<path fill="none" stroke="black" d="M140.1,-36.1C133.31,-44.64 124.08,-55.11 115.14,-64.48"/>
<polygon fill="black" stroke="black" points="112.57,-62.1 108.09,-71.7 117.58,-66.99 112.57,-62.1"/>
<g id="a_edge11&#45;headlabel"><a xlink:href="dir_000013_000009.html" target="_top" xlink:title="1">
<text text-anchor="middle" x="113.05" y="-55.04" font-family="Helvetica,sans-Serif" font-size="10.00">1</text>
</a>
</g>
</g>
</g>
</svg>
