<?xml version="1.0" encoding="UTF-8" standalone="no"?>
<!DOCTYPE svg PUBLIC "-//W3C//DTD SVG 1.1//EN"
 "http://www.w3.org/Graphics/SVG/1.1/DTD/svg11.dtd">
<!-- Generated by graphviz version 2.43.0 (0)
 -->
<!-- Title: Graphical Class Hierarchy Pages: 1 -->
<svg width="270pt" height="759pt"
 viewBox="0.00 0.00 270.00 759.00" xmlns="http://www.w3.org/2000/svg" xmlns:xlink="http://www.w3.org/1999/xlink">
<g id="graph0" class="graph" transform="scale(1 1) rotate(0) translate(4 755)">
<title>Graphical Class Hierarchy</title>
<polygon fill="white" stroke="transparent" points="-4,4 -4,-755 266,-755 266,4 -4,4"/>
<!-- Node147 -->
<g id="node1" class="node">
<title>Node147</title>
<g id="a_node1"><a xlink:title=" ">
<polygon fill="white" stroke="#bfbfbf" points="0,-342.5 0,-361.5 57,-361.5 57,-342.5 0,-342.5"/>
<text text-anchor="middle" x="28.5" y="-349.5" font-family="Helvetica,sans-Serif" font-size="10.00">Register</text>
</a>
</g>
</g>
<!-- Node0 -->
<g id="node2" class="node">
<title>Node0</title>
<g id="a_node2"><a xlink:href="classamr__wind_1_1_a_b_l.html" target="_top" xlink:title="Atmospheric Boundary Layer physics.">
<polygon fill="white" stroke="black" points="133,-731.5 133,-750.5 222,-750.5 222,-731.5 133,-731.5"/>
<text text-anchor="middle" x="177.5" y="-738.5" font-family="Helvetica,sans-Serif" font-size="10.00">amr_wind::ABL</text>
</a>
</g>
</g>
<!-- Node147&#45;&gt;Node0 -->
<g id="edge1" class="edge">
<title>Node147&#45;&gt;Node0</title>
<path fill="none" stroke="midnightblue" d="M30.1,-372.07C32.61,-441.62 44.48,-670.79 93,-722 103.23,-732.79 118.2,-738.05 132.66,-740.45"/>
<polygon fill="midnightblue" stroke="midnightblue" points="33.59,-371.55 29.76,-361.67 26.59,-371.78 33.59,-371.55"/>
</g>
<!-- Node149 -->
<g id="node3" class="node">
<title>Node149</title>
<g id="a_node3"><a xlink:href="classamr__wind_1_1actuator_1_1_actuator.html" target="_top" xlink:title="Actuator line/disk modeling for wind turbines.">
<polygon fill="white" stroke="black" points="122,-682 122,-712 233,-712 233,-682 122,-682"/>
<text text-anchor="start" x="130" y="-700" font-family="Helvetica,sans-Serif" font-size="10.00">amr_wind::actuator</text>
<text text-anchor="middle" x="177.5" y="-689" font-family="Helvetica,sans-Serif" font-size="10.00">::Actuator</text>
</a>
</g>
</g>
<!-- Node147&#45;&gt;Node149 -->
<g id="edge2" class="edge">
<title>Node147&#45;&gt;Node149</title>
<path fill="none" stroke="midnightblue" d="M30.79,-371.66C35.3,-434.22 52.29,-627.22 93,-672 100.63,-680.4 110.96,-686.02 121.75,-689.77"/>
<polygon fill="midnightblue" stroke="midnightblue" points="34.28,-371.29 30.1,-361.56 27.29,-371.78 34.28,-371.29"/>
</g>
<!-- Node150 -->
<g id="node4" class="node">
<title>Node150</title>
<g id="a_node4"><a xlink:href="classamr__wind_1_1_boussinesq_bubble.html" target="_top" xlink:title="Boussinesq Bubble physics.">
<polygon fill="white" stroke="black" points="97.5,-643.5 97.5,-662.5 257.5,-662.5 257.5,-643.5 97.5,-643.5"/>
<text text-anchor="middle" x="177.5" y="-650.5" font-family="Helvetica,sans-Serif" font-size="10.00">amr_wind::BoussinesqBubble</text>
</a>
</g>
</g>
<!-- Node147&#45;&gt;Node150 -->
<g id="edge3" class="edge">
<title>Node147&#45;&gt;Node150</title>
<path fill="none" stroke="midnightblue" d="M31.23,-371.65C36.73,-429.35 55.62,-596.53 93,-634 96.78,-637.79 101.15,-640.89 105.86,-643.42"/>
<polygon fill="midnightblue" stroke="midnightblue" points="34.72,-371.28 30.31,-361.65 27.75,-371.92 34.72,-371.28"/>
</g>
<!-- Node151 -->
<g id="node5" class="node">
<title>Node151</title>
<g id="a_node5"><a xlink:href="classamr__wind_1_1channel__flow_1_1_channel_flow.html" target="_top" xlink:title="Channel Flow physics.">
<polygon fill="white" stroke="black" points="110.5,-594 110.5,-624 244.5,-624 244.5,-594 110.5,-594"/>
<text text-anchor="start" x="118.5" y="-612" font-family="Helvetica,sans-Serif" font-size="10.00">amr_wind::channel_flow</text>
<text text-anchor="middle" x="177.5" y="-601" font-family="Helvetica,sans-Serif" font-size="10.00">::ChannelFlow</text>
</a>
</g>
</g>
<!-- Node147&#45;&gt;Node151 -->
<g id="edge4" class="edge">
<title>Node147&#45;&gt;Node151</title>
<path fill="none" stroke="midnightblue" d="M28.84,-371.64C28.45,-416.08 33.96,-525.14 93,-585 97.98,-590.05 103.94,-594.05 110.36,-597.22"/>
<polygon fill="midnightblue" stroke="midnightblue" points="32.34,-371.64 29.04,-361.58 25.34,-371.5 32.34,-371.64"/>
</g>
<!-- Node152 -->
<g id="node6" class="node">
<title>Node152</title>
<g id="a_node6"><a xlink:href="classamr__wind_1_1ctv_1_1_convecting_taylor_vortex.html" target="_top" xlink:title="Convecting Taylor Vortex physics.">
<polygon fill="white" stroke="black" points="104.5,-545 104.5,-575 250.5,-575 250.5,-545 104.5,-545"/>
<text text-anchor="start" x="112.5" y="-563" font-family="Helvetica,sans-Serif" font-size="10.00">amr_wind::ctv::Convecting</text>
<text text-anchor="middle" x="177.5" y="-552" font-family="Helvetica,sans-Serif" font-size="10.00">TaylorVortex</text>
</a>
</g>
</g>
<!-- Node147&#45;&gt;Node152 -->
<g id="edge5" class="edge">
<title>Node147&#45;&gt;Node152</title>
<path fill="none" stroke="midnightblue" d="M30.63,-371.62C33.83,-408.86 46.12,-490.1 93,-535 97.04,-538.87 101.66,-542.15 106.61,-544.92"/>
<polygon fill="midnightblue" stroke="midnightblue" points="34.11,-371.28 29.89,-361.56 27.13,-371.79 34.11,-371.28"/>
</g>
<!-- Node153 -->
<g id="node7" class="node">
<title>Node153</title>
<g id="a_node7"><a xlink:href="classamr__wind_1_1_dam_break.html" target="_top" xlink:title=" ">
<polygon fill="white" stroke="black" points="116.5,-506.5 116.5,-525.5 238.5,-525.5 238.5,-506.5 116.5,-506.5"/>
<text text-anchor="middle" x="177.5" y="-513.5" font-family="Helvetica,sans-Serif" font-size="10.00">amr_wind::DamBreak</text>
</a>
</g>
</g>
<!-- Node147&#45;&gt;Node153 -->
<g id="edge6" class="edge">
<title>Node147&#45;&gt;Node153</title>
<path fill="none" stroke="midnightblue" d="M32.38,-371.67C38.06,-403.14 53.76,-464.56 93,-497 99.76,-502.59 107.84,-506.61 116.27,-509.49"/>
<polygon fill="midnightblue" stroke="midnightblue" points="35.79,-370.84 30.71,-361.54 28.88,-371.98 35.79,-370.84"/>
</g>
<!-- Node154 -->
<g id="node8" class="node">
<title>Node154</title>
<g id="a_node8"><a xlink:href="classamr__wind_1_1_ekman_spiral.html" target="_top" xlink:title="Ekman Spiral physics.">
<polygon fill="white" stroke="black" points="111.5,-468.5 111.5,-487.5 243.5,-487.5 243.5,-468.5 111.5,-468.5"/>
<text text-anchor="middle" x="177.5" y="-475.5" font-family="Helvetica,sans-Serif" font-size="10.00">amr_wind::EkmanSpiral</text>
</a>
</g>
</g>
<!-- Node147&#45;&gt;Node154 -->
<g id="edge7" class="edge">
<title>Node147&#45;&gt;Node154</title>
<path fill="none" stroke="midnightblue" d="M35.62,-371.36C44.34,-395.7 62.73,-436.96 93,-459 98.53,-463.03 104.77,-466.22 111.28,-468.75"/>
<polygon fill="midnightblue" stroke="midnightblue" points="38.9,-370.14 32.37,-361.79 32.27,-372.38 38.9,-370.14"/>
</g>
<!-- Node155 -->
<g id="node9" class="node">
<title>Node155</title>
<g id="a_node9"><a xlink:href="classamr__wind_1_1_free_stream.html" target="_top" xlink:title="Freestream physics.">
<polygon fill="white" stroke="black" points="114,-430.5 114,-449.5 241,-449.5 241,-430.5 114,-430.5"/>
<text text-anchor="middle" x="177.5" y="-437.5" font-family="Helvetica,sans-Serif" font-size="10.00">amr_wind::FreeStream</text>
</a>
</g>
</g>
<!-- Node147&#45;&gt;Node155 -->
<g id="edge8" class="edge">
<title>Node147&#45;&gt;Node155</title>
<path fill="none" stroke="midnightblue" d="M41.42,-370.2C52.78,-386.07 71.34,-408.44 93,-421 99.69,-424.88 107.11,-427.96 114.68,-430.42"/>
<polygon fill="midnightblue" stroke="midnightblue" points="44.15,-367.99 35.59,-361.74 38.38,-371.96 44.15,-367.99"/>
</g>
<!-- Node156 -->
<g id="node10" class="node">
<title>Node156</title>
<g id="a_node10"><a xlink:href="classamr__wind_1_1hybrid__rans__les__abl_1_1_hybrid_r_a_n_s_l_e_s_a_b_l.html" target="_top" xlink:title="Hybrid RANS/LES with ABL.">
<polygon fill="white" stroke="black" points="98.5,-381 98.5,-411 256.5,-411 256.5,-381 98.5,-381"/>
<text text-anchor="start" x="106.5" y="-399" font-family="Helvetica,sans-Serif" font-size="10.00">amr_wind::hybrid_rans</text>
<text text-anchor="middle" x="177.5" y="-388" font-family="Helvetica,sans-Serif" font-size="10.00">_les_abl::HybridRANSLESABL</text>
</a>
</g>
</g>
<!-- Node147&#45;&gt;Node156 -->
<g id="edge9" class="edge">
<title>Node147&#45;&gt;Node156</title>
<path fill="none" stroke="midnightblue" d="M66.75,-363.15C84.84,-368.56 106.83,-375.15 126.36,-380.99"/>
<polygon fill="midnightblue" stroke="midnightblue" points="67.73,-359.79 57.15,-360.28 65.73,-366.5 67.73,-359.79"/>
</g>
<!-- Node157 -->
<g id="node11" class="node">
<title>Node157</title>
<g id="a_node11"><a xlink:href="classamr__wind_1_1mms_1_1_m_m_s.html" target="_top" xlink:title="Method of manufactured solutions physics.">
<polygon fill="white" stroke="black" points="115,-342.5 115,-361.5 240,-361.5 240,-342.5 115,-342.5"/>
<text text-anchor="middle" x="177.5" y="-349.5" font-family="Helvetica,sans-Serif" font-size="10.00">amr_wind::mms::MMS</text>
</a>
</g>
</g>
<!-- Node147&#45;&gt;Node157 -->
<g id="edge10" class="edge">
<title>Node147&#45;&gt;Node157</title>
<path fill="none" stroke="midnightblue" d="M67.23,-352C81.73,-352 98.69,-352 114.86,-352"/>
<polygon fill="midnightblue" stroke="midnightblue" points="67.15,-348.5 57.15,-352 67.15,-355.5 67.15,-348.5"/>
</g>
<!-- Node158 -->
<g id="node12" class="node">
<title>Node158</title>
<g id="a_node12"><a xlink:href="classamr__wind_1_1_multi_phase.html" target="_top" xlink:title=" ">
<polygon fill="white" stroke="black" points="115,-304.5 115,-323.5 240,-323.5 240,-304.5 115,-304.5"/>
<text text-anchor="middle" x="177.5" y="-311.5" font-family="Helvetica,sans-Serif" font-size="10.00">amr_wind::MultiPhase</text>
</a>
</g>
</g>
<!-- Node147&#45;&gt;Node158 -->
<g id="edge11" class="edge">
<title>Node147&#45;&gt;Node158</title>
<path fill="none" stroke="midnightblue" d="M66.93,-340.35C75.47,-337.82 84.52,-335.23 93,-333 105.65,-329.67 119.47,-326.39 132.16,-323.51"/>
<polygon fill="midnightblue" stroke="midnightblue" points="65.77,-337.04 57.21,-343.27 67.79,-343.74 65.77,-337.04"/>
</g>
<!-- Node159 -->
<g id="node13" class="node">
<title>Node159</title>
<g id="a_node13"><a xlink:href="classamr__wind_1_1_n_w_b.html" target="_top" xlink:title="Numerical Wave Basin physics.">
<polygon fill="white" stroke="black" points="130,-266.5 130,-285.5 225,-285.5 225,-266.5 130,-266.5"/>
<text text-anchor="middle" x="177.5" y="-273.5" font-family="Helvetica,sans-Serif" font-size="10.00">amr_wind::NWB</text>
</a>
</g>
</g>
<!-- Node147&#45;&gt;Node159 -->
<g id="edge12" class="edge">
<title>Node147&#45;&gt;Node159</title>
<path fill="none" stroke="midnightblue" d="M44.36,-334.55C56.24,-321.7 74.01,-304.83 93,-295 104.35,-289.12 117.5,-285.05 129.96,-282.23"/>
<polygon fill="midnightblue" stroke="midnightblue" points="41.49,-332.5 37.44,-342.29 46.71,-337.16 41.49,-332.5"/>
</g>
<!-- Node160 -->
<g id="node14" class="node">
<title>Node160</title>
<g id="a_node14"><a xlink:href="classamr__wind_1_1_rain_drop.html" target="_top" xlink:title=" ">
<polygon fill="white" stroke="black" points="119.5,-228.5 119.5,-247.5 235.5,-247.5 235.5,-228.5 119.5,-228.5"/>
<text text-anchor="middle" x="177.5" y="-235.5" font-family="Helvetica,sans-Serif" font-size="10.00">amr_wind::RainDrop</text>
</a>
</g>
</g>
<!-- Node147&#45;&gt;Node160 -->
<g id="edge13" class="edge">
<title>Node147&#45;&gt;Node160</title>
<path fill="none" stroke="midnightblue" d="M37.04,-332.91C46.68,-311.08 65.47,-275.94 93,-257 100.84,-251.61 109.98,-247.72 119.27,-244.93"/>
<polygon fill="midnightblue" stroke="midnightblue" points="33.69,-331.85 33.05,-342.42 40.15,-334.56 33.69,-331.85"/>
</g>
<!-- Node161 -->
<g id="node15" class="node">
<title>Node161</title>
<g id="a_node15"><a xlink:href="classamr__wind_1_1_rayleigh_taylor.html" target="_top" xlink:title="Rayleigh Taylor physics.">
<polygon fill="white" stroke="black" points="106,-190.5 106,-209.5 249,-209.5 249,-190.5 106,-190.5"/>
<text text-anchor="middle" x="177.5" y="-197.5" font-family="Helvetica,sans-Serif" font-size="10.00">amr_wind::RayleighTaylor</text>
</a>
</g>
</g>
<!-- Node147&#45;&gt;Node161 -->
<g id="edge14" class="edge">
<title>Node147&#45;&gt;Node161</title>
<path fill="none" stroke="midnightblue" d="M33.26,-332.27C39.92,-302.9 56.68,-248.05 93,-219 97.76,-215.19 103.14,-212.12 108.81,-209.64"/>
<polygon fill="midnightblue" stroke="midnightblue" points="29.81,-331.66 31.18,-342.17 36.66,-333.1 29.81,-331.66"/>
</g>
<!-- Node162 -->
<g id="node16" class="node">
<title>Node162</title>
<g id="a_node16"><a xlink:href="classamr__wind_1_1_sloshing_tank.html" target="_top" xlink:title=" ">
<polygon fill="white" stroke="black" points="110.5,-152.5 110.5,-171.5 244.5,-171.5 244.5,-152.5 110.5,-152.5"/>
<text text-anchor="middle" x="177.5" y="-159.5" font-family="Helvetica,sans-Serif" font-size="10.00">amr_wind::SloshingTank</text>
</a>
</g>
</g>
<!-- Node147&#45;&gt;Node162 -->
<g id="edge15" class="edge">
<title>Node147&#45;&gt;Node162</title>
<path fill="none" stroke="midnightblue" d="M30.94,-331.89C34.63,-295.95 47.65,-220.73 93,-181 98.03,-176.59 103.87,-173.15 110.09,-170.46"/>
<polygon fill="midnightblue" stroke="midnightblue" points="27.43,-331.82 30.04,-342.09 34.4,-332.44 27.43,-331.82"/>
</g>
<!-- Node163 -->
<g id="node17" class="node">
<title>Node163</title>
<g id="a_node17"><a xlink:href="classamr__wind_1_1_synthetic_turbulence.html" target="_top" xlink:title=" ">
<polygon fill="white" stroke="black" points="93,-114.5 93,-133.5 262,-133.5 262,-114.5 93,-114.5"/>
<text text-anchor="middle" x="177.5" y="-121.5" font-family="Helvetica,sans-Serif" font-size="10.00">amr_wind::SyntheticTurbulence</text>
</a>
</g>
</g>
<!-- Node147&#45;&gt;Node163 -->
<g id="edge16" class="edge">
<title>Node147&#45;&gt;Node163</title>
<path fill="none" stroke="midnightblue" d="M29.35,-332.2C30.16,-290.66 38.21,-194.02 93,-143 97.03,-139.25 101.63,-136.19 106.57,-133.69"/>
<polygon fill="midnightblue" stroke="midnightblue" points="25.85,-332.35 29.28,-342.38 32.85,-332.4 25.85,-332.35"/>
</g>
<!-- Node164 -->
<g id="node18" class="node">
<title>Node164</title>
<g id="a_node18"><a xlink:href="classamr__wind_1_1_taylor_green_vortex.html" target="_top" xlink:title="Taylor Green Vortex physics.">
<polygon fill="white" stroke="black" points="97,-76.5 97,-95.5 258,-95.5 258,-76.5 97,-76.5"/>
<text text-anchor="middle" x="177.5" y="-83.5" font-family="Helvetica,sans-Serif" font-size="10.00">amr_wind::TaylorGreenVortex</text>
</a>
</g>
</g>
<!-- Node147&#45;&gt;Node164 -->
<g id="edge17" class="edge">
<title>Node147&#45;&gt;Node164</title>
<path fill="none" stroke="midnightblue" d="M31.9,-332.41C38.75,-279.76 60.03,-137.07 93,-105 96.94,-101.16 101.49,-98.04 106.39,-95.5"/>
<polygon fill="midnightblue" stroke="midnightblue" points="28.41,-332.1 30.63,-342.46 35.36,-332.98 28.41,-332.1"/>
</g>
<!-- Node165 -->
<g id="node19" class="node">
<title>Node165</title>
<g id="a_node19"><a xlink:href="classamr__wind_1_1_vortex_patch.html" target="_top" xlink:title=" ">
<polygon fill="white" stroke="black" points="113.5,-38.5 113.5,-57.5 241.5,-57.5 241.5,-38.5 113.5,-38.5"/>
<text text-anchor="middle" x="177.5" y="-45.5" font-family="Helvetica,sans-Serif" font-size="10.00">amr_wind::VortexPatch</text>
</a>
</g>
</g>
<!-- Node147&#45;&gt;Node165 -->
<g id="edge18" class="edge">
<title>Node147&#45;&gt;Node165</title>
<path fill="none" stroke="midnightblue" d="M31.2,-332.14C36.61,-273.84 55.28,-104.89 93,-67 98.66,-61.31 105.65,-57.18 113.16,-54.19"/>
<polygon fill="midnightblue" stroke="midnightblue" points="27.7,-331.98 30.3,-342.25 34.68,-332.6 27.7,-331.98"/>
</g>
<!-- Node166 -->
<g id="node20" class="node">
<title>Node166</title>
<g id="a_node20"><a xlink:href="classamr__wind_1_1_zalesak_disk.html" target="_top" xlink:title=" ">
<polygon fill="white" stroke="black" points="112,-0.5 112,-19.5 243,-19.5 243,-0.5 112,-0.5"/>
<text text-anchor="middle" x="177.5" y="-7.5" font-family="Helvetica,sans-Serif" font-size="10.00">amr_wind::ZalesakDisk</text>
</a>
</g>
</g>
<!-- Node147&#45;&gt;Node166 -->
<g id="edge19" class="edge">
<title>Node147&#45;&gt;Node166</title>
<path fill="none" stroke="midnightblue" d="M30.64,-332.05C34.69,-268.55 50.47,-72.81 93,-29 98.28,-23.56 104.77,-19.53 111.78,-16.57"/>
<polygon fill="midnightblue" stroke="midnightblue" points="27.13,-332.1 30.02,-342.3 34.12,-332.53 27.13,-332.1"/>
</g>
</g>
</svg>
