<?xml version="1.0" encoding="UTF-8" standalone="no"?>
<!DOCTYPE svg PUBLIC "-//W3C//DTD SVG 1.1//EN"
 "http://www.w3.org/Graphics/SVG/1.1/DTD/svg11.dtd">
<!-- Generated by graphviz version 2.43.0 (0)
 -->
<!-- Title: tensor_ops.H Pages: 1 -->
<!--zoomable 364 -->
<svg id="main" version="1.1" xmlns="http://www.w3.org/2000/svg" xmlns:xlink="http://www.w3.org/1999/xlink" xml:space="preserve" onload="init(evt)">
<style type="text/css"><![CDATA[
.edge:hover path { stroke: red; }
.edge:hover polygon { stroke: red; fill: red; }
]]></style>
<script type="text/javascript"><![CDATA[
var edges = document.getElementsByTagName('g');
if (edges && edges.length) {
  for (var i=0;i<edges.length;i++) {
    if (edges[i].id.substr(0,4)=='edge') {
      edges[i].setAttribute('class','edge');
    }
  }
}
]]></script>
        <defs>
                <circle id="rim" cx="0" cy="0" r="7"/>
                <circle id="rim2" cx="0" cy="0" r="3.5"/>
                <g id="zoomPlus">
                        <use xlink:href="#rim" fill="#404040">
                                <set attributeName="fill" to="#808080" begin="zoomplus.mouseover" end="zoomplus.mouseout"/>
                        </use>
                        <path d="M-4,0h8M0,-4v8" fill="none" stroke="white" stroke-width="1.5" pointer-events="none"/>
                </g>
                <g id="zoomMin">
                        <use xlink:href="#rim" fill="#404040">
                                <set attributeName="fill" to="#808080" begin="zoomminus.mouseover" end="zoomminus.mouseout"/>
                        </use>
                        <path d="M-4,0h8" fill="none" stroke="white" stroke-width="1.5" pointer-events="none"/>
                </g>
                <g id="dirArrow">
                        <path fill="none" stroke="white" stroke-width="1.5" d="M0,-3.0v7 M-2.5,-0.5L0,-3.0L2.5,-0.5"/>
                </g>
               <g id="resetDef">
                       <use xlink:href="#rim2" fill="#404040">
                               <set attributeName="fill" to="#808080" begin="reset.mouseover" end="reset.mouseout"/>
                       </use>
               </g>
        </defs>

<script type="text/javascript">
var viewWidth = 971;
var viewHeight = 364;
var sectionId = 'dynsection-1';
</script>
<script xlink:href="svgpan.js"/>
<svg id="graph" class="graph">
<g id="viewport">
<title>tensor_ops.H</title>
<polygon fill="white" stroke="transparent" points="-4,4 -4,-360 966.5,-360 966.5,4 -4,4"/>
<!-- Node1 -->
<g id="node1" class="node">
<title>Node1</title>
<g id="a_node1"><a xlink:title=" ">
<polygon fill="#bfbfbf" stroke="black" points="341.5,-336.5 341.5,-355.5 421.5,-355.5 421.5,-336.5 341.5,-336.5"/>
<text text-anchor="middle" x="381.5" y="-343.5" font-family="Helvetica,sans-Serif" font-size="10.00">tensor_ops.H</text>
</a>
</g>
</g>
<!-- Node2 -->
<g id="node2" class="node">
<title>Node2</title>
<g id="a_node2"><a xlink:href="_coriolis_forcing_8cpp.html" target="_top" xlink:title=" ">
<polygon fill="white" stroke="black" points="0,-280.5 0,-299.5 109,-299.5 109,-280.5 0,-280.5"/>
<text text-anchor="middle" x="54.5" y="-287.5" font-family="Helvetica,sans-Serif" font-size="10.00">CoriolisForcing.cpp</text>
</a>
</g>
</g>
<!-- Node1&#45;&gt;Node2 -->
<g id="edge1" class="edge">
<title>Node1&#45;&gt;Node2</title>
<path fill="none" stroke="midnightblue" d="M331.25,-336.7C270.25,-326.63 167.91,-309.73 106.25,-299.55"/>
<polygon fill="midnightblue" stroke="midnightblue" points="330.97,-340.2 341.4,-338.38 332.11,-333.3 330.97,-340.2"/>
</g>
<!-- Node3 -->
<g id="node3" class="node">
<title>Node3</title>
<g id="a_node3"><a xlink:href="_synthetic_turbulence_8cpp.html" target="_top" xlink:title=" ">
<polygon fill="white" stroke="black" points="127,-280.5 127,-299.5 262,-299.5 262,-280.5 127,-280.5"/>
<text text-anchor="middle" x="194.5" y="-287.5" font-family="Helvetica,sans-Serif" font-size="10.00">SyntheticTurbulence.cpp</text>
</a>
</g>
</g>
<!-- Node1&#45;&gt;Node3 -->
<g id="edge2" class="edge">
<title>Node1&#45;&gt;Node3</title>
<path fill="none" stroke="midnightblue" d="M341.91,-333.57C306.63,-323.38 255.81,-308.7 223.99,-299.52"/>
<polygon fill="midnightblue" stroke="midnightblue" points="341.29,-337.03 351.87,-336.44 343.23,-330.31 341.29,-337.03"/>
</g>
<!-- Node4 -->
<g id="node4" class="node">
<title>Node4</title>
<g id="a_node4"><a xlink:href="_line_sampler_8cpp.html" target="_top" xlink:title=" ">
<polygon fill="white" stroke="black" points="280,-280.5 280,-299.5 377,-299.5 377,-280.5 280,-280.5"/>
<text text-anchor="middle" x="328.5" y="-287.5" font-family="Helvetica,sans-Serif" font-size="10.00">LineSampler.cpp</text>
</a>
</g>
</g>
<!-- Node1&#45;&gt;Node4 -->
<g id="edge3" class="edge">
<title>Node1&#45;&gt;Node4</title>
<path fill="none" stroke="midnightblue" d="M365.52,-328.72C356.18,-319.2 344.75,-307.56 337.09,-299.75"/>
<polygon fill="midnightblue" stroke="midnightblue" points="363.25,-331.4 372.75,-336.08 368.24,-326.49 363.25,-331.4"/>
</g>
<!-- Node5 -->
<g id="node5" class="node">
<title>Node5</title>
<g id="a_node5"><a xlink:href="_a_b_l_stats_8cpp.html" target="_top" xlink:title=" ">
<polygon fill="white" stroke="black" points="395.5,-280.5 395.5,-299.5 475.5,-299.5 475.5,-280.5 395.5,-280.5"/>
<text text-anchor="middle" x="435.5" y="-287.5" font-family="Helvetica,sans-Serif" font-size="10.00">ABLStats.cpp</text>
</a>
</g>
</g>
<!-- Node1&#45;&gt;Node5 -->
<g id="edge4" class="edge">
<title>Node1&#45;&gt;Node5</title>
<path fill="none" stroke="midnightblue" d="M397.5,-329C407.07,-319.43 418.86,-307.64 426.75,-299.75"/>
<polygon fill="midnightblue" stroke="midnightblue" points="395.01,-326.54 390.42,-336.08 399.96,-331.49 395.01,-326.54"/>
</g>
<!-- Node6 -->
<g id="node6" class="node">
<title>Node6</title>
<g id="a_node6"><a xlink:href="_a_b_l_wall_function_8cpp.html" target="_top" xlink:title=" ">
<polygon fill="white" stroke="black" points="494,-280.5 494,-299.5 611,-299.5 611,-280.5 494,-280.5"/>
<text text-anchor="middle" x="552.5" y="-287.5" font-family="Helvetica,sans-Serif" font-size="10.00">ABLWallFunction.cpp</text>
</a>
</g>
</g>
<!-- Node1&#45;&gt;Node6 -->
<g id="edge5" class="edge">
<title>Node1&#45;&gt;Node6</title>
<path fill="none" stroke="midnightblue" d="M418.54,-333.3C450.76,-323.13 496.69,-308.62 525.53,-299.52"/>
<polygon fill="midnightblue" stroke="midnightblue" points="417.08,-330.09 408.6,-336.44 419.19,-336.77 417.08,-330.09"/>
</g>
<!-- Node7 -->
<g id="node7" class="node">
<title>Node7</title>
<g id="a_node7"><a xlink:href="actuator__utils_8_h.html" target="_top" xlink:title=" ">
<polygon fill="white" stroke="black" points="629.5,-280.5 629.5,-299.5 723.5,-299.5 723.5,-280.5 629.5,-280.5"/>
<text text-anchor="middle" x="676.5" y="-287.5" font-family="Helvetica,sans-Serif" font-size="10.00">actuator_utils.H</text>
</a>
</g>
</g>
<!-- Node1&#45;&gt;Node7 -->
<g id="edge6" class="edge">
<title>Node1&#45;&gt;Node7</title>
<path fill="none" stroke="midnightblue" d="M431.54,-335.84C486.95,-325.7 575.59,-309.47 629.68,-299.57"/>
<polygon fill="midnightblue" stroke="midnightblue" points="430.8,-332.42 421.59,-337.66 432.06,-339.3 430.8,-332.42"/>
</g>
<!-- Node8 -->
<g id="node8" class="node">
<title>Node8</title>
<g id="a_node8"><a xlink:href="actuator__ops_i_8_h.html" target="_top" xlink:title=" ">
<polygon fill="white" stroke="black" points="630,-224.5 630,-243.5 723,-243.5 723,-224.5 630,-224.5"/>
<text text-anchor="middle" x="676.5" y="-231.5" font-family="Helvetica,sans-Serif" font-size="10.00">actuator_opsI.H</text>
</a>
</g>
</g>
<!-- Node7&#45;&gt;Node8 -->
<g id="edge7" class="edge">
<title>Node7&#45;&gt;Node8</title>
<path fill="none" stroke="midnightblue" d="M676.5,-269.8C676.5,-260.91 676.5,-250.78 676.5,-243.75"/>
<polygon fill="midnightblue" stroke="midnightblue" points="673,-270.08 676.5,-280.08 680,-270.08 673,-270.08"/>
</g>
<!-- Node10 -->
<g id="node10" class="node">
<title>Node10</title>
<g id="a_node10"><a xlink:href="_act_src_line_op_8_h.html" target="_top" xlink:title=" ">
<polygon fill="white" stroke="black" points="416.5,-112.5 416.5,-131.5 508.5,-131.5 508.5,-112.5 416.5,-112.5"/>
<text text-anchor="middle" x="462.5" y="-119.5" font-family="Helvetica,sans-Serif" font-size="10.00">ActSrcLineOp.H</text>
</a>
</g>
</g>
<!-- Node7&#45;&gt;Node10 -->
<g id="edge28" class="edge">
<title>Node7&#45;&gt;Node10</title>
<path fill="none" stroke="midnightblue" d="M652.72,-275.34C638.41,-266.83 620.01,-255.36 604.5,-244 551.72,-205.34 493.82,-152.35 471.74,-131.72"/>
<polygon fill="midnightblue" stroke="midnightblue" points="651.07,-278.43 661.47,-280.48 654.62,-272.4 651.07,-278.43"/>
</g>
<!-- Node16 -->
<g id="node16" class="node">
<title>Node16</title>
<g id="a_node16"><a xlink:href="_act_src_disk_op_8_h.html" target="_top" xlink:title=" ">
<polygon fill="white" stroke="black" points="527,-112.5 527,-131.5 620,-131.5 620,-112.5 527,-112.5"/>
<text text-anchor="middle" x="573.5" y="-119.5" font-family="Helvetica,sans-Serif" font-size="10.00">ActSrcDiskOp.H</text>
</a>
</g>
</g>
<!-- Node7&#45;&gt;Node16 -->
<g id="edge29" class="edge">
<title>Node7&#45;&gt;Node16</title>
<path fill="none" stroke="midnightblue" d="M653.81,-274.5C642.86,-266.57 630.23,-255.94 621.5,-244 594.42,-206.97 580.11,-152.58 575.34,-131.65"/>
<polygon fill="midnightblue" stroke="midnightblue" points="651.91,-277.44 662.12,-280.25 655.89,-271.68 651.91,-277.44"/>
</g>
<!-- Node17 -->
<g id="node17" class="node">
<title>Node17</title>
<g id="a_node17"><a xlink:href="turbine__fast__ops_8_h.html" target="_top" xlink:title=" ">
<polygon fill="white" stroke="black" points="844.5,-112.5 844.5,-131.5 952.5,-131.5 952.5,-112.5 844.5,-112.5"/>
<text text-anchor="middle" x="898.5" y="-119.5" font-family="Helvetica,sans-Serif" font-size="10.00">turbine_fast_ops.H</text>
</a>
</g>
</g>
<!-- Node7&#45;&gt;Node17 -->
<g id="edge31" class="edge">
<title>Node7&#45;&gt;Node17</title>
<path fill="none" stroke="midnightblue" d="M696.26,-274.23C741.45,-240.44 851.18,-158.38 886.99,-131.61"/>
<polygon fill="midnightblue" stroke="midnightblue" points="694.04,-271.52 688.12,-280.31 698.23,-277.12 694.04,-271.52"/>
</g>
<!-- Node22 -->
<g id="node22" class="node">
<title>Node22</title>
<g id="a_node22"><a xlink:href="actuator__utils_8cpp.html" target="_top" xlink:title=" ">
<polygon fill="white" stroke="black" points="779.5,-224.5 779.5,-243.5 883.5,-243.5 883.5,-224.5 779.5,-224.5"/>
<text text-anchor="middle" x="831.5" y="-231.5" font-family="Helvetica,sans-Serif" font-size="10.00">actuator_utils.cpp</text>
</a>
</g>
</g>
<!-- Node7&#45;&gt;Node22 -->
<g id="edge30" class="edge">
<title>Node7&#45;&gt;Node22</title>
<path fill="none" stroke="midnightblue" d="M710.83,-277.04C740,-266.88 781.14,-252.55 807.05,-243.52"/>
<polygon fill="midnightblue" stroke="midnightblue" points="709.35,-273.85 701.06,-280.44 711.66,-280.46 709.35,-273.85"/>
</g>
<!-- Node9 -->
<g id="node9" class="node">
<title>Node9</title>
<g id="a_node9"><a xlink:href="actuator__ops_8_h.html" target="_top" xlink:title=" ">
<polygon fill="white" stroke="black" points="632.5,-168.5 632.5,-187.5 722.5,-187.5 722.5,-168.5 632.5,-168.5"/>
<text text-anchor="middle" x="677.5" y="-175.5" font-family="Helvetica,sans-Serif" font-size="10.00">actuator_ops.H</text>
</a>
</g>
</g>
<!-- Node8&#45;&gt;Node9 -->
<g id="edge8" class="edge">
<title>Node8&#45;&gt;Node9</title>
<path fill="none" stroke="midnightblue" d="M676.86,-213.8C677.02,-204.91 677.21,-194.78 677.34,-187.75"/>
<polygon fill="midnightblue" stroke="midnightblue" points="673.35,-214.02 676.67,-224.08 680.35,-214.15 673.35,-214.02"/>
</g>
<!-- Node9&#45;&gt;Node10 -->
<g id="edge9" class="edge">
<title>Node9&#45;&gt;Node10</title>
<path fill="none" stroke="midnightblue" d="M633.54,-165.96C592.93,-155.76 533.46,-140.82 496.41,-131.52"/>
<polygon fill="midnightblue" stroke="midnightblue" points="632.88,-169.4 643.43,-168.44 634.59,-162.61 632.88,-169.4"/>
</g>
<!-- Node11 -->
<g id="node11" class="node">
<title>Node11</title>
<g id="a_node11"><a xlink:href="_actuator_model_8_h.html" target="_top" xlink:title=" ">
<polygon fill="white" stroke="black" points="480.5,-56.5 480.5,-75.5 578.5,-75.5 578.5,-56.5 480.5,-56.5"/>
<text text-anchor="middle" x="529.5" y="-63.5" font-family="Helvetica,sans-Serif" font-size="10.00">ActuatorModel.H</text>
</a>
</g>
</g>
<!-- Node9&#45;&gt;Node11 -->
<g id="edge15" class="edge">
<title>Node9&#45;&gt;Node11</title>
<path fill="none" stroke="midnightblue" d="M667.97,-159.45C659.45,-145.12 645.82,-125.17 629.5,-112 608.31,-94.91 579.59,-82.87 558.37,-75.57"/>
<polygon fill="midnightblue" stroke="midnightblue" points="665.02,-161.35 673.01,-168.31 671.11,-157.89 665.02,-161.35"/>
</g>
<!-- Node9&#45;&gt;Node16 -->
<g id="edge16" class="edge">
<title>Node9&#45;&gt;Node16</title>
<path fill="none" stroke="midnightblue" d="M651.67,-163.59C632.44,-153.61 606.76,-140.27 590.17,-131.65"/>
<polygon fill="midnightblue" stroke="midnightblue" points="650.3,-166.82 660.79,-168.32 653.53,-160.61 650.3,-166.82"/>
</g>
<!-- Node9&#45;&gt;Node17 -->
<g id="edge18" class="edge">
<title>Node9&#45;&gt;Node17</title>
<path fill="none" stroke="midnightblue" d="M722.42,-166.02C764.17,-155.82 825.48,-140.84 863.65,-131.52"/>
<polygon fill="midnightblue" stroke="midnightblue" points="721.4,-162.67 712.52,-168.44 723.06,-169.47 721.4,-162.67"/>
</g>
<!-- Node18 -->
<g id="node18" class="node">
<title>Node18</title>
<g id="a_node18"><a xlink:href="fixed__wing__ops_8_h.html" target="_top" xlink:title=" ">
<polygon fill="white" stroke="black" points="811,-56.5 811,-75.5 912,-75.5 912,-56.5 811,-56.5"/>
<text text-anchor="middle" x="861.5" y="-63.5" font-family="Helvetica,sans-Serif" font-size="10.00">fixed_wing_ops.H</text>
</a>
</g>
</g>
<!-- Node9&#45;&gt;Node18 -->
<g id="edge20" class="edge">
<title>Node9&#45;&gt;Node18</title>
<path fill="none" stroke="midnightblue" d="M721.46,-165.55C745.16,-158.18 774.23,-147.11 797.5,-132 821.94,-116.13 844.31,-89.49 854.96,-75.77"/>
<polygon fill="midnightblue" stroke="midnightblue" points="720.24,-162.27 711.67,-168.49 722.25,-168.97 720.24,-162.27"/>
</g>
<!-- Node19 -->
<g id="node19" class="node">
<title>Node19</title>
<g id="a_node19"><a xlink:href="wing__ops_8_h.html" target="_top" xlink:title=" ">
<polygon fill="white" stroke="black" points="715,-112.5 715,-131.5 788,-131.5 788,-112.5 715,-112.5"/>
<text text-anchor="middle" x="751.5" y="-119.5" font-family="Helvetica,sans-Serif" font-size="10.00">wing_ops.H</text>
</a>
</g>
</g>
<!-- Node9&#45;&gt;Node19 -->
<g id="edge22" class="edge">
<title>Node9&#45;&gt;Node19</title>
<path fill="none" stroke="midnightblue" d="M697.53,-162.38C710.91,-152.62 728.06,-140.11 739.39,-131.83"/>
<polygon fill="midnightblue" stroke="midnightblue" points="695.4,-159.6 689.39,-168.32 699.53,-165.26 695.4,-159.6"/>
</g>
<!-- Node20 -->
<g id="node20" class="node">
<title>Node20</title>
<g id="a_node20"><a xlink:href="flat__plate__ops_8_h.html" target="_top" xlink:title=" ">
<polygon fill="white" stroke="black" points="597,-56.5 597,-75.5 692,-75.5 692,-56.5 597,-56.5"/>
<text text-anchor="middle" x="644.5" y="-63.5" font-family="Helvetica,sans-Serif" font-size="10.00">flat_plate_ops.H</text>
</a>
</g>
</g>
<!-- Node9&#45;&gt;Node20 -->
<g id="edge27" class="edge">
<title>Node9&#45;&gt;Node20</title>
<path fill="none" stroke="midnightblue" d="M673.99,-158.37C671.33,-145.26 667.32,-127.39 662.5,-112 658.47,-99.15 652.45,-84.79 648.5,-75.82"/>
<polygon fill="midnightblue" stroke="midnightblue" points="670.62,-159.33 675.97,-168.47 677.49,-157.99 670.62,-159.33"/>
</g>
<!-- Node10&#45;&gt;Node11 -->
<g id="edge10" class="edge">
<title>Node10&#45;&gt;Node11</title>
<path fill="none" stroke="midnightblue" d="M481.33,-105.82C493.34,-96.15 508.47,-83.95 518.54,-75.83"/>
<polygon fill="midnightblue" stroke="midnightblue" points="478.85,-103.32 473.26,-112.32 483.25,-108.77 478.85,-103.32"/>
</g>
<!-- Node12 -->
<g id="node12" class="node">
<title>Node12</title>
<g id="a_node12"><a xlink:href="_actuator_8cpp.html" target="_top" xlink:title=" ">
<polygon fill="white" stroke="black" points="491,-0.5 491,-19.5 568,-19.5 568,-0.5 491,-0.5"/>
<text text-anchor="middle" x="529.5" y="-7.5" font-family="Helvetica,sans-Serif" font-size="10.00">Actuator.cpp</text>
</a>
</g>
</g>
<!-- Node11&#45;&gt;Node12 -->
<g id="edge11" class="edge">
<title>Node11&#45;&gt;Node12</title>
<path fill="none" stroke="midnightblue" d="M529.5,-45.8C529.5,-36.91 529.5,-26.78 529.5,-19.75"/>
<polygon fill="midnightblue" stroke="midnightblue" points="526,-46.08 529.5,-56.08 533,-46.08 526,-46.08"/>
</g>
<!-- Node13 -->
<g id="node13" class="node">
<title>Node13</title>
<g id="a_node13"><a xlink:href="_turbine_fast_8cpp.html" target="_top" xlink:title=" ">
<polygon fill="white" stroke="black" points="870.5,-0.5 870.5,-19.5 962.5,-19.5 962.5,-0.5 870.5,-0.5"/>
<text text-anchor="middle" x="916.5" y="-7.5" font-family="Helvetica,sans-Serif" font-size="10.00">TurbineFast.cpp</text>
</a>
</g>
</g>
<!-- Node11&#45;&gt;Node13 -->
<g id="edge12" class="edge">
<title>Node11&#45;&gt;Node13</title>
<path fill="none" stroke="midnightblue" d="M588.77,-55.98C695.99,-40.5 808.69,-25.32 870.3,-17.12"/>
<polygon fill="midnightblue" stroke="midnightblue" points="588.14,-52.54 578.75,-57.43 589.15,-59.46 588.14,-52.54"/>
</g>
<!-- Node14 -->
<g id="node14" class="node">
<title>Node14</title>
<g id="a_node14"><a xlink:href="_fixed_wing_8cpp.html" target="_top" xlink:title=" ">
<polygon fill="white" stroke="black" points="741,-0.5 741,-19.5 828,-19.5 828,-0.5 741,-0.5"/>
<text text-anchor="middle" x="784.5" y="-7.5" font-family="Helvetica,sans-Serif" font-size="10.00">FixedWing.cpp</text>
</a>
</g>
</g>
<!-- Node11&#45;&gt;Node14 -->
<g id="edge13" class="edge">
<title>Node11&#45;&gt;Node14</title>
<path fill="none" stroke="midnightblue" d="M579.81,-54.35C628,-44.14 699.78,-28.94 744.28,-19.52"/>
<polygon fill="midnightblue" stroke="midnightblue" points="578.96,-50.95 569.91,-56.44 580.41,-57.8 578.96,-50.95"/>
</g>
<!-- Node15 -->
<g id="node15" class="node">
<title>Node15</title>
<g id="a_node15"><a xlink:href="_flat_plate_8cpp.html" target="_top" xlink:title=" ">
<polygon fill="white" stroke="black" points="595.5,-0.5 595.5,-19.5 675.5,-19.5 675.5,-0.5 595.5,-0.5"/>
<text text-anchor="middle" x="635.5" y="-7.5" font-family="Helvetica,sans-Serif" font-size="10.00">FlatPlate.cpp</text>
</a>
</g>
</g>
<!-- Node11&#45;&gt;Node15 -->
<g id="edge14" class="edge">
<title>Node11&#45;&gt;Node15</title>
<path fill="none" stroke="midnightblue" d="M555.56,-51.73C575.18,-41.73 601.53,-28.31 618.51,-19.65"/>
<polygon fill="midnightblue" stroke="midnightblue" points="553.85,-48.67 546.53,-56.32 557.03,-54.9 553.85,-48.67"/>
</g>
<!-- Node16&#45;&gt;Node11 -->
<g id="edge17" class="edge">
<title>Node16&#45;&gt;Node11</title>
<path fill="none" stroke="midnightblue" d="M559.77,-104.14C552.1,-94.74 542.87,-83.4 536.63,-75.75"/>
<polygon fill="midnightblue" stroke="midnightblue" points="557.2,-106.54 566.23,-112.08 562.63,-102.12 557.2,-106.54"/>
</g>
<!-- Node17&#45;&gt;Node13 -->
<g id="edge19" class="edge">
<title>Node17&#45;&gt;Node13</title>
<path fill="none" stroke="midnightblue" d="M909.92,-103.44C914.48,-95.42 919.19,-85.58 921.5,-76 926.27,-56.19 921.86,-32.1 918.82,-19.55"/>
<polygon fill="midnightblue" stroke="midnightblue" points="906.81,-101.83 904.6,-112.19 912.79,-105.46 906.81,-101.83"/>
</g>
<!-- Node18&#45;&gt;Node14 -->
<g id="edge21" class="edge">
<title>Node18&#45;&gt;Node14</title>
<path fill="none" stroke="midnightblue" d="M840.6,-50.34C826.59,-40.52 808.62,-27.91 796.84,-19.65"/>
<polygon fill="midnightblue" stroke="midnightblue" points="838.93,-53.45 849.13,-56.32 842.95,-47.72 838.93,-53.45"/>
</g>
<!-- Node19&#45;&gt;Node18 -->
<g id="edge23" class="edge">
<title>Node19&#45;&gt;Node18</title>
<path fill="none" stroke="midnightblue" d="M778.26,-107.86C798.66,-97.85 826.17,-84.35 843.87,-75.65"/>
<polygon fill="midnightblue" stroke="midnightblue" points="776.61,-104.78 769.17,-112.32 779.69,-111.06 776.61,-104.78"/>
</g>
<!-- Node19&#45;&gt;Node20 -->
<g id="edge24" class="edge">
<title>Node19&#45;&gt;Node20</title>
<path fill="none" stroke="midnightblue" d="M725.2,-107.73C705.39,-97.73 678.79,-84.31 661.65,-75.65"/>
<polygon fill="midnightblue" stroke="midnightblue" points="723.8,-110.94 734.31,-112.32 726.96,-104.69 723.8,-110.94"/>
</g>
<!-- Node21 -->
<g id="node21" class="node">
<title>Node21</title>
<g id="a_node21"><a xlink:href="wing__ops_8cpp.html" target="_top" xlink:title=" ">
<polygon fill="white" stroke="black" points="710,-56.5 710,-75.5 793,-75.5 793,-56.5 710,-56.5"/>
<text text-anchor="middle" x="751.5" y="-63.5" font-family="Helvetica,sans-Serif" font-size="10.00">wing_ops.cpp</text>
</a>
</g>
</g>
<!-- Node19&#45;&gt;Node21 -->
<g id="edge26" class="edge">
<title>Node19&#45;&gt;Node21</title>
<path fill="none" stroke="midnightblue" d="M751.5,-101.8C751.5,-92.91 751.5,-82.78 751.5,-75.75"/>
<polygon fill="midnightblue" stroke="midnightblue" points="748,-102.08 751.5,-112.08 755,-102.08 748,-102.08"/>
</g>
<!-- Node20&#45;&gt;Node15 -->
<g id="edge25" class="edge">
<title>Node20&#45;&gt;Node15</title>
<path fill="none" stroke="midnightblue" d="M641.35,-46.1C639.86,-37.14 638.14,-26.86 636.96,-19.75"/>
<polygon fill="midnightblue" stroke="midnightblue" points="637.92,-46.79 643.01,-56.08 644.82,-45.64 637.92,-46.79"/>
</g>
</g>
</svg>
        <g id="navigator" transform="translate(0 0)" fill="#404254">
                <rect fill="#f2f5e9" fill-opacity="0.5" stroke="#606060" stroke-width=".5" x="0" y="0" width="60" height="60"/>
                <use id="zoomplus" xlink:href="#zoomPlus" x="17" y="9" onmousedown="handleZoom(evt,'in')"/>
                <use id="zoomminus" xlink:href="#zoomMin" x="42" y="9" onmousedown="handleZoom(evt,'out')"/>
                <use id="reset" xlink:href="#resetDef" x="30" y="36" onmousedown="handleReset()"/>
                <g id="arrowUp" xlink:href="#dirArrow" transform="translate(30 24)" onmousedown="handlePan(0,-1)">
                  <use xlink:href="#rim" fill="#404040">
                        <set attributeName="fill" to="#808080" begin="arrowUp.mouseover" end="arrowUp.mouseout"/>
                  </use>
                  <path fill="none" stroke="white" stroke-width="1.5" d="M0,-3.0v7 M-2.5,-0.5L0,-3.0L2.5,-0.5"/>
                </g>
                <g id="arrowRight" xlink:href="#dirArrow" transform="rotate(90) translate(36 -43)" onmousedown="handlePan(1,0)">
                  <use xlink:href="#rim" fill="#404040">
                        <set attributeName="fill" to="#808080" begin="arrowRight.mouseover" end="arrowRight.mouseout"/>
                  </use>
                  <path fill="none" stroke="white" stroke-width="1.5" d="M0,-3.0v7 M-2.5,-0.5L0,-3.0L2.5,-0.5"/>
                </g>
                <g id="arrowDown" xlink:href="#dirArrow" transform="rotate(180) translate(-30 -48)" onmousedown="handlePan(0,1)">
                  <use xlink:href="#rim" fill="#404040">
                        <set attributeName="fill" to="#808080" begin="arrowDown.mouseover" end="arrowDown.mouseout"/>
                  </use>
                  <path fill="none" stroke="white" stroke-width="1.5" d="M0,-3.0v7 M-2.5,-0.5L0,-3.0L2.5,-0.5"/>
                </g>
                <g id="arrowLeft" xlink:href="#dirArrow" transform="rotate(270) translate(-36 17)" onmousedown="handlePan(-1,0)">
                  <use xlink:href="#rim" fill="#404040">
                        <set attributeName="fill" to="#808080" begin="arrowLeft.mouseover" end="arrowLeft.mouseout"/>
                  </use>
                  <path fill="none" stroke="white" stroke-width="1.5" d="M0,-3.0v7 M-2.5,-0.5L0,-3.0L2.5,-0.5"/>
                </g>
        </g>
        <svg viewBox="0 0 15 15" width="100%" height="30px" preserveAspectRatio="xMaxYMin meet">
         <g id="arrow_out" transform="scale(0.3 0.3)">
          <a xlink:href="tensor__ops_8_h__dep__incl_org.svg" target="_base">
           <rect id="button" ry="5" rx="5" y="6" x="6" height="38" width="38"
                fill="#f2f5e9" fill-opacity="0.5" stroke="#606060" stroke-width="1.0"/>
           <path id="arrow"
             d="M 11.500037,31.436501 C 11.940474,20.09759 22.043105,11.32322 32.158766,21.979434 L 37.068811,17.246167 C 37.068811,17.246167 37.088388,32 37.088388,32 L 22.160133,31.978069 C 22.160133,31.978069 26.997745,27.140456 26.997745,27.140456 C 18.528582,18.264221 13.291696,25.230495 11.500037,31.436501 z"
             style="fill:#404040;"/>
          </a>
         </g>
        </svg>
</svg>
