<?xml version="1.0" encoding="UTF-8" standalone="no"?>
<!DOCTYPE svg PUBLIC "-//W3C//DTD SVG 1.1//EN"
 "http://www.w3.org/Graphics/SVG/1.1/DTD/svg11.dtd">
<!-- Generated by graphviz version 2.43.0 (0)
 -->
<!-- Title: tensorI.H Pages: 1 -->
<!--zoomable 476 -->
<svg id="main" version="1.1" xmlns="http://www.w3.org/2000/svg" xmlns:xlink="http://www.w3.org/1999/xlink" xml:space="preserve" onload="init(evt)">
<style type="text/css"><![CDATA[
.edge:hover path { stroke: red; }
.edge:hover polygon { stroke: red; fill: red; }
]]></style>
<script type="text/javascript"><![CDATA[
var edges = document.getElementsByTagName('g');
if (edges && edges.length) {
  for (var i=0;i<edges.length;i++) {
    if (edges[i].id.substr(0,4)=='edge') {
      edges[i].setAttribute('class','edge');
    }
  }
}
]]></script>
        <defs>
                <circle id="rim" cx="0" cy="0" r="7"/>
                <circle id="rim2" cx="0" cy="0" r="3.5"/>
                <g id="zoomPlus">
                        <use xlink:href="#rim" fill="#404040">
                                <set attributeName="fill" to="#808080" begin="zoomplus.mouseover" end="zoomplus.mouseout"/>
                        </use>
                        <path d="M-4,0h8M0,-4v8" fill="none" stroke="white" stroke-width="1.5" pointer-events="none"/>
                </g>
                <g id="zoomMin">
                        <use xlink:href="#rim" fill="#404040">
                                <set attributeName="fill" to="#808080" begin="zoomminus.mouseover" end="zoomminus.mouseout"/>
                        </use>
                        <path d="M-4,0h8" fill="none" stroke="white" stroke-width="1.5" pointer-events="none"/>
                </g>
                <g id="dirArrow">
                        <path fill="none" stroke="white" stroke-width="1.5" d="M0,-3.0v7 M-2.5,-0.5L0,-3.0L2.5,-0.5"/>
                </g>
               <g id="resetDef">
                       <use xlink:href="#rim2" fill="#404040">
                               <set attributeName="fill" to="#808080" begin="reset.mouseover" end="reset.mouseout"/>
                       </use>
               </g>
        </defs>

<script type="text/javascript">
var viewWidth = 1240;
var viewHeight = 476;
var sectionId = 'dynsection-1';
</script>
<script xlink:href="svgpan.js"/>
<svg id="graph" class="graph">
<g id="viewport">
<title>tensorI.H</title>
<polygon fill="white" stroke="transparent" points="-4,4 -4,-472 1236,-472 1236,4 -4,4"/>
<!-- Node1 -->
<g id="node1" class="node">
<title>Node1</title>
<g id="a_node1"><a xlink:title=" ">
<polygon fill="#bfbfbf" stroke="black" points="780,-448.5 780,-467.5 841,-467.5 841,-448.5 780,-448.5"/>
<text text-anchor="middle" x="810.5" y="-455.5" font-family="Helvetica,sans-Serif" font-size="10.00">tensorI.H</text>
</a>
</g>
</g>
<!-- Node2 -->
<g id="node2" class="node">
<title>Node2</title>
<g id="a_node2"><a xlink:href="tensor_8_h.html" target="_top" xlink:title=" ">
<polygon fill="white" stroke="black" points="782,-392.5 782,-411.5 839,-411.5 839,-392.5 782,-392.5"/>
<text text-anchor="middle" x="810.5" y="-399.5" font-family="Helvetica,sans-Serif" font-size="10.00">tensor.H</text>
</a>
</g>
</g>
<!-- Node1&#45;&gt;Node2 -->
<g id="edge1" class="edge">
<title>Node1&#45;&gt;Node2</title>
<path fill="none" stroke="midnightblue" d="M804.03,-438.1C803.4,-429.14 803.84,-418.86 805.37,-411.75"/>
<polygon fill="midnightblue" stroke="midnightblue" points="800.57,-438.62 805.33,-448.08 807.51,-437.71 800.57,-438.62"/>
</g>
<!-- Node2&#45;&gt;Node1 -->
<g id="edge69" class="edge">
<title>Node2&#45;&gt;Node1</title>
<path fill="none" stroke="midnightblue" d="M816.96,-421.69C817.61,-430.64 817.18,-440.93 815.67,-448.08"/>
<polygon fill="midnightblue" stroke="midnightblue" points="820.42,-421.2 815.63,-411.75 813.48,-422.13 820.42,-421.2"/>
</g>
<!-- Node3 -->
<g id="node3" class="node">
<title>Node3</title>
<g id="a_node3"><a xlink:href="vector__space_8_h.html" target="_top" xlink:title=" ">
<polygon fill="white" stroke="black" points="764.5,-336.5 764.5,-355.5 856.5,-355.5 856.5,-336.5 764.5,-336.5"/>
<text text-anchor="middle" x="810.5" y="-343.5" font-family="Helvetica,sans-Serif" font-size="10.00">vector_space.H</text>
</a>
</g>
</g>
<!-- Node2&#45;&gt;Node3 -->
<g id="edge2" class="edge">
<title>Node2&#45;&gt;Node3</title>
<path fill="none" stroke="midnightblue" d="M810.5,-381.8C810.5,-372.91 810.5,-362.78 810.5,-355.75"/>
<polygon fill="midnightblue" stroke="midnightblue" points="807,-382.08 810.5,-392.08 814,-382.08 807,-382.08"/>
</g>
<!-- Node4 -->
<g id="node4" class="node">
<title>Node4</title>
<g id="a_node4"><a xlink:href="_multi_parser_8_h.html" target="_top" xlink:title=" ">
<polygon fill="white" stroke="black" points="547,-280.5 547,-299.5 628,-299.5 628,-280.5 547,-280.5"/>
<text text-anchor="middle" x="587.5" y="-287.5" font-family="Helvetica,sans-Serif" font-size="10.00">MultiParser.H</text>
</a>
</g>
</g>
<!-- Node3&#45;&gt;Node4 -->
<g id="edge3" class="edge">
<title>Node3&#45;&gt;Node4</title>
<path fill="none" stroke="midnightblue" d="M765.44,-334.09C723.31,-323.89 661.26,-308.86 622.67,-299.52"/>
<polygon fill="midnightblue" stroke="midnightblue" points="764.62,-337.49 775.16,-336.44 766.27,-330.69 764.62,-337.49"/>
</g>
<!-- Node21 -->
<g id="node21" class="node">
<title>Node21</title>
<g id="a_node21"><a xlink:href="_synthetic_turbulence_8_h.html" target="_top" xlink:title=" ">
<polygon fill="white" stroke="black" points="841,-280.5 841,-299.5 966,-299.5 966,-280.5 841,-280.5"/>
<text text-anchor="middle" x="903.5" y="-287.5" font-family="Helvetica,sans-Serif" font-size="10.00">SyntheticTurbulence.H</text>
</a>
</g>
</g>
<!-- Node3&#45;&gt;Node21 -->
<g id="edge32" class="edge">
<title>Node3&#45;&gt;Node21</title>
<path fill="none" stroke="midnightblue" d="M834.31,-331.18C851.42,-321.24 873.97,-308.15 888.6,-299.65"/>
<polygon fill="midnightblue" stroke="midnightblue" points="832.33,-328.28 825.44,-336.32 835.85,-334.33 832.33,-328.28"/>
</g>
<!-- Node23 -->
<g id="node23" class="node">
<title>Node23</title>
<g id="a_node23"><a xlink:href="_box_refiner_8_h.html" target="_top" xlink:title=" ">
<polygon fill="white" stroke="black" points="990.5,-280.5 990.5,-299.5 1070.5,-299.5 1070.5,-280.5 990.5,-280.5"/>
<text text-anchor="middle" x="1030.5" y="-287.5" font-family="Helvetica,sans-Serif" font-size="10.00">BoxRefiner.H</text>
</a>
</g>
</g>
<!-- Node3&#45;&gt;Node23 -->
<g id="edge34" class="edge">
<title>Node3&#45;&gt;Node23</title>
<path fill="none" stroke="midnightblue" d="M855.22,-334.02C896.78,-323.82 957.81,-308.84 995.8,-299.52"/>
<polygon fill="midnightblue" stroke="midnightblue" points="854.24,-330.66 845.36,-336.44 855.91,-337.46 854.24,-330.66"/>
</g>
<!-- Node25 -->
<g id="node25" class="node">
<title>Node25</title>
<g id="a_node25"><a xlink:href="_cylinder_refiner_8_h.html" target="_top" xlink:title=" ">
<polygon fill="white" stroke="black" points="1096,-280.5 1096,-299.5 1197,-299.5 1197,-280.5 1096,-280.5"/>
<text text-anchor="middle" x="1146.5" y="-287.5" font-family="Helvetica,sans-Serif" font-size="10.00">CylinderRefiner.H</text>
</a>
</g>
</g>
<!-- Node3&#45;&gt;Node25 -->
<g id="edge36" class="edge">
<title>Node3&#45;&gt;Node25</title>
<path fill="none" stroke="midnightblue" d="M866.42,-336.01C930.38,-325.73 1034.17,-309.05 1095.83,-299.14"/>
<polygon fill="midnightblue" stroke="midnightblue" points="865.83,-332.56 856.51,-337.6 866.94,-339.47 865.83,-332.56"/>
</g>
<!-- Node27 -->
<g id="node27" class="node">
<title>Node27</title>
<g id="a_node27"><a xlink:href="actuator__types_8_h.html" target="_top" xlink:title=" ">
<polygon fill="white" stroke="black" points="682.5,-224.5 682.5,-243.5 782.5,-243.5 782.5,-224.5 682.5,-224.5"/>
<text text-anchor="middle" x="732.5" y="-231.5" font-family="Helvetica,sans-Serif" font-size="10.00">actuator_types.H</text>
</a>
</g>
</g>
<!-- Node3&#45;&gt;Node27 -->
<g id="edge38" class="edge">
<title>Node3&#45;&gt;Node27</title>
<path fill="none" stroke="midnightblue" d="M798.42,-327.96C781.51,-304.12 751.44,-261.71 738.59,-243.59"/>
<polygon fill="midnightblue" stroke="midnightblue" points="795.74,-330.24 804.38,-336.37 801.45,-326.19 795.74,-330.24"/>
</g>
<!-- Node36 -->
<g id="node36" class="node">
<title>Node36</title>
<g id="a_node36"><a xlink:href="_actuator_wing_8_h.html" target="_top" xlink:title=" ">
<polygon fill="white" stroke="black" points="1038,-168.5 1038,-187.5 1131,-187.5 1131,-168.5 1038,-168.5"/>
<text text-anchor="middle" x="1084.5" y="-175.5" font-family="Helvetica,sans-Serif" font-size="10.00">ActuatorWing.H</text>
</a>
</g>
</g>
<!-- Node3&#45;&gt;Node36 -->
<g id="edge68" class="edge">
<title>Node3&#45;&gt;Node36</title>
<path fill="none" stroke="midnightblue" d="M807.41,-326.29C804.18,-299.7 802.79,-251.23 829.5,-224 833.15,-220.28 965.4,-198.32 1037.96,-186.51"/>
<polygon fill="midnightblue" stroke="midnightblue" points="803.95,-326.81 808.83,-336.21 810.88,-325.82 803.95,-326.81"/>
</g>
<!-- Node37 -->
<g id="node37" class="node">
<title>Node37</title>
<g id="a_node37"><a xlink:href="_actuator_container_8_h.html" target="_top" xlink:title=" ">
<polygon fill="white" stroke="black" points="165,-280.5 165,-299.5 280,-299.5 280,-280.5 165,-280.5"/>
<text text-anchor="middle" x="222.5" y="-287.5" font-family="Helvetica,sans-Serif" font-size="10.00">ActuatorContainer.H</text>
</a>
</g>
</g>
<!-- Node3&#45;&gt;Node37 -->
<g id="edge65" class="edge">
<title>Node3&#45;&gt;Node37</title>
<path fill="none" stroke="midnightblue" d="M754.3,-339.84C642.55,-329.58 393.45,-306.7 280.35,-296.31"/>
<polygon fill="midnightblue" stroke="midnightblue" points="754.08,-343.33 764.36,-340.76 754.72,-336.36 754.08,-343.33"/>
</g>
<!-- Node5 -->
<g id="node5" class="node">
<title>Node5</title>
<g id="a_node5"><a xlink:href="_act_parser_8_h.html" target="_top" xlink:title=" ">
<polygon fill="white" stroke="black" points="434.5,-224.5 434.5,-243.5 506.5,-243.5 506.5,-224.5 434.5,-224.5"/>
<text text-anchor="middle" x="470.5" y="-231.5" font-family="Helvetica,sans-Serif" font-size="10.00">ActParser.H</text>
</a>
</g>
</g>
<!-- Node4&#45;&gt;Node5 -->
<g id="edge4" class="edge">
<title>Node4&#45;&gt;Node5</title>
<path fill="none" stroke="midnightblue" d="M559.84,-276.23C537.95,-266.13 508,-252.31 488.95,-243.52"/>
<polygon fill="midnightblue" stroke="midnightblue" points="558.41,-279.43 568.96,-280.44 561.35,-273.08 558.41,-279.43"/>
</g>
<!-- Node6 -->
<g id="node6" class="node">
<title>Node6</title>
<g id="a_node6"><a xlink:href="actuator__ops_8_h.html" target="_top" xlink:title=" ">
<polygon fill="white" stroke="black" points="501.5,-168.5 501.5,-187.5 591.5,-187.5 591.5,-168.5 501.5,-168.5"/>
<text text-anchor="middle" x="546.5" y="-175.5" font-family="Helvetica,sans-Serif" font-size="10.00">actuator_ops.H</text>
</a>
</g>
</g>
<!-- Node5&#45;&gt;Node6 -->
<g id="edge5" class="edge">
<title>Node5&#45;&gt;Node6</title>
<path fill="none" stroke="midnightblue" d="M491.08,-218.38C504.81,-208.62 522.43,-196.11 534.07,-187.83"/>
<polygon fill="midnightblue" stroke="midnightblue" points="488.84,-215.68 482.71,-224.32 492.89,-221.38 488.84,-215.68"/>
</g>
<!-- Node8 -->
<g id="node8" class="node">
<title>Node8</title>
<g id="a_node8"><a xlink:href="_actuator_model_8_h.html" target="_top" xlink:title=" ">
<polygon fill="white" stroke="black" points="459.5,-56.5 459.5,-75.5 557.5,-75.5 557.5,-56.5 459.5,-56.5"/>
<text text-anchor="middle" x="508.5" y="-63.5" font-family="Helvetica,sans-Serif" font-size="10.00">ActuatorModel.H</text>
</a>
</g>
</g>
<!-- Node5&#45;&gt;Node8 -->
<g id="edge25" class="edge">
<title>Node5&#45;&gt;Node8</title>
<path fill="none" stroke="midnightblue" d="M462.71,-214.84C453.44,-190.33 441.03,-145.84 456.5,-112 463.89,-95.82 480.3,-83.23 492.72,-75.53"/>
<polygon fill="midnightblue" stroke="midnightblue" points="459.54,-216.33 466.52,-224.31 466.04,-213.72 459.54,-216.33"/>
</g>
<!-- Node9 -->
<g id="node9" class="node">
<title>Node9</title>
<g id="a_node9"><a xlink:href="_actuator_8cpp.html" target="_top" xlink:title=" ">
<polygon fill="white" stroke="black" points="0,-0.5 0,-19.5 77,-19.5 77,-0.5 0,-0.5"/>
<text text-anchor="middle" x="38.5" y="-7.5" font-family="Helvetica,sans-Serif" font-size="10.00">Actuator.cpp</text>
</a>
</g>
</g>
<!-- Node5&#45;&gt;Node9 -->
<g id="edge26" class="edge">
<title>Node5&#45;&gt;Node9</title>
<path fill="none" stroke="midnightblue" d="M424.01,-228.57C326.06,-218.2 103.65,-188.79 57.5,-132 30.14,-98.34 34.32,-41.49 37.15,-19.78"/>
<polygon fill="midnightblue" stroke="midnightblue" points="423.9,-232.08 434.21,-229.63 424.63,-225.12 423.9,-232.08"/>
</g>
<!-- Node16 -->
<g id="node16" class="node">
<title>Node16</title>
<g id="a_node16"><a xlink:href="wing__ops_8_h.html" target="_top" xlink:title=" ">
<polygon fill="white" stroke="black" points="761,-112.5 761,-131.5 834,-131.5 834,-112.5 761,-112.5"/>
<text text-anchor="middle" x="797.5" y="-119.5" font-family="Helvetica,sans-Serif" font-size="10.00">wing_ops.H</text>
</a>
</g>
</g>
<!-- Node5&#45;&gt;Node16 -->
<g id="edge30" class="edge">
<title>Node5&#45;&gt;Node16</title>
<path fill="none" stroke="midnightblue" d="M505.46,-221.24C571.62,-198.98 713.75,-151.17 771.9,-131.61"/>
<polygon fill="midnightblue" stroke="midnightblue" points="504.25,-217.95 495.89,-224.46 506.48,-224.59 504.25,-217.95"/>
</g>
<!-- Node18 -->
<g id="node18" class="node">
<title>Node18</title>
<g id="a_node18"><a xlink:href="wing__ops_8cpp.html" target="_top" xlink:title=" ">
<polygon fill="white" stroke="black" points="612,-56.5 612,-75.5 695,-75.5 695,-56.5 612,-56.5"/>
<text text-anchor="middle" x="653.5" y="-63.5" font-family="Helvetica,sans-Serif" font-size="10.00">wing_ops.cpp</text>
</a>
</g>
</g>
<!-- Node5&#45;&gt;Node18 -->
<g id="edge31" class="edge">
<title>Node5&#45;&gt;Node18</title>
<path fill="none" stroke="midnightblue" d="M474.2,-214.3C477.49,-200.67 483.26,-182.19 492.5,-168 524.64,-118.64 590.24,-89.01 627,-75.59"/>
<polygon fill="midnightblue" stroke="midnightblue" points="470.71,-213.88 471.99,-224.4 477.54,-215.38 470.71,-213.88"/>
</g>
<!-- Node19 -->
<g id="node19" class="node">
<title>Node19</title>
<g id="a_node19"><a xlink:href="turbine__utils_8_h.html" target="_top" xlink:title=" ">
<polygon fill="white" stroke="black" points="66.5,-112.5 66.5,-131.5 154.5,-131.5 154.5,-112.5 66.5,-112.5"/>
<text text-anchor="middle" x="110.5" y="-119.5" font-family="Helvetica,sans-Serif" font-size="10.00">turbine_utils.H</text>
</a>
</g>
</g>
<!-- Node5&#45;&gt;Node19 -->
<g id="edge27" class="edge">
<title>Node5&#45;&gt;Node19</title>
<path fill="none" stroke="midnightblue" d="M424.3,-226C380.87,-218.76 314.37,-205.99 258.5,-188 209.08,-172.09 153.8,-145.23 126.93,-131.55"/>
<polygon fill="midnightblue" stroke="midnightblue" points="423.85,-229.47 434.28,-227.63 424.98,-222.56 423.85,-229.47"/>
</g>
<!-- Node7 -->
<g id="node7" class="node">
<title>Node7</title>
<g id="a_node7"><a xlink:href="_act_src_line_op_8_h.html" target="_top" xlink:title=" ">
<polygon fill="white" stroke="black" points="612.5,-112.5 612.5,-131.5 704.5,-131.5 704.5,-112.5 612.5,-112.5"/>
<text text-anchor="middle" x="658.5" y="-119.5" font-family="Helvetica,sans-Serif" font-size="10.00">ActSrcLineOp.H</text>
</a>
</g>
</g>
<!-- Node6&#45;&gt;Node7 -->
<g id="edge6" class="edge">
<title>Node6&#45;&gt;Node7</title>
<path fill="none" stroke="midnightblue" d="M573.75,-163.86C594.52,-153.85 622.52,-140.35 640.55,-131.65"/>
<polygon fill="midnightblue" stroke="midnightblue" points="571.98,-160.83 564.49,-168.32 575.02,-167.13 571.98,-160.83"/>
</g>
<!-- Node6&#45;&gt;Node8 -->
<g id="edge12" class="edge">
<title>Node6&#45;&gt;Node8</title>
<path fill="none" stroke="midnightblue" d="M540.17,-158.67C531.86,-134.62 517.62,-93.39 511.47,-75.59"/>
<polygon fill="midnightblue" stroke="midnightblue" points="536.94,-160.06 543.52,-168.37 543.56,-157.77 536.94,-160.06"/>
</g>
<!-- Node13 -->
<g id="node13" class="node">
<title>Node13</title>
<g id="a_node13"><a xlink:href="_act_src_disk_op_8_h.html" target="_top" xlink:title=" ">
<polygon fill="white" stroke="black" points="311,-112.5 311,-131.5 404,-131.5 404,-112.5 311,-112.5"/>
<text text-anchor="middle" x="357.5" y="-119.5" font-family="Helvetica,sans-Serif" font-size="10.00">ActSrcDiskOp.H</text>
</a>
</g>
</g>
<!-- Node6&#45;&gt;Node13 -->
<g id="edge13" class="edge">
<title>Node6&#45;&gt;Node13</title>
<path fill="none" stroke="midnightblue" d="M506.49,-165.57C470.83,-155.38 419.46,-140.7 387.31,-131.52"/>
<polygon fill="midnightblue" stroke="midnightblue" points="505.98,-169.06 516.55,-168.44 507.9,-162.33 505.98,-169.06"/>
</g>
<!-- Node14 -->
<g id="node14" class="node">
<title>Node14</title>
<g id="a_node14"><a xlink:href="turbine__fast__ops_8_h.html" target="_top" xlink:title=" ">
<polygon fill="white" stroke="black" points="182.5,-56.5 182.5,-75.5 290.5,-75.5 290.5,-56.5 182.5,-56.5"/>
<text text-anchor="middle" x="236.5" y="-63.5" font-family="Helvetica,sans-Serif" font-size="10.00">turbine_fast_ops.H</text>
</a>
</g>
</g>
<!-- Node6&#45;&gt;Node14 -->
<g id="edge15" class="edge">
<title>Node6&#45;&gt;Node14</title>
<path fill="none" stroke="midnightblue" d="M491.13,-176.14C439.38,-173.24 361.32,-163.41 301.5,-132 275.22,-118.2 252.81,-90.14 242.53,-75.83"/>
<polygon fill="midnightblue" stroke="midnightblue" points="491.28,-179.65 501.44,-176.64 491.62,-172.66 491.28,-179.65"/>
</g>
<!-- Node15 -->
<g id="node15" class="node">
<title>Node15</title>
<g id="a_node15"><a xlink:href="fixed__wing__ops_8_h.html" target="_top" xlink:title=" ">
<polygon fill="white" stroke="black" points="844,-56.5 844,-75.5 945,-75.5 945,-56.5 844,-56.5"/>
<text text-anchor="middle" x="894.5" y="-63.5" font-family="Helvetica,sans-Serif" font-size="10.00">fixed_wing_ops.H</text>
</a>
</g>
</g>
<!-- Node6&#45;&gt;Node15 -->
<g id="edge17" class="edge">
<title>Node6&#45;&gt;Node15</title>
<path fill="none" stroke="midnightblue" d="M556.78,-159.57C566.72,-144.4 583.24,-123.13 603.5,-112 606.13,-110.56 761.01,-87.09 843.71,-74.63"/>
<polygon fill="midnightblue" stroke="midnightblue" points="553.79,-157.76 551.47,-168.09 559.73,-161.46 553.79,-157.76"/>
</g>
<!-- Node6&#45;&gt;Node16 -->
<g id="edge19" class="edge">
<title>Node6&#45;&gt;Node16</title>
<path fill="none" stroke="midnightblue" d="M596.23,-166.3C644.71,-155.87 717.3,-140.25 760.77,-130.9"/>
<polygon fill="midnightblue" stroke="midnightblue" points="595.31,-162.92 586.27,-168.44 596.78,-169.76 595.31,-162.92"/>
</g>
<!-- Node17 -->
<g id="node17" class="node">
<title>Node17</title>
<g id="a_node17"><a xlink:href="flat__plate__ops_8_h.html" target="_top" xlink:title=" ">
<polygon fill="white" stroke="black" points="731,-56.5 731,-75.5 826,-75.5 826,-56.5 731,-56.5"/>
<text text-anchor="middle" x="778.5" y="-63.5" font-family="Helvetica,sans-Serif" font-size="10.00">flat_plate_ops.H</text>
</a>
</g>
</g>
<!-- Node6&#45;&gt;Node17 -->
<g id="edge24" class="edge">
<title>Node6&#45;&gt;Node17</title>
<path fill="none" stroke="midnightblue" d="M548.52,-158.35C551.12,-143.63 557.04,-123.69 570.5,-112 582.57,-101.52 673.31,-84.66 730.89,-74.82"/>
<polygon fill="midnightblue" stroke="midnightblue" points="545.04,-157.98 547.11,-168.37 551.97,-158.95 545.04,-157.98"/>
</g>
<!-- Node7&#45;&gt;Node8 -->
<g id="edge7" class="edge">
<title>Node7&#45;&gt;Node8</title>
<path fill="none" stroke="midnightblue" d="M625.28,-109.04C597.05,-98.88 557.24,-84.55 532.16,-75.52"/>
<polygon fill="midnightblue" stroke="midnightblue" points="624.14,-112.35 634.73,-112.44 626.51,-105.76 624.14,-112.35"/>
</g>
<!-- Node8&#45;&gt;Node9 -->
<g id="edge8" class="edge">
<title>Node8&#45;&gt;Node9</title>
<path fill="none" stroke="midnightblue" d="M449.08,-58.17C351.32,-46.94 159.25,-24.87 77.18,-15.44"/>
<polygon fill="midnightblue" stroke="midnightblue" points="448.76,-61.66 459.09,-59.32 449.55,-54.7 448.76,-61.66"/>
</g>
<!-- Node10 -->
<g id="node10" class="node">
<title>Node10</title>
<g id="a_node10"><a xlink:href="_turbine_fast_8cpp.html" target="_top" xlink:title=" ">
<polygon fill="white" stroke="black" points="272.5,-0.5 272.5,-19.5 364.5,-19.5 364.5,-0.5 272.5,-0.5"/>
<text text-anchor="middle" x="318.5" y="-7.5" font-family="Helvetica,sans-Serif" font-size="10.00">TurbineFast.cpp</text>
</a>
</g>
</g>
<!-- Node8&#45;&gt;Node10 -->
<g id="edge9" class="edge">
<title>Node8&#45;&gt;Node10</title>
<path fill="none" stroke="midnightblue" d="M468.74,-53.7C432.88,-43.51 380.93,-28.74 348.47,-19.52"/>
<polygon fill="midnightblue" stroke="midnightblue" points="467.82,-57.08 478.39,-56.44 469.73,-50.34 467.82,-57.08"/>
</g>
<!-- Node11 -->
<g id="node11" class="node">
<title>Node11</title>
<g id="a_node11"><a xlink:href="_fixed_wing_8cpp.html" target="_top" xlink:title=" ">
<polygon fill="white" stroke="black" points="851,-0.5 851,-19.5 938,-19.5 938,-0.5 851,-0.5"/>
<text text-anchor="middle" x="894.5" y="-7.5" font-family="Helvetica,sans-Serif" font-size="10.00">FixedWing.cpp</text>
</a>
</g>
</g>
<!-- Node8&#45;&gt;Node11 -->
<g id="edge10" class="edge">
<title>Node8&#45;&gt;Node11</title>
<path fill="none" stroke="midnightblue" d="M567.95,-56.68C646.09,-45.75 781.54,-26.8 850.87,-17.1"/>
<polygon fill="midnightblue" stroke="midnightblue" points="567.2,-53.25 557.78,-58.11 568.17,-60.19 567.2,-53.25"/>
</g>
<!-- Node12 -->
<g id="node12" class="node">
<title>Node12</title>
<g id="a_node12"><a xlink:href="_flat_plate_8cpp.html" target="_top" xlink:title=" ">
<polygon fill="white" stroke="black" points="738.5,-0.5 738.5,-19.5 818.5,-19.5 818.5,-0.5 738.5,-0.5"/>
<text text-anchor="middle" x="778.5" y="-7.5" font-family="Helvetica,sans-Serif" font-size="10.00">FlatPlate.cpp</text>
</a>
</g>
</g>
<!-- Node8&#45;&gt;Node12 -->
<g id="edge11" class="edge">
<title>Node8&#45;&gt;Node12</title>
<path fill="none" stroke="midnightblue" d="M561.28,-54.44C613.11,-44.08 691.05,-28.49 738.12,-19.08"/>
<polygon fill="midnightblue" stroke="midnightblue" points="560.4,-51.05 551.28,-56.44 561.77,-57.91 560.4,-51.05"/>
</g>
<!-- Node13&#45;&gt;Node8 -->
<g id="edge14" class="edge">
<title>Node13&#45;&gt;Node8</title>
<path fill="none" stroke="midnightblue" d="M390.95,-109.04C419.36,-98.88 459.44,-84.55 484.69,-75.52"/>
<polygon fill="midnightblue" stroke="midnightblue" points="389.66,-105.78 381.43,-112.44 392.02,-112.37 389.66,-105.78"/>
</g>
<!-- Node14&#45;&gt;Node10 -->
<g id="edge16" class="edge">
<title>Node14&#45;&gt;Node10</title>
<path fill="none" stroke="midnightblue" d="M258.33,-50.62C273.31,-40.76 292.7,-27.99 305.36,-19.65"/>
<polygon fill="midnightblue" stroke="midnightblue" points="256.1,-47.9 249.67,-56.32 259.95,-53.75 256.1,-47.9"/>
</g>
<!-- Node15&#45;&gt;Node11 -->
<g id="edge18" class="edge">
<title>Node15&#45;&gt;Node11</title>
<path fill="none" stroke="midnightblue" d="M894.5,-45.8C894.5,-36.91 894.5,-26.78 894.5,-19.75"/>
<polygon fill="midnightblue" stroke="midnightblue" points="891,-46.08 894.5,-56.08 898,-46.08 891,-46.08"/>
</g>
<!-- Node16&#45;&gt;Node15 -->
<g id="edge20" class="edge">
<title>Node16&#45;&gt;Node15</title>
<path fill="none" stroke="midnightblue" d="M821.84,-107.45C839.74,-97.48 863.55,-84.23 878.95,-75.65"/>
<polygon fill="midnightblue" stroke="midnightblue" points="820.12,-104.4 813.08,-112.32 823.52,-110.52 820.12,-104.4"/>
</g>
<!-- Node16&#45;&gt;Node17 -->
<g id="edge21" class="edge">
<title>Node16&#45;&gt;Node17</title>
<path fill="none" stroke="midnightblue" d="M790.95,-102.4C787.78,-93.36 784.11,-82.94 781.58,-75.75"/>
<polygon fill="midnightblue" stroke="midnightblue" points="787.74,-103.81 794.36,-112.08 794.35,-101.49 787.74,-103.81"/>
</g>
<!-- Node16&#45;&gt;Node18 -->
<g id="edge23" class="edge">
<title>Node16&#45;&gt;Node18</title>
<path fill="none" stroke="midnightblue" d="M765.25,-108.91C738.18,-98.75 700.18,-84.51 676.21,-75.52"/>
<polygon fill="midnightblue" stroke="midnightblue" points="764.09,-112.21 774.68,-112.44 766.55,-105.66 764.09,-112.21"/>
</g>
<!-- Node17&#45;&gt;Node12 -->
<g id="edge22" class="edge">
<title>Node17&#45;&gt;Node12</title>
<path fill="none" stroke="midnightblue" d="M778.5,-45.8C778.5,-36.91 778.5,-26.78 778.5,-19.75"/>
<polygon fill="midnightblue" stroke="midnightblue" points="775,-46.08 778.5,-56.08 782,-46.08 775,-46.08"/>
</g>
<!-- Node19&#45;&gt;Node14 -->
<g id="edge28" class="edge">
<title>Node19&#45;&gt;Node14</title>
<path fill="none" stroke="midnightblue" d="M139.66,-108.5C163.28,-98.38 195.93,-84.39 216.63,-75.52"/>
<polygon fill="midnightblue" stroke="midnightblue" points="138.28,-105.29 130.47,-112.44 141.04,-111.72 138.28,-105.29"/>
</g>
<!-- Node20 -->
<g id="node20" class="node">
<title>Node20</title>
<g id="a_node20"><a xlink:href="turbine__utils_8cpp.html" target="_top" xlink:title=" ">
<polygon fill="white" stroke="black" points="66.5,-56.5 66.5,-75.5 164.5,-75.5 164.5,-56.5 66.5,-56.5"/>
<text text-anchor="middle" x="115.5" y="-63.5" font-family="Helvetica,sans-Serif" font-size="10.00">turbine_utils.cpp</text>
</a>
</g>
</g>
<!-- Node19&#45;&gt;Node20 -->
<g id="edge29" class="edge">
<title>Node19&#45;&gt;Node20</title>
<path fill="none" stroke="midnightblue" d="M112.25,-102.1C113.08,-93.14 114.03,-82.86 114.69,-75.75"/>
<polygon fill="midnightblue" stroke="midnightblue" points="108.76,-101.8 111.33,-112.08 115.73,-102.45 108.76,-101.8"/>
</g>
<!-- Node22 -->
<g id="node22" class="node">
<title>Node22</title>
<g id="a_node22"><a xlink:href="_synthetic_turbulence_8cpp.html" target="_top" xlink:title=" ">
<polygon fill="white" stroke="black" points="839,-224.5 839,-243.5 974,-243.5 974,-224.5 839,-224.5"/>
<text text-anchor="middle" x="906.5" y="-231.5" font-family="Helvetica,sans-Serif" font-size="10.00">SyntheticTurbulence.cpp</text>
</a>
</g>
</g>
<!-- Node21&#45;&gt;Node22 -->
<g id="edge33" class="edge">
<title>Node21&#45;&gt;Node22</title>
<path fill="none" stroke="midnightblue" d="M904.57,-269.8C905.06,-260.91 905.62,-250.78 906.01,-243.75"/>
<polygon fill="midnightblue" stroke="midnightblue" points="901.06,-269.9 904,-280.08 908.04,-270.29 901.06,-269.9"/>
</g>
<!-- Node24 -->
<g id="node24" class="node">
<title>Node24</title>
<g id="a_node24"><a xlink:href="_box_refiner_8cpp.html" target="_top" xlink:title=" ">
<polygon fill="white" stroke="black" points="992,-224.5 992,-243.5 1081,-243.5 1081,-224.5 992,-224.5"/>
<text text-anchor="middle" x="1036.5" y="-231.5" font-family="Helvetica,sans-Serif" font-size="10.00">BoxRefiner.cpp</text>
</a>
</g>
</g>
<!-- Node23&#45;&gt;Node24 -->
<g id="edge35" class="edge">
<title>Node23&#45;&gt;Node24</title>
<path fill="none" stroke="midnightblue" d="M1032.6,-270.1C1033.6,-261.14 1034.74,-250.86 1035.53,-243.75"/>
<polygon fill="midnightblue" stroke="midnightblue" points="1029.12,-269.76 1031.49,-280.08 1036.07,-270.53 1029.12,-269.76"/>
</g>
<!-- Node26 -->
<g id="node26" class="node">
<title>Node26</title>
<g id="a_node26"><a xlink:href="_cylinder_refiner_8cpp.html" target="_top" xlink:title=" ">
<polygon fill="white" stroke="black" points="1099,-224.5 1099,-243.5 1210,-243.5 1210,-224.5 1099,-224.5"/>
<text text-anchor="middle" x="1154.5" y="-231.5" font-family="Helvetica,sans-Serif" font-size="10.00">CylinderRefiner.cpp</text>
</a>
</g>
</g>
<!-- Node25&#45;&gt;Node26 -->
<g id="edge37" class="edge">
<title>Node25&#45;&gt;Node26</title>
<path fill="none" stroke="midnightblue" d="M1149.3,-270.1C1150.63,-261.14 1152.15,-250.86 1153.2,-243.75"/>
<polygon fill="midnightblue" stroke="midnightblue" points="1145.82,-269.68 1147.82,-280.08 1152.75,-270.7 1145.82,-269.68"/>
</g>
<!-- Node27&#45;&gt;Node6 -->
<g id="edge40" class="edge">
<title>Node27&#45;&gt;Node6</title>
<path fill="none" stroke="midnightblue" d="M693.12,-221.57C658.03,-211.38 607.48,-196.7 575.83,-187.52"/>
<polygon fill="midnightblue" stroke="midnightblue" points="692.45,-225.02 703.03,-224.44 694.4,-218.29 692.45,-225.02"/>
</g>
<!-- Node27&#45;&gt;Node7 -->
<g id="edge39" class="edge">
<title>Node27&#45;&gt;Node7</title>
<path fill="none" stroke="midnightblue" d="M721.03,-215.96C705,-192.12 676.47,-149.71 664.28,-131.59"/>
<polygon fill="midnightblue" stroke="midnightblue" points="718.21,-218.02 726.69,-224.37 724.02,-214.12 718.21,-218.02"/>
</g>
<!-- Node27&#45;&gt;Node8 -->
<g id="edge41" class="edge">
<title>Node27&#45;&gt;Node8</title>
<path fill="none" stroke="midnightblue" d="M735.48,-214.08C738.49,-187.6 739.53,-139.65 713.5,-112 692.58,-89.78 611.28,-77.37 557.56,-71.45"/>
<polygon fill="midnightblue" stroke="midnightblue" points="731.97,-213.91 734.1,-224.29 738.91,-214.85 731.97,-213.91"/>
</g>
<!-- Node27&#45;&gt;Node16 -->
<g id="edge64" class="edge">
<title>Node27&#45;&gt;Node16</title>
<path fill="none" stroke="midnightblue" d="M788.17,-222.24C822.95,-214.26 863.05,-202.31 873.5,-188 891.12,-163.89 850.75,-142.83 822.37,-131.61"/>
<polygon fill="midnightblue" stroke="midnightblue" points="787.07,-218.9 778.06,-224.48 788.58,-225.73 787.07,-218.9"/>
</g>
<!-- Node28 -->
<g id="node28" class="node">
<title>Node28</title>
<g id="a_node28"><a xlink:href="turbine__types_8_h.html" target="_top" xlink:title=" ">
<polygon fill="white" stroke="black" points="267.5,-168.5 267.5,-187.5 361.5,-187.5 361.5,-168.5 267.5,-168.5"/>
<text text-anchor="middle" x="314.5" y="-175.5" font-family="Helvetica,sans-Serif" font-size="10.00">turbine_types.H</text>
</a>
</g>
</g>
<!-- Node27&#45;&gt;Node28 -->
<g id="edge42" class="edge">
<title>Node27&#45;&gt;Node28</title>
<path fill="none" stroke="midnightblue" d="M672.35,-225.23C588.44,-214.39 437.99,-194.95 361.67,-185.09"/>
<polygon fill="midnightblue" stroke="midnightblue" points="672.13,-228.73 682.49,-226.54 673.03,-221.79 672.13,-228.73"/>
</g>
<!-- Node30 -->
<g id="node30" class="node">
<title>Node30</title>
<g id="a_node30"><a xlink:href="actuator__utils_8cpp.html" target="_top" xlink:title=" ">
<polygon fill="white" stroke="black" points="760.5,-168.5 760.5,-187.5 864.5,-187.5 864.5,-168.5 760.5,-168.5"/>
<text text-anchor="middle" x="812.5" y="-175.5" font-family="Helvetica,sans-Serif" font-size="10.00">actuator_utils.cpp</text>
</a>
</g>
</g>
<!-- Node27&#45;&gt;Node30 -->
<g id="edge48" class="edge">
<title>Node27&#45;&gt;Node30</title>
<path fill="none" stroke="midnightblue" d="M753.8,-218.62C768.42,-208.76 787.33,-195.99 799.68,-187.65"/>
<polygon fill="midnightblue" stroke="midnightblue" points="751.68,-215.83 745.35,-224.32 755.6,-221.63 751.68,-215.83"/>
</g>
<!-- Node31 -->
<g id="node31" class="node">
<title>Node31</title>
<g id="a_node31"><a xlink:href="_airfoil_table_8_h.html" target="_top" xlink:title=" ">
<polygon fill="white" stroke="black" points="937.5,-168.5 937.5,-187.5 1019.5,-187.5 1019.5,-168.5 937.5,-168.5"/>
<text text-anchor="middle" x="978.5" y="-175.5" font-family="Helvetica,sans-Serif" font-size="10.00">AirfoilTable.H</text>
</a>
</g>
</g>
<!-- Node27&#45;&gt;Node31 -->
<g id="edge49" class="edge">
<title>Node27&#45;&gt;Node31</title>
<path fill="none" stroke="midnightblue" d="M781.33,-222.28C827.82,-212.08 896.86,-196.92 939.7,-187.52"/>
<polygon fill="midnightblue" stroke="midnightblue" points="780.5,-218.88 771.48,-224.44 782,-225.72 780.5,-218.88"/>
</g>
<!-- Node27&#45;&gt;Node36 -->
<g id="edge60" class="edge">
<title>Node27&#45;&gt;Node36</title>
<path fill="none" stroke="midnightblue" d="M792.56,-224.02C852.38,-215.04 946.82,-200.77 1028.5,-188 1031.52,-187.53 1034.62,-187.04 1037.75,-186.54"/>
<polygon fill="midnightblue" stroke="midnightblue" points="791.91,-220.58 782.54,-225.53 792.94,-227.5 791.91,-220.58"/>
</g>
<!-- Node28&#45;&gt;Node13 -->
<g id="edge43" class="edge">
<title>Node28&#45;&gt;Node13</title>
<path fill="none" stroke="midnightblue" d="M327.92,-160.14C335.41,-150.74 344.44,-139.4 350.53,-131.75"/>
<polygon fill="midnightblue" stroke="midnightblue" points="325.09,-158.08 321.6,-168.08 330.57,-162.44 325.09,-158.08"/>
</g>
<!-- Node28&#45;&gt;Node19 -->
<g id="edge47" class="edge">
<title>Node28&#45;&gt;Node19</title>
<path fill="none" stroke="midnightblue" d="M272.3,-165.83C233.78,-155.63 177.68,-140.78 142.67,-131.52"/>
<polygon fill="midnightblue" stroke="midnightblue" points="271.61,-169.27 282.18,-168.44 273.4,-162.5 271.61,-169.27"/>
</g>
<!-- Node29 -->
<g id="node29" class="node">
<title>Node29</title>
<g id="a_node29"><a xlink:href="_turbine_fast_8_h.html" target="_top" xlink:title=" ">
<polygon fill="white" stroke="black" points="172.5,-112.5 172.5,-131.5 254.5,-131.5 254.5,-112.5 172.5,-112.5"/>
<text text-anchor="middle" x="213.5" y="-119.5" font-family="Helvetica,sans-Serif" font-size="10.00">TurbineFast.H</text>
</a>
</g>
</g>
<!-- Node28&#45;&gt;Node29 -->
<g id="edge44" class="edge">
<title>Node28&#45;&gt;Node29</title>
<path fill="none" stroke="midnightblue" d="M289.42,-163.59C270.74,-153.61 245.8,-140.27 229.69,-131.65"/>
<polygon fill="midnightblue" stroke="midnightblue" points="287.8,-166.7 298.27,-168.32 291.1,-160.52 287.8,-166.7"/>
</g>
<!-- Node29&#45;&gt;Node10 -->
<g id="edge46" class="edge">
<title>Node29&#45;&gt;Node10</title>
<path fill="none" stroke="midnightblue" d="M252.06,-108.64C268.77,-101.5 287.27,-90.93 299.5,-76 313.21,-59.27 317.03,-33.01 318.09,-19.56"/>
<polygon fill="midnightblue" stroke="midnightblue" points="250.48,-105.49 242.49,-112.44 253.07,-112 250.48,-105.49"/>
</g>
<!-- Node29&#45;&gt;Node14 -->
<g id="edge45" class="edge">
<title>Node29&#45;&gt;Node14</title>
<path fill="none" stroke="midnightblue" d="M221.3,-102.69C225.18,-93.59 229.68,-83.01 232.77,-75.75"/>
<polygon fill="midnightblue" stroke="midnightblue" points="218,-101.51 217.3,-112.08 224.44,-104.25 218,-101.51"/>
</g>
<!-- Node31&#45;&gt;Node16 -->
<g id="edge56" class="edge">
<title>Node31&#45;&gt;Node16</title>
<path fill="none" stroke="midnightblue" d="M940.18,-165.57C906.04,-155.38 856.84,-140.7 826.05,-131.52"/>
<polygon fill="midnightblue" stroke="midnightblue" points="939.24,-168.94 949.82,-168.44 941.24,-162.23 939.24,-168.94"/>
</g>
<!-- Node32 -->
<g id="node32" class="node">
<title>Node32</title>
<g id="a_node32"><a xlink:href="_airfoil_table_8cpp.html" target="_top" xlink:title=" ">
<polygon fill="white" stroke="black" points="852.5,-112.5 852.5,-131.5 944.5,-131.5 944.5,-112.5 852.5,-112.5"/>
<text text-anchor="middle" x="898.5" y="-119.5" font-family="Helvetica,sans-Serif" font-size="10.00">AirfoilTable.cpp</text>
</a>
</g>
</g>
<!-- Node31&#45;&gt;Node32 -->
<g id="edge50" class="edge">
<title>Node31&#45;&gt;Node32</title>
<path fill="none" stroke="midnightblue" d="M957.2,-162.62C942.58,-152.76 923.67,-139.99 911.32,-131.65"/>
<polygon fill="midnightblue" stroke="midnightblue" points="955.4,-165.63 965.65,-168.32 959.32,-159.83 955.4,-165.63"/>
</g>
<!-- Node33 -->
<g id="node33" class="node">
<title>Node33</title>
<g id="a_node33"><a xlink:href="_airfoil_table_i_8_h.html" target="_top" xlink:title=" ">
<polygon fill="white" stroke="black" points="963,-112.5 963,-131.5 1048,-131.5 1048,-112.5 963,-112.5"/>
<text text-anchor="middle" x="1005.5" y="-119.5" font-family="Helvetica,sans-Serif" font-size="10.00">AirfoilTableI.H</text>
</a>
</g>
</g>
<!-- Node31&#45;&gt;Node33 -->
<g id="edge51" class="edge">
<title>Node31&#45;&gt;Node33</title>
<path fill="none" stroke="midnightblue" d="M981.23,-158.69C985.08,-149.59 990.8,-139.01 995.99,-131.75"/>
<polygon fill="midnightblue" stroke="midnightblue" points="977.94,-157.49 977.79,-168.08 984.51,-159.89 977.94,-157.49"/>
</g>
<!-- Node34 -->
<g id="node34" class="node">
<title>Node34</title>
<g id="a_node34"><a xlink:href="_fixed_wing_8_h.html" target="_top" xlink:title=" ">
<polygon fill="white" stroke="black" points="1155,-112.5 1155,-131.5 1232,-131.5 1232,-112.5 1155,-112.5"/>
<text text-anchor="middle" x="1193.5" y="-119.5" font-family="Helvetica,sans-Serif" font-size="10.00">FixedWing.H</text>
</a>
</g>
</g>
<!-- Node31&#45;&gt;Node34 -->
<g id="edge53" class="edge">
<title>Node31&#45;&gt;Node34</title>
<path fill="none" stroke="midnightblue" d="M1022.46,-165.96C1063.07,-155.76 1122.54,-140.82 1159.59,-131.52"/>
<polygon fill="midnightblue" stroke="midnightblue" points="1021.41,-162.61 1012.57,-168.44 1023.12,-169.4 1021.41,-162.61"/>
</g>
<!-- Node35 -->
<g id="node35" class="node">
<title>Node35</title>
<g id="a_node35"><a xlink:href="_flat_plate_8_h.html" target="_top" xlink:title=" ">
<polygon fill="white" stroke="black" points="1066,-112.5 1066,-131.5 1137,-131.5 1137,-112.5 1066,-112.5"/>
<text text-anchor="middle" x="1101.5" y="-119.5" font-family="Helvetica,sans-Serif" font-size="10.00">FlatPlate.H</text>
</a>
</g>
</g>
<!-- Node31&#45;&gt;Node35 -->
<g id="edge57" class="edge">
<title>Node31&#45;&gt;Node35</title>
<path fill="none" stroke="midnightblue" d="M1007.27,-164.37C1030.31,-154.26 1061.98,-140.35 1082.1,-131.52"/>
<polygon fill="midnightblue" stroke="midnightblue" points="1005.74,-161.22 997.99,-168.44 1008.55,-167.63 1005.74,-161.22"/>
</g>
<!-- Node33&#45;&gt;Node31 -->
<g id="edge52" class="edge">
<title>Node33&#45;&gt;Node31</title>
<path fill="none" stroke="midnightblue" d="M1002.74,-141.4C998.91,-150.41 993.27,-160.85 988.12,-168.08"/>
<polygon fill="midnightblue" stroke="midnightblue" points="1006.12,-142.35 1006.26,-131.75 999.54,-139.95 1006.12,-142.35"/>
</g>
<!-- Node34&#45;&gt;Node11 -->
<g id="edge55" class="edge">
<title>Node34&#45;&gt;Node11</title>
<path fill="none" stroke="midnightblue" d="M1167.67,-107.75C1139.58,-93.68 1093.13,-71.39 1051.5,-56 1010.54,-40.85 962.05,-27.65 929.91,-19.53"/>
<polygon fill="midnightblue" stroke="midnightblue" points="1166.29,-110.97 1176.8,-112.36 1169.45,-104.73 1166.29,-110.97"/>
</g>
<!-- Node34&#45;&gt;Node15 -->
<g id="edge54" class="edge">
<title>Node34&#45;&gt;Node15</title>
<path fill="none" stroke="midnightblue" d="M1144.6,-111.66C1068.95,-97.71 991.92,-84.07 943.31,-75.53"/>
<polygon fill="midnightblue" stroke="midnightblue" points="1144.31,-115.17 1154.78,-113.55 1145.58,-108.29 1144.31,-115.17"/>
</g>
<!-- Node35&#45;&gt;Node12 -->
<g id="edge59" class="edge">
<title>Node35&#45;&gt;Node12</title>
<path fill="none" stroke="midnightblue" d="M1075.45,-108.01C1046.28,-93.84 997.35,-71.15 953.5,-56 908.14,-40.32 854.49,-27.31 818.66,-19.38"/>
<polygon fill="midnightblue" stroke="midnightblue" points="1074.03,-111.21 1084.55,-112.47 1077.1,-104.93 1074.03,-111.21"/>
</g>
<!-- Node35&#45;&gt;Node17 -->
<g id="edge58" class="edge">
<title>Node35&#45;&gt;Node17</title>
<path fill="none" stroke="midnightblue" d="M1055.84,-111.86C1018.23,-105.56 895.25,-85.77 826.21,-74.67"/>
<polygon fill="midnightblue" stroke="midnightblue" points="1055.53,-115.36 1065.98,-113.6 1056.72,-108.46 1055.53,-115.36"/>
</g>
<!-- Node36&#45;&gt;Node16 -->
<g id="edge62" class="edge">
<title>Node36&#45;&gt;Node16</title>
<path fill="none" stroke="midnightblue" d="M1028.22,-166.63C979.36,-157.6 906.73,-144.09 843.5,-132 840.46,-131.42 837.31,-130.81 834.15,-130.2"/>
<polygon fill="midnightblue" stroke="midnightblue" points="1027.81,-170.12 1038.28,-168.49 1029.08,-163.23 1027.81,-170.12"/>
</g>
<!-- Node36&#45;&gt;Node34 -->
<g id="edge61" class="edge">
<title>Node36&#45;&gt;Node34</title>
<path fill="none" stroke="midnightblue" d="M1111.02,-163.86C1131.23,-153.85 1158.49,-140.35 1176.03,-131.65"/>
<polygon fill="midnightblue" stroke="midnightblue" points="1109.42,-160.75 1102.01,-168.32 1112.53,-167.02 1109.42,-160.75"/>
</g>
<!-- Node36&#45;&gt;Node35 -->
<g id="edge63" class="edge">
<title>Node36&#45;&gt;Node35</title>
<path fill="none" stroke="midnightblue" d="M1090.36,-158.4C1093.2,-149.36 1096.48,-138.94 1098.75,-131.75"/>
<polygon fill="midnightblue" stroke="midnightblue" points="1086.97,-157.49 1087.31,-168.08 1093.65,-159.6 1086.97,-157.49"/>
</g>
<!-- Node37&#45;&gt;Node9 -->
<g id="edge66" class="edge">
<title>Node37&#45;&gt;Node9</title>
<path fill="none" stroke="midnightblue" d="M154.5,-283.56C89.23,-274.17 0.5,-248.61 0.5,-179 0.5,-179 0.5,-179 0.5,-121 0.5,-81.4 22.77,-37.96 33.22,-19.77"/>
<polygon fill="midnightblue" stroke="midnightblue" points="154.38,-287.07 164.75,-284.93 155.3,-280.13 154.38,-287.07"/>
</g>
<!-- Node38 -->
<g id="node38" class="node">
<title>Node38</title>
<g id="a_node38"><a xlink:href="_actuator_container_8cpp.html" target="_top" xlink:title=" ">
<polygon fill="white" stroke="black" points="160,-224.5 160,-243.5 285,-243.5 285,-224.5 160,-224.5"/>
<text text-anchor="middle" x="222.5" y="-231.5" font-family="Helvetica,sans-Serif" font-size="10.00">ActuatorContainer.cpp</text>
</a>
</g>
</g>
<!-- Node37&#45;&gt;Node38 -->
<g id="edge67" class="edge">
<title>Node37&#45;&gt;Node38</title>
<path fill="none" stroke="midnightblue" d="M222.5,-269.8C222.5,-260.91 222.5,-250.78 222.5,-243.75"/>
<polygon fill="midnightblue" stroke="midnightblue" points="219,-270.08 222.5,-280.08 226,-270.08 219,-270.08"/>
</g>
</g>
</svg>
        <g id="navigator" transform="translate(0 0)" fill="#404254">
                <rect fill="#f2f5e9" fill-opacity="0.5" stroke="#606060" stroke-width=".5" x="0" y="0" width="60" height="60"/>
                <use id="zoomplus" xlink:href="#zoomPlus" x="17" y="9" onmousedown="handleZoom(evt,'in')"/>
                <use id="zoomminus" xlink:href="#zoomMin" x="42" y="9" onmousedown="handleZoom(evt,'out')"/>
                <use id="reset" xlink:href="#resetDef" x="30" y="36" onmousedown="handleReset()"/>
                <g id="arrowUp" xlink:href="#dirArrow" transform="translate(30 24)" onmousedown="handlePan(0,-1)">
                  <use xlink:href="#rim" fill="#404040">
                        <set attributeName="fill" to="#808080" begin="arrowUp.mouseover" end="arrowUp.mouseout"/>
                  </use>
                  <path fill="none" stroke="white" stroke-width="1.5" d="M0,-3.0v7 M-2.5,-0.5L0,-3.0L2.5,-0.5"/>
                </g>
                <g id="arrowRight" xlink:href="#dirArrow" transform="rotate(90) translate(36 -43)" onmousedown="handlePan(1,0)">
                  <use xlink:href="#rim" fill="#404040">
                        <set attributeName="fill" to="#808080" begin="arrowRight.mouseover" end="arrowRight.mouseout"/>
                  </use>
                  <path fill="none" stroke="white" stroke-width="1.5" d="M0,-3.0v7 M-2.5,-0.5L0,-3.0L2.5,-0.5"/>
                </g>
                <g id="arrowDown" xlink:href="#dirArrow" transform="rotate(180) translate(-30 -48)" onmousedown="handlePan(0,1)">
                  <use xlink:href="#rim" fill="#404040">
                        <set attributeName="fill" to="#808080" begin="arrowDown.mouseover" end="arrowDown.mouseout"/>
                  </use>
                  <path fill="none" stroke="white" stroke-width="1.5" d="M0,-3.0v7 M-2.5,-0.5L0,-3.0L2.5,-0.5"/>
                </g>
                <g id="arrowLeft" xlink:href="#dirArrow" transform="rotate(270) translate(-36 17)" onmousedown="handlePan(-1,0)">
                  <use xlink:href="#rim" fill="#404040">
                        <set attributeName="fill" to="#808080" begin="arrowLeft.mouseover" end="arrowLeft.mouseout"/>
                  </use>
                  <path fill="none" stroke="white" stroke-width="1.5" d="M0,-3.0v7 M-2.5,-0.5L0,-3.0L2.5,-0.5"/>
                </g>
        </g>
        <svg viewBox="0 0 15 15" width="100%" height="30px" preserveAspectRatio="xMaxYMin meet">
         <g id="arrow_out" transform="scale(0.3 0.3)">
          <a xlink:href="tensor_i_8_h__dep__incl_org.svg" target="_base">
           <rect id="button" ry="5" rx="5" y="6" x="6" height="38" width="38"
                fill="#f2f5e9" fill-opacity="0.5" stroke="#606060" stroke-width="1.0"/>
           <path id="arrow"
             d="M 11.500037,31.436501 C 11.940474,20.09759 22.043105,11.32322 32.158766,21.979434 L 37.068811,17.246167 C 37.068811,17.246167 37.088388,32 37.088388,32 L 22.160133,31.978069 C 22.160133,31.978069 26.997745,27.140456 26.997745,27.140456 C 18.528582,18.264221 13.291696,25.230495 11.500037,31.436501 z"
             style="fill:#404040;"/>
          </a>
         </g>
        </svg>
</svg>
