<?xml version="1.0" encoding="UTF-8" standalone="no"?>
<!DOCTYPE svg PUBLIC "-//W3C//DTD SVG 1.1//EN"
 "http://www.w3.org/Graphics/SVG/1.1/DTD/svg11.dtd">
<!-- Generated by graphviz version 2.43.0 (0)
 -->
<!-- Title: trig_ops.H Pages: 1 -->
<svg width="2196pt" height="487pt"
 viewBox="0.00 0.00 2196.00 487.00" xmlns="http://www.w3.org/2000/svg" xmlns:xlink="http://www.w3.org/1999/xlink">
<g id="graph0" class="graph" transform="scale(1 1) rotate(0) translate(4 483)">
<title>trig_ops.H</title>
<polygon fill="white" stroke="transparent" points="-4,4 -4,-483 2192,-483 2192,4 -4,4"/>
<!-- Node1 -->
<g id="node1" class="node">
<title>Node1</title>
<g id="a_node1"><a xlink:title=" ">
<polygon fill="#bfbfbf" stroke="black" points="1281.5,-459.5 1281.5,-478.5 1347.5,-478.5 1347.5,-459.5 1281.5,-459.5"/>
<text text-anchor="middle" x="1314.5" y="-466.5" font-family="Helvetica,sans-Serif" font-size="10.00">trig_ops.H</text>
</a>
</g>
</g>
<!-- Node2 -->
<g id="node2" class="node">
<title>Node2</title>
<g id="a_node2"><a xlink:href="tensor_i_8_h.html" target="_top" xlink:title=" ">
<polygon fill="white" stroke="black" points="376,-403.5 376,-422.5 437,-422.5 437,-403.5 376,-403.5"/>
<text text-anchor="middle" x="406.5" y="-410.5" font-family="Helvetica,sans-Serif" font-size="10.00">tensorI.H</text>
</a>
</g>
</g>
<!-- Node1&#45;&gt;Node2 -->
<g id="edge1" class="edge">
<title>Node1&#45;&gt;Node2</title>
<path fill="none" stroke="midnightblue" d="M1271.23,-465.72C1152.92,-459.44 814.07,-441.16 532.5,-423 499.89,-420.9 462.56,-418.19 437.04,-416.3"/>
<polygon fill="midnightblue" stroke="midnightblue" points="1271.16,-469.22 1281.33,-466.26 1271.53,-462.23 1271.16,-469.22"/>
</g>
<!-- Node23 -->
<g id="node7" class="node">
<title>Node23</title>
<g id="a_node7"><a xlink:href="_synthetic_turbulence_8cpp.html" target="_top" xlink:title=" ">
<polygon fill="white" stroke="black" points="348,-174 348,-193 483,-193 483,-174 348,-174"/>
<text text-anchor="middle" x="415.5" y="-181" font-family="Helvetica,sans-Serif" font-size="10.00">SyntheticTurbulence.cpp</text>
</a>
</g>
</g>
<!-- Node1&#45;&gt;Node23 -->
<g id="edge63" class="edge">
<title>Node1&#45;&gt;Node23</title>
<path fill="none" stroke="midnightblue" d="M1270.88,-466.39C1108.25,-459.8 546.5,-431.73 546.5,-358 546.5,-358 546.5,-358 546.5,-300 546.5,-269.77 546.46,-257.7 526.5,-235 507.42,-213.3 477.13,-200.38 453.01,-193.05"/>
<polygon fill="midnightblue" stroke="midnightblue" points="1270.87,-469.89 1281.01,-466.79 1271.15,-462.89 1270.87,-469.89"/>
</g>
<!-- Node40 -->
<g id="node24" class="node">
<title>Node40</title>
<g id="a_node24"><a xlink:href="_m_o_data_8_h.html" target="_top" xlink:title=" ">
<polygon fill="white" stroke="black" points="999,-403.5 999,-422.5 1066,-422.5 1066,-403.5 999,-403.5"/>
<text text-anchor="middle" x="1032.5" y="-410.5" font-family="Helvetica,sans-Serif" font-size="10.00">MOData.H</text>
</a>
</g>
</g>
<!-- Node1&#45;&gt;Node40 -->
<g id="edge35" class="edge">
<title>Node1&#45;&gt;Node40</title>
<path fill="none" stroke="midnightblue" d="M1271.19,-460.12C1223.27,-451.33 1143.79,-436.57 1075.5,-423 1072.51,-422.41 1069.4,-421.78 1066.29,-421.14"/>
<polygon fill="midnightblue" stroke="midnightblue" points="1270.74,-463.59 1281.21,-461.95 1272,-456.71 1270.74,-463.59"/>
</g>
<!-- Node49 -->
<g id="node33" class="node">
<title>Node49</title>
<g id="a_node33"><a xlink:href="_a_b_l_wall_function_8cpp.html" target="_top" xlink:title=" ">
<polygon fill="white" stroke="black" points="961,-174 961,-193 1078,-193 1078,-174 961,-174"/>
<text text-anchor="middle" x="1019.5" y="-181" font-family="Helvetica,sans-Serif" font-size="10.00">ABLWallFunction.cpp</text>
</a>
</g>
</g>
<!-- Node1&#45;&gt;Node49 -->
<g id="edge65" class="edge">
<title>Node1&#45;&gt;Node49</title>
<path fill="none" stroke="midnightblue" d="M1271.34,-467.66C1192.82,-466.17 1030.87,-458.71 989.5,-423 966.71,-403.34 970.5,-388.1 970.5,-358 970.5,-358 970.5,-358 970.5,-300 970.5,-257.09 999.52,-211.82 1012.89,-193.24"/>
<polygon fill="midnightblue" stroke="midnightblue" points="1271.34,-471.17 1281.39,-467.83 1271.45,-464.17 1271.34,-471.17"/>
</g>
<!-- Node56 -->
<g id="node40" class="node">
<title>Node56</title>
<g id="a_node40"><a xlink:href="_body_force_8cpp.html" target="_top" xlink:title=" ">
<polygon fill="white" stroke="black" points="1084.5,-403.5 1084.5,-422.5 1172.5,-422.5 1172.5,-403.5 1084.5,-403.5"/>
<text text-anchor="middle" x="1128.5" y="-410.5" font-family="Helvetica,sans-Serif" font-size="10.00">BodyForce.cpp</text>
</a>
</g>
</g>
<!-- Node1&#45;&gt;Node56 -->
<g id="edge55" class="edge">
<title>Node1&#45;&gt;Node56</title>
<path fill="none" stroke="midnightblue" d="M1275.12,-456.57C1240.03,-446.38 1189.48,-431.7 1157.83,-422.52"/>
<polygon fill="midnightblue" stroke="midnightblue" points="1274.45,-460.02 1285.03,-459.44 1276.4,-453.29 1274.45,-460.02"/>
</g>
<!-- Node57 -->
<g id="node41" class="node">
<title>Node57</title>
<g id="a_node41"><a xlink:href="_coriolis_forcing_8cpp.html" target="_top" xlink:title=" ">
<polygon fill="white" stroke="black" points="1191,-403.5 1191,-422.5 1300,-422.5 1300,-403.5 1191,-403.5"/>
<text text-anchor="middle" x="1245.5" y="-410.5" font-family="Helvetica,sans-Serif" font-size="10.00">CoriolisForcing.cpp</text>
</a>
</g>
</g>
<!-- Node1&#45;&gt;Node57 -->
<g id="edge56" class="edge">
<title>Node1&#45;&gt;Node57</title>
<path fill="none" stroke="midnightblue" d="M1295.46,-453.1C1283.04,-443.38 1267.26,-431.03 1256.79,-422.83"/>
<polygon fill="midnightblue" stroke="midnightblue" points="1293.38,-455.92 1303.41,-459.32 1297.7,-450.4 1293.38,-455.92"/>
</g>
<!-- Node58 -->
<g id="node42" class="node">
<title>Node58</title>
<g id="a_node42"><a xlink:href="_geostrophic_forcing_8cpp.html" target="_top" xlink:title=" ">
<polygon fill="white" stroke="black" points="1318,-403.5 1318,-422.5 1449,-422.5 1449,-403.5 1318,-403.5"/>
<text text-anchor="middle" x="1383.5" y="-410.5" font-family="Helvetica,sans-Serif" font-size="10.00">GeostrophicForcing.cpp</text>
</a>
</g>
</g>
<!-- Node1&#45;&gt;Node58 -->
<g id="edge57" class="edge">
<title>Node1&#45;&gt;Node58</title>
<path fill="none" stroke="midnightblue" d="M1333.54,-453.1C1345.96,-443.38 1361.74,-431.03 1372.21,-422.83"/>
<polygon fill="midnightblue" stroke="midnightblue" points="1331.3,-450.4 1325.59,-459.32 1335.62,-455.92 1331.3,-450.4"/>
</g>
<!-- Node59 -->
<g id="node43" class="node">
<title>Node59</title>
<g id="a_node43"><a xlink:href="_channel_flow_8cpp.html" target="_top" xlink:title=" ">
<polygon fill="white" stroke="black" points="1467,-403.5 1467,-422.5 1566,-422.5 1566,-403.5 1467,-403.5"/>
<text text-anchor="middle" x="1516.5" y="-410.5" font-family="Helvetica,sans-Serif" font-size="10.00">ChannelFlow.cpp</text>
</a>
</g>
</g>
<!-- Node1&#45;&gt;Node59 -->
<g id="edge58" class="edge">
<title>Node1&#45;&gt;Node59</title>
<path fill="none" stroke="midnightblue" d="M1356.29,-456.83C1394.43,-446.63 1449.98,-431.78 1484.64,-422.52"/>
<polygon fill="midnightblue" stroke="midnightblue" points="1355.26,-453.48 1346.51,-459.44 1357.07,-460.24 1355.26,-453.48"/>
</g>
<!-- Node60 -->
<g id="node44" class="node">
<title>Node60</title>
<g id="a_node44"><a xlink:href="_convecting_taylor_vortex_8cpp.html" target="_top" xlink:title=" ">
<polygon fill="white" stroke="black" points="1584.5,-403.5 1584.5,-422.5 1736.5,-422.5 1736.5,-403.5 1584.5,-403.5"/>
<text text-anchor="middle" x="1660.5" y="-410.5" font-family="Helvetica,sans-Serif" font-size="10.00">ConvectingTaylorVortex.cpp</text>
</a>
</g>
</g>
<!-- Node1&#45;&gt;Node60 -->
<g id="edge59" class="edge">
<title>Node1&#45;&gt;Node60</title>
<path fill="none" stroke="midnightblue" d="M1357.66,-461.26C1420.53,-451.45 1537.29,-433.23 1606.01,-422.5"/>
<polygon fill="midnightblue" stroke="midnightblue" points="1357.02,-457.82 1347.68,-462.82 1358.1,-464.74 1357.02,-457.82"/>
</g>
<!-- Node61 -->
<g id="node45" class="node">
<title>Node61</title>
<g id="a_node45"><a xlink:href="_ekman_spiral_8cpp.html" target="_top" xlink:title=" ">
<polygon fill="white" stroke="black" points="1754.5,-403.5 1754.5,-422.5 1852.5,-422.5 1852.5,-403.5 1754.5,-403.5"/>
<text text-anchor="middle" x="1803.5" y="-410.5" font-family="Helvetica,sans-Serif" font-size="10.00">EkmanSpiral.cpp</text>
</a>
</g>
</g>
<!-- Node1&#45;&gt;Node61 -->
<g id="edge60" class="edge">
<title>Node1&#45;&gt;Node61</title>
<path fill="none" stroke="midnightblue" d="M1357.92,-464.19C1435.73,-457.2 1604.06,-441.35 1745.5,-423 1748.43,-422.62 1751.44,-422.21 1754.48,-421.78"/>
<polygon fill="midnightblue" stroke="midnightblue" points="1357.2,-460.74 1347.55,-465.12 1357.82,-467.71 1357.2,-460.74"/>
</g>
<!-- Node62 -->
<g id="node46" class="node">
<title>Node62</title>
<g id="a_node46"><a xlink:href="_free_stream_8cpp.html" target="_top" xlink:title=" ">
<polygon fill="white" stroke="black" points="1871,-403.5 1871,-422.5 1964,-422.5 1964,-403.5 1871,-403.5"/>
<text text-anchor="middle" x="1917.5" y="-410.5" font-family="Helvetica,sans-Serif" font-size="10.00">FreeStream.cpp</text>
</a>
</g>
</g>
<!-- Node1&#45;&gt;Node62 -->
<g id="edge61" class="edge">
<title>Node1&#45;&gt;Node62</title>
<path fill="none" stroke="midnightblue" d="M1357.68,-465.59C1450.25,-460.16 1674.55,-445.68 1861.5,-423 1864.53,-422.63 1867.65,-422.22 1870.79,-421.78"/>
<polygon fill="midnightblue" stroke="midnightblue" points="1357.36,-462.1 1347.58,-466.17 1357.76,-469.09 1357.36,-462.1"/>
</g>
<!-- Node63 -->
<g id="node47" class="node">
<title>Node63</title>
<g id="a_node47"><a xlink:href="_n_w_b_8cpp.html" target="_top" xlink:title=" ">
<polygon fill="white" stroke="black" points="1982,-403.5 1982,-422.5 2043,-422.5 2043,-403.5 1982,-403.5"/>
<text text-anchor="middle" x="2012.5" y="-410.5" font-family="Helvetica,sans-Serif" font-size="10.00">NWB.cpp</text>
</a>
</g>
</g>
<!-- Node1&#45;&gt;Node63 -->
<g id="edge62" class="edge">
<title>Node1&#45;&gt;Node63</title>
<path fill="none" stroke="midnightblue" d="M1357.81,-467.33C1463.44,-465.19 1742.46,-456.54 1972.5,-423 1975.46,-422.57 1978.52,-422.04 1981.58,-421.45"/>
<polygon fill="midnightblue" stroke="midnightblue" points="1357.48,-463.83 1347.55,-467.52 1357.62,-470.83 1357.48,-463.83"/>
</g>
<!-- Node64 -->
<g id="node48" class="node">
<title>Node64</title>
<g id="a_node48"><a xlink:href="_taylor_green_vortex_8cpp.html" target="_top" xlink:title=" ">
<polygon fill="white" stroke="black" points="2061,-403.5 2061,-422.5 2188,-422.5 2188,-403.5 2061,-403.5"/>
<text text-anchor="middle" x="2124.5" y="-410.5" font-family="Helvetica,sans-Serif" font-size="10.00">TaylorGreenVortex.cpp</text>
</a>
</g>
</g>
<!-- Node1&#45;&gt;Node64 -->
<g id="edge64" class="edge">
<title>Node1&#45;&gt;Node64</title>
<path fill="none" stroke="midnightblue" d="M1357.72,-466.32C1471.57,-461.7 1789.12,-447.47 2052.5,-423 2055.26,-422.74 2058.08,-422.46 2060.92,-422.17"/>
<polygon fill="midnightblue" stroke="midnightblue" points="1357.51,-462.83 1347.66,-466.73 1357.79,-469.82 1357.51,-462.83"/>
</g>
<!-- Node65 -->
<g id="node49" class="node">
<title>Node65</title>
<g id="a_node49"><a xlink:href="actuator__utils_8_h.html" target="_top" xlink:title=" ">
<polygon fill="white" stroke="black" points="828.5,-291.5 828.5,-310.5 922.5,-310.5 922.5,-291.5 828.5,-291.5"/>
<text text-anchor="middle" x="875.5" y="-298.5" font-family="Helvetica,sans-Serif" font-size="10.00">actuator_utils.H</text>
</a>
</g>
</g>
<!-- Node1&#45;&gt;Node65 -->
<g id="edge66" class="edge">
<title>Node1&#45;&gt;Node65</title>
<path fill="none" stroke="midnightblue" d="M1271.33,-466.99C1187.94,-464.34 1008.32,-454.98 956.5,-423 911.97,-395.52 886.49,-333.37 878.37,-310.58"/>
<polygon fill="midnightblue" stroke="midnightblue" points="1271.39,-470.5 1281.49,-467.3 1271.6,-463.5 1271.39,-470.5"/>
</g>
<!-- Node3 -->
<g id="node3" class="node">
<title>Node3</title>
<g id="a_node3"><a xlink:href="tensor_8_h.html" target="_top" xlink:title=" ">
<polygon fill="white" stroke="black" points="378,-347.5 378,-366.5 435,-366.5 435,-347.5 378,-347.5"/>
<text text-anchor="middle" x="406.5" y="-354.5" font-family="Helvetica,sans-Serif" font-size="10.00">tensor.H</text>
</a>
</g>
</g>
<!-- Node2&#45;&gt;Node3 -->
<g id="edge2" class="edge">
<title>Node2&#45;&gt;Node3</title>
<path fill="none" stroke="midnightblue" d="M400.03,-393.1C399.4,-384.14 399.84,-373.86 401.37,-366.75"/>
<polygon fill="midnightblue" stroke="midnightblue" points="396.57,-393.62 401.33,-403.08 403.51,-392.71 396.57,-393.62"/>
</g>
<!-- Node3&#45;&gt;Node2 -->
<g id="edge34" class="edge">
<title>Node3&#45;&gt;Node2</title>
<path fill="none" stroke="midnightblue" d="M412.96,-376.69C413.61,-385.64 413.18,-395.93 411.67,-403.08"/>
<polygon fill="midnightblue" stroke="midnightblue" points="416.42,-376.2 411.63,-366.75 409.48,-377.13 416.42,-376.2"/>
</g>
<!-- Node4 -->
<g id="node4" class="node">
<title>Node4</title>
<g id="a_node4"><a xlink:href="vector__space_8_h.html" target="_top" xlink:title=" ">
<polygon fill="white" stroke="black" points="224.5,-291.5 224.5,-310.5 316.5,-310.5 316.5,-291.5 224.5,-291.5"/>
<text text-anchor="middle" x="270.5" y="-298.5" font-family="Helvetica,sans-Serif" font-size="10.00">vector_space.H</text>
</a>
</g>
</g>
<!-- Node3&#45;&gt;Node4 -->
<g id="edge3" class="edge">
<title>Node3&#45;&gt;Node4</title>
<path fill="none" stroke="midnightblue" d="M375.37,-343.64C349.84,-333.5 314.39,-319.43 291.95,-310.52"/>
<polygon fill="midnightblue" stroke="midnightblue" points="374.36,-347.01 384.95,-347.44 376.95,-340.5 374.36,-347.01"/>
</g>
<!-- Node5 -->
<g id="node5" class="node">
<title>Node5</title>
<g id="a_node5"><a xlink:href="_multi_parser_8_h.html" target="_top" xlink:title=" ">
<polygon fill="white" stroke="red" points="0,-235.5 0,-254.5 81,-254.5 81,-235.5 0,-235.5"/>
<text text-anchor="middle" x="40.5" y="-242.5" font-family="Helvetica,sans-Serif" font-size="10.00">MultiParser.H</text>
</a>
</g>
</g>
<!-- Node4&#45;&gt;Node5 -->
<g id="edge4" class="edge">
<title>Node4&#45;&gt;Node5</title>
<path fill="none" stroke="midnightblue" d="M224.3,-289.15C180.84,-278.95 116.66,-263.88 76.77,-254.52"/>
<polygon fill="midnightblue" stroke="midnightblue" points="223.52,-292.57 234.06,-291.44 225.12,-285.75 223.52,-292.57"/>
</g>
<!-- Node22 -->
<g id="node6" class="node">
<title>Node22</title>
<g id="a_node6"><a xlink:href="_synthetic_turbulence_8_h.html" target="_top" xlink:title=" ">
<polygon fill="white" stroke="black" points="393,-235.5 393,-254.5 518,-254.5 518,-235.5 393,-235.5"/>
<text text-anchor="middle" x="455.5" y="-242.5" font-family="Helvetica,sans-Serif" font-size="10.00">SyntheticTurbulence.H</text>
</a>
</g>
</g>
<!-- Node4&#45;&gt;Node22 -->
<g id="edge5" class="edge">
<title>Node4&#45;&gt;Node22</title>
<path fill="none" stroke="midnightblue" d="M309.67,-288.57C344.57,-278.38 394.85,-263.7 426.32,-254.52"/>
<polygon fill="midnightblue" stroke="midnightblue" points="308.43,-285.28 299.81,-291.44 310.39,-292 308.43,-285.28"/>
</g>
<!-- Node24 -->
<g id="node8" class="node">
<title>Node24</title>
<g id="a_node8"><a xlink:href="_box_refiner_8_h.html" target="_top" xlink:title=" ">
<polygon fill="white" stroke="red" points="175.5,-235.5 175.5,-254.5 255.5,-254.5 255.5,-235.5 175.5,-235.5"/>
<text text-anchor="middle" x="215.5" y="-242.5" font-family="Helvetica,sans-Serif" font-size="10.00">BoxRefiner.H</text>
</a>
</g>
</g>
<!-- Node4&#45;&gt;Node24 -->
<g id="edge7" class="edge">
<title>Node4&#45;&gt;Node24</title>
<path fill="none" stroke="midnightblue" d="M254.21,-284C244.46,-274.43 232.45,-262.64 224.41,-254.75"/>
<polygon fill="midnightblue" stroke="midnightblue" points="251.83,-286.57 261.42,-291.08 256.73,-281.58 251.83,-286.57"/>
</g>
<!-- Node26 -->
<g id="node9" class="node">
<title>Node26</title>
<g id="a_node9"><a xlink:href="_cylinder_refiner_8_h.html" target="_top" xlink:title=" ">
<polygon fill="white" stroke="red" points="274,-235.5 274,-254.5 375,-254.5 375,-235.5 274,-235.5"/>
<text text-anchor="middle" x="324.5" y="-242.5" font-family="Helvetica,sans-Serif" font-size="10.00">CylinderRefiner.H</text>
</a>
</g>
</g>
<!-- Node4&#45;&gt;Node26 -->
<g id="edge8" class="edge">
<title>Node4&#45;&gt;Node26</title>
<path fill="none" stroke="midnightblue" d="M286.5,-284C296.07,-274.43 307.86,-262.64 315.75,-254.75"/>
<polygon fill="midnightblue" stroke="midnightblue" points="284.01,-281.54 279.42,-291.08 288.96,-286.49 284.01,-281.54"/>
</g>
<!-- Node28 -->
<g id="node10" class="node">
<title>Node28</title>
<g id="a_node10"><a xlink:href="actuator__types_8_h.html" target="_top" xlink:title=" ">
<polygon fill="white" stroke="red" points="574.5,-235.5 574.5,-254.5 674.5,-254.5 674.5,-235.5 574.5,-235.5"/>
<text text-anchor="middle" x="624.5" y="-242.5" font-family="Helvetica,sans-Serif" font-size="10.00">actuator_types.H</text>
</a>
</g>
</g>
<!-- Node4&#45;&gt;Node28 -->
<g id="edge9" class="edge">
<title>Node4&#45;&gt;Node28</title>
<path fill="none" stroke="midnightblue" d="M326.93,-291.39C395.24,-280.97 509.21,-263.59 574.5,-253.63"/>
<polygon fill="midnightblue" stroke="midnightblue" points="326.14,-287.97 316.78,-292.94 327.19,-294.89 326.14,-287.97"/>
</g>
<!-- Node37 -->
<g id="node22" class="node">
<title>Node37</title>
<g id="a_node22"><a xlink:href="_actuator_wing_8_h.html" target="_top" xlink:title=" ">
<polygon fill="white" stroke="red" points="237,-174 237,-193 330,-193 330,-174 237,-174"/>
<text text-anchor="middle" x="283.5" y="-181" font-family="Helvetica,sans-Serif" font-size="10.00">ActuatorWing.H</text>
</a>
</g>
</g>
<!-- Node4&#45;&gt;Node37 -->
<g id="edge33" class="edge">
<title>Node4&#45;&gt;Node37</title>
<path fill="none" stroke="midnightblue" d="M219.67,-288.62C185.46,-278.37 149.46,-260.91 166.5,-235 182.12,-211.25 211.54,-198.62 236.97,-191.93"/>
<polygon fill="midnightblue" stroke="midnightblue" points="219.12,-292.1 229.7,-291.44 221.02,-285.36 219.12,-292.1"/>
</g>
<!-- Node38 -->
<g id="node23" class="node">
<title>Node38</title>
<g id="a_node23"><a xlink:href="_actuator_container_8_h.html" target="_top" xlink:title=" ">
<polygon fill="white" stroke="red" points="182,-56.5 182,-75.5 297,-75.5 297,-56.5 182,-56.5"/>
<text text-anchor="middle" x="239.5" y="-63.5" font-family="Helvetica,sans-Serif" font-size="10.00">ActuatorContainer.H</text>
</a>
</g>
</g>
<!-- Node4&#45;&gt;Node38 -->
<g id="edge31" class="edge">
<title>Node4&#45;&gt;Node38</title>
<path fill="none" stroke="midnightblue" d="M214.68,-291.22C193.43,-284.86 171.27,-273.89 158.5,-255 116.11,-192.28 200.33,-103.78 229.82,-75.82"/>
<polygon fill="midnightblue" stroke="midnightblue" points="213.77,-294.6 224.34,-293.83 215.6,-287.84 213.77,-294.6"/>
</g>
<!-- Node22&#45;&gt;Node23 -->
<g id="edge6" class="edge">
<title>Node22&#45;&gt;Node23</title>
<path fill="none" stroke="midnightblue" d="M444.07,-227.01C436.6,-215.89 427.16,-201.84 421.22,-193.01"/>
<polygon fill="midnightblue" stroke="midnightblue" points="441.29,-229.13 449.77,-235.48 447.09,-225.22 441.29,-229.13"/>
</g>
<!-- Node8 -->
<g id="node11" class="node">
<title>Node8</title>
<g id="a_node11"><a xlink:href="_act_src_line_op_8_h.html" target="_top" xlink:title=" ">
<polygon fill="white" stroke="black" points="690.5,-112.5 690.5,-131.5 782.5,-131.5 782.5,-112.5 690.5,-112.5"/>
<text text-anchor="middle" x="736.5" y="-119.5" font-family="Helvetica,sans-Serif" font-size="10.00">ActSrcLineOp.H</text>
</a>
</g>
</g>
<!-- Node28&#45;&gt;Node8 -->
<g id="edge10" class="edge">
<title>Node28&#45;&gt;Node8</title>
<path fill="none" stroke="midnightblue" d="M644.13,-228.96C654.51,-220.61 667.2,-209.76 677.5,-199 698.98,-176.56 720.39,-146.61 730.5,-131.91"/>
<polygon fill="midnightblue" stroke="midnightblue" points="641.74,-226.38 636.06,-235.32 646.08,-231.88 641.74,-226.38"/>
</g>
<!-- Node9 -->
<g id="node12" class="node">
<title>Node9</title>
<g id="a_node12"><a xlink:href="_actuator_model_8_h.html" target="_top" xlink:title=" ">
<polygon fill="white" stroke="red" points="684.5,-56.5 684.5,-75.5 782.5,-75.5 782.5,-56.5 684.5,-56.5"/>
<text text-anchor="middle" x="733.5" y="-63.5" font-family="Helvetica,sans-Serif" font-size="10.00">ActuatorModel.H</text>
</a>
</g>
</g>
<!-- Node28&#45;&gt;Node9 -->
<g id="edge26" class="edge">
<title>Node28&#45;&gt;Node9</title>
<path fill="none" stroke="midnightblue" d="M598.64,-229.95C587.49,-222.38 575.63,-211.93 569.5,-199 563.6,-186.55 562.78,-180.03 569.5,-168 598.04,-116.91 664.2,-88.47 703.2,-75.59"/>
<polygon fill="midnightblue" stroke="midnightblue" points="596.97,-233.03 607.3,-235.39 600.69,-227.1 596.97,-233.03"/>
</g>
<!-- Node7 -->
<g id="node15" class="node">
<title>Node7</title>
<g id="a_node15"><a xlink:href="actuator__ops_8_h.html" target="_top" xlink:title=" ">
<polygon fill="white" stroke="black" points="578.5,-174 578.5,-193 668.5,-193 668.5,-174 578.5,-174"/>
<text text-anchor="middle" x="623.5" y="-181" font-family="Helvetica,sans-Serif" font-size="10.00">actuator_ops.H</text>
</a>
</g>
</g>
<!-- Node28&#45;&gt;Node7 -->
<g id="edge14" class="edge">
<title>Node28&#45;&gt;Node7</title>
<path fill="none" stroke="midnightblue" d="M624.19,-225.32C624,-214.5 623.78,-201.4 623.64,-193.01"/>
<polygon fill="midnightblue" stroke="midnightblue" points="620.69,-225.54 624.36,-235.48 627.69,-225.42 620.69,-225.54"/>
</g>
<!-- Node17 -->
<g id="node19" class="node">
<title>Node17</title>
<g id="a_node19"><a xlink:href="wing__ops_8_h.html" target="_top" xlink:title=" ">
<polygon fill="white" stroke="red" points="447,-112.5 447,-131.5 520,-131.5 520,-112.5 447,-112.5"/>
<text text-anchor="middle" x="483.5" y="-119.5" font-family="Helvetica,sans-Serif" font-size="10.00">wing_ops.H</text>
</a>
</g>
</g>
<!-- Node28&#45;&gt;Node17 -->
<g id="edge30" class="edge">
<title>Node28&#45;&gt;Node17</title>
<path fill="none" stroke="midnightblue" d="M590.45,-231.58C572.75,-224 551.54,-213.05 535.5,-199 512.65,-178.98 495.08,-146.81 487.53,-131.56"/>
<polygon fill="midnightblue" stroke="midnightblue" points="589.28,-234.88 599.86,-235.44 591.93,-228.41 589.28,-234.88"/>
</g>
<!-- Node31 -->
<g id="node21" class="node">
<title>Node31</title>
<g id="a_node21"><a xlink:href="actuator__utils_8cpp.html" target="_top" xlink:title=" ">
<polygon fill="white" stroke="black" points="724.5,-174 724.5,-193 828.5,-193 828.5,-174 724.5,-174"/>
<text text-anchor="middle" x="776.5" y="-181" font-family="Helvetica,sans-Serif" font-size="10.00">actuator_utils.cpp</text>
</a>
</g>
</g>
<!-- Node28&#45;&gt;Node31 -->
<g id="edge27" class="edge">
<title>Node28&#45;&gt;Node31</title>
<path fill="none" stroke="midnightblue" d="M655.71,-231.78C685.25,-220.22 728.82,-203.16 754.76,-193.01"/>
<polygon fill="midnightblue" stroke="midnightblue" points="654.31,-228.57 646.28,-235.48 656.87,-235.09 654.31,-228.57"/>
</g>
<!-- Node28&#45;&gt;Node37 -->
<g id="edge28" class="edge">
<title>Node28&#45;&gt;Node37</title>
<path fill="none" stroke="midnightblue" d="M564.25,-236.33C506.15,-228.52 415.88,-215.24 338.5,-199 330.38,-197.3 321.67,-195.15 313.63,-193.03"/>
<polygon fill="midnightblue" stroke="midnightblue" points="563.99,-239.83 574.36,-237.68 564.91,-232.89 563.99,-239.83"/>
</g>
<!-- Node8&#45;&gt;Node9 -->
<g id="edge11" class="edge">
<title>Node8&#45;&gt;Node9</title>
<path fill="none" stroke="midnightblue" d="M735.43,-101.8C734.94,-92.91 734.38,-82.78 733.99,-75.75"/>
<polygon fill="midnightblue" stroke="midnightblue" points="731.96,-102.29 736,-112.08 738.94,-101.9 731.96,-102.29"/>
</g>
<!-- Node10 -->
<g id="node13" class="node">
<title>Node10</title>
<g id="a_node13"><a xlink:href="_actuator_8cpp.html" target="_top" xlink:title=" ">
<polygon fill="white" stroke="black" points="543,-0.5 543,-19.5 620,-19.5 620,-0.5 543,-0.5"/>
<text text-anchor="middle" x="581.5" y="-7.5" font-family="Helvetica,sans-Serif" font-size="10.00">Actuator.cpp</text>
</a>
</g>
</g>
<!-- Node9&#45;&gt;Node10 -->
<g id="edge12" class="edge">
<title>Node9&#45;&gt;Node10</title>
<path fill="none" stroke="midnightblue" d="M699.83,-53.04C671.23,-42.88 630.89,-28.55 605.47,-19.52"/>
<polygon fill="midnightblue" stroke="midnightblue" points="698.82,-56.39 709.42,-56.44 701.16,-49.8 698.82,-56.39"/>
</g>
<!-- Node11 -->
<g id="node14" class="node">
<title>Node11</title>
<g id="a_node14"><a xlink:href="_turbine_fast_8cpp.html" target="_top" xlink:title=" ">
<polygon fill="white" stroke="black" points="765.5,-0.5 765.5,-19.5 857.5,-19.5 857.5,-0.5 765.5,-0.5"/>
<text text-anchor="middle" x="811.5" y="-7.5" font-family="Helvetica,sans-Serif" font-size="10.00">TurbineFast.cpp</text>
</a>
</g>
</g>
<!-- Node9&#45;&gt;Node11 -->
<g id="edge13" class="edge">
<title>Node9&#45;&gt;Node11</title>
<path fill="none" stroke="midnightblue" d="M754.27,-50.62C768.52,-40.76 786.96,-27.99 799,-19.65"/>
<polygon fill="midnightblue" stroke="midnightblue" points="752.26,-47.75 746.03,-56.32 756.25,-53.51 752.26,-47.75"/>
</g>
<!-- Node7&#45;&gt;Node8 -->
<g id="edge15" class="edge">
<title>Node7&#45;&gt;Node8</title>
<path fill="none" stroke="midnightblue" d="M648.74,-169.21C670.62,-157.69 701.64,-141.36 720.34,-131.51"/>
<polygon fill="midnightblue" stroke="midnightblue" points="646.91,-166.22 639.69,-173.98 650.17,-172.41 646.91,-166.22"/>
</g>
<!-- Node7&#45;&gt;Node9 -->
<g id="edge16" class="edge">
<title>Node7&#45;&gt;Node9</title>
<path fill="none" stroke="midnightblue" d="M636.03,-165.7C647.3,-150.97 664.64,-129.29 681.5,-112 694.67,-98.5 711.39,-84.52 722.26,-75.8"/>
<polygon fill="midnightblue" stroke="midnightblue" points="633.09,-163.77 629.85,-173.86 638.68,-168 633.09,-163.77"/>
</g>
<!-- Node14 -->
<g id="node16" class="node">
<title>Node14</title>
<g id="a_node16"><a xlink:href="_act_src_disk_op_8_h.html" target="_top" xlink:title=" ">
<polygon fill="white" stroke="black" points="801,-112.5 801,-131.5 894,-131.5 894,-112.5 801,-112.5"/>
<text text-anchor="middle" x="847.5" y="-119.5" font-family="Helvetica,sans-Serif" font-size="10.00">ActSrcDiskOp.H</text>
</a>
</g>
</g>
<!-- Node7&#45;&gt;Node14 -->
<g id="edge17" class="edge">
<title>Node7&#45;&gt;Node14</title>
<path fill="none" stroke="midnightblue" d="M665.3,-171.4C708.81,-159.84 775.99,-142 815.47,-131.51"/>
<polygon fill="midnightblue" stroke="midnightblue" points="664.36,-168.03 655.59,-173.98 666.16,-174.79 664.36,-168.03"/>
</g>
<!-- Node15 -->
<g id="node17" class="node">
<title>Node15</title>
<g id="a_node17"><a xlink:href="turbine__fast__ops_8_h.html" target="_top" xlink:title=" ">
<polygon fill="white" stroke="black" points="912.5,-112.5 912.5,-131.5 1020.5,-131.5 1020.5,-112.5 912.5,-112.5"/>
<text text-anchor="middle" x="966.5" y="-119.5" font-family="Helvetica,sans-Serif" font-size="10.00">turbine_fast_ops.H</text>
</a>
</g>
</g>
<!-- Node7&#45;&gt;Node15 -->
<g id="edge19" class="edge">
<title>Node7&#45;&gt;Node15</title>
<path fill="none" stroke="midnightblue" d="M678.9,-172.89C744.91,-161.44 854.18,-142.48 917.32,-131.53"/>
<polygon fill="midnightblue" stroke="midnightblue" points="677.95,-169.5 668.69,-174.66 679.15,-176.4 677.95,-169.5"/>
</g>
<!-- Node16 -->
<g id="node18" class="node">
<title>Node16</title>
<g id="a_node18"><a xlink:href="fixed__wing__ops_8_h.html" target="_top" xlink:title=" ">
<polygon fill="white" stroke="red" points="560,-56.5 560,-75.5 661,-75.5 661,-56.5 560,-56.5"/>
<text text-anchor="middle" x="610.5" y="-63.5" font-family="Helvetica,sans-Serif" font-size="10.00">fixed_wing_ops.H</text>
</a>
</g>
</g>
<!-- Node7&#45;&gt;Node16 -->
<g id="edge21" class="edge">
<title>Node7&#45;&gt;Node16</title>
<path fill="none" stroke="midnightblue" d="M621.38,-163.66C618.53,-138.37 613.59,-94.44 611.49,-75.78"/>
<polygon fill="midnightblue" stroke="midnightblue" points="617.93,-164.27 622.52,-173.82 624.88,-163.49 617.93,-164.27"/>
</g>
<!-- Node7&#45;&gt;Node17 -->
<g id="edge22" class="edge">
<title>Node7&#45;&gt;Node17</title>
<path fill="none" stroke="midnightblue" d="M594.04,-169.98C566.85,-158.42 527.21,-141.58 503.52,-131.51"/>
<polygon fill="midnightblue" stroke="midnightblue" points="592.87,-173.28 603.44,-173.98 595.61,-166.84 592.87,-173.28"/>
</g>
<!-- Node18 -->
<g id="node20" class="node">
<title>Node18</title>
<g id="a_node20"><a xlink:href="flat__plate__ops_8_h.html" target="_top" xlink:title=" ">
<polygon fill="white" stroke="red" points="438,-56.5 438,-75.5 533,-75.5 533,-56.5 438,-56.5"/>
<text text-anchor="middle" x="485.5" y="-63.5" font-family="Helvetica,sans-Serif" font-size="10.00">flat_plate_ops.H</text>
</a>
</g>
</g>
<!-- Node7&#45;&gt;Node18 -->
<g id="edge25" class="edge">
<title>Node7&#45;&gt;Node18</title>
<path fill="none" stroke="midnightblue" d="M605.32,-167.28C576.04,-142.78 519.38,-95.36 495.99,-75.78"/>
<polygon fill="midnightblue" stroke="midnightblue" points="603.21,-170.08 613.13,-173.82 607.71,-164.72 603.21,-170.08"/>
</g>
<!-- Node14&#45;&gt;Node9 -->
<g id="edge18" class="edge">
<title>Node14&#45;&gt;Node9</title>
<path fill="none" stroke="midnightblue" d="M820.26,-108.1C798.96,-98.01 769.96,-84.27 751.48,-75.52"/>
<polygon fill="midnightblue" stroke="midnightblue" points="818.9,-111.33 829.44,-112.44 821.9,-105 818.9,-111.33"/>
</g>
<!-- Node15&#45;&gt;Node11 -->
<g id="edge20" class="edge">
<title>Node15&#45;&gt;Node11</title>
<path fill="none" stroke="midnightblue" d="M945.95,-106.42C913.17,-83.15 850.04,-38.35 823.61,-19.59"/>
<polygon fill="midnightblue" stroke="midnightblue" points="944.16,-109.44 954.34,-112.37 948.21,-103.73 944.16,-109.44"/>
</g>
<!-- Node17&#45;&gt;Node16 -->
<g id="edge23" class="edge">
<title>Node17&#45;&gt;Node16</title>
<path fill="none" stroke="midnightblue" d="M512.89,-108.5C536.7,-98.38 569.61,-84.39 590.47,-75.52"/>
<polygon fill="midnightblue" stroke="midnightblue" points="511.46,-105.31 503.62,-112.44 514.2,-111.75 511.46,-105.31"/>
</g>
<!-- Node17&#45;&gt;Node18 -->
<g id="edge24" class="edge">
<title>Node17&#45;&gt;Node18</title>
<path fill="none" stroke="midnightblue" d="M484.21,-101.8C484.54,-92.91 484.92,-82.78 485.18,-75.75"/>
<polygon fill="midnightblue" stroke="midnightblue" points="480.7,-101.96 483.83,-112.08 487.7,-102.22 480.7,-101.96"/>
</g>
<!-- Node37&#45;&gt;Node17 -->
<g id="edge29" class="edge">
<title>Node37&#45;&gt;Node17</title>
<path fill="none" stroke="midnightblue" d="M322.06,-171.03C360.93,-159.46 420.02,-141.88 454.9,-131.51"/>
<polygon fill="midnightblue" stroke="midnightblue" points="320.74,-167.77 312.16,-173.98 322.74,-174.48 320.74,-167.77"/>
</g>
<!-- Node38&#45;&gt;Node10 -->
<g id="edge32" class="edge">
<title>Node38&#45;&gt;Node10</title>
<path fill="none" stroke="midnightblue" d="M303.78,-54.85C374.2,-43.73 484.86,-26.26 542.95,-17.09"/>
<polygon fill="midnightblue" stroke="midnightblue" points="303.02,-51.43 293.69,-56.44 304.11,-58.34 303.02,-51.43"/>
</g>
<!-- Node41 -->
<g id="node25" class="node">
<title>Node41</title>
<g id="a_node25"><a xlink:href="_a_b_l_wall_function_8_h.html" target="_top" xlink:title=" ">
<polygon fill="white" stroke="black" points="1214,-347.5 1214,-366.5 1321,-366.5 1321,-347.5 1214,-347.5"/>
<text text-anchor="middle" x="1267.5" y="-354.5" font-family="Helvetica,sans-Serif" font-size="10.00">ABLWallFunction.H</text>
</a>
</g>
</g>
<!-- Node40&#45;&gt;Node41 -->
<g id="edge36" class="edge">
<title>Node40&#45;&gt;Node41</title>
<path fill="none" stroke="midnightblue" d="M1076.09,-401.98C1120.46,-391.79 1188.53,-376.15 1230.4,-366.52"/>
<polygon fill="midnightblue" stroke="midnightblue" points="1075.13,-398.61 1066.17,-404.26 1076.7,-405.43 1075.13,-398.61"/>
</g>
<!-- Node54 -->
<g id="node38" class="node">
<title>Node54</title>
<g id="a_node38"><a xlink:href="_shear_stress_8_h.html" target="_top" xlink:title=" ">
<polygon fill="white" stroke="black" points="999,-347.5 999,-366.5 1084,-366.5 1084,-347.5 999,-347.5"/>
<text text-anchor="middle" x="1041.5" y="-354.5" font-family="Helvetica,sans-Serif" font-size="10.00">ShearStress.H</text>
</a>
</g>
</g>
<!-- Node40&#45;&gt;Node54 -->
<g id="edge52" class="edge">
<title>Node40&#45;&gt;Node54</title>
<path fill="none" stroke="midnightblue" d="M1035.65,-393.1C1037.14,-384.14 1038.86,-373.86 1040.04,-366.75"/>
<polygon fill="midnightblue" stroke="midnightblue" points="1032.18,-392.64 1033.99,-403.08 1039.08,-393.79 1032.18,-392.64"/>
</g>
<!-- Node55 -->
<g id="node39" class="node">
<title>Node55</title>
<g id="a_node39"><a xlink:href="_m_o_data_8cpp.html" target="_top" xlink:title=" ">
<polygon fill="white" stroke="black" points="1102,-347.5 1102,-366.5 1179,-366.5 1179,-347.5 1102,-347.5"/>
<text text-anchor="middle" x="1140.5" y="-354.5" font-family="Helvetica,sans-Serif" font-size="10.00">MOData.cpp</text>
</a>
</g>
</g>
<!-- Node40&#45;&gt;Node55 -->
<g id="edge54" class="edge">
<title>Node40&#45;&gt;Node55</title>
<path fill="none" stroke="midnightblue" d="M1059.05,-398.73C1079.05,-388.73 1105.89,-375.31 1123.19,-366.65"/>
<polygon fill="midnightblue" stroke="midnightblue" points="1057.23,-395.72 1049.85,-403.32 1060.36,-401.98 1057.23,-395.72"/>
</g>
<!-- Node42 -->
<g id="node26" class="node">
<title>Node42</title>
<g id="a_node26"><a xlink:href="_a_b_l_8_h.html" target="_top" xlink:title=" ">
<polygon fill="white" stroke="black" points="1290.5,-235.5 1290.5,-254.5 1336.5,-254.5 1336.5,-235.5 1290.5,-235.5"/>
<text text-anchor="middle" x="1313.5" y="-242.5" font-family="Helvetica,sans-Serif" font-size="10.00">ABL.H</text>
</a>
</g>
</g>
<!-- Node41&#45;&gt;Node42 -->
<g id="edge37" class="edge">
<title>Node41&#45;&gt;Node42</title>
<path fill="none" stroke="midnightblue" d="M1258.84,-337.92C1253.66,-324.4 1249.34,-305.77 1256.5,-291 1264.53,-274.43 1281.94,-262.13 1295.42,-254.61"/>
<polygon fill="midnightblue" stroke="midnightblue" points="1255.63,-339.31 1262.79,-347.12 1262.06,-336.55 1255.63,-339.31"/>
</g>
<!-- Node41&#45;&gt;Node49 -->
<g id="edge51" class="edge">
<title>Node41&#45;&gt;Node49</title>
<path fill="none" stroke="midnightblue" d="M1246.82,-341.7C1197.05,-307.28 1071.73,-220.62 1031.87,-193.06"/>
<polygon fill="midnightblue" stroke="midnightblue" points="1244.99,-344.69 1255.2,-347.5 1248.97,-338.93 1244.99,-344.69"/>
</g>
<!-- Node50 -->
<g id="node34" class="node">
<title>Node50</title>
<g id="a_node34"><a xlink:href="_a_b_l_stats_base_8_h.html" target="_top" xlink:title=" ">
<polygon fill="white" stroke="black" points="1266,-291.5 1266,-310.5 1361,-310.5 1361,-291.5 1266,-291.5"/>
<text text-anchor="middle" x="1313.5" y="-298.5" font-family="Helvetica,sans-Serif" font-size="10.00">ABLStatsBase.H</text>
</a>
</g>
</g>
<!-- Node41&#45;&gt;Node50 -->
<g id="edge45" class="edge">
<title>Node41&#45;&gt;Node50</title>
<path fill="none" stroke="midnightblue" d="M1281.61,-339.43C1289.68,-329.97 1299.46,-318.48 1306.05,-310.75"/>
<polygon fill="midnightblue" stroke="midnightblue" points="1278.92,-337.2 1275.1,-347.08 1284.25,-341.74 1278.92,-337.2"/>
</g>
<!-- Node51 -->
<g id="node35" class="node">
<title>Node51</title>
<g id="a_node35"><a xlink:href="_a_b_l_stats_8_h.html" target="_top" xlink:title=" ">
<polygon fill="white" stroke="black" points="1355,-235.5 1355,-254.5 1426,-254.5 1426,-235.5 1355,-235.5"/>
<text text-anchor="middle" x="1390.5" y="-242.5" font-family="Helvetica,sans-Serif" font-size="10.00">ABLStats.H</text>
</a>
</g>
</g>
<!-- Node41&#45;&gt;Node51 -->
<g id="edge50" class="edge">
<title>Node41&#45;&gt;Node51</title>
<path fill="none" stroke="midnightblue" d="M1315.09,-344.28C1334.27,-337.41 1355.19,-326.86 1369.5,-311 1384.11,-294.8 1388.57,-268.31 1389.92,-254.69"/>
<polygon fill="midnightblue" stroke="midnightblue" points="1313.94,-340.97 1305.56,-347.45 1316.15,-347.61 1313.94,-340.97"/>
</g>
<!-- Node53 -->
<g id="node37" class="node">
<title>Node53</title>
<g id="a_node37"><a xlink:href="_boussinesq_bubble_8cpp.html" target="_top" xlink:title=" ">
<polygon fill="white" stroke="black" points="1417.5,-291.5 1417.5,-310.5 1543.5,-310.5 1543.5,-291.5 1417.5,-291.5"/>
<text text-anchor="middle" x="1480.5" y="-298.5" font-family="Helvetica,sans-Serif" font-size="10.00">BoussinesqBubble.cpp</text>
</a>
</g>
</g>
<!-- Node41&#45;&gt;Node53 -->
<g id="edge49" class="edge">
<title>Node41&#45;&gt;Node53</title>
<path fill="none" stroke="midnightblue" d="M1311.05,-344.96C1351.28,-334.76 1410.2,-319.82 1446.91,-310.52"/>
<polygon fill="midnightblue" stroke="midnightblue" points="1310.08,-341.59 1301.25,-347.44 1311.8,-348.38 1310.08,-341.59"/>
</g>
<!-- Node43 -->
<g id="node27" class="node">
<title>Node43</title>
<g id="a_node27"><a xlink:href="_a_b_l_forcing_8cpp.html" target="_top" xlink:title=" ">
<polygon fill="white" stroke="black" points="1605,-174 1605,-193 1696,-193 1696,-174 1605,-174"/>
<text text-anchor="middle" x="1650.5" y="-181" font-family="Helvetica,sans-Serif" font-size="10.00">ABLForcing.cpp</text>
</a>
</g>
</g>
<!-- Node42&#45;&gt;Node43 -->
<g id="edge38" class="edge">
<title>Node42&#45;&gt;Node43</title>
<path fill="none" stroke="midnightblue" d="M1346.69,-234.99C1457.1,-212.27 1488.6,-220.71 1595.5,-199 1603.73,-197.33 1612.55,-195.17 1620.67,-193.03"/>
<polygon fill="midnightblue" stroke="midnightblue" points="1345.9,-231.58 1336.83,-237.06 1347.34,-238.43 1345.9,-231.58"/>
</g>
<!-- Node44 -->
<g id="node28" class="node">
<title>Node44</title>
<g id="a_node28"><a xlink:href="_a_b_l_mean_boussinesq_8cpp.html" target="_top" xlink:title=" ">
<polygon fill="white" stroke="black" points="1096.5,-174 1096.5,-193 1234.5,-193 1234.5,-174 1096.5,-174"/>
<text text-anchor="middle" x="1165.5" y="-181" font-family="Helvetica,sans-Serif" font-size="10.00">ABLMeanBoussinesq.cpp</text>
</a>
</g>
</g>
<!-- Node42&#45;&gt;Node44 -->
<g id="edge39" class="edge">
<title>Node42&#45;&gt;Node44</title>
<path fill="none" stroke="midnightblue" d="M1282.73,-231.63C1253.98,-220.07 1211.82,-203.12 1186.67,-193.01"/>
<polygon fill="midnightblue" stroke="midnightblue" points="1281.71,-234.99 1292.3,-235.48 1284.32,-228.5 1281.71,-234.99"/>
</g>
<!-- Node45 -->
<g id="node29" class="node">
<title>Node45</title>
<g id="a_node29"><a xlink:href="incflo_8cpp.html" target="_top" xlink:title=" ">
<polygon fill="white" stroke="black" points="1253,-174 1253,-193 1316,-193 1316,-174 1253,-174"/>
<text text-anchor="middle" x="1284.5" y="-181" font-family="Helvetica,sans-Serif" font-size="10.00">incflo.cpp</text>
</a>
</g>
</g>
<!-- Node42&#45;&gt;Node45 -->
<g id="edge40" class="edge">
<title>Node42&#45;&gt;Node45</title>
<path fill="none" stroke="midnightblue" d="M1304.89,-226.33C1299.53,-215.33 1292.87,-201.66 1288.65,-193.01"/>
<polygon fill="midnightblue" stroke="midnightblue" points="1301.82,-228.02 1309.35,-235.48 1308.11,-224.95 1301.82,-228.02"/>
</g>
<!-- Node46 -->
<g id="node30" class="node">
<title>Node46</title>
<g id="a_node30"><a xlink:href="incflo__apply__nodal__projection_8cpp.html" target="_top" xlink:title=" ">
<polygon fill="white" stroke="black" points="1334,-168.5 1334,-198.5 1441,-198.5 1441,-168.5 1334,-168.5"/>
<text text-anchor="start" x="1342" y="-186.5" font-family="Helvetica,sans-Serif" font-size="10.00">incflo_apply_nodal</text>
<text text-anchor="middle" x="1387.5" y="-175.5" font-family="Helvetica,sans-Serif" font-size="10.00">_projection.cpp</text>
</a>
</g>
</g>
<!-- Node42&#45;&gt;Node46 -->
<g id="edge41" class="edge">
<title>Node42&#45;&gt;Node46</title>
<path fill="none" stroke="midnightblue" d="M1331.91,-229.2C1343.58,-219.81 1358.58,-207.75 1370.06,-198.52"/>
<polygon fill="midnightblue" stroke="midnightblue" points="1329.7,-226.48 1324.1,-235.48 1334.09,-231.94 1329.7,-226.48"/>
</g>
<!-- Node47 -->
<g id="node31" class="node">
<title>Node47</title>
<g id="a_node31"><a xlink:href="init_8cpp.html" target="_top" xlink:title=" ">
<polygon fill="white" stroke="black" points="1459,-174 1459,-193 1512,-193 1512,-174 1459,-174"/>
<text text-anchor="middle" x="1485.5" y="-181" font-family="Helvetica,sans-Serif" font-size="10.00">init.cpp</text>
</a>
</g>
</g>
<!-- Node42&#45;&gt;Node47 -->
<g id="edge42" class="edge">
<title>Node42&#45;&gt;Node47</title>
<path fill="none" stroke="midnightblue" d="M1346.33,-233.78C1374,-225.01 1414.56,-211.8 1449.5,-199 1454.56,-197.15 1459.97,-195.03 1465.03,-193.01"/>
<polygon fill="midnightblue" stroke="midnightblue" points="1345.24,-230.45 1336.76,-236.8 1347.35,-237.13 1345.24,-230.45"/>
</g>
<!-- Node48 -->
<g id="node32" class="node">
<title>Node48</title>
<g id="a_node32"><a xlink:href="_a_b_l_8cpp.html" target="_top" xlink:title=" ">
<polygon fill="white" stroke="black" points="1530.5,-174 1530.5,-193 1586.5,-193 1586.5,-174 1530.5,-174"/>
<text text-anchor="middle" x="1558.5" y="-181" font-family="Helvetica,sans-Serif" font-size="10.00">ABL.cpp</text>
</a>
</g>
</g>
<!-- Node42&#45;&gt;Node48 -->
<g id="edge43" class="edge">
<title>Node42&#45;&gt;Node48</title>
<path fill="none" stroke="midnightblue" d="M1346.33,-234.96C1424.43,-216.59 1447.25,-220.36 1520.5,-199 1526.19,-197.34 1532.24,-195.21 1537.8,-193.09"/>
<polygon fill="midnightblue" stroke="midnightblue" points="1345.43,-231.58 1336.52,-237.31 1347.06,-238.38 1345.43,-231.58"/>
</g>
<!-- Node42&#45;&gt;Node49 -->
<g id="edge44" class="edge">
<title>Node42&#45;&gt;Node49</title>
<path fill="none" stroke="midnightblue" d="M1280.51,-237.58C1236.48,-228.97 1156.06,-213.13 1087.5,-199 1078.28,-197.1 1068.36,-195.01 1059.03,-193.02"/>
<polygon fill="midnightblue" stroke="midnightblue" points="1279.89,-241.02 1290.38,-239.5 1281.24,-234.15 1279.89,-241.02"/>
</g>
<!-- Node50&#45;&gt;Node42 -->
<g id="edge46" class="edge">
<title>Node50&#45;&gt;Node42</title>
<path fill="none" stroke="midnightblue" d="M1313.5,-280.8C1313.5,-271.91 1313.5,-261.78 1313.5,-254.75"/>
<polygon fill="midnightblue" stroke="midnightblue" points="1310,-281.08 1313.5,-291.08 1317,-281.08 1310,-281.08"/>
</g>
<!-- Node50&#45;&gt;Node51 -->
<g id="edge47" class="edge">
<title>Node50&#45;&gt;Node51</title>
<path fill="none" stroke="midnightblue" d="M1334.4,-285.34C1348.41,-275.52 1366.38,-262.91 1378.16,-254.65"/>
<polygon fill="midnightblue" stroke="midnightblue" points="1332.05,-282.72 1325.87,-291.32 1336.07,-288.45 1332.05,-282.72"/>
</g>
<!-- Node52 -->
<g id="node36" class="node">
<title>Node52</title>
<g id="a_node36"><a xlink:href="_a_b_l_stats_8cpp.html" target="_top" xlink:title=" ">
<polygon fill="white" stroke="black" points="1714.5,-174 1714.5,-193 1794.5,-193 1794.5,-174 1714.5,-174"/>
<text text-anchor="middle" x="1754.5" y="-181" font-family="Helvetica,sans-Serif" font-size="10.00">ABLStats.cpp</text>
</a>
</g>
</g>
<!-- Node51&#45;&gt;Node52 -->
<g id="edge48" class="edge">
<title>Node51&#45;&gt;Node52</title>
<path fill="none" stroke="midnightblue" d="M1436.24,-239.47C1497.69,-232.93 1610.1,-219.35 1704.5,-199 1712.1,-197.36 1720.23,-195.19 1727.69,-193.02"/>
<polygon fill="midnightblue" stroke="midnightblue" points="1435.68,-236.01 1426.1,-240.54 1436.42,-242.98 1435.68,-236.01"/>
</g>
<!-- Node54&#45;&gt;Node49 -->
<g id="edge53" class="edge">
<title>Node54&#45;&gt;Node49</title>
<path fill="none" stroke="midnightblue" d="M1039.11,-337.33C1034.37,-300.43 1023.98,-219.44 1020.59,-193.02"/>
<polygon fill="midnightblue" stroke="midnightblue" points="1035.63,-337.79 1040.38,-347.26 1042.58,-336.9 1035.63,-337.79"/>
</g>
<!-- Node65&#45;&gt;Node8 -->
<g id="edge69" class="edge">
<title>Node65&#45;&gt;Node8</title>
<path fill="none" stroke="midnightblue" d="M874.93,-281.09C873.11,-253.14 865.85,-200.59 837.5,-168 821.37,-149.46 796.12,-138.21 774.9,-131.6"/>
<polygon fill="midnightblue" stroke="midnightblue" points="871.45,-281.61 875.42,-291.44 878.44,-281.28 871.45,-281.61"/>
</g>
<!-- Node65&#45;&gt;Node14 -->
<g id="edge70" class="edge">
<title>Node65&#45;&gt;Node14</title>
<path fill="none" stroke="midnightblue" d="M877.3,-281.23C879.22,-255.29 880.74,-207.26 870.5,-168 866.96,-154.42 858.86,-140.23 853.28,-131.51"/>
<polygon fill="midnightblue" stroke="midnightblue" points="873.78,-281.22 876.43,-291.48 880.76,-281.81 873.78,-281.22"/>
</g>
<!-- Node65&#45;&gt;Node15 -->
<g id="edge72" class="edge">
<title>Node65&#45;&gt;Node15</title>
<path fill="none" stroke="midnightblue" d="M884.59,-282.32C903.75,-245.05 947.68,-159.6 961.94,-131.87"/>
<polygon fill="midnightblue" stroke="midnightblue" points="881.35,-280.97 879.89,-291.46 887.57,-284.17 881.35,-280.97"/>
</g>
<!-- Node65&#45;&gt;Node31 -->
<g id="edge71" class="edge">
<title>Node65&#45;&gt;Node31</title>
<path fill="none" stroke="midnightblue" d="M861.36,-283.5C840.07,-258.66 800.52,-212.52 784.03,-193.28"/>
<polygon fill="midnightblue" stroke="midnightblue" points="858.89,-286 868.06,-291.32 864.21,-281.45 858.89,-286"/>
</g>
<!-- Node66 -->
<g id="node50" class="node">
<title>Node66</title>
<g id="a_node50"><a xlink:href="actuator__ops_i_8_h.html" target="_top" xlink:title=" ">
<polygon fill="white" stroke="black" points="695,-235.5 695,-254.5 788,-254.5 788,-235.5 695,-235.5"/>
<text text-anchor="middle" x="741.5" y="-242.5" font-family="Helvetica,sans-Serif" font-size="10.00">actuator_opsI.H</text>
</a>
</g>
</g>
<!-- Node65&#45;&gt;Node66 -->
<g id="edge67" class="edge">
<title>Node65&#45;&gt;Node66</title>
<path fill="none" stroke="midnightblue" d="M844.82,-287.64C819.68,-277.5 784.75,-263.43 762.63,-254.52"/>
<polygon fill="midnightblue" stroke="midnightblue" points="843.68,-290.95 854.27,-291.44 846.3,-284.46 843.68,-290.95"/>
</g>
<!-- Node66&#45;&gt;Node7 -->
<g id="edge68" class="edge">
<title>Node66&#45;&gt;Node7</title>
<path fill="none" stroke="midnightblue" d="M715.45,-230.87C692.58,-219.33 659.99,-202.9 640.38,-193.01"/>
<polygon fill="midnightblue" stroke="midnightblue" points="714.09,-234.1 724.59,-235.48 717.24,-227.85 714.09,-234.1"/>
</g>
</g>
</svg>
