<?xml version="1.0" encoding="UTF-8" standalone="no"?>
<!DOCTYPE svg PUBLIC "-//W3C//DTD SVG 1.1//EN"
 "http://www.w3.org/Graphics/SVG/1.1/DTD/svg11.dtd">
<!-- Generated by graphviz version 2.43.0 (0)
 -->
<!-- Title: turbine_types.H Pages: 1 -->
<svg width="557pt" height="196pt"
 viewBox="0.00 0.00 556.50 196.00" xmlns="http://www.w3.org/2000/svg" xmlns:xlink="http://www.w3.org/1999/xlink">
<g id="graph0" class="graph" transform="scale(1 1) rotate(0) translate(4 192)">
<title>turbine_types.H</title>
<polygon fill="white" stroke="transparent" points="-4,4 -4,-192 552.5,-192 552.5,4 -4,4"/>
<!-- Node1 -->
<g id="node1" class="node">
<title>Node1</title>
<g id="a_node1"><a xlink:title=" ">
<polygon fill="#bfbfbf" stroke="black" points="264.5,-168.5 264.5,-187.5 358.5,-187.5 358.5,-168.5 264.5,-168.5"/>
<text text-anchor="middle" x="311.5" y="-175.5" font-family="Helvetica,sans-Serif" font-size="10.00">turbine_types.H</text>
</a>
</g>
</g>
<!-- Node2 -->
<g id="node2" class="node">
<title>Node2</title>
<g id="a_node2"><a xlink:href="_act_src_disk_op_8_h.html" target="_top" xlink:title=" ">
<polygon fill="white" stroke="black" points="159,-112.5 159,-131.5 252,-131.5 252,-112.5 159,-112.5"/>
<text text-anchor="middle" x="205.5" y="-119.5" font-family="Helvetica,sans-Serif" font-size="10.00">ActSrcDiskOp.H</text>
</a>
</g>
</g>
<!-- Node1&#45;&gt;Node2 -->
<g id="edge1" class="edge">
<title>Node1&#45;&gt;Node2</title>
<path fill="none" stroke="midnightblue" d="M285.44,-163.73C265.82,-153.73 239.47,-140.31 222.49,-131.65"/>
<polygon fill="midnightblue" stroke="midnightblue" points="283.97,-166.9 294.47,-168.32 287.15,-160.67 283.97,-166.9"/>
</g>
<!-- Node8 -->
<g id="node8" class="node">
<title>Node8</title>
<g id="a_node8"><a xlink:href="_turbine_fast_8_h.html" target="_top" xlink:title=" ">
<polygon fill="white" stroke="black" points="270.5,-112.5 270.5,-131.5 352.5,-131.5 352.5,-112.5 270.5,-112.5"/>
<text text-anchor="middle" x="311.5" y="-119.5" font-family="Helvetica,sans-Serif" font-size="10.00">TurbineFast.H</text>
</a>
</g>
</g>
<!-- Node1&#45;&gt;Node8 -->
<g id="edge7" class="edge">
<title>Node1&#45;&gt;Node8</title>
<path fill="none" stroke="midnightblue" d="M311.5,-157.8C311.5,-148.91 311.5,-138.78 311.5,-131.75"/>
<polygon fill="midnightblue" stroke="midnightblue" points="308,-158.08 311.5,-168.08 315,-158.08 308,-158.08"/>
</g>
<!-- Node10 -->
<g id="node10" class="node">
<title>Node10</title>
<g id="a_node10"><a xlink:href="turbine__utils_8_h.html" target="_top" xlink:title=" ">
<polygon fill="white" stroke="black" points="370.5,-112.5 370.5,-131.5 458.5,-131.5 458.5,-112.5 370.5,-112.5"/>
<text text-anchor="middle" x="414.5" y="-119.5" font-family="Helvetica,sans-Serif" font-size="10.00">turbine_utils.H</text>
</a>
</g>
</g>
<!-- Node1&#45;&gt;Node10 -->
<g id="edge11" class="edge">
<title>Node1&#45;&gt;Node10</title>
<path fill="none" stroke="midnightblue" d="M337.08,-163.59C356.12,-153.61 381.56,-140.27 397.99,-131.65"/>
<polygon fill="midnightblue" stroke="midnightblue" points="335.28,-160.58 328.05,-168.32 338.53,-166.78 335.28,-160.58"/>
</g>
<!-- Node3 -->
<g id="node3" class="node">
<title>Node3</title>
<g id="a_node3"><a xlink:href="_actuator_model_8_h.html" target="_top" xlink:title=" ">
<polygon fill="white" stroke="black" points="156.5,-56.5 156.5,-75.5 254.5,-75.5 254.5,-56.5 156.5,-56.5"/>
<text text-anchor="middle" x="205.5" y="-63.5" font-family="Helvetica,sans-Serif" font-size="10.00">ActuatorModel.H</text>
</a>
</g>
</g>
<!-- Node2&#45;&gt;Node3 -->
<g id="edge2" class="edge">
<title>Node2&#45;&gt;Node3</title>
<path fill="none" stroke="midnightblue" d="M205.5,-101.8C205.5,-92.91 205.5,-82.78 205.5,-75.75"/>
<polygon fill="midnightblue" stroke="midnightblue" points="202,-102.08 205.5,-112.08 209,-102.08 202,-102.08"/>
</g>
<!-- Node4 -->
<g id="node4" class="node">
<title>Node4</title>
<g id="a_node4"><a xlink:href="_actuator_8cpp.html" target="_top" xlink:title=" ">
<polygon fill="white" stroke="black" points="0,-0.5 0,-19.5 77,-19.5 77,-0.5 0,-0.5"/>
<text text-anchor="middle" x="38.5" y="-7.5" font-family="Helvetica,sans-Serif" font-size="10.00">Actuator.cpp</text>
</a>
</g>
</g>
<!-- Node3&#45;&gt;Node4 -->
<g id="edge3" class="edge">
<title>Node3&#45;&gt;Node4</title>
<path fill="none" stroke="midnightblue" d="M169.33,-53.3C137.86,-43.13 93.01,-28.62 64.84,-19.52"/>
<polygon fill="midnightblue" stroke="midnightblue" points="168.45,-56.7 179.04,-56.44 170.6,-50.04 168.45,-56.7"/>
</g>
<!-- Node5 -->
<g id="node5" class="node">
<title>Node5</title>
<g id="a_node5"><a xlink:href="_turbine_fast_8cpp.html" target="_top" xlink:title=" ">
<polygon fill="white" stroke="black" points="298.5,-0.5 298.5,-19.5 390.5,-19.5 390.5,-0.5 298.5,-0.5"/>
<text text-anchor="middle" x="344.5" y="-7.5" font-family="Helvetica,sans-Serif" font-size="10.00">TurbineFast.cpp</text>
</a>
</g>
</g>
<!-- Node3&#45;&gt;Node5 -->
<g id="edge4" class="edge">
<title>Node3&#45;&gt;Node5</title>
<path fill="none" stroke="midnightblue" d="M236.98,-52.77C263.09,-42.63 299.54,-28.47 322.58,-19.52"/>
<polygon fill="midnightblue" stroke="midnightblue" points="235.58,-49.56 227.52,-56.44 238.11,-56.08 235.58,-49.56"/>
</g>
<!-- Node6 -->
<g id="node6" class="node">
<title>Node6</title>
<g id="a_node6"><a xlink:href="_fixed_wing_8cpp.html" target="_top" xlink:title=" ">
<polygon fill="white" stroke="black" points="95,-0.5 95,-19.5 182,-19.5 182,-0.5 95,-0.5"/>
<text text-anchor="middle" x="138.5" y="-7.5" font-family="Helvetica,sans-Serif" font-size="10.00">FixedWing.cpp</text>
</a>
</g>
</g>
<!-- Node3&#45;&gt;Node6 -->
<g id="edge5" class="edge">
<title>Node3&#45;&gt;Node6</title>
<path fill="none" stroke="midnightblue" d="M186.67,-49.82C174.66,-40.15 159.53,-27.95 149.46,-19.83"/>
<polygon fill="midnightblue" stroke="midnightblue" points="184.75,-52.77 194.74,-56.32 189.15,-47.32 184.75,-52.77"/>
</g>
<!-- Node7 -->
<g id="node7" class="node">
<title>Node7</title>
<g id="a_node7"><a xlink:href="_flat_plate_8cpp.html" target="_top" xlink:title=" ">
<polygon fill="white" stroke="black" points="200.5,-0.5 200.5,-19.5 280.5,-19.5 280.5,-0.5 200.5,-0.5"/>
<text text-anchor="middle" x="240.5" y="-7.5" font-family="Helvetica,sans-Serif" font-size="10.00">FlatPlate.cpp</text>
</a>
</g>
</g>
<!-- Node3&#45;&gt;Node7 -->
<g id="edge6" class="edge">
<title>Node3&#45;&gt;Node7</title>
<path fill="none" stroke="midnightblue" d="M216.8,-47.57C222.82,-38.27 229.97,-27.25 234.83,-19.75"/>
<polygon fill="midnightblue" stroke="midnightblue" points="213.78,-45.79 211.28,-56.08 219.66,-49.6 213.78,-45.79"/>
</g>
<!-- Node8&#45;&gt;Node5 -->
<g id="edge10" class="edge">
<title>Node8&#45;&gt;Node5</title>
<path fill="none" stroke="midnightblue" d="M310.18,-102.1C309.84,-88.87 310.59,-70.96 315.5,-56 320.08,-42.05 330.05,-28.18 337.02,-19.6"/>
<polygon fill="midnightblue" stroke="midnightblue" points="306.69,-102.51 310.67,-112.33 313.68,-102.17 306.69,-102.51"/>
</g>
<!-- Node9 -->
<g id="node9" class="node">
<title>Node9</title>
<g id="a_node9"><a xlink:href="turbine__fast__ops_8_h.html" target="_top" xlink:title=" ">
<polygon fill="white" stroke="black" points="324.5,-56.5 324.5,-75.5 432.5,-75.5 432.5,-56.5 324.5,-56.5"/>
<text text-anchor="middle" x="378.5" y="-63.5" font-family="Helvetica,sans-Serif" font-size="10.00">turbine_fast_ops.H</text>
</a>
</g>
</g>
<!-- Node8&#45;&gt;Node9 -->
<g id="edge8" class="edge">
<title>Node8&#45;&gt;Node9</title>
<path fill="none" stroke="midnightblue" d="M330.33,-105.82C342.34,-96.15 357.47,-83.95 367.54,-75.83"/>
<polygon fill="midnightblue" stroke="midnightblue" points="327.85,-103.32 322.26,-112.32 332.25,-108.77 327.85,-103.32"/>
</g>
<!-- Node9&#45;&gt;Node5 -->
<g id="edge9" class="edge">
<title>Node9&#45;&gt;Node5</title>
<path fill="none" stroke="midnightblue" d="M367.52,-47.57C361.67,-38.27 354.73,-27.25 350.01,-19.75"/>
<polygon fill="midnightblue" stroke="midnightblue" points="364.6,-49.49 372.89,-56.08 370.52,-45.76 364.6,-49.49"/>
</g>
<!-- Node10&#45;&gt;Node9 -->
<g id="edge12" class="edge">
<title>Node10&#45;&gt;Node9</title>
<path fill="none" stroke="midnightblue" d="M402.88,-103.57C396.68,-94.27 389.33,-83.25 384.33,-75.75"/>
<polygon fill="midnightblue" stroke="midnightblue" points="400.1,-105.7 408.56,-112.08 405.92,-101.82 400.1,-105.7"/>
</g>
<!-- Node11 -->
<g id="node11" class="node">
<title>Node11</title>
<g id="a_node11"><a xlink:href="turbine__utils_8cpp.html" target="_top" xlink:title=" ">
<polygon fill="white" stroke="black" points="450.5,-56.5 450.5,-75.5 548.5,-75.5 548.5,-56.5 450.5,-56.5"/>
<text text-anchor="middle" x="499.5" y="-63.5" font-family="Helvetica,sans-Serif" font-size="10.00">turbine_utils.cpp</text>
</a>
</g>
</g>
<!-- Node10&#45;&gt;Node11 -->
<g id="edge13" class="edge">
<title>Node10&#45;&gt;Node11</title>
<path fill="none" stroke="midnightblue" d="M436.69,-106.9C452.28,-97 472.63,-84.07 485.88,-75.65"/>
<polygon fill="midnightblue" stroke="midnightblue" points="434.72,-104.01 428.16,-112.32 438.47,-109.92 434.72,-104.01"/>
</g>
</g>
</svg>
