<?xml version="1.0" encoding="UTF-8" standalone="no"?>
<!DOCTYPE svg PUBLIC "-//W3C//DTD SVG 1.1//EN"
 "http://www.w3.org/Graphics/SVG/1.1/DTD/svg11.dtd">
<!-- Generated by graphviz version 2.43.0 (0)
 -->
<!-- Title: vectorI.H Pages: 1 -->
<svg width="1421pt" height="532pt"
 viewBox="0.00 0.00 1421.00 532.00" xmlns="http://www.w3.org/2000/svg" xmlns:xlink="http://www.w3.org/1999/xlink">
<g id="graph0" class="graph" transform="scale(1 1) rotate(0) translate(4 528)">
<title>vectorI.H</title>
<polygon fill="white" stroke="transparent" points="-4,4 -4,-528 1417,-528 1417,4 -4,4"/>
<!-- Node1 -->
<g id="node1" class="node">
<title>Node1</title>
<g id="a_node1"><a xlink:title=" ">
<polygon fill="#bfbfbf" stroke="black" points="902.5,-504.5 902.5,-523.5 963.5,-523.5 963.5,-504.5 902.5,-504.5"/>
<text text-anchor="middle" x="933" y="-511.5" font-family="Helvetica,sans-Serif" font-size="10.00">vectorI.H</text>
</a>
</g>
</g>
<!-- Node2 -->
<g id="node2" class="node">
<title>Node2</title>
<g id="a_node2"><a xlink:href="vector_8_h.html" target="_top" xlink:title=" ">
<polygon fill="white" stroke="black" points="904.5,-448.5 904.5,-467.5 961.5,-467.5 961.5,-448.5 904.5,-448.5"/>
<text text-anchor="middle" x="933" y="-455.5" font-family="Helvetica,sans-Serif" font-size="10.00">vector.H</text>
</a>
</g>
</g>
<!-- Node1&#45;&gt;Node2 -->
<g id="edge1" class="edge">
<title>Node1&#45;&gt;Node2</title>
<path fill="none" stroke="midnightblue" d="M926.53,-494.1C925.9,-485.14 926.34,-474.86 927.87,-467.75"/>
<polygon fill="midnightblue" stroke="midnightblue" points="923.07,-494.62 927.83,-504.08 930.01,-493.71 923.07,-494.62"/>
</g>
<!-- Node2&#45;&gt;Node1 -->
<g id="edge69" class="edge">
<title>Node2&#45;&gt;Node1</title>
<path fill="none" stroke="midnightblue" d="M939.46,-477.69C940.11,-486.64 939.68,-496.93 938.17,-504.08"/>
<polygon fill="midnightblue" stroke="midnightblue" points="942.92,-477.2 938.13,-467.75 935.98,-478.13 942.92,-477.2"/>
</g>
<!-- Node3 -->
<g id="node3" class="node">
<title>Node3</title>
<g id="a_node3"><a xlink:href="vector__space_8_h.html" target="_top" xlink:title=" ">
<polygon fill="white" stroke="black" points="859,-336.5 859,-355.5 951,-355.5 951,-336.5 859,-336.5"/>
<text text-anchor="middle" x="905" y="-343.5" font-family="Helvetica,sans-Serif" font-size="10.00">vector_space.H</text>
</a>
</g>
</g>
<!-- Node2&#45;&gt;Node3 -->
<g id="edge2" class="edge">
<title>Node2&#45;&gt;Node3</title>
<path fill="none" stroke="midnightblue" d="M928.34,-438.67C922.21,-414.62 911.72,-373.39 907.19,-355.59"/>
<polygon fill="midnightblue" stroke="midnightblue" points="924.94,-439.54 930.8,-448.37 931.73,-437.81 924.94,-439.54"/>
</g>
<!-- Node39 -->
<g id="node39" class="node">
<title>Node39</title>
<g id="a_node39"><a xlink:href="tensor_8_h.html" target="_top" xlink:title=" ">
<polygon fill="white" stroke="black" points="933.5,-392.5 933.5,-411.5 990.5,-411.5 990.5,-392.5 933.5,-392.5"/>
<text text-anchor="middle" x="962" y="-399.5" font-family="Helvetica,sans-Serif" font-size="10.00">tensor.H</text>
</a>
</g>
</g>
<!-- Node2&#45;&gt;Node39 -->
<g id="edge70" class="edge">
<title>Node2&#45;&gt;Node39</title>
<path fill="none" stroke="midnightblue" d="M942.68,-438.98C947.6,-429.82 953.36,-419.09 957.3,-411.75"/>
<polygon fill="midnightblue" stroke="midnightblue" points="939.44,-437.62 937.79,-448.08 945.6,-440.93 939.44,-437.62"/>
</g>
<!-- Node41 -->
<g id="node41" class="node">
<title>Node41</title>
<g id="a_node41"><a xlink:href="_power_law_profile_8cpp.html" target="_top" xlink:title=" ">
<polygon fill="white" stroke="black" points="1008.5,-392.5 1008.5,-411.5 1125.5,-411.5 1125.5,-392.5 1008.5,-392.5"/>
<text text-anchor="middle" x="1067" y="-399.5" font-family="Helvetica,sans-Serif" font-size="10.00">PowerLawProfile.cpp</text>
</a>
</g>
</g>
<!-- Node2&#45;&gt;Node41 -->
<g id="edge74" class="edge">
<title>Node2&#45;&gt;Node41</title>
<path fill="none" stroke="midnightblue" d="M963.68,-444.64C988.82,-434.5 1023.75,-420.43 1045.87,-411.52"/>
<polygon fill="midnightblue" stroke="midnightblue" points="962.2,-441.46 954.23,-448.44 964.82,-447.95 962.2,-441.46"/>
</g>
<!-- Node42 -->
<g id="node42" class="node">
<title>Node42</title>
<g id="a_node42"><a xlink:href="actuator__utils_8_h.html" target="_top" xlink:title=" ">
<polygon fill="white" stroke="black" points="604,-280.5 604,-299.5 698,-299.5 698,-280.5 604,-280.5"/>
<text text-anchor="middle" x="651" y="-287.5" font-family="Helvetica,sans-Serif" font-size="10.00">actuator_utils.H</text>
</a>
</g>
</g>
<!-- Node2&#45;&gt;Node42 -->
<g id="edge75" class="edge">
<title>Node2&#45;&gt;Node42</title>
<path fill="none" stroke="midnightblue" d="M909.32,-443.06C852.83,-409.81 711.48,-326.6 665.62,-299.61"/>
<polygon fill="midnightblue" stroke="midnightblue" points="907.84,-446.25 918.24,-448.31 911.39,-440.22 907.84,-446.25"/>
</g>
<!-- Node4 -->
<g id="node4" class="node">
<title>Node4</title>
<g id="a_node4"><a xlink:href="_multi_parser_8_h.html" target="_top" xlink:title=" ">
<polygon fill="white" stroke="black" points="469.5,-280.5 469.5,-299.5 550.5,-299.5 550.5,-280.5 469.5,-280.5"/>
<text text-anchor="middle" x="510" y="-287.5" font-family="Helvetica,sans-Serif" font-size="10.00">MultiParser.H</text>
</a>
</g>
</g>
<!-- Node3&#45;&gt;Node4 -->
<g id="edge3" class="edge">
<title>Node3&#45;&gt;Node4</title>
<path fill="none" stroke="midnightblue" d="M848.95,-337.34C768.39,-326.32 621.77,-306.28 550.73,-296.57"/>
<polygon fill="midnightblue" stroke="midnightblue" points="848.53,-340.81 858.92,-338.7 849.48,-333.88 848.53,-340.81"/>
</g>
<!-- Node21 -->
<g id="node21" class="node">
<title>Node21</title>
<g id="a_node21"><a xlink:href="_synthetic_turbulence_8_h.html" target="_top" xlink:title=" ">
<polygon fill="white" stroke="black" points="779.5,-280.5 779.5,-299.5 904.5,-299.5 904.5,-280.5 779.5,-280.5"/>
<text text-anchor="middle" x="842" y="-287.5" font-family="Helvetica,sans-Serif" font-size="10.00">SyntheticTurbulence.H</text>
</a>
</g>
</g>
<!-- Node3&#45;&gt;Node21 -->
<g id="edge32" class="edge">
<title>Node3&#45;&gt;Node21</title>
<path fill="none" stroke="midnightblue" d="M886.96,-329.54C875.73,-319.91 861.68,-307.87 852.31,-299.83"/>
<polygon fill="midnightblue" stroke="midnightblue" points="885.01,-332.47 894.88,-336.32 889.56,-327.16 885.01,-332.47"/>
</g>
<!-- Node23 -->
<g id="node23" class="node">
<title>Node23</title>
<g id="a_node23"><a xlink:href="_box_refiner_8_h.html" target="_top" xlink:title=" ">
<polygon fill="white" stroke="black" points="926,-280.5 926,-299.5 1006,-299.5 1006,-280.5 926,-280.5"/>
<text text-anchor="middle" x="966" y="-287.5" font-family="Helvetica,sans-Serif" font-size="10.00">BoxRefiner.H</text>
</a>
</g>
</g>
<!-- Node3&#45;&gt;Node23 -->
<g id="edge34" class="edge">
<title>Node3&#45;&gt;Node23</title>
<path fill="none" stroke="midnightblue" d="M922.47,-329.54C933.34,-319.91 946.94,-307.87 956.02,-299.83"/>
<polygon fill="midnightblue" stroke="midnightblue" points="919.97,-327.07 914.8,-336.32 924.61,-332.32 919.97,-327.07"/>
</g>
<!-- Node25 -->
<g id="node25" class="node">
<title>Node25</title>
<g id="a_node25"><a xlink:href="_cylinder_refiner_8_h.html" target="_top" xlink:title=" ">
<polygon fill="white" stroke="black" points="1122.5,-280.5 1122.5,-299.5 1223.5,-299.5 1223.5,-280.5 1122.5,-280.5"/>
<text text-anchor="middle" x="1173" y="-287.5" font-family="Helvetica,sans-Serif" font-size="10.00">CylinderRefiner.H</text>
</a>
</g>
</g>
<!-- Node3&#45;&gt;Node25 -->
<g id="edge36" class="edge">
<title>Node3&#45;&gt;Node25</title>
<path fill="none" stroke="midnightblue" d="M957.56,-334.41C1008.21,-324.2 1083.87,-308.96 1130.73,-299.52"/>
<polygon fill="midnightblue" stroke="midnightblue" points="956.58,-331.04 947.47,-336.44 957.96,-337.9 956.58,-331.04"/>
</g>
<!-- Node27 -->
<g id="node27" class="node">
<title>Node27</title>
<g id="a_node27"><a xlink:href="actuator__types_8_h.html" target="_top" xlink:title=" ">
<polygon fill="white" stroke="black" points="1033,-224.5 1033,-243.5 1133,-243.5 1133,-224.5 1033,-224.5"/>
<text text-anchor="middle" x="1083" y="-231.5" font-family="Helvetica,sans-Serif" font-size="10.00">actuator_types.H</text>
</a>
</g>
</g>
<!-- Node3&#45;&gt;Node27 -->
<g id="edge38" class="edge">
<title>Node3&#45;&gt;Node27</title>
<path fill="none" stroke="midnightblue" d="M943.65,-333.19C965.57,-325.53 992.94,-314.32 1015,-300 1040.21,-283.64 1064.31,-257.22 1075.87,-243.65"/>
<polygon fill="midnightblue" stroke="midnightblue" points="942.36,-329.93 934.01,-336.45 944.6,-336.56 942.36,-329.93"/>
</g>
<!-- Node36 -->
<g id="node36" class="node">
<title>Node36</title>
<g id="a_node36"><a xlink:href="_actuator_wing_8_h.html" target="_top" xlink:title=" ">
<polygon fill="white" stroke="black" points="1029.5,-168.5 1029.5,-187.5 1122.5,-187.5 1122.5,-168.5 1029.5,-168.5"/>
<text text-anchor="middle" x="1076" y="-175.5" font-family="Helvetica,sans-Serif" font-size="10.00">ActuatorWing.H</text>
</a>
</g>
</g>
<!-- Node3&#45;&gt;Node36 -->
<g id="edge68" class="edge">
<title>Node3&#45;&gt;Node36</title>
<path fill="none" stroke="midnightblue" d="M961.36,-336.11C1109.2,-317.99 1229.8,-378.44 1272,-244 1274.66,-235.52 1277.54,-230.95 1272,-224 1262.67,-212.29 1177.88,-196.07 1122.92,-186.64"/>
<polygon fill="midnightblue" stroke="midnightblue" points="960.57,-332.68 951.13,-337.48 961.51,-339.62 960.57,-332.68"/>
</g>
<!-- Node37 -->
<g id="node37" class="node">
<title>Node37</title>
<g id="a_node37"><a xlink:href="_actuator_container_8_h.html" target="_top" xlink:title=" ">
<polygon fill="white" stroke="black" points="33.5,-280.5 33.5,-299.5 148.5,-299.5 148.5,-280.5 33.5,-280.5"/>
<text text-anchor="middle" x="91" y="-287.5" font-family="Helvetica,sans-Serif" font-size="10.00">ActuatorContainer.H</text>
</a>
</g>
</g>
<!-- Node3&#45;&gt;Node37 -->
<g id="edge65" class="edge">
<title>Node3&#45;&gt;Node37</title>
<path fill="none" stroke="midnightblue" d="M848.65,-341.26C700.1,-331.41 298.92,-304.79 148.77,-294.83"/>
<polygon fill="midnightblue" stroke="midnightblue" points="848.69,-344.77 858.9,-341.94 849.16,-337.79 848.69,-344.77"/>
</g>
<!-- Node5 -->
<g id="node5" class="node">
<title>Node5</title>
<g id="a_node5"><a xlink:href="_act_parser_8_h.html" target="_top" xlink:title=" ">
<polygon fill="white" stroke="black" points="456,-224.5 456,-243.5 528,-243.5 528,-224.5 456,-224.5"/>
<text text-anchor="middle" x="492" y="-231.5" font-family="Helvetica,sans-Serif" font-size="10.00">ActParser.H</text>
</a>
</g>
</g>
<!-- Node4&#45;&gt;Node5 -->
<g id="edge4" class="edge">
<title>Node4&#45;&gt;Node5</title>
<path fill="none" stroke="midnightblue" d="M503.8,-270.4C500.79,-261.36 497.31,-250.94 494.92,-243.75"/>
<polygon fill="midnightblue" stroke="midnightblue" points="500.54,-271.7 507.03,-280.08 507.19,-269.49 500.54,-271.7"/>
</g>
<!-- Node6 -->
<g id="node6" class="node">
<title>Node6</title>
<g id="a_node6"><a xlink:href="actuator__ops_8_h.html" target="_top" xlink:title=" ">
<polygon fill="white" stroke="black" points="624,-168.5 624,-187.5 714,-187.5 714,-168.5 624,-168.5"/>
<text text-anchor="middle" x="669" y="-175.5" font-family="Helvetica,sans-Serif" font-size="10.00">actuator_ops.H</text>
</a>
</g>
</g>
<!-- Node5&#45;&gt;Node6 -->
<g id="edge5" class="edge">
<title>Node5&#45;&gt;Node6</title>
<path fill="none" stroke="midnightblue" d="M529.9,-221.44C563.28,-211.26 611.1,-196.66 641.09,-187.52"/>
<polygon fill="midnightblue" stroke="midnightblue" points="528.59,-218.18 520.05,-224.44 530.63,-224.87 528.59,-218.18"/>
</g>
<!-- Node8 -->
<g id="node8" class="node">
<title>Node8</title>
<g id="a_node8"><a xlink:href="_actuator_model_8_h.html" target="_top" xlink:title=" ">
<polygon fill="white" stroke="black" points="611,-56.5 611,-75.5 709,-75.5 709,-56.5 611,-56.5"/>
<text text-anchor="middle" x="660" y="-63.5" font-family="Helvetica,sans-Serif" font-size="10.00">ActuatorModel.H</text>
</a>
</g>
</g>
<!-- Node5&#45;&gt;Node8 -->
<g id="edge25" class="edge">
<title>Node5&#45;&gt;Node8</title>
<path fill="none" stroke="midnightblue" d="M445.87,-223.27C411.14,-213.53 372.04,-195.93 388,-168 391.04,-162.68 477.34,-114.33 483,-112 524.78,-94.79 574.89,-82.8 611.11,-75.54"/>
<polygon fill="midnightblue" stroke="midnightblue" points="445.41,-226.77 455.97,-225.93 447.19,-220 445.41,-226.77"/>
</g>
<!-- Node9 -->
<g id="node9" class="node">
<title>Node9</title>
<g id="a_node9"><a xlink:href="_actuator_8cpp.html" target="_top" xlink:title=" ">
<polygon fill="white" stroke="black" points="181.5,-0.5 181.5,-19.5 258.5,-19.5 258.5,-0.5 181.5,-0.5"/>
<text text-anchor="middle" x="220" y="-7.5" font-family="Helvetica,sans-Serif" font-size="10.00">Actuator.cpp</text>
</a>
</g>
</g>
<!-- Node5&#45;&gt;Node9 -->
<g id="edge26" class="edge">
<title>Node5&#45;&gt;Node9</title>
<path fill="none" stroke="midnightblue" d="M445.78,-224.13C412.23,-216.78 366.2,-204.82 328,-188 285.23,-169.17 264.71,-171.03 239,-132 215.25,-95.95 217.22,-40.99 219.05,-19.78"/>
<polygon fill="midnightblue" stroke="midnightblue" points="445.26,-227.6 455.77,-226.26 446.72,-220.75 445.26,-227.6"/>
</g>
<!-- Node16 -->
<g id="node16" class="node">
<title>Node16</title>
<g id="a_node16"><a xlink:href="wing__ops_8_h.html" target="_top" xlink:title=" ">
<polygon fill="white" stroke="black" points="942.5,-112.5 942.5,-131.5 1015.5,-131.5 1015.5,-112.5 942.5,-112.5"/>
<text text-anchor="middle" x="979" y="-119.5" font-family="Helvetica,sans-Serif" font-size="10.00">wing_ops.H</text>
</a>
</g>
</g>
<!-- Node5&#45;&gt;Node16 -->
<g id="edge30" class="edge">
<title>Node5&#45;&gt;Node16</title>
<path fill="none" stroke="midnightblue" d="M538.04,-228.05C585.42,-222.03 660.88,-209.86 723,-188 741,-181.66 743.03,-174.44 761,-168 822.67,-145.91 898.24,-133.34 942.27,-127.37"/>
<polygon fill="midnightblue" stroke="midnightblue" points="537.57,-224.58 528.08,-229.28 538.43,-231.53 537.57,-224.58"/>
</g>
<!-- Node18 -->
<g id="node18" class="node">
<title>Node18</title>
<g id="a_node18"><a xlink:href="wing__ops_8cpp.html" target="_top" xlink:title=" ">
<polygon fill="white" stroke="black" points="727.5,-56.5 727.5,-75.5 810.5,-75.5 810.5,-56.5 727.5,-56.5"/>
<text text-anchor="middle" x="769" y="-63.5" font-family="Helvetica,sans-Serif" font-size="10.00">wing_ops.cpp</text>
</a>
</g>
</g>
<!-- Node5&#45;&gt;Node18 -->
<g id="edge31" class="edge">
<title>Node5&#45;&gt;Node18</title>
<path fill="none" stroke="midnightblue" d="M511.42,-218.31C543.57,-194.35 610.34,-146.13 671,-112 696.62,-97.59 727.67,-83.93 747.86,-75.52"/>
<polygon fill="midnightblue" stroke="midnightblue" points="509.21,-215.59 503.31,-224.39 513.41,-221.19 509.21,-215.59"/>
</g>
<!-- Node19 -->
<g id="node19" class="node">
<title>Node19</title>
<g id="a_node19"><a xlink:href="turbine__utils_8_h.html" target="_top" xlink:title=" ">
<polygon fill="white" stroke="black" points="248,-112.5 248,-131.5 336,-131.5 336,-112.5 248,-112.5"/>
<text text-anchor="middle" x="292" y="-119.5" font-family="Helvetica,sans-Serif" font-size="10.00">turbine_utils.H</text>
</a>
</g>
</g>
<!-- Node5&#45;&gt;Node19 -->
<g id="edge27" class="edge">
<title>Node5&#45;&gt;Node19</title>
<path fill="none" stroke="midnightblue" d="M446.03,-223.79C418.22,-216.84 382.88,-205.45 355,-188 330.49,-172.66 308.67,-145.79 298.33,-131.89"/>
<polygon fill="midnightblue" stroke="midnightblue" points="445.36,-227.23 455.9,-226.16 446.99,-220.43 445.36,-227.23"/>
</g>
<!-- Node7 -->
<g id="node7" class="node">
<title>Node7</title>
<g id="a_node7"><a xlink:href="_act_src_line_op_8_h.html" target="_top" xlink:title=" ">
<polygon fill="white" stroke="black" points="680,-112.5 680,-131.5 772,-131.5 772,-112.5 680,-112.5"/>
<text text-anchor="middle" x="726" y="-119.5" font-family="Helvetica,sans-Serif" font-size="10.00">ActSrcLineOp.H</text>
</a>
</g>
</g>
<!-- Node6&#45;&gt;Node7 -->
<g id="edge6" class="edge">
<title>Node6&#45;&gt;Node7</title>
<path fill="none" stroke="midnightblue" d="M685.62,-161.25C695.73,-151.67 708.28,-139.79 716.68,-131.83"/>
<polygon fill="midnightblue" stroke="midnightblue" points="683.01,-158.91 678.16,-168.32 687.82,-163.99 683.01,-158.91"/>
</g>
<!-- Node6&#45;&gt;Node8 -->
<g id="edge12" class="edge">
<title>Node6&#45;&gt;Node8</title>
<path fill="none" stroke="midnightblue" d="M724.02,-166.14C760.94,-156.18 799.67,-138.86 781,-112 770.96,-97.55 727.72,-83.9 695.79,-75.5"/>
<polygon fill="midnightblue" stroke="midnightblue" points="723.04,-162.77 714.21,-168.63 724.77,-169.56 723.04,-162.77"/>
</g>
<!-- Node13 -->
<g id="node13" class="node">
<title>Node13</title>
<g id="a_node13"><a xlink:href="_act_src_disk_op_8_h.html" target="_top" xlink:title=" ">
<polygon fill="white" stroke="black" points="492.5,-112.5 492.5,-131.5 585.5,-131.5 585.5,-112.5 492.5,-112.5"/>
<text text-anchor="middle" x="539" y="-119.5" font-family="Helvetica,sans-Serif" font-size="10.00">ActSrcDiskOp.H</text>
</a>
</g>
</g>
<!-- Node6&#45;&gt;Node13 -->
<g id="edge13" class="edge">
<title>Node6&#45;&gt;Node13</title>
<path fill="none" stroke="midnightblue" d="M638.91,-164.5C614.54,-154.38 580.86,-140.39 559.5,-131.52"/>
<polygon fill="midnightblue" stroke="midnightblue" points="637.82,-167.84 648.4,-168.44 640.51,-161.38 637.82,-167.84"/>
</g>
<!-- Node14 -->
<g id="node14" class="node">
<title>Node14</title>
<g id="a_node14"><a xlink:href="turbine__fast__ops_8_h.html" target="_top" xlink:title=" ">
<polygon fill="white" stroke="black" points="364,-56.5 364,-75.5 472,-75.5 472,-56.5 364,-56.5"/>
<text text-anchor="middle" x="418" y="-63.5" font-family="Helvetica,sans-Serif" font-size="10.00">turbine_fast_ops.H</text>
</a>
</g>
</g>
<!-- Node6&#45;&gt;Node14 -->
<g id="edge15" class="edge">
<title>Node6&#45;&gt;Node14</title>
<path fill="none" stroke="midnightblue" d="M654.76,-160.97C640.73,-146.13 617.96,-124.54 594,-112 555.86,-92.04 508.35,-80.57 472.31,-74.21"/>
<polygon fill="midnightblue" stroke="midnightblue" points="652.27,-163.42 661.61,-168.41 657.42,-158.68 652.27,-163.42"/>
</g>
<!-- Node15 -->
<g id="node15" class="node">
<title>Node15</title>
<g id="a_node15"><a xlink:href="fixed__wing__ops_8_h.html" target="_top" xlink:title=" ">
<polygon fill="white" stroke="black" points="941.5,-56.5 941.5,-75.5 1042.5,-75.5 1042.5,-56.5 941.5,-56.5"/>
<text text-anchor="middle" x="992" y="-63.5" font-family="Helvetica,sans-Serif" font-size="10.00">fixed_wing_ops.H</text>
</a>
</g>
</g>
<!-- Node6&#45;&gt;Node15 -->
<g id="edge17" class="edge">
<title>Node6&#45;&gt;Node15</title>
<path fill="none" stroke="midnightblue" d="M711.9,-165.87C743.65,-157.36 787.83,-144.91 826,-132 879.51,-113.9 941.09,-88.57 972.04,-75.52"/>
<polygon fill="midnightblue" stroke="midnightblue" points="710.82,-162.54 702.05,-168.5 712.62,-169.3 710.82,-162.54"/>
</g>
<!-- Node6&#45;&gt;Node16 -->
<g id="edge19" class="edge">
<title>Node6&#45;&gt;Node16</title>
<path fill="none" stroke="midnightblue" d="M724.49,-167.4C776.94,-158.32 857.83,-144.29 928,-132 932.61,-131.19 937.44,-130.34 942.23,-129.5"/>
<polygon fill="midnightblue" stroke="midnightblue" points="723.65,-164 714.39,-169.15 724.84,-170.89 723.65,-164"/>
</g>
<!-- Node17 -->
<g id="node17" class="node">
<title>Node17</title>
<g id="a_node17"><a xlink:href="flat__plate__ops_8_h.html" target="_top" xlink:title=" ">
<polygon fill="white" stroke="black" points="828.5,-56.5 828.5,-75.5 923.5,-75.5 923.5,-56.5 828.5,-56.5"/>
<text text-anchor="middle" x="876" y="-63.5" font-family="Helvetica,sans-Serif" font-size="10.00">flat_plate_ops.H</text>
</a>
</g>
</g>
<!-- Node6&#45;&gt;Node17 -->
<g id="edge24" class="edge">
<title>Node6&#45;&gt;Node17</title>
<path fill="none" stroke="midnightblue" d="M713.95,-165.64C739.55,-158.13 771.67,-146.91 798,-132 826.22,-116.02 854.17,-89.43 867.66,-75.74"/>
<polygon fill="midnightblue" stroke="midnightblue" points="712.78,-162.33 704.12,-168.44 714.7,-169.07 712.78,-162.33"/>
</g>
<!-- Node7&#45;&gt;Node8 -->
<g id="edge7" class="edge">
<title>Node7&#45;&gt;Node8</title>
<path fill="none" stroke="midnightblue" d="M707.45,-105.82C695.62,-96.15 680.71,-83.95 670.8,-75.83"/>
<polygon fill="midnightblue" stroke="midnightblue" points="705.44,-108.7 715.4,-112.32 709.87,-103.28 705.44,-108.7"/>
</g>
<!-- Node8&#45;&gt;Node9 -->
<g id="edge8" class="edge">
<title>Node8&#45;&gt;Node9</title>
<path fill="none" stroke="midnightblue" d="M600.87,-57.74C509.31,-46.51 335.76,-25.21 258.63,-15.74"/>
<polygon fill="midnightblue" stroke="midnightblue" points="600.46,-61.22 610.81,-58.96 601.31,-54.27 600.46,-61.22"/>
</g>
<!-- Node10 -->
<g id="node10" class="node">
<title>Node10</title>
<g id="a_node10"><a xlink:href="_turbine_fast_8cpp.html" target="_top" xlink:title=" ">
<polygon fill="white" stroke="black" points="454,-0.5 454,-19.5 546,-19.5 546,-0.5 454,-0.5"/>
<text text-anchor="middle" x="500" y="-7.5" font-family="Helvetica,sans-Serif" font-size="10.00">TurbineFast.cpp</text>
</a>
</g>
</g>
<!-- Node8&#45;&gt;Node10 -->
<g id="edge9" class="edge">
<title>Node8&#45;&gt;Node10</title>
<path fill="none" stroke="midnightblue" d="M624.95,-53.17C594.83,-43 552.1,-28.59 525.23,-19.52"/>
<polygon fill="midnightblue" stroke="midnightblue" points="624.05,-56.56 634.65,-56.44 626.29,-49.93 624.05,-56.56"/>
</g>
<!-- Node11 -->
<g id="node11" class="node">
<title>Node11</title>
<g id="a_node11"><a xlink:href="_fixed_wing_8cpp.html" target="_top" xlink:title=" ">
<polygon fill="white" stroke="black" points="948.5,-0.5 948.5,-19.5 1035.5,-19.5 1035.5,-0.5 948.5,-0.5"/>
<text text-anchor="middle" x="992" y="-7.5" font-family="Helvetica,sans-Serif" font-size="10.00">FixedWing.cpp</text>
</a>
</g>
</g>
<!-- Node8&#45;&gt;Node11 -->
<g id="edge10" class="edge">
<title>Node8&#45;&gt;Node11</title>
<path fill="none" stroke="midnightblue" d="M719.57,-55.31C785.41,-44.6 889.89,-27.61 948.48,-18.08"/>
<polygon fill="midnightblue" stroke="midnightblue" points="718.65,-51.91 709.35,-56.97 719.78,-58.82 718.65,-51.91"/>
</g>
<!-- Node12 -->
<g id="node12" class="node">
<title>Node12</title>
<g id="a_node12"><a xlink:href="_flat_plate_8cpp.html" target="_top" xlink:title=" ">
<polygon fill="white" stroke="black" points="836,-0.5 836,-19.5 916,-19.5 916,-0.5 836,-0.5"/>
<text text-anchor="middle" x="876" y="-7.5" font-family="Helvetica,sans-Serif" font-size="10.00">FlatPlate.cpp</text>
</a>
</g>
</g>
<!-- Node8&#45;&gt;Node12 -->
<g id="edge11" class="edge">
<title>Node8&#45;&gt;Node12</title>
<path fill="none" stroke="midnightblue" d="M704.16,-53.96C744.96,-43.76 804.71,-28.82 841.93,-19.52"/>
<polygon fill="midnightblue" stroke="midnightblue" points="703.08,-50.62 694.23,-56.44 704.78,-57.41 703.08,-50.62"/>
</g>
<!-- Node13&#45;&gt;Node8 -->
<g id="edge14" class="edge">
<title>Node13&#45;&gt;Node8</title>
<path fill="none" stroke="midnightblue" d="M567.31,-108.37C589.97,-98.26 621.13,-84.35 640.92,-75.52"/>
<polygon fill="midnightblue" stroke="midnightblue" points="565.88,-105.17 558.17,-112.44 568.73,-111.56 565.88,-105.17"/>
</g>
<!-- Node14&#45;&gt;Node10 -->
<g id="edge16" class="edge">
<title>Node14&#45;&gt;Node10</title>
<path fill="none" stroke="midnightblue" d="M439.83,-50.62C454.81,-40.76 474.2,-27.99 486.86,-19.65"/>
<polygon fill="midnightblue" stroke="midnightblue" points="437.6,-47.9 431.17,-56.32 441.45,-53.75 437.6,-47.9"/>
</g>
<!-- Node15&#45;&gt;Node11 -->
<g id="edge18" class="edge">
<title>Node15&#45;&gt;Node11</title>
<path fill="none" stroke="midnightblue" d="M992,-45.8C992,-36.91 992,-26.78 992,-19.75"/>
<polygon fill="midnightblue" stroke="midnightblue" points="988.5,-46.08 992,-56.08 995.5,-46.08 988.5,-46.08"/>
</g>
<!-- Node16&#45;&gt;Node15 -->
<g id="edge20" class="edge">
<title>Node16&#45;&gt;Node15</title>
<path fill="none" stroke="midnightblue" d="M983.55,-102.1C985.71,-93.14 988.18,-82.86 989.89,-75.75"/>
<polygon fill="midnightblue" stroke="midnightblue" points="980.08,-101.54 981.15,-112.08 986.89,-103.18 980.08,-101.54"/>
</g>
<!-- Node16&#45;&gt;Node17 -->
<g id="edge21" class="edge">
<title>Node16&#45;&gt;Node17</title>
<path fill="none" stroke="midnightblue" d="M953.42,-107.59C934.38,-97.61 908.94,-84.27 892.51,-75.65"/>
<polygon fill="midnightblue" stroke="midnightblue" points="951.97,-110.78 962.45,-112.32 955.22,-104.58 951.97,-110.78"/>
</g>
<!-- Node16&#45;&gt;Node18 -->
<g id="edge23" class="edge">
<title>Node16&#45;&gt;Node18</title>
<path fill="none" stroke="midnightblue" d="M935.81,-109.89C896.15,-99.7 838.23,-84.8 802.12,-75.52"/>
<polygon fill="midnightblue" stroke="midnightblue" points="935.17,-113.34 945.72,-112.44 936.91,-106.56 935.17,-113.34"/>
</g>
<!-- Node17&#45;&gt;Node12 -->
<g id="edge22" class="edge">
<title>Node17&#45;&gt;Node12</title>
<path fill="none" stroke="midnightblue" d="M876,-45.8C876,-36.91 876,-26.78 876,-19.75"/>
<polygon fill="midnightblue" stroke="midnightblue" points="872.5,-46.08 876,-56.08 879.5,-46.08 872.5,-46.08"/>
</g>
<!-- Node19&#45;&gt;Node14 -->
<g id="edge28" class="edge">
<title>Node19&#45;&gt;Node14</title>
<path fill="none" stroke="midnightblue" d="M321.16,-108.5C344.78,-98.38 377.43,-84.39 398.13,-75.52"/>
<polygon fill="midnightblue" stroke="midnightblue" points="319.78,-105.29 311.97,-112.44 322.54,-111.72 319.78,-105.29"/>
</g>
<!-- Node20 -->
<g id="node20" class="node">
<title>Node20</title>
<g id="a_node20"><a xlink:href="turbine__utils_8cpp.html" target="_top" xlink:title=" ">
<polygon fill="white" stroke="black" points="248,-56.5 248,-75.5 346,-75.5 346,-56.5 248,-56.5"/>
<text text-anchor="middle" x="297" y="-63.5" font-family="Helvetica,sans-Serif" font-size="10.00">turbine_utils.cpp</text>
</a>
</g>
</g>
<!-- Node19&#45;&gt;Node20 -->
<g id="edge29" class="edge">
<title>Node19&#45;&gt;Node20</title>
<path fill="none" stroke="midnightblue" d="M293.75,-102.1C294.58,-93.14 295.53,-82.86 296.19,-75.75"/>
<polygon fill="midnightblue" stroke="midnightblue" points="290.26,-101.8 292.83,-112.08 297.23,-102.45 290.26,-101.8"/>
</g>
<!-- Node22 -->
<g id="node22" class="node">
<title>Node22</title>
<g id="a_node22"><a xlink:href="_synthetic_turbulence_8cpp.html" target="_top" xlink:title=" ">
<polygon fill="white" stroke="black" points="772.5,-224.5 772.5,-243.5 907.5,-243.5 907.5,-224.5 772.5,-224.5"/>
<text text-anchor="middle" x="840" y="-231.5" font-family="Helvetica,sans-Serif" font-size="10.00">SyntheticTurbulence.cpp</text>
</a>
</g>
</g>
<!-- Node21&#45;&gt;Node22 -->
<g id="edge33" class="edge">
<title>Node21&#45;&gt;Node22</title>
<path fill="none" stroke="midnightblue" d="M841.29,-269.8C840.96,-260.91 840.58,-250.78 840.32,-243.75"/>
<polygon fill="midnightblue" stroke="midnightblue" points="837.8,-270.22 841.67,-280.08 844.8,-269.96 837.8,-270.22"/>
</g>
<!-- Node24 -->
<g id="node24" class="node">
<title>Node24</title>
<g id="a_node24"><a xlink:href="_box_refiner_8cpp.html" target="_top" xlink:title=" ">
<polygon fill="white" stroke="black" points="925.5,-224.5 925.5,-243.5 1014.5,-243.5 1014.5,-224.5 925.5,-224.5"/>
<text text-anchor="middle" x="970" y="-231.5" font-family="Helvetica,sans-Serif" font-size="10.00">BoxRefiner.cpp</text>
</a>
</g>
</g>
<!-- Node23&#45;&gt;Node24 -->
<g id="edge35" class="edge">
<title>Node23&#45;&gt;Node24</title>
<path fill="none" stroke="midnightblue" d="M967.4,-270.1C968.06,-261.14 968.83,-250.86 969.35,-243.75"/>
<polygon fill="midnightblue" stroke="midnightblue" points="963.91,-269.85 966.66,-280.08 970.89,-270.37 963.91,-269.85"/>
</g>
<!-- Node26 -->
<g id="node26" class="node">
<title>Node26</title>
<g id="a_node26"><a xlink:href="_cylinder_refiner_8cpp.html" target="_top" xlink:title=" ">
<polygon fill="white" stroke="black" points="1151.5,-224.5 1151.5,-243.5 1262.5,-243.5 1262.5,-224.5 1151.5,-224.5"/>
<text text-anchor="middle" x="1207" y="-231.5" font-family="Helvetica,sans-Serif" font-size="10.00">CylinderRefiner.cpp</text>
</a>
</g>
</g>
<!-- Node25&#45;&gt;Node26 -->
<g id="edge37" class="edge">
<title>Node25&#45;&gt;Node26</title>
<path fill="none" stroke="midnightblue" d="M1183.98,-271.57C1189.83,-262.27 1196.77,-251.25 1201.49,-243.75"/>
<polygon fill="midnightblue" stroke="midnightblue" points="1180.98,-269.76 1178.61,-280.08 1186.9,-273.49 1180.98,-269.76"/>
</g>
<!-- Node27&#45;&gt;Node6 -->
<g id="edge40" class="edge">
<title>Node27&#45;&gt;Node6</title>
<path fill="none" stroke="midnightblue" d="M1022.58,-223.83C905.41,-207.57 779.74,-192.21 714.16,-184.35"/>
<polygon fill="midnightblue" stroke="midnightblue" points="1022.41,-227.34 1032.8,-225.25 1023.38,-220.41 1022.41,-227.34"/>
</g>
<!-- Node27&#45;&gt;Node7 -->
<g id="edge39" class="edge">
<title>Node27&#45;&gt;Node7</title>
<path fill="none" stroke="midnightblue" d="M1037.4,-221.94C1005.73,-213.78 962.79,-201.73 926,-188 906.25,-180.63 902.75,-175.37 883,-168 842.22,-152.78 793.9,-139.63 761.74,-131.55"/>
<polygon fill="midnightblue" stroke="midnightblue" points="1036.7,-225.38 1047.26,-224.45 1038.43,-218.6 1036.7,-225.38"/>
</g>
<!-- Node27&#45;&gt;Node8 -->
<g id="edge41" class="edge">
<title>Node27&#45;&gt;Node8</title>
<path fill="none" stroke="midnightblue" d="M1054.88,-220.11C1004.12,-197.04 893.57,-147.79 798,-112 760.6,-97.99 716.61,-84.08 688.53,-75.51"/>
<polygon fill="midnightblue" stroke="midnightblue" points="1053.67,-223.4 1064.22,-224.36 1056.57,-217.03 1053.67,-223.4"/>
</g>
<!-- Node27&#45;&gt;Node16 -->
<g id="edge64" class="edge">
<title>Node27&#45;&gt;Node16</title>
<path fill="none" stroke="midnightblue" d="M1059.57,-218.98C1047.22,-210.89 1032.33,-199.97 1021,-188 1004.18,-170.25 990.05,-144.88 983.28,-131.7"/>
<polygon fill="midnightblue" stroke="midnightblue" points="1057.7,-221.94 1068.02,-224.34 1061.45,-216.03 1057.7,-221.94"/>
</g>
<!-- Node28 -->
<g id="node28" class="node">
<title>Node28</title>
<g id="a_node28"><a xlink:href="turbine__types_8_h.html" target="_top" xlink:title=" ">
<polygon fill="white" stroke="black" points="397,-168.5 397,-187.5 491,-187.5 491,-168.5 397,-168.5"/>
<text text-anchor="middle" x="444" y="-175.5" font-family="Helvetica,sans-Serif" font-size="10.00">turbine_types.H</text>
</a>
</g>
</g>
<!-- Node27&#45;&gt;Node28 -->
<g id="edge42" class="edge">
<title>Node27&#45;&gt;Node28</title>
<path fill="none" stroke="midnightblue" d="M1022.83,-223.95C819,-200.85 588.43,-186.83 491.1,-181.47"/>
<polygon fill="midnightblue" stroke="midnightblue" points="1022.49,-227.43 1032.82,-225.09 1023.28,-220.47 1022.49,-227.43"/>
</g>
<!-- Node30 -->
<g id="node30" class="node">
<title>Node30</title>
<g id="a_node30"><a xlink:href="actuator__utils_8cpp.html" target="_top" xlink:title=" ">
<polygon fill="white" stroke="black" points="770,-168.5 770,-187.5 874,-187.5 874,-168.5 770,-168.5"/>
<text text-anchor="middle" x="822" y="-175.5" font-family="Helvetica,sans-Serif" font-size="10.00">actuator_utils.cpp</text>
</a>
</g>
</g>
<!-- Node27&#45;&gt;Node30 -->
<g id="edge48" class="edge">
<title>Node27&#45;&gt;Node30</title>
<path fill="none" stroke="midnightblue" d="M1031.81,-222.41C982.49,-212.2 908.81,-196.96 863.16,-187.52"/>
<polygon fill="midnightblue" stroke="midnightblue" points="1031.14,-225.84 1041.64,-224.44 1032.56,-218.99 1031.14,-225.84"/>
</g>
<!-- Node31 -->
<g id="node31" class="node">
<title>Node31</title>
<g id="a_node31"><a xlink:href="_airfoil_table_8_h.html" target="_top" xlink:title=" ">
<polygon fill="white" stroke="black" points="1141,-168.5 1141,-187.5 1223,-187.5 1223,-168.5 1141,-168.5"/>
<text text-anchor="middle" x="1182" y="-175.5" font-family="Helvetica,sans-Serif" font-size="10.00">AirfoilTable.H</text>
</a>
</g>
</g>
<!-- Node27&#45;&gt;Node31 -->
<g id="edge49" class="edge">
<title>Node27&#45;&gt;Node31</title>
<path fill="none" stroke="midnightblue" d="M1107.84,-219.45C1126.11,-209.48 1150.42,-196.23 1166.13,-187.65"/>
<polygon fill="midnightblue" stroke="midnightblue" points="1106.01,-216.46 1098.91,-224.32 1109.36,-222.61 1106.01,-216.46"/>
</g>
<!-- Node27&#45;&gt;Node36 -->
<g id="edge60" class="edge">
<title>Node27&#45;&gt;Node36</title>
<path fill="none" stroke="midnightblue" d="M1080.55,-214.1C1079.39,-205.14 1078.06,-194.86 1077.13,-187.75"/>
<polygon fill="midnightblue" stroke="midnightblue" points="1077.09,-214.62 1081.84,-224.08 1084.03,-213.72 1077.09,-214.62"/>
</g>
<!-- Node28&#45;&gt;Node13 -->
<g id="edge43" class="edge">
<title>Node28&#45;&gt;Node13</title>
<path fill="none" stroke="midnightblue" d="M468.32,-163.18C485.8,-153.24 508.83,-140.15 523.77,-131.65"/>
<polygon fill="midnightblue" stroke="midnightblue" points="466.23,-160.34 459.26,-168.32 469.69,-166.43 466.23,-160.34"/>
</g>
<!-- Node28&#45;&gt;Node19 -->
<g id="edge47" class="edge">
<title>Node28&#45;&gt;Node19</title>
<path fill="none" stroke="midnightblue" d="M410.33,-165.04C381.73,-154.88 341.39,-140.55 315.97,-131.52"/>
<polygon fill="midnightblue" stroke="midnightblue" points="409.32,-168.39 419.92,-168.44 411.66,-161.8 409.32,-168.39"/>
</g>
<!-- Node29 -->
<g id="node29" class="node">
<title>Node29</title>
<g id="a_node29"><a xlink:href="_turbine_fast_8_h.html" target="_top" xlink:title=" ">
<polygon fill="white" stroke="black" points="354,-112.5 354,-131.5 436,-131.5 436,-112.5 354,-112.5"/>
<text text-anchor="middle" x="395" y="-119.5" font-family="Helvetica,sans-Serif" font-size="10.00">TurbineFast.H</text>
</a>
</g>
</g>
<!-- Node28&#45;&gt;Node29 -->
<g id="edge44" class="edge">
<title>Node28&#45;&gt;Node29</title>
<path fill="none" stroke="midnightblue" d="M428.97,-160.43C420.38,-150.97 409.96,-139.48 402.94,-131.75"/>
<polygon fill="midnightblue" stroke="midnightblue" points="426.6,-163.03 435.91,-168.08 431.78,-158.33 426.6,-163.03"/>
</g>
<!-- Node29&#45;&gt;Node10 -->
<g id="edge46" class="edge">
<title>Node29&#45;&gt;Node10</title>
<path fill="none" stroke="midnightblue" d="M433.56,-108.64C450.27,-101.5 468.77,-90.93 481,-76 494.71,-59.27 498.53,-33.01 499.59,-19.56"/>
<polygon fill="midnightblue" stroke="midnightblue" points="431.98,-105.49 423.99,-112.44 434.57,-112 431.98,-105.49"/>
</g>
<!-- Node29&#45;&gt;Node14 -->
<g id="edge45" class="edge">
<title>Node29&#45;&gt;Node14</title>
<path fill="none" stroke="midnightblue" d="M402.8,-102.69C406.68,-93.59 411.18,-83.01 414.27,-75.75"/>
<polygon fill="midnightblue" stroke="midnightblue" points="399.5,-101.51 398.8,-112.08 405.94,-104.25 399.5,-101.51"/>
</g>
<!-- Node31&#45;&gt;Node16 -->
<g id="edge56" class="edge">
<title>Node31&#45;&gt;Node16</title>
<path fill="none" stroke="midnightblue" d="M1140.01,-165.83C1101.68,-155.63 1045.85,-140.78 1011.02,-131.52"/>
<polygon fill="midnightblue" stroke="midnightblue" points="1139.27,-169.26 1149.83,-168.44 1141.07,-162.49 1139.27,-169.26"/>
</g>
<!-- Node32 -->
<g id="node32" class="node">
<title>Node32</title>
<g id="a_node32"><a xlink:href="_airfoil_table_8cpp.html" target="_top" xlink:title=" ">
<polygon fill="white" stroke="black" points="1321,-112.5 1321,-131.5 1413,-131.5 1413,-112.5 1321,-112.5"/>
<text text-anchor="middle" x="1367" y="-119.5" font-family="Helvetica,sans-Serif" font-size="10.00">AirfoilTable.cpp</text>
</a>
</g>
</g>
<!-- Node31&#45;&gt;Node32 -->
<g id="edge50" class="edge">
<title>Node31&#45;&gt;Node32</title>
<path fill="none" stroke="midnightblue" d="M1221.17,-165.57C1256.07,-155.38 1306.35,-140.7 1337.82,-131.52"/>
<polygon fill="midnightblue" stroke="midnightblue" points="1219.93,-162.28 1211.31,-168.44 1221.89,-169 1219.93,-162.28"/>
</g>
<!-- Node33 -->
<g id="node33" class="node">
<title>Node33</title>
<g id="a_node33"><a xlink:href="_airfoil_table_i_8_h.html" target="_top" xlink:title=" ">
<polygon fill="white" stroke="black" points="1217.5,-112.5 1217.5,-131.5 1302.5,-131.5 1302.5,-112.5 1217.5,-112.5"/>
<text text-anchor="middle" x="1260" y="-119.5" font-family="Helvetica,sans-Serif" font-size="10.00">AirfoilTableI.H</text>
</a>
</g>
</g>
<!-- Node31&#45;&gt;Node33 -->
<g id="edge51" class="edge">
<title>Node31&#45;&gt;Node33</title>
<path fill="none" stroke="midnightblue" d="M1197.47,-162.06C1210.49,-152.28 1228.8,-139.83 1242.39,-131.65"/>
<polygon fill="midnightblue" stroke="midnightblue" points="1195.16,-159.42 1189.42,-168.32 1199.46,-164.95 1195.16,-159.42"/>
</g>
<!-- Node34 -->
<g id="node34" class="node">
<title>Node34</title>
<g id="a_node34"><a xlink:href="_fixed_wing_8_h.html" target="_top" xlink:title=" ">
<polygon fill="white" stroke="black" points="1122.5,-112.5 1122.5,-131.5 1199.5,-131.5 1199.5,-112.5 1122.5,-112.5"/>
<text text-anchor="middle" x="1161" y="-119.5" font-family="Helvetica,sans-Serif" font-size="10.00">FixedWing.H</text>
</a>
</g>
</g>
<!-- Node31&#45;&gt;Node34 -->
<g id="edge53" class="edge">
<title>Node31&#45;&gt;Node34</title>
<path fill="none" stroke="midnightblue" d="M1174.88,-158.69C1171.34,-149.59 1167.23,-139.01 1164.4,-131.75"/>
<polygon fill="midnightblue" stroke="midnightblue" points="1171.65,-160.03 1178.53,-168.08 1178.17,-157.49 1171.65,-160.03"/>
</g>
<!-- Node35 -->
<g id="node35" class="node">
<title>Node35</title>
<g id="a_node35"><a xlink:href="_flat_plate_8_h.html" target="_top" xlink:title=" ">
<polygon fill="white" stroke="black" points="1033.5,-112.5 1033.5,-131.5 1104.5,-131.5 1104.5,-112.5 1033.5,-112.5"/>
<text text-anchor="middle" x="1069" y="-119.5" font-family="Helvetica,sans-Serif" font-size="10.00">FlatPlate.H</text>
</a>
</g>
</g>
<!-- Node31&#45;&gt;Node35 -->
<g id="edge57" class="edge">
<title>Node31&#45;&gt;Node35</title>
<path fill="none" stroke="midnightblue" d="M1155,-164.1C1133.89,-154.01 1105.14,-140.27 1086.82,-131.52"/>
<polygon fill="midnightblue" stroke="midnightblue" points="1153.56,-167.29 1164.09,-168.44 1156.58,-160.97 1153.56,-167.29"/>
</g>
<!-- Node33&#45;&gt;Node31 -->
<g id="edge52" class="edge">
<title>Node33&#45;&gt;Node31</title>
<path fill="none" stroke="midnightblue" d="M1244.34,-138.09C1231.34,-147.84 1213.17,-160.18 1199.65,-168.32"/>
<polygon fill="midnightblue" stroke="midnightblue" points="1246.64,-140.73 1252.39,-131.83 1242.34,-135.2 1246.64,-140.73"/>
</g>
<!-- Node34&#45;&gt;Node11 -->
<g id="edge55" class="edge">
<title>Node34&#45;&gt;Node11</title>
<path fill="none" stroke="midnightblue" d="M1144.95,-105.12C1130.2,-91.07 1107.31,-70.59 1085,-56 1061.88,-40.88 1032.92,-27.67 1013.52,-19.54"/>
<polygon fill="midnightblue" stroke="midnightblue" points="1142.63,-107.74 1152.25,-112.18 1147.5,-102.71 1142.63,-107.74"/>
</g>
<!-- Node34&#45;&gt;Node15 -->
<g id="edge54" class="edge">
<title>Node34&#45;&gt;Node15</title>
<path fill="none" stroke="midnightblue" d="M1124.4,-109.3C1092.55,-99.13 1047.16,-84.62 1018.65,-75.52"/>
<polygon fill="midnightblue" stroke="midnightblue" points="1123.63,-112.73 1134.22,-112.44 1125.76,-106.07 1123.63,-112.73"/>
</g>
<!-- Node35&#45;&gt;Node12 -->
<g id="edge59" class="edge">
<title>Node35&#45;&gt;Node12</title>
<path fill="none" stroke="midnightblue" d="M1068.95,-101.72C1067.86,-87.25 1064.01,-67.94 1052,-56 1033.05,-37.15 962.04,-23.54 916.21,-16.49"/>
<polygon fill="midnightblue" stroke="midnightblue" points="1065.47,-102.19 1069.33,-112.06 1072.46,-101.94 1065.47,-102.19"/>
</g>
<!-- Node35&#45;&gt;Node17 -->
<g id="edge58" class="edge">
<title>Node35&#45;&gt;Node17</title>
<path fill="none" stroke="midnightblue" d="M1028.61,-109.7C992.18,-99.51 939.41,-84.74 906.44,-75.52"/>
<polygon fill="midnightblue" stroke="midnightblue" points="1027.85,-113.12 1038.42,-112.44 1029.73,-106.38 1027.85,-113.12"/>
</g>
<!-- Node36&#45;&gt;Node16 -->
<g id="edge62" class="edge">
<title>Node36&#45;&gt;Node16</title>
<path fill="none" stroke="midnightblue" d="M1051.66,-163.45C1033.76,-153.48 1009.95,-140.23 994.55,-131.65"/>
<polygon fill="midnightblue" stroke="midnightblue" points="1049.98,-166.52 1060.42,-168.32 1053.38,-160.4 1049.98,-166.52"/>
</g>
<!-- Node36&#45;&gt;Node34 -->
<g id="edge61" class="edge">
<title>Node36&#45;&gt;Node34</title>
<path fill="none" stroke="midnightblue" d="M1098.19,-162.9C1113.78,-153 1134.13,-140.07 1147.38,-131.65"/>
<polygon fill="midnightblue" stroke="midnightblue" points="1096.22,-160.01 1089.66,-168.32 1099.97,-165.92 1096.22,-160.01"/>
</g>
<!-- Node36&#45;&gt;Node35 -->
<g id="edge63" class="edge">
<title>Node36&#45;&gt;Node35</title>
<path fill="none" stroke="midnightblue" d="M1073.55,-158.1C1072.39,-149.14 1071.06,-138.86 1070.13,-131.75"/>
<polygon fill="midnightblue" stroke="midnightblue" points="1070.09,-158.62 1074.84,-168.08 1077.03,-157.72 1070.09,-158.62"/>
</g>
<!-- Node37&#45;&gt;Node9 -->
<g id="edge66" class="edge">
<title>Node37&#45;&gt;Node9</title>
<path fill="none" stroke="midnightblue" d="M59.99,-275.98C45.65,-268.53 29.51,-257.88 19,-244 0.83,-220.01 0,-209.1 0,-179 0,-179 0,-179 0,-121 0,-40.83 118.33,-19.08 181.43,-13.19"/>
<polygon fill="midnightblue" stroke="midnightblue" points="58.55,-279.17 69.07,-280.41 61.62,-272.88 58.55,-279.17"/>
</g>
<!-- Node38 -->
<g id="node38" class="node">
<title>Node38</title>
<g id="a_node38"><a xlink:href="_actuator_container_8cpp.html" target="_top" xlink:title=" ">
<polygon fill="white" stroke="black" points="28.5,-224.5 28.5,-243.5 153.5,-243.5 153.5,-224.5 28.5,-224.5"/>
<text text-anchor="middle" x="91" y="-231.5" font-family="Helvetica,sans-Serif" font-size="10.00">ActuatorContainer.cpp</text>
</a>
</g>
</g>
<!-- Node37&#45;&gt;Node38 -->
<g id="edge67" class="edge">
<title>Node37&#45;&gt;Node38</title>
<path fill="none" stroke="midnightblue" d="M91,-269.8C91,-260.91 91,-250.78 91,-243.75"/>
<polygon fill="midnightblue" stroke="midnightblue" points="87.5,-270.08 91,-280.08 94.5,-270.08 87.5,-270.08"/>
</g>
<!-- Node39&#45;&gt;Node3 -->
<g id="edge71" class="edge">
<title>Node39&#45;&gt;Node3</title>
<path fill="none" stroke="midnightblue" d="M945.38,-385.25C935.27,-375.67 922.72,-363.79 914.32,-355.83"/>
<polygon fill="midnightblue" stroke="midnightblue" points="943.18,-387.99 952.84,-392.32 947.99,-382.91 943.18,-387.99"/>
</g>
<!-- Node40 -->
<g id="node40" class="node">
<title>Node40</title>
<g id="a_node40"><a xlink:href="tensor_i_8_h.html" target="_top" xlink:title=" ">
<polygon fill="white" stroke="black" points="969.5,-336.5 969.5,-355.5 1030.5,-355.5 1030.5,-336.5 969.5,-336.5"/>
<text text-anchor="middle" x="1000" y="-343.5" font-family="Helvetica,sans-Serif" font-size="10.00">tensorI.H</text>
</a>
</g>
</g>
<!-- Node39&#45;&gt;Node40 -->
<g id="edge72" class="edge">
<title>Node39&#45;&gt;Node40</title>
<path fill="none" stroke="midnightblue" d="M968.09,-383.27C973.83,-374.05 981.9,-363.17 988.71,-355.75"/>
<polygon fill="midnightblue" stroke="midnightblue" points="964.99,-381.66 963.11,-392.08 971.08,-385.1 964.99,-381.66"/>
</g>
<!-- Node40&#45;&gt;Node39 -->
<g id="edge73" class="edge">
<title>Node40&#45;&gt;Node39</title>
<path fill="none" stroke="midnightblue" d="M994.04,-364.52C988.34,-373.72 980.27,-384.61 973.44,-392.08"/>
<polygon fill="midnightblue" stroke="midnightblue" points="997.12,-366.18 998.97,-355.75 991.02,-362.75 997.12,-366.18"/>
</g>
<!-- Node42&#45;&gt;Node7 -->
<g id="edge78" class="edge">
<title>Node42&#45;&gt;Node7</title>
<path fill="none" stroke="midnightblue" d="M632.89,-273.24C625.19,-265.33 617.06,-255.09 613,-244 607.41,-228.71 602.32,-186.12 615,-168 629.85,-146.79 656.5,-135.57 679.98,-129.63"/>
<polygon fill="midnightblue" stroke="midnightblue" points="630.64,-275.93 640.29,-280.3 635.47,-270.86 630.64,-275.93"/>
</g>
<!-- Node42&#45;&gt;Node13 -->
<g id="edge79" class="edge">
<title>Node42&#45;&gt;Node13</title>
<path fill="none" stroke="midnightblue" d="M632.91,-273.64C623.88,-265.42 613.16,-254.78 605,-244 575.83,-205.46 551.6,-152.4 542.68,-131.74"/>
<polygon fill="midnightblue" stroke="midnightblue" points="630.81,-276.45 640.62,-280.45 635.45,-271.21 630.81,-276.45"/>
</g>
<!-- Node42&#45;&gt;Node14 -->
<g id="edge81" class="edge">
<title>Node42&#45;&gt;Node14</title>
<path fill="none" stroke="midnightblue" d="M593.69,-279.88C552.28,-272.45 495.36,-260.48 447,-244 347.62,-210.13 289.76,-223.91 239,-132 234.7,-124.22 233.53,-119.01 239,-112 247.28,-101.39 321.78,-85.32 372.02,-75.53"/>
<polygon fill="midnightblue" stroke="midnightblue" points="593.14,-283.34 603.6,-281.63 594.36,-276.45 593.14,-283.34"/>
</g>
<!-- Node42&#45;&gt;Node30 -->
<g id="edge80" class="edge">
<title>Node42&#45;&gt;Node30</title>
<path fill="none" stroke="midnightblue" d="M674.11,-275.02C688.53,-266.23 707.44,-254.59 724,-244 754.96,-224.2 790.83,-200.11 809.4,-187.55"/>
<polygon fill="midnightblue" stroke="midnightblue" points="672.08,-272.16 665.36,-280.34 675.72,-278.14 672.08,-272.16"/>
</g>
<!-- Node43 -->
<g id="node43" class="node">
<title>Node43</title>
<g id="a_node43"><a xlink:href="actuator__ops_i_8_h.html" target="_top" xlink:title=" ">
<polygon fill="white" stroke="black" points="622.5,-224.5 622.5,-243.5 715.5,-243.5 715.5,-224.5 622.5,-224.5"/>
<text text-anchor="middle" x="669" y="-231.5" font-family="Helvetica,sans-Serif" font-size="10.00">actuator_opsI.H</text>
</a>
</g>
</g>
<!-- Node42&#45;&gt;Node43 -->
<g id="edge76" class="edge">
<title>Node42&#45;&gt;Node43</title>
<path fill="none" stroke="midnightblue" d="M657.2,-270.4C660.21,-261.36 663.69,-250.94 666.08,-243.75"/>
<polygon fill="midnightblue" stroke="midnightblue" points="653.81,-269.49 653.97,-280.08 660.46,-271.7 653.81,-269.49"/>
</g>
<!-- Node43&#45;&gt;Node6 -->
<g id="edge77" class="edge">
<title>Node43&#45;&gt;Node6</title>
<path fill="none" stroke="midnightblue" d="M669,-213.8C669,-204.91 669,-194.78 669,-187.75"/>
<polygon fill="midnightblue" stroke="midnightblue" points="665.5,-214.08 669,-224.08 672.5,-214.08 665.5,-214.08"/>
</g>
</g>
</svg>
