<?xml version="1.0" encoding="UTF-8" standalone="no"?>
<!DOCTYPE svg PUBLIC "-//W3C//DTD SVG 1.1//EN"
 "http://www.w3.org/Graphics/SVG/1.1/DTD/svg11.dtd">
<!-- Generated by graphviz version 2.43.0 (0)
 -->
<!-- Title: vstraits.H Pages: 1 -->
<svg width="1555pt" height="532pt"
 viewBox="0.00 0.00 1555.00 532.00" xmlns="http://www.w3.org/2000/svg" xmlns:xlink="http://www.w3.org/1999/xlink">
<g id="graph0" class="graph" transform="scale(1 1) rotate(0) translate(4 528)">
<title>vstraits.H</title>
<polygon fill="white" stroke="transparent" points="-4,4 -4,-528 1551,-528 1551,4 -4,4"/>
<!-- Node1 -->
<g id="node1" class="node">
<title>Node1</title>
<g id="a_node1"><a xlink:title=" ">
<polygon fill="#bfbfbf" stroke="black" points="630.5,-504.5 630.5,-523.5 694.5,-523.5 694.5,-504.5 630.5,-504.5"/>
<text text-anchor="middle" x="662.5" y="-511.5" font-family="Helvetica,sans-Serif" font-size="10.00">vstraits.H</text>
</a>
</g>
</g>
<!-- Node2 -->
<g id="node2" class="node">
<title>Node2</title>
<g id="a_node2"><a xlink:href="vector_8_h.html" target="_top" xlink:title=" ">
<polygon fill="white" stroke="black" points="634,-448.5 634,-467.5 691,-467.5 691,-448.5 634,-448.5"/>
<text text-anchor="middle" x="662.5" y="-455.5" font-family="Helvetica,sans-Serif" font-size="10.00">vector.H</text>
</a>
</g>
</g>
<!-- Node1&#45;&gt;Node2 -->
<g id="edge1" class="edge">
<title>Node1&#45;&gt;Node2</title>
<path fill="none" stroke="midnightblue" d="M662.5,-493.8C662.5,-484.91 662.5,-474.78 662.5,-467.75"/>
<polygon fill="midnightblue" stroke="midnightblue" points="659,-494.08 662.5,-504.08 666,-494.08 659,-494.08"/>
</g>
<!-- Node40 -->
<g id="node40" class="node">
<title>Node40</title>
<g id="a_node40"><a xlink:href="tensor_8_h.html" target="_top" xlink:title=" ">
<polygon fill="white" stroke="black" points="442,-392.5 442,-411.5 499,-411.5 499,-392.5 442,-392.5"/>
<text text-anchor="middle" x="470.5" y="-399.5" font-family="Helvetica,sans-Serif" font-size="10.00">tensor.H</text>
</a>
</g>
</g>
<!-- Node1&#45;&gt;Node40 -->
<g id="edge83" class="edge">
<title>Node1&#45;&gt;Node40</title>
<path fill="none" stroke="midnightblue" d="M638.59,-499.3C598.45,-476.3 518.66,-430.59 485.5,-411.59"/>
<polygon fill="midnightblue" stroke="midnightblue" points="637.02,-502.43 647.43,-504.37 640.5,-496.36 637.02,-502.43"/>
</g>
<!-- Node45 -->
<g id="node45" class="node">
<title>Node45</title>
<g id="a_node45"><a xlink:href="_geostrophic_forcing_8cpp.html" target="_top" xlink:title=" ">
<polygon fill="white" stroke="black" points="709,-448.5 709,-467.5 840,-467.5 840,-448.5 709,-448.5"/>
<text text-anchor="middle" x="774.5" y="-455.5" font-family="Helvetica,sans-Serif" font-size="10.00">GeostrophicForcing.cpp</text>
</a>
</g>
</g>
<!-- Node1&#45;&gt;Node45 -->
<g id="edge84" class="edge">
<title>Node1&#45;&gt;Node45</title>
<path fill="none" stroke="midnightblue" d="M689.75,-499.86C710.52,-489.85 738.52,-476.35 756.55,-467.65"/>
<polygon fill="midnightblue" stroke="midnightblue" points="687.98,-496.83 680.49,-504.32 691.02,-503.13 687.98,-496.83"/>
</g>
<!-- Node3 -->
<g id="node3" class="node">
<title>Node3</title>
<g id="a_node3"><a xlink:href="vector__space_8_h.html" target="_top" xlink:title=" ">
<polygon fill="white" stroke="black" points="519.5,-336.5 519.5,-355.5 611.5,-355.5 611.5,-336.5 519.5,-336.5"/>
<text text-anchor="middle" x="565.5" y="-343.5" font-family="Helvetica,sans-Serif" font-size="10.00">vector_space.H</text>
</a>
</g>
</g>
<!-- Node2&#45;&gt;Node3 -->
<g id="edge2" class="edge">
<title>Node2&#45;&gt;Node3</title>
<path fill="none" stroke="midnightblue" d="M660.41,-438.1C658.04,-424.12 653.03,-405.29 642.5,-392 628.84,-374.77 606.65,-362.81 589.58,-355.57"/>
<polygon fill="midnightblue" stroke="midnightblue" points="656.95,-438.65 661.8,-448.07 663.89,-437.68 656.95,-438.65"/>
</g>
<!-- Node39 -->
<g id="node39" class="node">
<title>Node39</title>
<g id="a_node39"><a xlink:href="vector_i_8_h.html" target="_top" xlink:title=" ">
<polygon fill="white" stroke="black" points="729,-392.5 729,-411.5 790,-411.5 790,-392.5 729,-392.5"/>
<text text-anchor="middle" x="759.5" y="-399.5" font-family="Helvetica,sans-Serif" font-size="10.00">vectorI.H</text>
</a>
</g>
</g>
<!-- Node2&#45;&gt;Node39 -->
<g id="edge69" class="edge">
<title>Node2&#45;&gt;Node39</title>
<path fill="none" stroke="midnightblue" d="M681.81,-442.9C698.38,-433 721.9,-420.07 738.84,-411.65"/>
<polygon fill="midnightblue" stroke="midnightblue" points="679.67,-440.11 672.97,-448.32 683.32,-446.08 679.67,-440.11"/>
</g>
<!-- Node2&#45;&gt;Node40 -->
<g id="edge71" class="edge">
<title>Node2&#45;&gt;Node40</title>
<path fill="none" stroke="midnightblue" d="M623.86,-446.13C586.98,-435.76 532.26,-420.37 499.13,-411.05"/>
<polygon fill="midnightblue" stroke="midnightblue" points="623.18,-449.58 633.76,-448.92 625.08,-442.84 623.18,-449.58"/>
</g>
<!-- Node42 -->
<g id="node42" class="node">
<title>Node42</title>
<g id="a_node42"><a xlink:href="_power_law_profile_8cpp.html" target="_top" xlink:title=" ">
<polygon fill="white" stroke="black" points="517,-392.5 517,-411.5 634,-411.5 634,-392.5 517,-392.5"/>
<text text-anchor="middle" x="575.5" y="-399.5" font-family="Helvetica,sans-Serif" font-size="10.00">PowerLawProfile.cpp</text>
</a>
</g>
</g>
<!-- Node2&#45;&gt;Node42 -->
<g id="edge75" class="edge">
<title>Node2&#45;&gt;Node42</title>
<path fill="none" stroke="midnightblue" d="M639.78,-442.9C623.83,-433 603,-420.07 589.44,-411.65"/>
<polygon fill="midnightblue" stroke="midnightblue" points="638.18,-446.02 648.52,-448.32 641.87,-440.08 638.18,-446.02"/>
</g>
<!-- Node43 -->
<g id="node43" class="node">
<title>Node43</title>
<g id="a_node43"><a xlink:href="actuator__utils_8_h.html" target="_top" xlink:title=" ">
<polygon fill="white" stroke="black" points="730.5,-280.5 730.5,-299.5 824.5,-299.5 824.5,-280.5 730.5,-280.5"/>
<text text-anchor="middle" x="777.5" y="-287.5" font-family="Helvetica,sans-Serif" font-size="10.00">actuator_utils.H</text>
</a>
</g>
</g>
<!-- Node2&#45;&gt;Node43 -->
<g id="edge76" class="edge">
<title>Node2&#45;&gt;Node43</title>
<path fill="none" stroke="midnightblue" d="M674.44,-439.76C698.81,-404.59 753.48,-325.68 771.56,-299.57"/>
<polygon fill="midnightblue" stroke="midnightblue" points="671.5,-437.86 668.68,-448.08 677.25,-441.85 671.5,-437.86"/>
</g>
<!-- Node4 -->
<g id="node4" class="node">
<title>Node4</title>
<g id="a_node4"><a xlink:href="_multi_parser_8_h.html" target="_top" xlink:title=" ">
<polygon fill="white" stroke="black" points="586,-280.5 586,-299.5 667,-299.5 667,-280.5 586,-280.5"/>
<text text-anchor="middle" x="626.5" y="-287.5" font-family="Helvetica,sans-Serif" font-size="10.00">MultiParser.H</text>
</a>
</g>
</g>
<!-- Node3&#45;&gt;Node4 -->
<g id="edge3" class="edge">
<title>Node3&#45;&gt;Node4</title>
<path fill="none" stroke="midnightblue" d="M582.97,-329.54C593.84,-319.91 607.44,-307.87 616.52,-299.83"/>
<polygon fill="midnightblue" stroke="midnightblue" points="580.47,-327.07 575.3,-336.32 585.11,-332.32 580.47,-327.07"/>
</g>
<!-- Node21 -->
<g id="node21" class="node">
<title>Node21</title>
<g id="a_node21"><a xlink:href="_synthetic_turbulence_8_h.html" target="_top" xlink:title=" ">
<polygon fill="white" stroke="black" points="433,-280.5 433,-299.5 558,-299.5 558,-280.5 433,-280.5"/>
<text text-anchor="middle" x="495.5" y="-287.5" font-family="Helvetica,sans-Serif" font-size="10.00">SyntheticTurbulence.H</text>
</a>
</g>
</g>
<!-- Node3&#45;&gt;Node21 -->
<g id="edge32" class="edge">
<title>Node3&#45;&gt;Node21</title>
<path fill="none" stroke="midnightblue" d="M546.19,-330.1C533.59,-320.38 517.57,-308.03 506.95,-299.83"/>
<polygon fill="midnightblue" stroke="midnightblue" points="544.2,-332.99 554.25,-336.32 548.47,-327.44 544.2,-332.99"/>
</g>
<!-- Node23 -->
<g id="node23" class="node">
<title>Node23</title>
<g id="a_node23"><a xlink:href="_box_refiner_8_h.html" target="_top" xlink:title=" ">
<polygon fill="white" stroke="black" points="19.5,-280.5 19.5,-299.5 99.5,-299.5 99.5,-280.5 19.5,-280.5"/>
<text text-anchor="middle" x="59.5" y="-287.5" font-family="Helvetica,sans-Serif" font-size="10.00">BoxRefiner.H</text>
</a>
</g>
</g>
<!-- Node3&#45;&gt;Node23 -->
<g id="edge34" class="edge">
<title>Node3&#45;&gt;Node23</title>
<path fill="none" stroke="midnightblue" d="M509.31,-336.06C343.06,-314.91 299.45,-317.18 137.5,-300 125.16,-298.69 111.74,-297.18 99.57,-295.77"/>
<polygon fill="midnightblue" stroke="midnightblue" points="509.02,-339.55 519.39,-337.35 509.91,-332.61 509.02,-339.55"/>
</g>
<!-- Node25 -->
<g id="node25" class="node">
<title>Node25</title>
<g id="a_node25"><a xlink:href="_cylinder_refiner_8_h.html" target="_top" xlink:title=" ">
<polygon fill="white" stroke="black" points="147,-280.5 147,-299.5 248,-299.5 248,-280.5 147,-280.5"/>
<text text-anchor="middle" x="197.5" y="-287.5" font-family="Helvetica,sans-Serif" font-size="10.00">CylinderRefiner.H</text>
</a>
</g>
</g>
<!-- Node3&#45;&gt;Node25 -->
<g id="edge36" class="edge">
<title>Node3&#45;&gt;Node25</title>
<path fill="none" stroke="midnightblue" d="M509.19,-335.98C410.3,-320.95 307.75,-306.4 248.06,-298.04"/>
<polygon fill="midnightblue" stroke="midnightblue" points="508.95,-339.48 519.36,-337.53 510.01,-332.56 508.95,-339.48"/>
</g>
<!-- Node27 -->
<g id="node27" class="node">
<title>Node27</title>
<g id="a_node27"><a xlink:href="actuator__types_8_h.html" target="_top" xlink:title=" ">
<polygon fill="white" stroke="black" points="1004.5,-224.5 1004.5,-243.5 1104.5,-243.5 1104.5,-224.5 1004.5,-224.5"/>
<text text-anchor="middle" x="1054.5" y="-231.5" font-family="Helvetica,sans-Serif" font-size="10.00">actuator_types.H</text>
</a>
</g>
</g>
<!-- Node3&#45;&gt;Node27 -->
<g id="edge38" class="edge">
<title>Node3&#45;&gt;Node27</title>
<path fill="none" stroke="midnightblue" d="M621.98,-337.52C676.49,-329.83 761.15,-316.65 833.5,-300 905.41,-283.45 988.46,-256.99 1029.24,-243.51"/>
<polygon fill="midnightblue" stroke="midnightblue" points="621.25,-334.09 611.83,-338.94 622.22,-341.02 621.25,-334.09"/>
</g>
<!-- Node36 -->
<g id="node36" class="node">
<title>Node36</title>
<g id="a_node36"><a xlink:href="_actuator_wing_8_h.html" target="_top" xlink:title=" ">
<polygon fill="white" stroke="black" points="1366,-168.5 1366,-187.5 1459,-187.5 1459,-168.5 1366,-168.5"/>
<text text-anchor="middle" x="1412.5" y="-175.5" font-family="Helvetica,sans-Serif" font-size="10.00">ActuatorWing.H</text>
</a>
</g>
</g>
<!-- Node3&#45;&gt;Node36 -->
<g id="edge68" class="edge">
<title>Node3&#45;&gt;Node36</title>
<path fill="none" stroke="midnightblue" d="M621.94,-338.03C685.64,-329.93 792.27,-315.66 883.5,-300 1007.29,-278.75 1038.09,-272.14 1160.5,-244 1240.64,-225.58 1334.2,-200.5 1381.59,-187.54"/>
<polygon fill="midnightblue" stroke="midnightblue" points="621.19,-334.6 611.71,-339.33 622.07,-341.54 621.19,-334.6"/>
</g>
<!-- Node37 -->
<g id="node37" class="node">
<title>Node37</title>
<g id="a_node37"><a xlink:href="_actuator_container_8_h.html" target="_top" xlink:title=" ">
<polygon fill="white" stroke="black" points="280,-280.5 280,-299.5 395,-299.5 395,-280.5 280,-280.5"/>
<text text-anchor="middle" x="337.5" y="-287.5" font-family="Helvetica,sans-Serif" font-size="10.00">ActuatorContainer.H</text>
</a>
</g>
</g>
<!-- Node3&#45;&gt;Node37 -->
<g id="edge65" class="edge">
<title>Node3&#45;&gt;Node37</title>
<path fill="none" stroke="midnightblue" d="M519.43,-334.09C476.35,-323.89 412.91,-308.86 373.46,-299.52"/>
<polygon fill="midnightblue" stroke="midnightblue" points="518.84,-337.54 529.37,-336.44 520.45,-330.73 518.84,-337.54"/>
</g>
<!-- Node5 -->
<g id="node5" class="node">
<title>Node5</title>
<g id="a_node5"><a xlink:href="_act_parser_8_h.html" target="_top" xlink:title=" ">
<polygon fill="white" stroke="black" points="609.5,-224.5 609.5,-243.5 681.5,-243.5 681.5,-224.5 609.5,-224.5"/>
<text text-anchor="middle" x="645.5" y="-231.5" font-family="Helvetica,sans-Serif" font-size="10.00">ActParser.H</text>
</a>
</g>
</g>
<!-- Node4&#45;&gt;Node5 -->
<g id="edge4" class="edge">
<title>Node4&#45;&gt;Node5</title>
<path fill="none" stroke="midnightblue" d="M633.05,-270.4C636.22,-261.36 639.89,-250.94 642.42,-243.75"/>
<polygon fill="midnightblue" stroke="midnightblue" points="629.65,-269.49 629.64,-280.08 636.26,-271.81 629.65,-269.49"/>
</g>
<!-- Node6 -->
<g id="node6" class="node">
<title>Node6</title>
<g id="a_node6"><a xlink:href="actuator__ops_8_h.html" target="_top" xlink:title=" ">
<polygon fill="white" stroke="black" points="858.5,-168.5 858.5,-187.5 948.5,-187.5 948.5,-168.5 858.5,-168.5"/>
<text text-anchor="middle" x="903.5" y="-175.5" font-family="Helvetica,sans-Serif" font-size="10.00">actuator_ops.H</text>
</a>
</g>
</g>
<!-- Node5&#45;&gt;Node6 -->
<g id="edge5" class="edge">
<title>Node5&#45;&gt;Node6</title>
<path fill="none" stroke="midnightblue" d="M691.58,-223.36C740.14,-213.19 815.93,-197.33 862.49,-187.58"/>
<polygon fill="midnightblue" stroke="midnightblue" points="690.72,-219.96 681.65,-225.43 692.15,-226.81 690.72,-219.96"/>
</g>
<!-- Node8 -->
<g id="node8" class="node">
<title>Node8</title>
<g id="a_node8"><a xlink:href="_actuator_model_8_h.html" target="_top" xlink:title=" ">
<polygon fill="white" stroke="black" points="698.5,-56.5 698.5,-75.5 796.5,-75.5 796.5,-56.5 698.5,-56.5"/>
<text text-anchor="middle" x="747.5" y="-63.5" font-family="Helvetica,sans-Serif" font-size="10.00">ActuatorModel.H</text>
</a>
</g>
</g>
<!-- Node5&#45;&gt;Node8 -->
<g id="edge25" class="edge">
<title>Node5&#45;&gt;Node8</title>
<path fill="none" stroke="midnightblue" d="M633.84,-216.07C618.2,-191.06 594.88,-143.77 617.5,-112 635.79,-86.32 669.78,-75.16 698.42,-70.37"/>
<polygon fill="midnightblue" stroke="midnightblue" points="630.94,-218.03 639.35,-224.49 636.8,-214.2 630.94,-218.03"/>
</g>
<!-- Node9 -->
<g id="node9" class="node">
<title>Node9</title>
<g id="a_node9"><a xlink:href="_actuator_8cpp.html" target="_top" xlink:title=" ">
<polygon fill="white" stroke="black" points="277,-0.5 277,-19.5 354,-19.5 354,-0.5 277,-0.5"/>
<text text-anchor="middle" x="315.5" y="-7.5" font-family="Helvetica,sans-Serif" font-size="10.00">Actuator.cpp</text>
</a>
</g>
</g>
<!-- Node5&#45;&gt;Node9 -->
<g id="edge26" class="edge">
<title>Node5&#45;&gt;Node9</title>
<path fill="none" stroke="midnightblue" d="M599.53,-228.53C557.53,-223.11 494.55,-211.6 444.5,-188 407.83,-170.71 397.83,-163.65 372.5,-132 343.04,-95.2 324.46,-40.68 318.03,-19.68"/>
<polygon fill="midnightblue" stroke="midnightblue" points="599.12,-232 609.47,-229.74 599.97,-225.05 599.12,-232"/>
</g>
<!-- Node16 -->
<g id="node16" class="node">
<title>Node16</title>
<g id="a_node16"><a xlink:href="wing__ops_8_h.html" target="_top" xlink:title=" ">
<polygon fill="white" stroke="black" points="1076,-112.5 1076,-131.5 1149,-131.5 1149,-112.5 1076,-112.5"/>
<text text-anchor="middle" x="1112.5" y="-119.5" font-family="Helvetica,sans-Serif" font-size="10.00">wing_ops.H</text>
</a>
</g>
</g>
<!-- Node5&#45;&gt;Node16 -->
<g id="edge30" class="edge">
<title>Node5&#45;&gt;Node16</title>
<path fill="none" stroke="midnightblue" d="M691.84,-230C753.44,-225.19 865.26,-213.54 957.5,-188 1009.81,-173.51 1067.93,-145.77 1095.8,-131.67"/>
<polygon fill="midnightblue" stroke="midnightblue" points="691.38,-226.53 681.67,-230.77 691.9,-233.51 691.38,-226.53"/>
</g>
<!-- Node18 -->
<g id="node18" class="node">
<title>Node18</title>
<g id="a_node18"><a xlink:href="wing__ops_8cpp.html" target="_top" xlink:title=" ">
<polygon fill="white" stroke="black" points="856,-56.5 856,-75.5 939,-75.5 939,-56.5 856,-56.5"/>
<text text-anchor="middle" x="897.5" y="-63.5" font-family="Helvetica,sans-Serif" font-size="10.00">wing_ops.cpp</text>
</a>
</g>
</g>
<!-- Node5&#45;&gt;Node18 -->
<g id="edge31" class="edge">
<title>Node5&#45;&gt;Node18</title>
<path fill="none" stroke="midnightblue" d="M667.29,-218.65C718.18,-185.12 843.62,-102.49 884.44,-75.61"/>
<polygon fill="midnightblue" stroke="midnightblue" points="665.12,-215.88 658.69,-224.31 668.97,-221.73 665.12,-215.88"/>
</g>
<!-- Node19 -->
<g id="node19" class="node">
<title>Node19</title>
<g id="a_node19"><a xlink:href="turbine__utils_8_h.html" target="_top" xlink:title=" ">
<polygon fill="white" stroke="black" points="381.5,-112.5 381.5,-131.5 469.5,-131.5 469.5,-112.5 381.5,-112.5"/>
<text text-anchor="middle" x="425.5" y="-119.5" font-family="Helvetica,sans-Serif" font-size="10.00">turbine_utils.H</text>
</a>
</g>
</g>
<!-- Node5&#45;&gt;Node19 -->
<g id="edge27" class="edge">
<title>Node5&#45;&gt;Node19</title>
<path fill="none" stroke="midnightblue" d="M599.56,-223.31C550.2,-212.61 477.33,-195.85 466.5,-188 446.41,-173.44 433.87,-145.72 428.51,-131.66"/>
<polygon fill="midnightblue" stroke="midnightblue" points="598.89,-226.75 609.4,-225.43 600.36,-219.9 598.89,-226.75"/>
</g>
<!-- Node7 -->
<g id="node7" class="node">
<title>Node7</title>
<g id="a_node7"><a xlink:href="_act_src_line_op_8_h.html" target="_top" xlink:title=" ">
<polygon fill="white" stroke="black" points="965.5,-112.5 965.5,-131.5 1057.5,-131.5 1057.5,-112.5 965.5,-112.5"/>
<text text-anchor="middle" x="1011.5" y="-119.5" font-family="Helvetica,sans-Serif" font-size="10.00">ActSrcLineOp.H</text>
</a>
</g>
</g>
<!-- Node6&#45;&gt;Node7 -->
<g id="edge6" class="edge">
<title>Node6&#45;&gt;Node7</title>
<path fill="none" stroke="midnightblue" d="M930.05,-163.73C950.05,-153.73 976.89,-140.31 994.19,-131.65"/>
<polygon fill="midnightblue" stroke="midnightblue" points="928.23,-160.72 920.85,-168.32 931.36,-166.98 928.23,-160.72"/>
</g>
<!-- Node6&#45;&gt;Node8 -->
<g id="edge12" class="edge">
<title>Node6&#45;&gt;Node8</title>
<path fill="none" stroke="midnightblue" d="M882.82,-162.42C849.82,-139.15 786.29,-94.35 759.68,-75.59"/>
<polygon fill="midnightblue" stroke="midnightblue" points="881.07,-165.47 891.26,-168.37 885.1,-159.75 881.07,-165.47"/>
</g>
<!-- Node13 -->
<g id="node13" class="node">
<title>Node13</title>
<g id="a_node13"><a xlink:href="_act_src_disk_op_8_h.html" target="_top" xlink:title=" ">
<polygon fill="white" stroke="black" points="626,-112.5 626,-131.5 719,-131.5 719,-112.5 626,-112.5"/>
<text text-anchor="middle" x="672.5" y="-119.5" font-family="Helvetica,sans-Serif" font-size="10.00">ActSrcDiskOp.H</text>
</a>
</g>
</g>
<!-- Node6&#45;&gt;Node13 -->
<g id="edge13" class="edge">
<title>Node6&#45;&gt;Node13</title>
<path fill="none" stroke="midnightblue" d="M857.1,-166.15C813.45,-155.95 748.99,-140.88 708.93,-131.52"/>
<polygon fill="midnightblue" stroke="midnightblue" points="856.36,-169.58 866.9,-168.44 857.96,-162.76 856.36,-169.58"/>
</g>
<!-- Node14 -->
<g id="node14" class="node">
<title>Node14</title>
<g id="a_node14"><a xlink:href="turbine__fast__ops_8_h.html" target="_top" xlink:title=" ">
<polygon fill="white" stroke="black" points="474.5,-56.5 474.5,-75.5 582.5,-75.5 582.5,-56.5 474.5,-56.5"/>
<text text-anchor="middle" x="528.5" y="-63.5" font-family="Helvetica,sans-Serif" font-size="10.00">turbine_fast_ops.H</text>
</a>
</g>
</g>
<!-- Node6&#45;&gt;Node14 -->
<g id="edge15" class="edge">
<title>Node6&#45;&gt;Node14</title>
<path fill="none" stroke="midnightblue" d="M873.39,-164.5C838.67,-150.41 779.66,-127.46 727.5,-112 675.54,-96.6 614.61,-83.54 573.99,-75.51"/>
<polygon fill="midnightblue" stroke="midnightblue" points="872.36,-167.86 882.94,-168.4 875,-161.38 872.36,-167.86"/>
</g>
<!-- Node15 -->
<g id="node15" class="node">
<title>Node15</title>
<g id="a_node15"><a xlink:href="fixed__wing__ops_8_h.html" target="_top" xlink:title=" ">
<polygon fill="white" stroke="black" points="1181,-56.5 1181,-75.5 1282,-75.5 1282,-56.5 1181,-56.5"/>
<text text-anchor="middle" x="1231.5" y="-63.5" font-family="Helvetica,sans-Serif" font-size="10.00">fixed_wing_ops.H</text>
</a>
</g>
</g>
<!-- Node6&#45;&gt;Node15 -->
<g id="edge17" class="edge">
<title>Node6&#45;&gt;Node15</title>
<path fill="none" stroke="midnightblue" d="M913.05,-159.19C922.14,-144.08 937.27,-123.12 956.5,-112 975.58,-100.96 1106.87,-82.83 1180.93,-73.3"/>
<polygon fill="midnightblue" stroke="midnightblue" points="909.87,-157.7 907.96,-168.12 915.95,-161.16 909.87,-157.7"/>
</g>
<!-- Node6&#45;&gt;Node16 -->
<g id="edge19" class="edge">
<title>Node6&#45;&gt;Node16</title>
<path fill="none" stroke="midnightblue" d="M946.48,-165.89C985.95,-155.7 1043.6,-140.8 1079.54,-131.52"/>
<polygon fill="midnightblue" stroke="midnightblue" points="945.42,-162.55 936.62,-168.44 947.17,-169.33 945.42,-162.55"/>
</g>
<!-- Node17 -->
<g id="node17" class="node">
<title>Node17</title>
<g id="a_node17"><a xlink:href="flat__plate__ops_8_h.html" target="_top" xlink:title=" ">
<polygon fill="white" stroke="black" points="1029,-56.5 1029,-75.5 1124,-75.5 1124,-56.5 1029,-56.5"/>
<text text-anchor="middle" x="1076.5" y="-63.5" font-family="Helvetica,sans-Serif" font-size="10.00">flat_plate_ops.H</text>
</a>
</g>
</g>
<!-- Node6&#45;&gt;Node17 -->
<g id="edge24" class="edge">
<title>Node6&#45;&gt;Node17</title>
<path fill="none" stroke="midnightblue" d="M904.64,-157.78C906.51,-143.34 911.3,-124.05 923.5,-112 951.37,-84.47 995.18,-73.63 1028.79,-69.43"/>
<polygon fill="midnightblue" stroke="midnightblue" points="901.12,-157.81 903.69,-168.09 908.09,-158.45 901.12,-157.81"/>
</g>
<!-- Node7&#45;&gt;Node8 -->
<g id="edge7" class="edge">
<title>Node7&#45;&gt;Node8</title>
<path fill="none" stroke="midnightblue" d="M959.72,-110.41C909.83,-100.2 835.3,-84.96 789.14,-75.52"/>
<polygon fill="midnightblue" stroke="midnightblue" points="959.17,-113.87 969.67,-112.44 960.57,-107.01 959.17,-113.87"/>
</g>
<!-- Node8&#45;&gt;Node9 -->
<g id="edge8" class="edge">
<title>Node8&#45;&gt;Node9</title>
<path fill="none" stroke="midnightblue" d="M688.33,-57.6C598.44,-46.37 429.93,-25.3 354.15,-15.83"/>
<polygon fill="midnightblue" stroke="midnightblue" points="688.01,-61.09 698.36,-58.86 688.88,-54.14 688.01,-61.09"/>
</g>
<!-- Node10 -->
<g id="node10" class="node">
<title>Node10</title>
<g id="a_node10"><a xlink:href="_turbine_fast_8cpp.html" target="_top" xlink:title=" ">
<polygon fill="white" stroke="black" points="564.5,-0.5 564.5,-19.5 656.5,-19.5 656.5,-0.5 564.5,-0.5"/>
<text text-anchor="middle" x="610.5" y="-7.5" font-family="Helvetica,sans-Serif" font-size="10.00">TurbineFast.cpp</text>
</a>
</g>
</g>
<!-- Node8&#45;&gt;Node10 -->
<g id="edge9" class="edge">
<title>Node8&#45;&gt;Node10</title>
<path fill="none" stroke="midnightblue" d="M716.48,-52.77C690.74,-42.63 654.81,-28.47 632.11,-19.52"/>
<polygon fill="midnightblue" stroke="midnightblue" points="715.21,-56.03 725.79,-56.44 717.77,-49.52 715.21,-56.03"/>
</g>
<!-- Node11 -->
<g id="node11" class="node">
<title>Node11</title>
<g id="a_node11"><a xlink:href="_fixed_wing_8cpp.html" target="_top" xlink:title=" ">
<polygon fill="white" stroke="black" points="1188,-0.5 1188,-19.5 1275,-19.5 1275,-0.5 1188,-0.5"/>
<text text-anchor="middle" x="1231.5" y="-7.5" font-family="Helvetica,sans-Serif" font-size="10.00">FixedWing.cpp</text>
</a>
</g>
</g>
<!-- Node8&#45;&gt;Node11 -->
<g id="edge10" class="edge">
<title>Node8&#45;&gt;Node11</title>
<path fill="none" stroke="midnightblue" d="M806.66,-58.4C905.24,-47.4 1100.85,-25.58 1187.93,-15.86"/>
<polygon fill="midnightblue" stroke="midnightblue" points="806.12,-54.94 796.57,-59.53 806.9,-61.89 806.12,-54.94"/>
</g>
<!-- Node12 -->
<g id="node12" class="node">
<title>Node12</title>
<g id="a_node12"><a xlink:href="_flat_plate_8cpp.html" target="_top" xlink:title=" ">
<polygon fill="white" stroke="black" points="1036.5,-0.5 1036.5,-19.5 1116.5,-19.5 1116.5,-0.5 1036.5,-0.5"/>
<text text-anchor="middle" x="1076.5" y="-7.5" font-family="Helvetica,sans-Serif" font-size="10.00">FlatPlate.cpp</text>
</a>
</g>
</g>
<!-- Node8&#45;&gt;Node12 -->
<g id="edge11" class="edge">
<title>Node8&#45;&gt;Node12</title>
<path fill="none" stroke="midnightblue" d="M806.65,-55.29C873,-44.4 978.82,-27.03 1036.25,-17.61"/>
<polygon fill="midnightblue" stroke="midnightblue" points="806.06,-51.84 796.75,-56.92 807.19,-58.75 806.06,-51.84"/>
</g>
<!-- Node13&#45;&gt;Node8 -->
<g id="edge14" class="edge">
<title>Node13&#45;&gt;Node8</title>
<path fill="none" stroke="midnightblue" d="M692.81,-106.38C706.36,-96.62 723.74,-84.11 735.23,-75.83"/>
<polygon fill="midnightblue" stroke="midnightblue" points="690.62,-103.64 684.55,-112.32 694.71,-109.32 690.62,-103.64"/>
</g>
<!-- Node14&#45;&gt;Node10 -->
<g id="edge16" class="edge">
<title>Node14&#45;&gt;Node10</title>
<path fill="none" stroke="midnightblue" d="M550.33,-50.62C565.31,-40.76 584.7,-27.99 597.36,-19.65"/>
<polygon fill="midnightblue" stroke="midnightblue" points="548.1,-47.9 541.67,-56.32 551.95,-53.75 548.1,-47.9"/>
</g>
<!-- Node15&#45;&gt;Node11 -->
<g id="edge18" class="edge">
<title>Node15&#45;&gt;Node11</title>
<path fill="none" stroke="midnightblue" d="M1231.5,-45.8C1231.5,-36.91 1231.5,-26.78 1231.5,-19.75"/>
<polygon fill="midnightblue" stroke="midnightblue" points="1228,-46.08 1231.5,-56.08 1235,-46.08 1228,-46.08"/>
</g>
<!-- Node16&#45;&gt;Node15 -->
<g id="edge20" class="edge">
<title>Node16&#45;&gt;Node15</title>
<path fill="none" stroke="midnightblue" d="M1140.64,-108.23C1162.9,-98.13 1193.36,-84.31 1212.73,-75.52"/>
<polygon fill="midnightblue" stroke="midnightblue" points="1139.02,-105.12 1131.36,-112.44 1141.91,-111.5 1139.02,-105.12"/>
</g>
<!-- Node16&#45;&gt;Node17 -->
<g id="edge21" class="edge">
<title>Node16&#45;&gt;Node17</title>
<path fill="none" stroke="midnightblue" d="M1100.88,-103.57C1094.68,-94.27 1087.33,-83.25 1082.33,-75.75"/>
<polygon fill="midnightblue" stroke="midnightblue" points="1098.1,-105.7 1106.56,-112.08 1103.92,-101.82 1098.1,-105.7"/>
</g>
<!-- Node16&#45;&gt;Node18 -->
<g id="edge23" class="edge">
<title>Node16&#45;&gt;Node18</title>
<path fill="none" stroke="midnightblue" d="M1068.54,-109.96C1027.93,-99.76 968.46,-84.82 931.41,-75.52"/>
<polygon fill="midnightblue" stroke="midnightblue" points="1067.88,-113.4 1078.43,-112.44 1069.59,-106.61 1067.88,-113.4"/>
</g>
<!-- Node17&#45;&gt;Node12 -->
<g id="edge22" class="edge">
<title>Node17&#45;&gt;Node12</title>
<path fill="none" stroke="midnightblue" d="M1076.5,-45.8C1076.5,-36.91 1076.5,-26.78 1076.5,-19.75"/>
<polygon fill="midnightblue" stroke="midnightblue" points="1073,-46.08 1076.5,-56.08 1080,-46.08 1073,-46.08"/>
</g>
<!-- Node19&#45;&gt;Node14 -->
<g id="edge28" class="edge">
<title>Node19&#45;&gt;Node14</title>
<path fill="none" stroke="midnightblue" d="M451.08,-107.59C470.12,-97.61 495.56,-84.27 511.99,-75.65"/>
<polygon fill="midnightblue" stroke="midnightblue" points="449.28,-104.58 442.05,-112.32 452.53,-110.78 449.28,-104.58"/>
</g>
<!-- Node20 -->
<g id="node20" class="node">
<title>Node20</title>
<g id="a_node20"><a xlink:href="turbine__utils_8cpp.html" target="_top" xlink:title=" ">
<polygon fill="white" stroke="black" points="358.5,-56.5 358.5,-75.5 456.5,-75.5 456.5,-56.5 358.5,-56.5"/>
<text text-anchor="middle" x="407.5" y="-63.5" font-family="Helvetica,sans-Serif" font-size="10.00">turbine_utils.cpp</text>
</a>
</g>
</g>
<!-- Node19&#45;&gt;Node20 -->
<g id="edge29" class="edge">
<title>Node19&#45;&gt;Node20</title>
<path fill="none" stroke="midnightblue" d="M419.3,-102.4C416.29,-93.36 412.81,-82.94 410.42,-75.75"/>
<polygon fill="midnightblue" stroke="midnightblue" points="416.04,-103.7 422.53,-112.08 422.69,-101.49 416.04,-103.7"/>
</g>
<!-- Node22 -->
<g id="node22" class="node">
<title>Node22</title>
<g id="a_node22"><a xlink:href="_synthetic_turbulence_8cpp.html" target="_top" xlink:title=" ">
<polygon fill="white" stroke="black" points="418,-224.5 418,-243.5 553,-243.5 553,-224.5 418,-224.5"/>
<text text-anchor="middle" x="485.5" y="-231.5" font-family="Helvetica,sans-Serif" font-size="10.00">SyntheticTurbulence.cpp</text>
</a>
</g>
</g>
<!-- Node21&#45;&gt;Node22 -->
<g id="edge33" class="edge">
<title>Node21&#45;&gt;Node22</title>
<path fill="none" stroke="midnightblue" d="M492,-270.1C490.34,-261.14 488.44,-250.86 487.12,-243.75"/>
<polygon fill="midnightblue" stroke="midnightblue" points="488.59,-270.89 493.85,-280.08 495.47,-269.61 488.59,-270.89"/>
</g>
<!-- Node24 -->
<g id="node24" class="node">
<title>Node24</title>
<g id="a_node24"><a xlink:href="_box_refiner_8cpp.html" target="_top" xlink:title=" ">
<polygon fill="white" stroke="black" points="0,-224.5 0,-243.5 89,-243.5 89,-224.5 0,-224.5"/>
<text text-anchor="middle" x="44.5" y="-231.5" font-family="Helvetica,sans-Serif" font-size="10.00">BoxRefiner.cpp</text>
</a>
</g>
</g>
<!-- Node23&#45;&gt;Node24 -->
<g id="edge35" class="edge">
<title>Node23&#45;&gt;Node24</title>
<path fill="none" stroke="midnightblue" d="M54.33,-270.4C51.82,-261.36 48.93,-250.94 46.93,-243.75"/>
<polygon fill="midnightblue" stroke="midnightblue" points="50.97,-271.38 57.02,-280.08 57.72,-269.51 50.97,-271.38"/>
</g>
<!-- Node26 -->
<g id="node26" class="node">
<title>Node26</title>
<g id="a_node26"><a xlink:href="_cylinder_refiner_8cpp.html" target="_top" xlink:title=" ">
<polygon fill="white" stroke="black" points="107,-224.5 107,-243.5 218,-243.5 218,-224.5 107,-224.5"/>
<text text-anchor="middle" x="162.5" y="-231.5" font-family="Helvetica,sans-Serif" font-size="10.00">CylinderRefiner.cpp</text>
</a>
</g>
</g>
<!-- Node25&#45;&gt;Node26 -->
<g id="edge37" class="edge">
<title>Node25&#45;&gt;Node26</title>
<path fill="none" stroke="midnightblue" d="M186.2,-271.57C180.18,-262.27 173.03,-251.25 168.17,-243.75"/>
<polygon fill="midnightblue" stroke="midnightblue" points="183.34,-273.6 191.72,-280.08 189.22,-269.79 183.34,-273.6"/>
</g>
<!-- Node27&#45;&gt;Node6 -->
<g id="edge40" class="edge">
<title>Node27&#45;&gt;Node6</title>
<path fill="none" stroke="midnightblue" d="M1021.05,-221.04C992.64,-210.88 952.56,-196.55 927.31,-187.52"/>
<polygon fill="midnightblue" stroke="midnightblue" points="1019.98,-224.37 1030.57,-224.44 1022.34,-217.78 1019.98,-224.37"/>
</g>
<!-- Node27&#45;&gt;Node7 -->
<g id="edge39" class="edge">
<title>Node27&#45;&gt;Node7</title>
<path fill="none" stroke="midnightblue" d="M1047.46,-215C1038.08,-191 1021.85,-149.47 1014.86,-131.59"/>
<polygon fill="midnightblue" stroke="midnightblue" points="1044.23,-216.33 1051.13,-224.37 1050.74,-213.78 1044.23,-216.33"/>
</g>
<!-- Node27&#45;&gt;Node8 -->
<g id="edge41" class="edge">
<title>Node27&#45;&gt;Node8</title>
<path fill="none" stroke="midnightblue" d="M994.35,-230.01C951.35,-225.54 893.54,-214.59 849.5,-188 801.05,-158.74 764.53,-98.22 752.11,-75.7"/>
<polygon fill="midnightblue" stroke="midnightblue" points="994.11,-233.5 1004.4,-230.97 994.77,-226.53 994.11,-233.5"/>
</g>
<!-- Node27&#45;&gt;Node16 -->
<g id="edge64" class="edge">
<title>Node27&#45;&gt;Node16</title>
<path fill="none" stroke="midnightblue" d="M1063.97,-215.32C1068.4,-207.03 1073.74,-197.02 1078.5,-188 1089.09,-167.96 1101.39,-144.36 1107.9,-131.84"/>
<polygon fill="midnightblue" stroke="midnightblue" points="1060.75,-213.92 1059.12,-224.38 1066.93,-217.22 1060.75,-213.92"/>
</g>
<!-- Node28 -->
<g id="node28" class="node">
<title>Node28</title>
<g id="a_node28"><a xlink:href="turbine__types_8_h.html" target="_top" xlink:title=" ">
<polygon fill="white" stroke="black" points="475.5,-168.5 475.5,-187.5 569.5,-187.5 569.5,-168.5 475.5,-168.5"/>
<text text-anchor="middle" x="522.5" y="-175.5" font-family="Helvetica,sans-Serif" font-size="10.00">turbine_types.H</text>
</a>
</g>
</g>
<!-- Node27&#45;&gt;Node28 -->
<g id="edge42" class="edge">
<title>Node27&#45;&gt;Node28</title>
<path fill="none" stroke="midnightblue" d="M994.48,-226.91C887.63,-216.06 666.61,-193.63 569.73,-183.79"/>
<polygon fill="midnightblue" stroke="midnightblue" points="994.15,-230.39 1004.45,-227.92 994.86,-223.43 994.15,-230.39"/>
</g>
<!-- Node30 -->
<g id="node30" class="node">
<title>Node30</title>
<g id="a_node30"><a xlink:href="actuator__utils_8cpp.html" target="_top" xlink:title=" ">
<polygon fill="white" stroke="black" points="1243.5,-168.5 1243.5,-187.5 1347.5,-187.5 1347.5,-168.5 1243.5,-168.5"/>
<text text-anchor="middle" x="1295.5" y="-175.5" font-family="Helvetica,sans-Serif" font-size="10.00">actuator_utils.cpp</text>
</a>
</g>
</g>
<!-- Node27&#45;&gt;Node30 -->
<g id="edge48" class="edge">
<title>Node27&#45;&gt;Node30</title>
<path fill="none" stroke="midnightblue" d="M1102.62,-222.22C1148.16,-212.01 1215.61,-196.9 1257.49,-187.52"/>
<polygon fill="midnightblue" stroke="midnightblue" points="1101.68,-218.84 1092.69,-224.44 1103.21,-225.67 1101.68,-218.84"/>
</g>
<!-- Node31 -->
<g id="node31" class="node">
<title>Node31</title>
<g id="a_node31"><a xlink:href="_airfoil_table_8_h.html" target="_top" xlink:title=" ">
<polygon fill="white" stroke="black" points="1143.5,-168.5 1143.5,-187.5 1225.5,-187.5 1225.5,-168.5 1143.5,-168.5"/>
<text text-anchor="middle" x="1184.5" y="-175.5" font-family="Helvetica,sans-Serif" font-size="10.00">AirfoilTable.H</text>
</a>
</g>
</g>
<!-- Node27&#45;&gt;Node31 -->
<g id="edge49" class="edge">
<title>Node27&#45;&gt;Node31</title>
<path fill="none" stroke="midnightblue" d="M1084.59,-220.5C1108.96,-210.38 1142.64,-196.39 1164,-187.52"/>
<polygon fill="midnightblue" stroke="midnightblue" points="1082.99,-217.38 1075.1,-224.44 1085.68,-223.84 1082.99,-217.38"/>
</g>
<!-- Node27&#45;&gt;Node36 -->
<g id="edge60" class="edge">
<title>Node27&#45;&gt;Node36</title>
<path fill="none" stroke="midnightblue" d="M1114.97,-224.2C1175.96,-215.27 1272.81,-200.96 1356.5,-188 1359.52,-187.53 1362.62,-187.05 1365.76,-186.55"/>
<polygon fill="midnightblue" stroke="midnightblue" points="1114.14,-220.78 1104.76,-225.69 1115.16,-227.71 1114.14,-220.78"/>
</g>
<!-- Node28&#45;&gt;Node13 -->
<g id="edge43" class="edge">
<title>Node28&#45;&gt;Node13</title>
<path fill="none" stroke="midnightblue" d="M555.72,-165.04C583.95,-154.88 623.76,-140.55 648.84,-131.52"/>
<polygon fill="midnightblue" stroke="midnightblue" points="554.49,-161.76 546.27,-168.44 556.86,-168.35 554.49,-161.76"/>
</g>
<!-- Node28&#45;&gt;Node19 -->
<g id="edge47" class="edge">
<title>Node28&#45;&gt;Node19</title>
<path fill="none" stroke="midnightblue" d="M498.16,-163.45C480.26,-153.48 456.45,-140.23 441.05,-131.65"/>
<polygon fill="midnightblue" stroke="midnightblue" points="496.48,-166.52 506.92,-168.32 499.88,-160.4 496.48,-166.52"/>
</g>
<!-- Node29 -->
<g id="node29" class="node">
<title>Node29</title>
<g id="a_node29"><a xlink:href="_turbine_fast_8_h.html" target="_top" xlink:title=" ">
<polygon fill="white" stroke="black" points="487.5,-112.5 487.5,-131.5 569.5,-131.5 569.5,-112.5 487.5,-112.5"/>
<text text-anchor="middle" x="528.5" y="-119.5" font-family="Helvetica,sans-Serif" font-size="10.00">TurbineFast.H</text>
</a>
</g>
</g>
<!-- Node28&#45;&gt;Node29 -->
<g id="edge44" class="edge">
<title>Node28&#45;&gt;Node29</title>
<path fill="none" stroke="midnightblue" d="M524.6,-158.1C525.6,-149.14 526.74,-138.86 527.53,-131.75"/>
<polygon fill="midnightblue" stroke="midnightblue" points="521.12,-157.76 523.49,-168.08 528.07,-158.53 521.12,-157.76"/>
</g>
<!-- Node29&#45;&gt;Node10 -->
<g id="edge46" class="edge">
<title>Node29&#45;&gt;Node10</title>
<path fill="none" stroke="midnightblue" d="M555.33,-107.35C567.95,-99.7 582.23,-89.05 591.5,-76 603.89,-58.55 608.27,-33.06 609.76,-19.78"/>
<polygon fill="midnightblue" stroke="midnightblue" points="553.47,-104.39 546.53,-112.39 556.95,-110.46 553.47,-104.39"/>
</g>
<!-- Node29&#45;&gt;Node14 -->
<g id="edge45" class="edge">
<title>Node29&#45;&gt;Node14</title>
<path fill="none" stroke="midnightblue" d="M528.5,-101.8C528.5,-92.91 528.5,-82.78 528.5,-75.75"/>
<polygon fill="midnightblue" stroke="midnightblue" points="525,-102.08 528.5,-112.08 532,-102.08 525,-102.08"/>
</g>
<!-- Node31&#45;&gt;Node16 -->
<g id="edge56" class="edge">
<title>Node31&#45;&gt;Node16</title>
<path fill="none" stroke="midnightblue" d="M1164.63,-162.1C1151.68,-152.38 1135.2,-140.03 1124.28,-131.83"/>
<polygon fill="midnightblue" stroke="midnightblue" points="1162.83,-165.12 1172.93,-168.32 1167.03,-159.52 1162.83,-165.12"/>
</g>
<!-- Node32 -->
<g id="node32" class="node">
<title>Node32</title>
<g id="a_node32"><a xlink:href="_airfoil_table_8cpp.html" target="_top" xlink:title=" ">
<polygon fill="white" stroke="black" points="1270.5,-112.5 1270.5,-131.5 1362.5,-131.5 1362.5,-112.5 1270.5,-112.5"/>
<text text-anchor="middle" x="1316.5" y="-119.5" font-family="Helvetica,sans-Serif" font-size="10.00">AirfoilTable.cpp</text>
</a>
</g>
</g>
<!-- Node31&#45;&gt;Node32 -->
<g id="edge50" class="edge">
<title>Node31&#45;&gt;Node32</title>
<path fill="none" stroke="midnightblue" d="M1214.72,-164.64C1239.49,-154.5 1273.9,-140.43 1295.68,-131.52"/>
<polygon fill="midnightblue" stroke="midnightblue" points="1213.35,-161.42 1205.42,-168.44 1216,-167.9 1213.35,-161.42"/>
</g>
<!-- Node33 -->
<g id="node33" class="node">
<title>Node33</title>
<g id="a_node33"><a xlink:href="_airfoil_table_i_8_h.html" target="_top" xlink:title=" ">
<polygon fill="white" stroke="black" points="1167,-112.5 1167,-131.5 1252,-131.5 1252,-112.5 1167,-112.5"/>
<text text-anchor="middle" x="1209.5" y="-119.5" font-family="Helvetica,sans-Serif" font-size="10.00">AirfoilTableI.H</text>
</a>
</g>
</g>
<!-- Node31&#45;&gt;Node33 -->
<g id="edge51" class="edge">
<title>Node31&#45;&gt;Node33</title>
<path fill="none" stroke="midnightblue" d="M1186.66,-158.4C1190.18,-149.36 1195.45,-138.94 1200.32,-131.75"/>
<polygon fill="midnightblue" stroke="midnightblue" points="1183.28,-157.49 1183.46,-168.08 1189.92,-159.69 1183.28,-157.49"/>
</g>
<!-- Node34 -->
<g id="node34" class="node">
<title>Node34</title>
<g id="a_node34"><a xlink:href="_fixed_wing_8_h.html" target="_top" xlink:title=" ">
<polygon fill="white" stroke="black" points="1470,-112.5 1470,-131.5 1547,-131.5 1547,-112.5 1470,-112.5"/>
<text text-anchor="middle" x="1508.5" y="-119.5" font-family="Helvetica,sans-Serif" font-size="10.00">FixedWing.H</text>
</a>
</g>
</g>
<!-- Node31&#45;&gt;Node34 -->
<g id="edge53" class="edge">
<title>Node31&#45;&gt;Node34</title>
<path fill="none" stroke="midnightblue" d="M1235.72,-167.82C1336.89,-150.85 1364.02,-149.06 1461.5,-132 1464.2,-131.53 1466.99,-131.03 1469.79,-130.51"/>
<polygon fill="midnightblue" stroke="midnightblue" points="1234.97,-164.4 1225.69,-169.52 1236.13,-171.3 1234.97,-164.4"/>
</g>
<!-- Node35 -->
<g id="node35" class="node">
<title>Node35</title>
<g id="a_node35"><a xlink:href="_flat_plate_8_h.html" target="_top" xlink:title=" ">
<polygon fill="white" stroke="black" points="1381,-112.5 1381,-131.5 1452,-131.5 1452,-112.5 1381,-112.5"/>
<text text-anchor="middle" x="1416.5" y="-119.5" font-family="Helvetica,sans-Serif" font-size="10.00">FlatPlate.H</text>
</a>
</g>
</g>
<!-- Node31&#45;&gt;Node35 -->
<g id="edge57" class="edge">
<title>Node31&#45;&gt;Node35</title>
<path fill="none" stroke="midnightblue" d="M1231.16,-166.14C1275.27,-155.87 1340.52,-140.69 1380.67,-131.34"/>
<polygon fill="midnightblue" stroke="midnightblue" points="1230.21,-162.77 1221.26,-168.44 1231.79,-169.59 1230.21,-162.77"/>
</g>
<!-- Node33&#45;&gt;Node31 -->
<g id="edge52" class="edge">
<title>Node33&#45;&gt;Node31</title>
<path fill="none" stroke="midnightblue" d="M1207.42,-141.4C1203.93,-150.41 1198.67,-160.85 1193.79,-168.08"/>
<polygon fill="midnightblue" stroke="midnightblue" points="1210.79,-142.34 1210.58,-131.75 1204.14,-140.16 1210.79,-142.34"/>
</g>
<!-- Node34&#45;&gt;Node11 -->
<g id="edge55" class="edge">
<title>Node34&#45;&gt;Node11</title>
<path fill="none" stroke="midnightblue" d="M1477.24,-108.59C1420.49,-86.05 1301.89,-38.95 1253.13,-19.59"/>
<polygon fill="midnightblue" stroke="midnightblue" points="1476.18,-111.93 1486.76,-112.37 1478.76,-105.42 1476.18,-111.93"/>
</g>
<!-- Node34&#45;&gt;Node15 -->
<g id="edge54" class="edge">
<title>Node34&#45;&gt;Node15</title>
<path fill="none" stroke="midnightblue" d="M1459.96,-111.54C1407.73,-101.36 1325.42,-85.31 1275.16,-75.51"/>
<polygon fill="midnightblue" stroke="midnightblue" points="1459.5,-115.01 1469.98,-113.49 1460.84,-108.14 1459.5,-115.01"/>
</g>
<!-- Node35&#45;&gt;Node12 -->
<g id="edge59" class="edge">
<title>Node35&#45;&gt;Node12</title>
<path fill="none" stroke="midnightblue" d="M1370.63,-111.93C1281.21,-96.16 1252.8,-108.74 1172.5,-76 1137.65,-61.79 1102.49,-33.66 1086.07,-19.52"/>
<polygon fill="midnightblue" stroke="midnightblue" points="1370.18,-115.41 1380.65,-113.77 1371.45,-108.52 1370.18,-115.41"/>
</g>
<!-- Node35&#45;&gt;Node17 -->
<g id="edge58" class="edge">
<title>Node35&#45;&gt;Node17</title>
<path fill="none" stroke="midnightblue" d="M1370.52,-111.91C1310.49,-101.65 1191.18,-83.88 1124.27,-74.01"/>
<polygon fill="midnightblue" stroke="midnightblue" points="1370.21,-115.41 1380.67,-113.68 1371.41,-108.52 1370.21,-115.41"/>
</g>
<!-- Node36&#45;&gt;Node16 -->
<g id="edge62" class="edge">
<title>Node36&#45;&gt;Node16</title>
<path fill="none" stroke="midnightblue" d="M1355.7,-167.24C1304.19,-158.31 1226.19,-144.62 1158.5,-132 1155.46,-131.43 1152.31,-130.84 1149.15,-130.23"/>
<polygon fill="midnightblue" stroke="midnightblue" points="1355.19,-170.7 1365.64,-168.96 1356.38,-163.8 1355.19,-170.7"/>
</g>
<!-- Node36&#45;&gt;Node34 -->
<g id="edge61" class="edge">
<title>Node36&#45;&gt;Node34</title>
<path fill="none" stroke="midnightblue" d="M1437.07,-163.18C1454.74,-153.24 1478.01,-140.15 1493.11,-131.65"/>
<polygon fill="midnightblue" stroke="midnightblue" points="1434.92,-160.37 1427.92,-168.32 1438.36,-166.47 1434.92,-160.37"/>
</g>
<!-- Node36&#45;&gt;Node35 -->
<g id="edge63" class="edge">
<title>Node36&#45;&gt;Node35</title>
<path fill="none" stroke="midnightblue" d="M1413.9,-158.1C1414.56,-149.14 1415.33,-138.86 1415.85,-131.75"/>
<polygon fill="midnightblue" stroke="midnightblue" points="1410.41,-157.85 1413.16,-168.08 1417.39,-158.37 1410.41,-157.85"/>
</g>
<!-- Node37&#45;&gt;Node9 -->
<g id="edge66" class="edge">
<title>Node37&#45;&gt;Node9</title>
<path fill="none" stroke="midnightblue" d="M306.49,-275.98C292.15,-268.53 276.01,-257.88 265.5,-244 247.33,-220.01 246.5,-209.1 246.5,-179 246.5,-179 246.5,-179 246.5,-121 246.5,-77.27 286.13,-36.65 305.32,-19.54"/>
<polygon fill="midnightblue" stroke="midnightblue" points="305.05,-279.17 315.57,-280.41 308.12,-272.88 305.05,-279.17"/>
</g>
<!-- Node38 -->
<g id="node38" class="node">
<title>Node38</title>
<g id="a_node38"><a xlink:href="_actuator_container_8cpp.html" target="_top" xlink:title=" ">
<polygon fill="white" stroke="black" points="275,-224.5 275,-243.5 400,-243.5 400,-224.5 275,-224.5"/>
<text text-anchor="middle" x="337.5" y="-231.5" font-family="Helvetica,sans-Serif" font-size="10.00">ActuatorContainer.cpp</text>
</a>
</g>
</g>
<!-- Node37&#45;&gt;Node38 -->
<g id="edge67" class="edge">
<title>Node37&#45;&gt;Node38</title>
<path fill="none" stroke="midnightblue" d="M337.5,-269.8C337.5,-260.91 337.5,-250.78 337.5,-243.75"/>
<polygon fill="midnightblue" stroke="midnightblue" points="334,-270.08 337.5,-280.08 341,-270.08 334,-270.08"/>
</g>
<!-- Node39&#45;&gt;Node2 -->
<g id="edge70" class="edge">
<title>Node39&#45;&gt;Node2</title>
<path fill="none" stroke="midnightblue" d="M740.23,-417.07C723.68,-426.97 700.15,-439.9 683.2,-448.32"/>
<polygon fill="midnightblue" stroke="midnightblue" points="742.37,-419.87 749.06,-411.65 738.71,-413.9 742.37,-419.87"/>
</g>
<!-- Node40&#45;&gt;Node3 -->
<g id="edge72" class="edge">
<title>Node40&#45;&gt;Node3</title>
<path fill="none" stroke="midnightblue" d="M494.82,-387.18C512.3,-377.24 535.33,-364.15 550.27,-355.65"/>
<polygon fill="midnightblue" stroke="midnightblue" points="492.73,-384.34 485.76,-392.32 496.19,-390.43 492.73,-384.34"/>
</g>
<!-- Node41 -->
<g id="node41" class="node">
<title>Node41</title>
<g id="a_node41"><a xlink:href="tensor_i_8_h.html" target="_top" xlink:title=" ">
<polygon fill="white" stroke="black" points="440,-336.5 440,-355.5 501,-355.5 501,-336.5 440,-336.5"/>
<text text-anchor="middle" x="470.5" y="-343.5" font-family="Helvetica,sans-Serif" font-size="10.00">tensorI.H</text>
</a>
</g>
</g>
<!-- Node40&#45;&gt;Node41 -->
<g id="edge73" class="edge">
<title>Node40&#45;&gt;Node41</title>
<path fill="none" stroke="midnightblue" d="M464.03,-382.1C463.4,-373.14 463.84,-362.86 465.37,-355.75"/>
<polygon fill="midnightblue" stroke="midnightblue" points="460.57,-382.62 465.33,-392.08 467.51,-381.71 460.57,-382.62"/>
</g>
<!-- Node41&#45;&gt;Node40 -->
<g id="edge74" class="edge">
<title>Node41&#45;&gt;Node40</title>
<path fill="none" stroke="midnightblue" d="M476.96,-365.69C477.61,-374.64 477.18,-384.93 475.67,-392.08"/>
<polygon fill="midnightblue" stroke="midnightblue" points="480.42,-365.2 475.63,-355.75 473.48,-366.13 480.42,-365.2"/>
</g>
<!-- Node43&#45;&gt;Node7 -->
<g id="edge79" class="edge">
<title>Node43&#45;&gt;Node7</title>
<path fill="none" stroke="midnightblue" d="M834.68,-278.56C861.25,-271.77 892.24,-260.92 916.5,-244 961.4,-212.67 995.31,-153.93 1007.04,-131.76"/>
<polygon fill="midnightblue" stroke="midnightblue" points="833.63,-275.21 824.74,-280.96 835.28,-282.01 833.63,-275.21"/>
</g>
<!-- Node43&#45;&gt;Node13 -->
<g id="edge80" class="edge">
<title>Node43&#45;&gt;Node13</title>
<path fill="none" stroke="midnightblue" d="M766.31,-271.31C743.93,-235.92 694.36,-157.56 677.92,-131.57"/>
<polygon fill="midnightblue" stroke="midnightblue" points="763.55,-273.49 771.85,-280.08 769.47,-269.75 763.55,-273.49"/>
</g>
<!-- Node43&#45;&gt;Node14 -->
<g id="edge82" class="edge">
<title>Node43&#45;&gt;Node14</title>
<path fill="none" stroke="midnightblue" d="M722.13,-278.28C686.73,-270.61 640.18,-259 600.5,-244 582.28,-237.11 579.55,-231.34 561.5,-224 511.1,-203.51 492.76,-213.11 444.5,-188 408.54,-169.29 390.31,-168.42 372.5,-132 368.59,-124.01 367.16,-119.1 372.5,-112 384.96,-95.44 434.54,-83.06 474.51,-75.52"/>
<polygon fill="midnightblue" stroke="midnightblue" points="721.76,-281.78 732.27,-280.44 723.22,-274.93 721.76,-281.78"/>
</g>
<!-- Node43&#45;&gt;Node30 -->
<g id="edge81" class="edge">
<title>Node43&#45;&gt;Node30</title>
<path fill="none" stroke="midnightblue" d="M834.54,-285.03C901.92,-279.5 1017.07,-267.4 1113.5,-244 1174.31,-229.24 1243.11,-201.49 1275.99,-187.51"/>
<polygon fill="midnightblue" stroke="midnightblue" points="834.23,-281.54 824.54,-285.83 834.79,-288.52 834.23,-281.54"/>
</g>
<!-- Node44 -->
<g id="node44" class="node">
<title>Node44</title>
<g id="a_node44"><a xlink:href="actuator__ops_i_8_h.html" target="_top" xlink:title=" ">
<polygon fill="white" stroke="black" points="814,-224.5 814,-243.5 907,-243.5 907,-224.5 814,-224.5"/>
<text text-anchor="middle" x="860.5" y="-231.5" font-family="Helvetica,sans-Serif" font-size="10.00">actuator_opsI.H</text>
</a>
</g>
</g>
<!-- Node43&#45;&gt;Node44 -->
<g id="edge77" class="edge">
<title>Node43&#45;&gt;Node44</title>
<path fill="none" stroke="midnightblue" d="M799.6,-274.62C814.76,-264.76 834.38,-251.99 847.2,-243.65"/>
<polygon fill="midnightblue" stroke="midnightblue" points="797.31,-271.94 790.84,-280.32 801.13,-277.8 797.31,-271.94"/>
</g>
<!-- Node44&#45;&gt;Node6 -->
<g id="edge78" class="edge">
<title>Node44&#45;&gt;Node6</title>
<path fill="none" stroke="midnightblue" d="M873.92,-216.14C881.41,-206.74 890.44,-195.4 896.53,-187.75"/>
<polygon fill="midnightblue" stroke="midnightblue" points="871.09,-214.08 867.6,-224.08 876.57,-218.44 871.09,-214.08"/>
</g>
</g>
</svg>
